<?xml version="1.0" encoding="utf-8"?>
<!-- Generator: Adobe Illustrator 24.3.0, SVG Export Plug-In . SVG Version: 6.00 Build 0)  -->
<svg version="1.1" xmlns="http://www.w3.org/2000/svg" xmlns:xlink="http://www.w3.org/1999/xlink" x="0px" y="0px"
	 viewBox="0 0 130.39 130.39" style="enable-background:new 0 0 130.39 130.39;" xml:space="preserve">
<style type="text/css">
	.st0{fill:url(#SVGID_1_);}
	.st1{fill:url(#SVGID_2_);}
	.st2{fill:none;stroke:#000000;stroke-width:1.7008;stroke-linecap:round;stroke-linejoin:round;stroke-miterlimit:10;}
	.st3{fill:none;stroke:#000000;stroke-width:1.7008;stroke-miterlimit:10;}
	.st4{fill:none;stroke:#FFFFFF;stroke-width:1.7008;stroke-linecap:round;stroke-miterlimit:10;}
	.st5{fill:none;stroke:#000000;stroke-width:1.7008;stroke-linecap:round;stroke-miterlimit:10;}
</style>
<g id="Ebene_2">
	
		<radialGradient id="SVGID_1_" cx="65.0806" cy="-287.5216" r="62.79" gradientTransform="matrix(1 0 0 -1 0 -222.4409)" gradientUnits="userSpaceOnUse">
		<stop  offset="0" style="stop-color:#24AAE5"/>
		<stop  offset="0.2917" style="stop-color:#24AAE5;stop-opacity:0.82"/>
		<stop  offset="0.4511" style="stop-color:#24AAE5;stop-opacity:0.63"/>
		<stop  offset="0.5848" style="stop-color:#24AAE5;stop-opacity:0.43"/>
		<stop  offset="0.7054" style="stop-color:#24AAE5;stop-opacity:0.25"/>
		<stop  offset="0.8416" style="stop-color:#24AAE5;stop-opacity:0"/>
	</radialGradient>
	<circle class="st0" cx="65.08" cy="65.08" r="62.79"/>
</g>
<g id="Ebene_3">
	
		<radialGradient id="SVGID_2_" cx="93.8379" cy="-266.5706" r="62.79" gradientTransform="matrix(1 0 0 -1 0 -222.4409)" gradientUnits="userSpaceOnUse">
		<stop  offset="0.1814" style="stop-color:#FFFFFF"/>
		<stop  offset="0.524" style="stop-color:#FFFFFF;stop-opacity:0"/>
	</radialGradient>
	<circle class="st1" cx="93.84" cy="44.13" r="62.79"/>
</g>
<g id="Ebene_1">
	<g>
		<g>
			<g>
				<path class="st2" d="M46.47,51.58v3.63c0,0.99,0.61,1.88,1.53,2.24l7.92,2.46c2.62,0.81,2.9,2,4.15,4.33"/>
			</g>
			<path class="st2" d="M41.53,29.63c4.72,0,8.47,3.17,8.6,7.99c0.07,2.87,0.16,4.86-0.51,8.15c-0.55,2.75-2.85,7.75-8.09,7.75
				s-7.54-4.99-8.09-7.75c-0.66-3.29-0.58-5.28-0.51-8.15C33.05,32.8,36.8,29.63,41.53,29.63z"/>
			<path class="st2" d="M36.59,51.58v3.62c0,1-0.62,1.89-1.55,2.25l-8.15,2.49c-2.38,0.73-4.47,2.33-5.66,4.3L10.17,79.26
				c-1.86,2.58-2.74,6.6-0.13,9.22l10.1,9.71"/>
			<path class="st2" d="M56.58,85.22l3.2,7.51c0.92,2.22,3.08,3.66,5.48,3.66c3.17,0,6.01-3.06,6.15-6.23V67.93l2.47-7.41
				c0,0,2.39-1.75,6.45-5.38"/>
			<line class="st2" x1="16.82" y1="81.93" x2="26.65" y2="92.88"/>
			<g>
				<polyline class="st2" points="34.73,58.04 41.53,62.29 48.32,58.04 				"/>
			</g>
			<line class="st3" x1="41.53" y1="62.29" x2="41.53" y2="67.75"/>
			<line class="st2" x1="63.99" y1="70.4" x2="71.4" y2="70.4"/>
			<g>
				<path d="M23.23,100.04c-0.68,0-1.24,0.55-1.24,1.24c0,0.68,0.55,1.24,1.24,1.24s1.24-0.55,1.24-1.24
					C24.46,100.59,23.91,100.04,23.23,100.04L23.23,100.04z"/>
			</g>
			<path class="st2" d="M56.58,75.34v24.7c0,2.05-1.66,3.71-3.71,3.71h-21"/>
			<line class="st2" x1="26.93" y1="75.34" x2="26.93" y2="103.75"/>
			<path class="st2" d="M70.17,55.57H68.9c-2.71,0-4.91,2.23-4.91,4.94v4.94v16.06"/>
		</g>
	</g>
	<path class="st4" d="M97.13,98.27c-1.07-0.95-3.55-2.31-5.68-2.31c-1.42,0-3.34,0.58-4.78,1.34"/>
	<path class="st4" d="M82.1,83.17c-1.95,2.3-3.13,5.27-3.13,8.52c0,7.27,5.9,13.17,13.17,13.17s13.17-5.9,13.17-13.17
		c0-3.25-1.18-6.22-3.13-8.52"/>
	<line class="st4" x1="87.39" y1="85.55" x2="87.39" y2="90.13"/>
	<line class="st4" x1="95.41" y1="85.55" x2="95.41" y2="90.13"/>
	<path class="st4" d="M82.19,58.89c-1.95,2.3-3.13,5.27-3.13,8.52c0,7.27,5.9,13.17,13.17,13.17s13.17-5.9,13.17-13.17
		c0-3.25-1.18-6.22-3.13-8.52"/>
	<line class="st4" x1="88.13" y1="72.66" x2="96.15" y2="72.66"/>
	<line class="st4" x1="88.13" y1="61.2" x2="88.13" y2="65.78"/>
	<line class="st4" x1="96.15" y1="61.2" x2="96.15" y2="65.78"/>
	<circle class="st5" cx="91.91" cy="42.42" r="13.17"/>
	<line class="st5" x1="87.9" y1="36.12" x2="87.9" y2="40.7"/>
	<line class="st5" x1="95.92" y1="36.12" x2="95.92" y2="40.7"/>
	<path class="st5" d="M98.81,45.28c-1.14,2.69-3.82,4.58-6.95,4.58c-3.12,0-5.8-1.89-6.94-4.58"/>
</g>
</svg>
