<?xml version="1.0" encoding="utf-8"?>
<!-- Generator: Adobe Illustrator 24.3.0, SVG Export Plug-In . SVG Version: 6.00 Build 0)  -->
<svg version="1.1" xmlns="http://www.w3.org/2000/svg" xmlns:xlink="http://www.w3.org/1999/xlink" x="0px" y="0px"
	 viewBox="0 0 130.4 130.4" style="enable-background:new 0 0 130.4 130.4;" xml:space="preserve">
<style type="text/css">
	.st0{fill:url(#SVGID_1_);}
	.st1{fill:url(#SVGID_2_);}
	.st2{fill:none;stroke:#FFFFFF;stroke-width:1.7008;stroke-linecap:round;stroke-linejoin:round;stroke-miterlimit:10;}
	.st3{fill:none;stroke:#000000;stroke-width:1.7008;stroke-linejoin:round;stroke-miterlimit:10;}
	.st4{fill:none;stroke:#000000;stroke-width:1.7008;stroke-miterlimit:10;}
	.st5{fill:none;stroke:#000000;stroke-width:1.7008;stroke-linecap:round;stroke-linejoin:round;stroke-miterlimit:10;}
</style>
<g id="Ebene_2">
	
		<radialGradient id="SVGID_1_" cx="65.08" cy="-287.6312" r="62.79" gradientTransform="matrix(1 0 0 -1 0 -222.5512)" gradientUnits="userSpaceOnUse">
		<stop  offset="0" style="stop-color:#24AAE5"/>
		<stop  offset="0.2917" style="stop-color:#24AAE5;stop-opacity:0.82"/>
		<stop  offset="0.4511" style="stop-color:#24AAE5;stop-opacity:0.63"/>
		<stop  offset="0.5848" style="stop-color:#24AAE5;stop-opacity:0.43"/>
		<stop  offset="0.7054" style="stop-color:#24AAE5;stop-opacity:0.25"/>
		<stop  offset="0.8416" style="stop-color:#24AAE5;stop-opacity:0"/>
	</radialGradient>
	<circle class="st0" cx="65.1" cy="65.1" r="62.8"/>
</g>
<g id="Ebene_3">
	
		<radialGradient id="SVGID_2_" cx="65.08" cy="-287.6312" r="62.79" gradientTransform="matrix(1 0 0 -1 0 -222.5512)" gradientUnits="userSpaceOnUse">
		<stop  offset="0.1814" style="stop-color:#FFFFFF"/>
		<stop  offset="0.524" style="stop-color:#FFFFFF;stop-opacity:0"/>
	</radialGradient>
	<circle class="st1" cx="65.1" cy="65.1" r="62.8"/>
</g>
<g id="Ebene_1">
	<g id="Ebene_2_1_">
	</g>
	<g>
		<g>
			<path class="st2" d="M51.7,80.9h-2.5H51.7C51.4,80,51.2,79,51,78c-0.9-3.8-1.3-8.1-1.3-12.6"/>
			<path class="st2" d="M55.1,94.7c3.1,1.1,6.5,1.7,10,1.7c-2.9,0-5.5-1.6-7.8-4.3"/>
			<path class="st2" d="M47.1,90.6c1,0.7,2,1.4,3.1,2"/>
			<path class="st2" d="M39.8,83.3c1,1.4,2.1,2.7,3.3,3.9"/>
			<path class="st2" d="M34.2,65.5c0,4.6,1,9,2.8,12.9"/>
			<path class="st2" d="M65.1,96.4c4.7,0,9.1-1.1,13.1-2.9"/>
			<line class="st2" x1="81.6" y1="80.9" x2="78.4" y2="80.9"/>
			<line class="st2" x1="86.7" y1="80.9" x2="91.3" y2="80.9"/>
			<path class="st2" d="M82.6,90.9c4.9-3.4,8.7-8.1,11-13.6"/>
			<path class="st2" d="M54.5,42.9c2.8-5.1,6.5-8.3,10.5-8.3c-17.1,0-30.9,13.8-30.9,30.9H37"/>
			<line class="st2" x1="48.7" y1="50" x2="51.7" y2="50"/>
			<path class="st2" d="M48.7,50"/>
			<line class="st2" x1="42.6" y1="50" x2="38.8" y2="50"/>
			<path class="st2" d="M82.6,40c-0.9-0.6-1.9-1.2-2.9-1.8"/>
			<path class="st2" d="M90.2,47.5c-1.1-1.5-2.2-2.8-3.5-4.1"/>
			<path class="st2" d="M92.9,65.5h3c0-6.7-2.1-12.9-5.8-18"/>
			<line class="st2" x1="81.6" y1="65.5" x2="87.4" y2="65.5"/>
			<polyline class="st2" points="78.4,50 91.3,50 78.4,50 			"/>
			<path class="st2" d="M74.6,36.1c-3-1-6.2-1.5-9.6-1.5c2.8,0,5.4,1.5,7.6,4"/>
			<path class="st2" d="M80.3,60.7c-0.2-3.1-0.7-6-1.4-8.7"/>
			<path class="st2" d="M65.1,50H51.7c-1.3,4.5-2.1,9.8-2.1,15.4"/>
			<line class="st2" x1="65.1" y1="65.5" x2="42.6" y2="65.5"/>
			<line class="st2" x1="51.7" y1="80.9" x2="65.1" y2="80.9"/>
			<path class="st2" d="M65.1,80.9h13.4c0.9-3.3,1.6-7,1.9-10.9"/>
			<line class="st2" x1="76.1" y1="65.5" x2="65.1" y2="65.5"/>
			<path class="st2" d="M57.1,92c2.3,2.8,5,4.4,8,4.4V80.9H51.7"/>
			<path class="st2" d="M78.4,80.9H65.1v15.4c4,0,7.6-3,10.3-7.9"/>
			<path class="st2" d="M75.7,87.8"/>
			<path class="st2" d="M79,52c-0.2-0.7-0.3-1.3-0.5-2H65.1"/>
		</g>
		<g>
			<path class="st3" d="M65,80.9H52.7v4.4c0,0.8,0.1,1.6,0.6,2.3c0.5,0.8,0.8,1.7,0.8,2.7c0,2.9-2.8,5.3-5.8,4.5
				c-1.6-0.4-2.9-1.7-3.3-3.3c-0.3-1.3-0.1-2.5,0.5-3.5c0.4-0.7,0.8-1.8,0.8-2.6v-4.4H34.1V68.7h-4.4c-0.8,0-1.9,0.4-2.5,0.8
				c-0.7,0.4-1.5,0.7-2.4,0.7c-3,0-5.3-2.8-4.5-5.8c0.4-1.6,1.7-2.9,3.3-3.3c-1.6,0.4-2.9,1.7-3.3,3.3c-0.8,3.1,1.5,5.8,4.5,5.8
				c0.9,0,1.7-0.3,2.4-0.7c0.6-0.4,1.7-0.8,2.5-0.8h4.4v12.3h12.3v4.4c0,0.8-0.4,1.9-0.8,2.6c-0.6,1-0.8,2.2-0.5,3.5
				c0.4,1.6,1.7,2.9,3.3,3.3c3.1,0.8,5.8-1.5,5.8-4.5c0-1-0.3-1.9-0.8-2.7c-0.5-0.6-0.6-1.5-0.6-2.3v-4.4C52.7,80.9,65,80.9,65,80.9
				z"/>
			<polygon class="st4" points="28,23.5 28,31.3 47.5,31.3 47.5,23.5 47.5,31.3 28,31.3 			"/>
			<path id="XMLID_167_" class="st5" d="M45.7,62.1v-17c0,0,1.5,0.9,3.1,1.6c1.3,0.6,2.5,1.2,3,1.1c3.1-0.6,0.5-4.3-2-8.9
				c-1.1-2.1-5.7-5.1-5.7-5.1v-2.5H31.6c0,0,0.1,2,0,3s-3.4,9-3.4,12.8v12.1V47c0-3.8,3.3-11.8,3.4-12.8c0.1-0.9,0-3,0-3h12.5v2.5
				c0,0,4.6,3,5.7,5.1c2.5,4.6,5,8.3,2,8.9c-0.5,0.1-1.7-0.5-3-1.1c-1.5-0.8-3.1-1.6-3.1-1.6V62.1z"/>
			<path id="XMLID_177_" class="st5" d="M34,62.8V52V62.8z"/>
			<path id="XMLID_176_" class="st5" d="M39.8,65V52.9V65z"/>
		</g>
		<g>
			<polygon class="st4" points="82.6,107.5 82.6,99.7 102.1,99.7 102.1,107.5 102.1,99.7 82.6,99.7 			"/>
			<path id="XMLID_168_" class="st5" d="M101.9,71.8v12.1c0,3.8-3.3,11.8-3.4,12.8s0,3,0,3H86v-2.5c0,0-4.6-3-5.7-5.1
				c-2.5-4.6-5.1-8.3-2-8.9c0.4-0.1,1.7,0.5,3,1.1c1.5,0.8,3.1,1.6,3.1,1.6v-17v16.9c0,0-1.5-0.9-3.1-1.6c-1.3-0.6-2.6-1.2-3-1.1
				c-3.1,0.6-0.5,4.3,2,8.9c1.1,2.1,5.7,5.1,5.7,5.1v2.5h12.5c0,0-0.1-2,0-3s3.4-8.9,3.4-12.8C101.9,83.9,101.9,71.8,101.9,71.8z"/>
			<path id="XMLID_193_" class="st5" d="M96,68.2V79V68.2z"/>
			<path id="XMLID_192_" class="st5" d="M90.2,66V78V66z"/>
		</g>
		<line class="st2" x1="65.1" y1="34.6" x2="65.1" y2="50"/>
		<path class="st3" d="M56.6,50H65H56.6z"/>
		<path class="st3" d="M106.4,70c1.6-0.4,2.9-1.7,3.3-3.3c0.8-3.1-1.5-5.9-4.5-5.9c-0.9,0-1.7,0.3-2.4,0.7c-0.6,0.4-1.7,0.8-2.5,0.8
			h-4.4V50H83.6v-4.4c0-0.8,0.4-1.9,0.8-2.6c0.6-1,0.8-2.2,0.5-3.5c-0.4-1.6-1.7-2.9-3.3-3.3c-3.1-0.8-5.9,1.5-5.9,4.5
			c0,1,0.3,1.9,0.8,2.7c0.5,0.6,0.6,1.5,0.6,2.3V50H65v12.3h4.4c0.8,0,1.6-0.1,2.3-0.6c0.8-0.5,1.7-0.8,2.7-0.8
			c2.9,0,5.3,2.8,4.5,5.9c-0.4,1.6-1.7,2.9-3.3,3.3c-1.3,0.3-2.5,0.1-3.5-0.5c-0.7-0.4-1.8-0.8-2.6-0.8H65V81h8h-8V68.7h4.4
			c0.8,0,1.9,0.4,2.6,0.8c1,0.6,2.2,0.8,3.5,0.5c1.6-0.4,2.9-1.7,3.3-3.3c0.8-3.1-1.5-5.9-4.5-5.9c-1,0-1.9,0.3-2.7,0.8
			c-0.7,0.5-1.5,0.6-2.3,0.6H65V50h12.3v-4.4c0-0.8-0.1-1.6-0.6-2.3c-0.5-0.8-0.8-1.7-0.8-2.7c0-3,2.8-5.3,5.9-4.5
			c1.6,0.4,2.9,1.7,3.3,3.3c0.3,1.3,0.1,2.5-0.5,3.5c-0.4,0.7-0.8,1.8-0.8,2.6V50h12.3v12.3h4.4c0.8,0,1.9-0.4,2.5-0.8
			c0.7-0.4,1.5-0.7,2.4-0.7c2.9,0,5.3,2.8,4.5,5.9C109.3,68.3,108,69.6,106.4,70z"/>
		<g id="Ebene_2_2_">
		</g>
	</g>
</g>
</svg>
