<?xml version="1.0" encoding="utf-8"?>
<!-- Generator: Adobe Illustrator 24.3.0, SVG Export Plug-In . SVG Version: 6.00 Build 0)  -->
<svg version="1.1" xmlns="http://www.w3.org/2000/svg" xmlns:xlink="http://www.w3.org/1999/xlink" x="0px" y="0px"
	 viewBox="0 0 130.39 130.39" style="enable-background:new 0 0 130.39 130.39;" xml:space="preserve">
<style type="text/css">
	.st0{fill:url(#SVGID_1_);}
	.st1{fill:url(#SVGID_2_);}
	.st2{fill:none;stroke:#000000;stroke-width:1.7008;stroke-miterlimit:10;}
	.st3{fill:none;stroke:#000000;stroke-width:1.7008;stroke-linejoin:round;stroke-miterlimit:10;}
	.st4{fill:none;stroke:#000000;stroke-width:1.7008;stroke-linecap:round;stroke-linejoin:round;stroke-miterlimit:10;}
	.st5{fill:none;stroke:#FFFFFF;stroke-width:1.7008;stroke-linecap:round;stroke-miterlimit:10;}
	.st6{fill:none;stroke:#000000;stroke-width:1.5874;stroke-linejoin:round;stroke-miterlimit:10;}
</style>
<g id="Ebene_2">
	
		<radialGradient id="SVGID_1_" cx="65.08" cy="-287.5209" r="62.79" gradientTransform="matrix(1 0 0 -1 0 -222.4409)" gradientUnits="userSpaceOnUse">
		<stop  offset="0" style="stop-color:#24AAE5"/>
		<stop  offset="0.2917" style="stop-color:#24AAE5;stop-opacity:0.82"/>
		<stop  offset="0.4511" style="stop-color:#24AAE5;stop-opacity:0.63"/>
		<stop  offset="0.5848" style="stop-color:#24AAE5;stop-opacity:0.43"/>
		<stop  offset="0.7054" style="stop-color:#24AAE5;stop-opacity:0.25"/>
		<stop  offset="0.8416" style="stop-color:#24AAE5;stop-opacity:0"/>
	</radialGradient>
	<circle class="st0" cx="65.08" cy="65.08" r="62.79"/>
</g>
<g id="Ebene_3">
	
		<radialGradient id="SVGID_2_" cx="65.08" cy="-287.5209" r="62.79" gradientTransform="matrix(1 0 0 -1 0 -222.4409)" gradientUnits="userSpaceOnUse">
		<stop  offset="0.1814" style="stop-color:#FFFFFF"/>
		<stop  offset="0.524" style="stop-color:#FFFFFF;stop-opacity:0"/>
	</radialGradient>
	<circle class="st1" cx="65.08" cy="65.08" r="62.79"/>
</g>
<g id="Ebene_1">
	<g>
		<polygon class="st2" points="20.34,95.32 28.48,90.04 45.1,115.63 36.96,120.91 45.1,115.63 28.48,90.04 		"/>
		<path class="st2" d="M24.57,101.83l3.25-2.11L24.57,101.83z"/>
		<path class="st2" d="M31.08,93.76l3.05-2.06l5.07-4.7c5.44-6.04,15.31-6.18,20.08-1.89l0,0c0.48,0.45,2.04,0.56,3.04,0.54
			l8.26-0.11c2.91-0.07,5.29,2.3,5.24,5.21l0,0c-0.05,2.68-2.17,4.87-4.85,5.01L60.82,96.3l10.17-0.53c2.68-0.14,4.8-2.33,4.85-5.01
			l0,0c0.05-2.91-2.33-5.28-5.24-5.21l-8.26,0.11c-1,0.02-2.56-0.09-3.04-0.54l0,0c-4.77-4.29-14.64-4.15-20.08,1.89l-5.07,4.7
			L31.08,93.76z"/>
		<path class="st2" d="M42.76,111.74l6.18-4.14L69.81,107c6.57,0,7.65-1.54,14-5.13c3.48-1.97,8.28-5.05,11.67-7.19l2.02-1.3
			c1.33-0.84,2.72-1.8,3.45-2.45c-1.97-4.05-5.5-5.32-9.71-3.2c-0.98,0.49-1.99,1.01-3.03,1.35c-8.85,2.87-12.78,3.61-12.78,3.61
			s3.93-0.75,12.78-3.61c1.04-0.34,2.05-0.86,3.03-1.35c4.21-2.12,7.74-0.85,9.71,3.2c-0.73,0.66-2.12,1.61-3.45,2.45l-2.02,1.3
			c-3.38,2.14-8.18,5.22-11.67,7.19c-6.35,3.59-7.44,5.13-14,5.13l-20.87,0.61L42.76,111.74z"/>
	</g>
	<g>
		<g>
			<g>
				<path class="st3" d="M66.48,52.41c-5.95,0-10.77,4.93-10.77,11.01c0,2.88,0.85,4.92,2,6.39c1.98,2.23,3.99,3.21,4.33,7.02h8.87
					c0.34-3.82,2.35-4.8,4.34-7.02c1.34-1.64,2-3.51,2-6.39C77.26,57.33,72.43,52.41,66.48,52.41L66.48,52.41z"/>
			</g>
		</g>
	</g>
	<line class="st3" x1="66.49" y1="76.68" x2="66.49" y2="67.47"/>
	<g>
		<line class="st4" x1="66.45" y1="67.47" x2="62.68" y2="63.69"/>
		<line class="st4" x1="66.52" y1="67.47" x2="70.29" y2="63.69"/>
	</g>
	<line class="st4" x1="62.44" y1="79.65" x2="70.53" y2="79.65"/>
	<line class="st4" x1="62.44" y1="82.63" x2="70.53" y2="82.63"/>
	<line class="st4" x1="64.53" y1="85.61" x2="68.45" y2="85.61"/>
	<line class="st5" x1="66.64" y1="48.73" x2="66.64" y2="41.62"/>
	<line class="st5" x1="78.95" y1="69.97" x2="85.59" y2="73.81"/>
	<line class="st5" x1="57.52" y1="47.07" x2="59.53" y2="50.55"/>
	<line class="st5" x1="85.59" y1="62.67" x2="80.85" y2="62.67"/>
	<line class="st5" x1="75.76" y1="47.07" x2="73.75" y2="50.55"/>
	<line class="st5" x1="53.55" y1="55.76" x2="46.7" y2="51.8"/>
	<line class="st5" x1="53.54" y1="69.97" x2="46.91" y2="73.79"/>
	<g>
		<line class="st6" x1="41.72" y1="63.69" x2="53.19" y2="62.81"/>
		<line class="st6" x1="22.76" y1="77.15" x2="35.12" y2="67.01"/>
		<circle class="st6" cx="19.86" cy="79.61" r="3.81"/>
		<circle class="st6" cx="38.01" cy="64.54" r="3.81"/>
	</g>
	<g>
		<line class="st6" x1="91.87" y1="45.18" x2="100.78" y2="31.91"/>
		<circle class="st6" cx="102.85" cy="28.71" r="3.81"/>
	</g>
	<g>
		<line class="st6" x1="77.56" y1="56.49" x2="86.62" y2="50.48"/>
		<circle class="st6" cx="89.82" cy="48.42" r="3.81"/>
	</g>
</g>
</svg>
