<?xml version="1.0" encoding="utf-8"?>
<!-- Generator: Adobe Illustrator 24.3.0, SVG Export Plug-In . SVG Version: 6.00 Build 0)  -->
<svg version="1.1" xmlns="http://www.w3.org/2000/svg" xmlns:xlink="http://www.w3.org/1999/xlink" x="0px" y="0px"
	 viewBox="0 0 130.39 130.39" style="enable-background:new 0 0 130.39 130.39;" xml:space="preserve">
<style type="text/css">
	.st0{fill:url(#SVGID_1_);}
	.st1{fill:url(#SVGID_2_);}
	.st2{fill:none;stroke:#000000;stroke-width:1.7008;stroke-miterlimit:10;}
	.st3{fill:none;stroke:#000000;stroke-width:1.7008;stroke-linecap:round;stroke-miterlimit:10;}
</style>
<g id="Ebene_2">
	
		<radialGradient id="SVGID_1_" cx="65.0806" cy="-287.5216" r="62.79" gradientTransform="matrix(1 0 0 -1 0 -222.4409)" gradientUnits="userSpaceOnUse">
		<stop  offset="0" style="stop-color:#24AAE5"/>
		<stop  offset="0.2917" style="stop-color:#24AAE5;stop-opacity:0.82"/>
		<stop  offset="0.4511" style="stop-color:#24AAE5;stop-opacity:0.63"/>
		<stop  offset="0.5848" style="stop-color:#24AAE5;stop-opacity:0.43"/>
		<stop  offset="0.7054" style="stop-color:#24AAE5;stop-opacity:0.25"/>
		<stop  offset="0.8416" style="stop-color:#24AAE5;stop-opacity:0"/>
	</radialGradient>
	<circle class="st0" cx="65.08" cy="65.08" r="62.79"/>
</g>
<g id="Ebene_3">
	
		<radialGradient id="SVGID_2_" cx="65.0806" cy="-287.5216" r="62.79" gradientTransform="matrix(1 0 0 -1 0 -222.4409)" gradientUnits="userSpaceOnUse">
		<stop  offset="0.1814" style="stop-color:#FFFFFF"/>
		<stop  offset="0.524" style="stop-color:#FFFFFF;stop-opacity:0"/>
	</radialGradient>
	<circle class="st1" cx="65.08" cy="65.08" r="62.79"/>
</g>
<g id="Ebene_1">
	<g>
		<path class="st2" d="M18.8,96.23l2.8-2.8L18.8,96.23z"/>
		<polygon class="st2" points="13.19,90.62 20.2,83.61 42.25,105.66 35.24,112.67 42.25,105.66 20.2,83.61 		"/>
		<path class="st2" d="M52.53,88.89h12.83c2.58,0,4.73-2,4.91-4.57l0,0c0.2-2.79-1.97-5.19-4.77-5.27l-10.99-0.31
			c-0.96-0.03-1.97-0.75-2.45-1.25v0c-4.76-4.76-15.11-5.15-21.13,0.87l-8.02,8.02l8.02-8.02c6.03-6.03,16.38-5.63,21.13-0.87v0
			c0.48,0.49,1.49,1.22,2.45,1.25l10.99,0.31c2.8,0.08,4.97,2.47,4.77,5.27l0,0c-0.18,2.58-2.33,4.57-4.91,4.57H52.53z"/>
		<path class="st2" d="M36.18,99.66l2.44-2.44h25.81c1.99,0,3.92-0.71,5.44-1.99l6.73-5.68c3.06-2.58,5.27-4.96,8.23-7.66l6.76-6.13
			c1.16-1.06,1.02-2.92-0.28-3.8l0,0c-4.26-2.88-5.97-0.94-11.02,2.32c-5.33,3.44-12.15,6.37-12.15,6.37s6.82-2.93,12.15-6.37
			c5.05-3.26,6.76-5.2,11.02-2.32l0,0c1.3,0.88,1.44,2.74,0.28,3.8l-6.76,6.13c-2.96,2.7-5.17,5.07-8.23,7.66l-6.73,5.68
			c-1.52,1.29-3.45,1.99-5.44,1.99H38.62L36.18,99.66z"/>
	</g>
	<g>
		<g>
			<path class="st3" d="M74.97,77.4c7.38-4.03,12.39-11.85,12.39-20.85H39.88c0,7.8,3.76,14.72,9.57,19.05"/>
			<polyline class="st3" points="78.13,56.54 74.17,63.14 76.81,64.46 79.44,63.14 79.44,67.09 71.53,69.73 71.53,71.05 
				79.74,73.97 			"/>
			<polyline class="st3" points="44.05,69.99 50.43,67.09 59.66,67.09 59.66,69.73 54.39,72.37 57.03,75.01 57.03,78.81 			"/>
			<polyline class="st3" points="50.6,56.54 53.07,61.82 59.66,61.82 63.62,64.46 67.58,61.82 64.94,56.54 			"/>
			<polyline class="st3" points="64.94,78.58 64.94,75.01 68.89,73.69 72.44,78.59 			"/>
		</g>
		<g>
			<path class="st3" d="M66.26,43.36c0,0-2.64-4.53,1.88-8.9c3.26-3.16,8.67-2.97,12.45-2.39c2.61,0.4,5.76,0.19,8.08-1.9
				c-3.55,20.33-19.78,18.46-19.78,18.46l-1.65-0.22"/>
			<path class="st3" d="M60.91,46.98c0.2-1.45,0.05-3.57-1.87-5.34c-2.36-2.17-5.96-2.86-9.02-1.64c-1.76,0.7-3.19,0.88-4.87-0.56
				c2.57,13.99,14.33,11.69,14.33,11.69l0.12-0.02l0.87-0.25"/>
			<path class="st3" d="M63.62,56.54c0,0,2.64-11.87,14.51-18.46"/>
			<path class="st3" d="M53.07,44.68c0,0,7.91,3.96,10.55,11.87"/>
		</g>
	</g>
</g>
</svg>
