<?xml version="1.0" encoding="utf-8"?>
<!-- Generator: Adobe Illustrator 24.3.0, SVG Export Plug-In . SVG Version: 6.00 Build 0)  -->
<svg version="1.1" xmlns="http://www.w3.org/2000/svg" xmlns:xlink="http://www.w3.org/1999/xlink" x="0px" y="0px"
	 viewBox="0 0 130.39 130.39" style="enable-background:new 0 0 130.39 130.39;" xml:space="preserve">
<style type="text/css">
	.st0{fill:url(#SVGID_1_);}
	.st1{fill:url(#SVGID_2_);}
	.st2{fill:none;stroke:#FFFFFF;stroke-width:1.7008;stroke-miterlimit:10;}
	.st3{fill:none;stroke:#000000;stroke-width:1.7008;stroke-miterlimit:10;}
</style>
<g id="Ebene_2">
	
		<radialGradient id="SVGID_1_" cx="65.08" cy="-287.5209" r="62.79" gradientTransform="matrix(1 0 0 -1 0 -222.4409)" gradientUnits="userSpaceOnUse">
		<stop  offset="0" style="stop-color:#24AAE5"/>
		<stop  offset="0.2917" style="stop-color:#24AAE5;stop-opacity:0.82"/>
		<stop  offset="0.4511" style="stop-color:#24AAE5;stop-opacity:0.63"/>
		<stop  offset="0.5848" style="stop-color:#24AAE5;stop-opacity:0.43"/>
		<stop  offset="0.7054" style="stop-color:#24AAE5;stop-opacity:0.25"/>
		<stop  offset="0.8416" style="stop-color:#24AAE5;stop-opacity:0"/>
	</radialGradient>
	<circle class="st0" cx="65.08" cy="65.08" r="62.79"/>
</g>
<g id="Ebene_3">
	
		<radialGradient id="SVGID_2_" cx="61.8336" cy="-282.1461" r="62.79" gradientTransform="matrix(1 0 0 -1 0 -222.4409)" gradientUnits="userSpaceOnUse">
		<stop  offset="0.1814" style="stop-color:#FFFFFF"/>
		<stop  offset="0.524" style="stop-color:#FFFFFF;stop-opacity:0"/>
	</radialGradient>
	<circle class="st1" cx="61.83" cy="59.71" r="62.79"/>
</g>
<g id="Ebene_1">
	<polyline class="st2" points="74.2,72.87 74.2,94.11 86.67,94.11 	"/>
	<polyline class="st2" points="74.2,85.86 67.09,85.86 67.09,99.35 	"/>
	<polyline class="st2" points="84.43,68.5 87.56,74.53 100.12,74.53 	"/>
	<polyline class="st2" points="80.88,69.59 80.88,83.49 92.85,83.49 	"/>
	<circle class="st2" cx="104.71" cy="74.53" r="4.59"/>
	<path class="st2" d="M99.6,83.49c0,1.87-1.51,3.38-3.38,3.38c-1.87,0-3.38-1.51-3.38-3.38c0-1.87,1.51-3.38,3.38-3.38
		C98.09,80.11,99.6,81.62,99.6,83.49z"/>
	<circle class="st2" cx="90.93" cy="94.11" r="4.27"/>
	<circle class="st2" cx="67.09" cy="103.18" r="3.83"/>
	<polyline class="st2" points="58.58,80.11 58.58,85.86 51.82,92.62 51.82,97.09 	"/>
	<circle class="st2" cx="51.82" cy="102.13" r="5.04"/>
	<polyline class="st2" points="92.85,74.53 101.89,62.8 110.57,62.8 	"/>
	
		<ellipse transform="matrix(0.2298 -0.9732 0.9732 0.2298 26.9595 159.6742)" class="st2" cx="114.36" cy="62.8" rx="3.79" ry="3.79"/>
	<g>
		<path class="st3" d="M92.85,41.4c0.43-5.14-3.3-10.06-8.94-11.4c-1.69-0.4-3.37-0.42-4.96-0.15c-1.21-1.9-3.2-3.39-5.68-3.98
			c-1.47-0.35-2.93-0.34-4.28-0.03c-1.72-1.75-4.21-2.86-6.99-2.86c-2.94,0-5.57,1.24-7.29,3.17c-1.32-0.65-2.84-1.02-4.44-1.02
			c-4.45,0-8.17,2.82-9.15,6.61c-0.55-0.11-1.11-0.17-1.69-0.17c-4.16,0-7.62,2.95-8.42,6.87c-0.06,0-0.11-0.01-0.17-0.01
			c-3.07,0-5.56,2.49-5.56,5.56c0,1.31,0.46,2.52,1.22,3.47c-2.84,0.25-5.08,2.63-5.08,5.54c0,0.91,0.22,1.76,0.61,2.52
			c-1.9,2.18-3.12,5.57-3.12,9.4c0,6.58,3.62,11.91,8.08,11.91c2.06,0,3.94-1.15,5.37-3.03c1.1,1.54,2.74,2.72,4.72,3.19
			c2.15,0.51,4.31,0.11,6.06-0.96c1.32,2.76,3.83,4.92,7.04,5.68c4.45,1.05,8.89-0.9,11.24-4.53c0.45,0.18,0.91,0.33,1.4,0.45
			c5.64,1.34,11.3-2.15,12.63-7.8c0.07-0.32,0.13-0.63,0.17-0.95c0.59,0.24,4.69,1.82,8.81-0.39c2.95-1.58,4.18-4.17,4.55-5.02
			c5.24-0.23,9.68-3.87,10.84-8.79C101.09,49.32,98.17,43.61,92.85,41.4z"/>
		<path class="st3" d="M41.12,31.75c0.93,1.3,2.26,3.09,3.99,5.11c3.46,4.05,4.63,4.55,5.3,4.77c0.8,0.26,3.17,0.83,6.62-1.06"/>
		<path class="st3" d="M51.2,31.75c-0.48-0.01-2.31,0.02-3.97,1.4c-1.69,1.4-2.04,3.24-2.12,3.71"/>
		<path class="st3" d="M46.7,47.18c0.38-0.55,1.3-2,1.35-4.08c0.06-2.31-0.98-3.93-1.35-4.46"/>
		<path class="st3" d="M54.71,26.15c1.19,8.4,4.17,11.82,6.82,13.35c2.91,1.68,4.91,0.8,7.68,3.18c3.68,3.16,2.86,7.07,5.82,8.47
			c1.33,0.63,3.61,0.84,7.68-1.59"/>
		<line class="st3" x1="51.2" y1="36.83" x2="56.37" y2="32.89"/>
		<path class="st3" d="M73.18,34.3c-0.64-0.27-2.69-1.04-5.01-0.28c-2.6,0.85-4.5,3.28-4.94,6.25"/>
		<path class="st3" d="M65.24,28.91c0.45,0.29,1.99,1.35,2.64,3.44c0.78,2.48,0.49,1.27,0.28,1.66"/>
		<path class="st3" d="M70.27,54.86c0.25,0.08,1.59,0.48,2.91-0.26c1.19-0.67,1.9-2,1.85-3.44"/>
		<path class="st3" d="M75.62,68.89c-4.02-10.1-8.86-13.39-12.5-14.56c-7.47-2.39-15.05,2.57-18.27-1.32
			c-1.46-1.76-0.65-3.69-1.86-6.98c-0.2-0.55-0.46-1.13-0.79-1.76c-1.37-2.59-3.18-4.34-4.5-5.41"/>
		<path class="st3" d="M35.32,49.56c0.4-0.6,1.46-2.03,3.44-2.91c1.85-0.82,3.51-0.71,4.23-0.62"/>
		<path class="st3" d="M52,63.86c-0.31-0.44-2.01-2.93-1.32-6.09c0.39-1.82,1.4-3.02,1.92-3.57"/>
		<path class="st3" d="M44.05,61.48c0.61,0.07,1.96,0.15,3.44-0.53c2.05-0.94,2.94-2.67,3.18-3.18"/>
		<path class="st3" d="M63.91,71.28c-3.21-3.57-6-4.48-7.92-4.67c-3.37-0.34-4.58,1.48-7.7,0.7c-3.54-0.88-3.34-3.55-6.88-4.5
			c-3.65-0.98-5.38,1.46-7.94,0c-2.61-1.48-2.89-5.19-2.91-5.56c-0.05-0.85,0.05-1.61,0.23-2.29c0.64-2.34-0.22-4.82-2.25-6.15
			l-2.04-1.33"/>
		<path class="st3" d="M25.52,71.28c-0.33-0.98-1.22-4.06,0-7.68c1.31-3.89,4.19-5.83,5.03-6.35"/>
		<path class="st3" d="M39.02,72.87c-0.18-0.27-2.15-3.3-0.79-6.62c0.87-2.13,2.61-3.14,3.18-3.44"/>
		<path class="st3" d="M53.85,74.19c-1.87,0.75-4.02,0.21-5.3-1.32c-1.31-1.57-1.42-3.85-0.26-5.56"/>
		<path class="st3" d="M54.71,59.03c0.41,0.3,1.58,1.26,2.05,2.98c0.65,2.37-0.57,4.29-0.77,4.6"/>
		<path class="st3" d="M63.22,59.03c0.3,0.29,2.11,2.07,2.01,4.83c-0.12,3.52-3.24,5.32-3.4,5.41"/>
		<line class="st3" x1="70.27" y1="65.19" x2="65.24" y2="63.86"/>
		<path class="st3" d="M50.67,47.18c0.28,0.18,5.48,3.43,10.86,0.79c4.06-1.99,5.34-5.91,5.56-6.62"/>
		<path class="st3" d="M36.64,57.77c-0.05-0.71-0.04-2.11,0.79-3.44c1.27-2.03,3.9-3.08,6.69-2.67"/>
		<path class="st3" d="M88.98,63.47c3.76-5.84,3.67-8.69,2.73-10.2c-0.91-1.47-2.5-1.49-3.44-3.44c-1.25-2.61,0.71-4.41-0.26-6.09
			c-1.7-2.94-9.02,0.31-11.44-2.45c-1.16-1.33-1.41-4.3,2.38-11.43"/>
		<path class="st3" d="M82.71,42.44c0.36-1.38-0.29-3.62,1.06-4.26c2.54-1.2,0.54-4.02,0.81-5.29"/>
		<path class="st3" d="M73.05,63.47c0.33,0.1,4.12,1.12,7.28-1.46c2.93-2.4,2.92-5.92,2.91-6.35"/>
		<path class="st3" d="M34.79,44.93c-0.28-0.06-2.35-0.5-3.44-2.52c-1.01-1.86-0.44-3.67-0.34-3.97"/>
		<line class="st3" x1="22.02" y1="55.53" x2="24.9" y2="57.77"/>
		<path class="st3" d="M31.08,65.19c-0.23,0.91-0.5,2.41-0.26,4.24c0.26,2.04,1.03,3.55,1.53,4.38"/>
		<line class="st3" x1="43.13" y1="76.04" x2="42.99" y2="70.92"/>
		<line class="st3" x1="92.85" y1="41.4" x2="91.9" y2="47.47"/>
	</g>
</g>
</svg>
