<svg xmlns="http://www.w3.org/2000/svg" viewBox="0 0 201.88 70.16"><defs><style>.cls-1{fill:none;}.cls-2{fill:#1d1d1b;}</style></defs><g id="Protection_Area" data-name="Protection Area"><rect class="cls-1" width="201.88" height="70.16"/></g><g id="Logo"><path class="cls-2" d="M186.3,39.58H163.2v-.75h23.1Zm-11.56-4.39,2.17-2.08.9.89-2.34,2a5.4,5.4,0,0,0-.45.85h-1.73a3,3,0,0,1,1.45-1.65ZM167.48,21.9c-.07,0-1.8.5-1.8.5a9.06,9.06,0,0,0-1.16.54c-.35.24-.75.64-.78.85l1.54.36a7.17,7.17,0,0,1,.73-.73l.36-.17,1.27-1.3a.15.15,0,0,0-.16-.05Zm10.45,4.23a26,26,0,0,1-2.63-3.31,9.78,9.78,0,0,0,.66-4.63,10.49,10.49,0,0,0-1.08-1.61c-.22-.21-.9-1-1.23-1a.26.26,0,0,0-.17.05l.1.87c-.92.59-2.13,1.4-3.22,2.2,0,.31,0,.78,0,.95A1.61,1.61,0,0,0,171,20a14.22,14.22,0,0,1,2.1-.36l-1.3,2-1.49,1.07-1.87-.59a.28.28,0,0,0-.3.09l-1.37,1.49a.35.35,0,0,0-.12.31l0,1.68s0,.26,0,.54A2.62,2.62,0,0,0,167.1,28l.9-1.3a4.3,4.3,0,0,1-.38-.94c0-.05,0-1.44,0-1.44l.88-.64,2.32,1.63a12.37,12.37,0,0,0,1.25,1.89,20.85,20.85,0,0,0,3.38,2.41,13.82,13.82,0,0,0,.47,1.82l2.84,2.91-1.68,2.1a2.16,2.16,0,0,0-1.11,1.7h1.94l.21-1.11,2.32-2.57c.11-.15.11-.22,0-.43l-.66-2.22a4,4,0,0,0,1-2.46c0-2.06-2.24-2.58-2.95-3.17Zm3.64,3.43a8,8,0,0,0-.52-1.46s.09-.1.28,0l1.4.94c.61.9,1,4.59,1,5.91a7.78,7.78,0,0,1-1.89-1.2Z"/><path class="cls-2" d="M155.3,48.62h-.72v5.87h1.15V50.06a3.53,3.53,0,0,1,1.72-.58c.56,0,.88.2.88.93v4.08h1.15V50.14c0-1.28-.69-1.62-1.51-1.62a3.8,3.8,0,0,0-2.24.83c0-.61-.15-.73-.43-.73m-5,5.07c-1,0-1.64-.71-1.64-2.12s.65-2.18,1.64-2.18,1.64.76,1.64,2.18-.64,2.12-1.64,2.12m0,.86a2.75,2.75,0,0,0,2.81-3,2.82,2.82,0,1,0-5.62,0,2.75,2.75,0,0,0,2.81,3M145.38,48a.67.67,0,0,0,.67-.65.67.67,0,1,0-1.34,0,.67.67,0,0,0,.67.65m.56,6.53v-5c0-.74-.06-.87-.5-.87h-.64v5.87Zm-6.1-5.07h.7V53c0,1.1.59,1.51,1.59,1.51a3.57,3.57,0,0,0,.93-.11V53.7h-.53c-.58,0-.84-.18-.84-.79V49.42H143v-.8h-1.3V47h-1.15v1.6h-.7Zm-3.69,4.27c-1,0-1.64-.71-1.64-2.12s.65-2.18,1.64-2.18,1.64.76,1.64,2.18-.64,2.12-1.64,2.12m0,.86a2.74,2.74,0,0,0,2.8-3,2.81,2.81,0,1,0-5.61,0,2.75,2.75,0,0,0,2.81,3m-11.86-.06h1V48.07h0l2.23,6.42h.76l2.25-6.42h0v6.42h1.21V46.63h-1.66l-2.08,6h0l-2.08-6h-1.69Zm-8.94-5.87h-.72v5.87h1.14V50.06a3.56,3.56,0,0,1,1.72-.58c.56,0,.89.2.89.93v4.08h1.14V50.14c0-1.28-.68-1.62-1.5-1.62a3.85,3.85,0,0,0-2.25.83c0-.61-.14-.73-.42-.73M112.14,48a.67.67,0,0,0,.67-.65.68.68,0,0,0-.67-.67.69.69,0,0,0-.68.67.67.67,0,0,0,.68.65m.56,6.53v-5c0-.74-.06-.87-.51-.87h-.64v5.87Zm-7.94-5.18c.8,0,1.3.44,1.32,1.71h-2.81c.13-1.25.72-1.71,1.49-1.71m2.44,2.46s0-.25,0-.4c0-1.93-.9-2.85-2.45-2.85a2.75,2.75,0,0,0-2.69,3,2.65,2.65,0,0,0,2.8,3A3.65,3.65,0,0,0,107,54v-.8h-.38a2.46,2.46,0,0,1-1.62.54c-1.1,0-1.73-.53-1.79-1.92ZM101,49.54h.26V48.6a1.19,1.19,0,0,0-.32,0,2.24,2.24,0,0,0-1.68.86c0-.68-.15-.8-.43-.8h-.72v5.87h1.15V50.2a2.56,2.56,0,0,1,1.74-.66M93.3,53.67c-.54,0-.91-.18-.91-.93V48.62H91.24V53a1.41,1.41,0,0,0,1.61,1.57A3.79,3.79,0,0,0,95,53.83c0,.57.15.66.42.66h.72V48.62H95v4.49a3.43,3.43,0,0,1-1.66.56m-6.71-4.25h.71V53c0,1.1.59,1.51,1.59,1.51a3.63,3.63,0,0,0,.93-.11V53.7h-.53c-.58,0-.84-.18-.84-.79V49.42h1.3v-.8h-1.3V47H87.3v1.6h-.71ZM82.3,53.67c-.54,0-.91-.18-.91-.93V48.62H80.25V53a1.4,1.4,0,0,0,1.6,1.57A3.85,3.85,0,0,0,84,53.83c0,.57.14.66.41.66h.72V48.62H84v4.49a3.39,3.39,0,0,1-1.66.56m-6.62.82V51.11h2.75V50.2H75.68V47.57h3.63v-.94H74.46v7.86Zm-8.11-5.18c.81,0,1.3.44,1.32,1.71h-2.8c.12-1.25.71-1.71,1.48-1.71M70,51.77s0-.25,0-.4c0-1.93-.91-2.85-2.46-2.85a2.75,2.75,0,0,0-2.69,3,2.65,2.65,0,0,0,2.8,3,3.65,3.65,0,0,0,2.17-.6v-.8h-.37a2.51,2.51,0,0,1-1.63.54c-1.1,0-1.73-.53-1.79-1.92ZM59.65,47.39c0-.66-.08-.76-.52-.76H58.5v7.86h1.15V50.06a3.53,3.53,0,0,1,1.72-.58c.56,0,.89.2.89.93v4.08H63.4V50.14c0-1.28-.68-1.62-1.5-1.62a3.8,3.8,0,0,0-2.25.83Zm-4.74,7.1V47.55h2.26v-.92H51.43v.92h2.26v6.94Z"/><path class="cls-2" d="M121.57,28.76c0-1.42-.45-2.53-1.68-2.53s-1.73,1.11-1.73,2.53v9.33h1.45v1.49h-7.9V38.09h1.47V25.23h-1.47V23.79h6.22V26.2H118a4.48,4.48,0,0,1,4.16-2.71,4.07,4.07,0,0,1,4.18,3.28,13.74,13.74,0,0,1,.22,2.55v8.77h1.89v1.49h-6.88Zm-31.89,0c0-1.42-.45-2.53-1.68-2.53s-1.73,1.11-1.73,2.53v9.33h1.45v1.49h-7.9V38.09h1.47V25.23H79.82V23.79H86V26.2h.07a4.48,4.48,0,0,1,4.16-2.71,4.07,4.07,0,0,1,4.18,3.28,13.74,13.74,0,0,1,.22,2.55v8.77h1.89v1.49H89.68Zm45.46-3.53V36.91a.9.9,0,0,0,1,1,3,3,0,0,0,.93-.17v1.44a6.19,6.19,0,0,1-3.05.59c-2.46,0-3.9-1.2-3.9-3.76V25.23h-1.68V24.17c1.86-1.49,4-3.19,5.77-4.63h.92v4.25h2.41v1.44ZM36.6,15.59s3.81,3.81,5.56,5.77v1.49A12.16,12.16,0,0,0,34,19.68c-7.11,0-11.58,5.37-11.58,12s4.23,12,11.58,12a11.3,11.3,0,0,0,8.23-3.5v1.42c-2.22,3-6.29,5-11.35,5-9,0-15.29-6.57-15.29-14.94A15.07,15.07,0,0,1,30.88,16.77a17.13,17.13,0,0,1,5.72.95Zm72.82,19.79a4.39,4.39,0,0,1-3.48,1.46c-1.44,0-3.66-.8-3.76-4.47h8.44c0-.28,0-.85,0-1.13,0-4.45-1.82-7.75-6.57-7.75s-7.21,3.66-7.21,8.22,2.43,8.16,7.21,8.16a6.36,6.36,0,0,0,6.14-3.71Zm-7.24-4.54c0-4.16.33-5.72,1.75-5.72s1.73,1.51,1.78,5.72Zm-69.69.8c0-4.82.45-6.95,2.08-6.95s2.08,2.13,2.08,7-.45,7-2.08,7-2.08-2.13-2.08-7m-5.86.05c0,4.77,2.93,8.65,7.94,8.65s7.94-3.88,7.94-8.65S39.58,23,34.57,23s-7.94,3.87-7.94,8.65M53.7,28.76c0-1.42-.45-2.53-1.68-2.53s-1.73,1.11-1.73,2.53v9.33h1.44v1.49H43.84V38.09H45.3V25.23H43.84V23.79h6.22V26.2h.07a4.48,4.48,0,0,1,4.16-2.71,4.08,4.08,0,0,1,4.18,3.28,13.68,13.68,0,0,1,.21,2.55v8.77h1.9v1.49H53.7Zm17.88-9.15c0,1.39,1.25,2.31,3,2.31s3.05-.92,3.05-2.31-1.25-2.32-3.05-2.32-3,.92-3,2.32m-4.31,5.62V36.91a.9.9,0,0,0,1,1,2.89,2.89,0,0,0,.92-.17v1.44a6.12,6.12,0,0,1-3,.59c-2.46,0-3.91-1.2-3.91-3.76V25.23H60.58V24.17c1.86-1.49,4-3.19,5.76-4.63h.93v4.25H69.2v1.44Zm92.22,12.86h1.94v1.49H154.5V19.4h-1.73V18h6.72Zm-13.34-6.33a1.47,1.47,0,0,0-1.08-.33c-1.49,0-1.82,1.46-1.82,3s.45,2.69,1.72,2.69a1.53,1.53,0,0,0,1.18-.47Zm.22,5.93h-.07a4.7,4.7,0,0,1-4.05,2.18c-2.57,0-4.18-2.2-4.18-4.83,0-3.16,2.25-5.17,5.84-5.17a6.26,6.26,0,0,1,2.24.33v-1a2.69,2.69,0,0,0-2.9-2.94,4.56,4.56,0,0,0-3.62,1.85l-.87-1.06A7.45,7.45,0,0,1,145,23.49c3.83,0,6.1,2.26,6.1,5.72v8.88h1.61v1.49h-6.38ZM70.66,39.58V38.09H72.1V25.23H70.66V23.79h6.43v14.3h1.47v1.49Z"/></g></svg>