<svg id="Ebene_1" data-name="Ebene 1" xmlns="http://www.w3.org/2000/svg" xmlns:xlink="http://www.w3.org/1999/xlink" viewBox="0 0 201 70"><defs><style>.cls-1{fill:none;}.cls-2{fill:#059879;}.cls-3,.cls-6{fill:#fff;}.cls-4{clip-path:url(#clip-path);}.cls-5{fill:#1e1e1c;}.cls-6{opacity:0;}</style><clipPath id="clip-path"><rect class="cls-1" x="43.55" y="16.45" width="157.41" height="24.21"/></clipPath></defs><path class="cls-2" d="M0,40.29A286.64,286.64,0,0,0,32.59,20.42V17.25A283.93,283.93,0,0,1,0,35.36Z"/><path class="cls-2" d="M0,30.84a251.08,251.08,0,0,0,32.59-16V13.25A143.5,143.5,0,0,1,0,24.42Z"/><path class="cls-2" d="M32.59,40.3V24.38C25.17,30.64,17.82,36.05,11.65,40.3Z"/><path class="cls-2" d="M7.48,40.3A227.62,227.62,0,0,0,27.57,27l5-3.83v-2A275.91,275.91,0,0,1,3.07,40.3Z"/><path class="cls-2" d="M0,22.11A128.91,128.91,0,0,0,32.59,12V10.23A99.65,99.65,0,0,1,0,18.35Z"/><path class="cls-2" d="M0,7.55v9.12c.71,0,1.43-.09,2.17-.15A93,93,0,0,0,32.59,9.43V7.55Z"/><path class="cls-3" d="M0,16.67v1.68a99.65,99.65,0,0,0,32.59-8.12V9.46A92.49,92.49,0,0,1,2.17,16.55C1.43,16.58.71,16.64,0,16.67Z"/><path class="cls-3" d="M0,24.42A143.5,143.5,0,0,0,32.59,13.25V12A128.91,128.91,0,0,1,0,22.11Z"/><path class="cls-3" d="M0,35.36A283.93,283.93,0,0,0,32.59,17.25V14.82A251.08,251.08,0,0,1,0,30.84Z"/><path class="cls-3" d="M7.48,40.3h4.17c6.17-4.25,13.52-9.66,20.94-15.92V23.19Q30,25.16,27.54,27A226.73,226.73,0,0,1,7.48,40.3Z"/><path class="cls-3" d="M0,40.3H3A276.91,276.91,0,0,0,32.58,21.17v-.75A286.51,286.51,0,0,1,0,40.29Z"/><g class="cls-4"><path class="cls-5" d="M191.5,40.29h4.18V34.38c0-2.36,0-6.57,3.42-6.57a4.52,4.52,0,0,1,1.88.35V23.93a4.32,4.32,0,0,0-1.29-.13c-2.51,0-4.22,2.54-4.41,4h-.07V24.19H191.5ZM187.31,36A11,11,0,0,1,182,37.63a4.21,4.21,0,0,1-4.58-3.79,2.44,2.44,0,0,1,0-.27h11.13c0-5.64-1.69-9.74-7.66-9.74-5,0-7.48,3.85-7.48,8.51,0,5.29,3.1,8.37,8.41,8.37a11.28,11.28,0,0,0,5.55-1.29Zm-9.95-5.31c.19-2.17,1.37-3.79,3.72-3.79s3.28,1.75,3.4,3.79ZM164,40.29h4.18v-13h3.66v-3.1H168.2v-2c0-1.25.45-2.48,1.85-2.48a3.23,3.23,0,0,1,1.81.56l.34-3.47a14.28,14.28,0,0,0-3.06-.34c-3.32,0-5.12,2.25-5.12,5.47v2.27h-3.1v3.07H164Zm-16.68-8.45c0-2.36,1.32-4.78,4-4.78s4.07,2.36,4.07,4.78c0,2.69-.84,5.57-4.07,5.57s-4-2.91-4-5.57m-4.38.5a8.44,8.44,0,1,0,0-.63q0,.32,0,.63m-17.45,7.95h4.18V32.46c0-2.06.66-5.34,3.7-5.34,2.69,0,2.72,2.66,2.72,4.62v8.61h4.19V30.09c0-3.62-1.66-6.32-5.47-6.32a6,6,0,0,0-5.08,2.59h-.07V16.83H125.5Zm-19.12,0h4.19V32.46c0-2.06.65-5.34,3.69-5.34,2.7,0,2.73,2.66,2.73,4.62v8.61h4.18V30.09c0-3.62-1.65-6.32-5.47-6.32a6,6,0,0,0-5.28,2.57h-.07V24.19h-4ZM102,24.19H97.85v7.88c0,2.07-.66,5.35-3.7,5.35-2.68,0-2.72-2.66-2.72-4.63v-8.6H87.21V34.35c0,3.63,1.68,6.38,5.5,6.38A6.69,6.69,0,0,0,98,38.15h0v2.2h4ZM73.44,35.64c0-2.47,2.77-2.79,4.65-2.79h1.82A5.41,5.41,0,0,1,79,36.17a3.56,3.56,0,0,1-3,1.44c-1.5,0-2.65-.6-2.65-2m-2.13-7a8.45,8.45,0,0,1,5-1.75c2.47,0,3.63.88,3.63,3.47H77.55a12.83,12.83,0,0,0-5.41.94,4.71,4.71,0,0,0-2.65,4.58c0,3.08,2.79,4.8,5.62,4.8a5.74,5.74,0,0,0,5-2.79h0a16.94,16.94,0,0,0,.19,2.36H84c-.1-1.25-.15-2.36-.19-3.6s0-2.36,0-4v-2c0-4.73-2-6.79-7-6.79A14.24,14.24,0,0,0,71.26,25ZM58.7,40.29h4.2V34.38c0-2.36,0-6.57,3.4-6.57a4.52,4.52,0,0,1,1.88.35V23.93a4.32,4.32,0,0,0-1.29-.13c-2.49,0-4.22,2.54-4.41,4h0V24.19H58.7Zm-15.15,0h4.39V30.71h7.37V27.27H47.94V21.89H55.7V18.46H43.55Z"/></g><path class="cls-5" d="M180.69,51.36h2.11V62.29h-2.11Z"/><path class="cls-5" d="M189.2,53a2.53,2.53,0,0,0-.55,0,2.14,2.14,0,0,0-.54.23,1.19,1.19,0,0,0-.41.48,1.47,1.47,0,0,0-.17.74.84.84,0,0,0,.21.59,2,2,0,0,0,.53.41,5.77,5.77,0,0,0,.76.35l.84.36a6.52,6.52,0,0,1,.84.41,2.91,2.91,0,0,1,.74.61A2.5,2.5,0,0,1,192,58a3.38,3.38,0,0,1,.18,1.18A2.89,2.89,0,0,1,191,61.68a4.9,4.9,0,0,1-2.79.77,7.09,7.09,0,0,1-1.38-.13c-.38-.07-.83-.17-1.32-.3l.18-2a4.84,4.84,0,0,0,2.37.67,2.5,2.5,0,0,0,1.25-.34,1.17,1.17,0,0,0,.61-1.06,1.25,1.25,0,0,0-.17-.68,2,2,0,0,0-.53-.47,16.15,16.15,0,0,0-1.59-.72,5.6,5.6,0,0,1-.84-.44,4.12,4.12,0,0,1-.75-.57,2.73,2.73,0,0,1-.74-2,3,3,0,0,1,1.19-2.6,4.36,4.36,0,0,1,2.53-.74,7.72,7.72,0,0,1,2.52.39l-.2,1.81A5.15,5.15,0,0,0,189.2,53Z"/><path class="cls-5" d="M194.74,51.36H201v1.78h-4.11v2.69h3.77v1.71h-3.77v3.08H201v1.72h-6.26Z"/><rect class="cls-6" width="201" height="70"/></svg>