<svg id="Ebene_1" data-name="Ebene 1" xmlns="http://www.w3.org/2000/svg" viewBox="0 0 201 70"><defs><style>.cls-1{fill:#143d69;}</style></defs><path class="cls-1" d="M145.09,50.38l-3.53-.06a.73.73,0,0,0-.54.24,41.18,41.18,0,0,1-13.71,9.86,62.65,62.65,0,0,1-26.09,5.43h0c-12.48,0-24.17-3.31-32.89-9.28a33.6,33.6,0,0,1-9.74-9.85,21.5,21.5,0,0,1,0-23.43C62,17.77,67.7,13,75.14,9.59a62.82,62.82,0,0,1,26.08-5.43h0c12.47,0,24.17,3.32,32.88,9.28a37.17,37.17,0,0,1,6.37,5.44.71.71,0,0,0,.52.22l1.54,0,2.06,0a.7.7,0,0,0,.62-.4.69.69,0,0,0-.09-.73A44.31,44.31,0,0,0,129.07,5.81,66.86,66.86,0,0,0,101.23,0C88,0,75.44,3.54,66,10A37.38,37.38,0,0,0,55,21.1,26.1,26.1,0,0,0,50.92,35h0A26.12,26.12,0,0,0,55,48.89c3.89,6.26,10.25,11.52,18.37,15.27A66.17,66.17,0,0,0,101.22,70h0C114.5,70,127,66.46,136.5,60a39.49,39.49,0,0,0,9.14-8.5.7.7,0,0,0-.14-1,.68.68,0,0,0-.41-.14Zm-74.41,2c8,5.5,18.89,8.5,30.54,8.5s22.47-3,30.54-8.5c.46-.32.9-.63,1.34-1a.7.7,0,0,0,.12-1,.69.69,0,0,0-.53-.28c-12.11-.22-24.94-.18-31-.39-14.4-.51-24.24-1.4-34.87-2.12a.69.69,0,0,0-.74.65.71.71,0,0,0,.21.55,35.32,35.32,0,0,0,4.37,3.53Zm61.84-33.64a.71.71,0,0,0-.26-.78c-.17-.12-.35-.23-.5-.35-8.07-5.5-18.89-8.49-30.54-8.49s-22.47,3-30.54,8.5A34.7,34.7,0,0,0,67.63,20a.71.71,0,0,0-.07,1,.73.73,0,0,0,.52.24h0c7.94-.43,22.52-1.27,37.19-1.56,6.59-.14,16.4-.23,26.56-.4A.68.68,0,0,0,132.52,18.75ZM66.83,36h4.43v.11c0,.63,0,1.28.07,1.92s.08,1.27.13,1.92.12,1.3.19,1.92.12,1.08.19,1.6a.28.28,0,0,0,.27.24l.76,0,1.1,0,1.11,0,.65,0h0a.25.25,0,0,0,.2-.09A.27.27,0,0,0,76,43.5c-.16-1.4-.29-2.82-.37-4.23s-.14-3.12-.14-4.67,0-3.14.14-4.68.21-2.83.37-4.23a.27.27,0,0,0-.08-.22.27.27,0,0,0-.21-.09h-.11l-.54,0-.53,0-.58,0-.56,0-.54,0h-.08l-.68,0a.31.31,0,0,0-.27.24l-.18,1.44c-.06.59-.12,1.19-.17,1.75s-.1,1.16-.13,1.75-.07,1.16-.09,1.75v.11h-6v-.12c0-.56.06-1.14.1-1.72s.09-1.17.15-1.73.13-1.15.21-1.73c.06-.41.12-.83.19-1.25a.31.31,0,0,0-.06-.23.32.32,0,0,0-.22-.1l-.57,0-1,0-1,0-.51.15h-.18a.3.3,0,0,0-.26.23c-.25,1.36-.45,2.74-.57,4.09a43.91,43.91,0,0,0,0,8.78c.12,1.36.32,2.73.57,4.09a.29.29,0,0,0,.26.23l.7,0,1.05,0,1,0h.08l.48,0a.29.29,0,0,0,.23-.1.29.29,0,0,0,.06-.22l-.21-1.4c-.08-.61-.16-1.25-.22-1.89s-.12-1.27-.15-1.88-.07-1.26-.09-1.88V36h1.54Zm34,.31V24.89a.27.27,0,0,0-.28-.27h0l-.88,0-1.28,0-1.27,0-.64,0H96.2a.28.28,0,0,0-.27.28c0,1.49-.05,3-.07,4.61s0,3.31,0,5,0,3.36,0,5,0,3.13.07,4.62a.28.28,0,0,0,.27.27l.7,0,1.08,0,1.08,0,1.08,0,1,0,1.22,0,2.22.07,2.25.06,1.88.05h0a.28.28,0,0,0,.28-.27c0-.26,0-.51,0-.77l.05-1.16c0-.39,0-.77,0-1.16l0-.76a.27.27,0,0,0-.27-.28h-1.71l-2.1,0-1,0h-2l-1,0h-.12v-.11C100.8,38.92,100.79,37.59,100.79,36.28ZM149.73,29a49.74,49.74,0,0,0-.95-5.27.29.29,0,0,0-.28-.21l-5.1.09-5.28.1-5.14.1-4.54.1a.28.28,0,0,0-.21.1.24.24,0,0,0-.06.21c.21,1.65.38,3.31.5,5,.12,1.8.18,3.63.18,5.42s-.06,3.61-.18,5.42c-.12,1.65-.29,3.31-.5,5a.25.25,0,0,0,.06.22.28.28,0,0,0,.21.1h.35l.69,0,1.52,0,1,0h.5l1.19,0a.28.28,0,0,0,.29-.23c.07-.44.14-.9.21-1.4s.15-1.13.22-1.73.13-1.17.18-1.75.09-1.13.13-1.74v-.11h8.71v.12c-.05.58-.11,1.18-.17,1.75s-.14,1.16-.23,1.75-.18,1.17-.28,1.75c-.08.43-.16.86-.25,1.29a.24.24,0,0,0,.06.23.27.27,0,0,0,.21.11l1.13,0h1.62l1.64,0,1.33,0h0a.26.26,0,0,0,.27-.21,46.77,46.77,0,0,0,1-5.26,45.62,45.62,0,0,0,0-11.2Zm-6.14,5.38h-8.75v-.12c0-.5,0-1,0-1.51s0-1-.06-1.5-.06-1-.1-1.51-.08-1-.13-1.51v-.13h2.2l2.05,0H141l2.14,0h.11v.11c.06.5.11,1,.16,1.54s.09,1,.13,1.53.06,1,.08,1.54,0,1.05,0,1.54ZM82.65,31.55c0-.28,0-.56,0-.84l0-.84c0-.28,0-.56,0-.84v-.11h.11l2.45-.05,1.12,0,1.36,0,2.53,0,2.18,0a.27.27,0,0,0,.27-.27l0-.65c0-.35,0-.7,0-1.05v-.35l0-.7,0-.62a.26.26,0,0,0-.26-.28h0l-3.31.1L85.61,25,82,25.15l-3.15.11a.29.29,0,0,0-.27.25c-.15,1.46-.26,2.93-.35,4.37s-.13,3.15-.13,4.71.05,3.15.13,4.7.2,2.91.35,4.37a.3.3,0,0,0,.27.26l3.22.1,2.83.1.81,0,3.72.11,3.38.11h0a.27.27,0,0,0,.19-.08.29.29,0,0,0,.09-.21,5.54,5.54,0,0,0,0-.7l0-1.11,0-1.11v-.73a.27.27,0,0,0-.27-.27l-2.25,0-2.59,0-1.16,0-1.4,0h-.75l-1.75,0h-.11v-.11c0-.3,0-.6,0-.92l0-.91c0-.31,0-.61,0-.91l0-.92v-.12h8.91a.24.24,0,0,0,.2-.08.28.28,0,0,0,.08-.2V32.65a.3.3,0,0,0-.08-.2.28.28,0,0,0-.2-.08H82.64v-.12C82.64,32.11,82.65,31.83,82.65,31.55Zm43.43,9.12-1.89,0-2.28,0h-2.26l-2.23,0h-.12v-.12c.07-1.38.1-2.76.12-4.09V34.63c0-.79,0-1.57,0-2.35,0-1.36-.07-2.74-.14-4.1s-.15-2.47-.25-3.71a.27.27,0,0,0-.28-.25l-1,0h-.07l-1.32,0-1.39,0-1,0a.26.26,0,0,0-.19.09.25.25,0,0,0-.08.21c.09,1.58.15,3.2.2,4.8s.07,3.48.07,5.21,0,3.5-.07,5.22-.11,3.21-.2,4.8A.28.28,0,0,0,112,45h0l1.75,0,1.35,0,3.58.09,3.68,0,3.36.08h0A.29.29,0,0,0,126,45c0-.28.07-.56.1-.84s.09-.8.13-1.21.08-.8.11-1.2l.07-.78a.28.28,0,0,0-.08-.21.3.3,0,0,0-.21-.08Z"/></svg>