<svg xmlns="http://www.w3.org/2000/svg" xmlns:xlink="http://www.w3.org/1999/xlink" viewBox="0 0 130.62 34.32"><defs><style>.cls-1{fill:none;}.cls-2{clip-path:url(#clip-path);}.cls-3{fill:#7bbb58;}.cls-4{fill:#0069a9;}.cls-5{fill:#706f6f;}</style><clipPath id="clip-path" transform="translate(0 0)"><rect class="cls-1" width="130.62" height="34.32"/></clipPath></defs><g id="Ebene_2" data-name="Ebene 2"><g id="Micrometal"><g class="cls-2"><path class="cls-3" d="M16.39,20h0" transform="translate(0 0)"/><path class="cls-3" d="M16.39,20h0" transform="translate(0 0)"/><path class="cls-3" d="M16.33,20l.06,0-.06,0" transform="translate(0 0)"/><path class="cls-3" d="M16.4,20h0l.25,0h0l-.26,0" transform="translate(0 0)"/><path class="cls-3" d="M15.87,19.61l0,0h.27l0,0Z" transform="translate(0 0)"/><path class="cls-3" d="M130.3,21.08c0-.06,0-.13-.15-.13a4.09,4.09,0,0,1-1.1.28.84.84,0,0,1-.84-.74c-.06-.25,0-1.33-.06-2V7.23c0-.11,0-.27-.15-.27a1.29,1.29,0,0,0-.25,0l-1.06.25a.24.24,0,0,0-.15.25v11c0,2.51.13,2.77.3,3.06a2.08,2.08,0,0,0,2,1c.78,0,1.8-.3,1.8-.53a.3.3,0,0,0-.05-.15Zm-8.42-1.16a4.06,4.06,0,0,1-2.4,1.31,1.63,1.63,0,0,1-1.55-1.8c0-2.21,3-2.21,3.95-2.23Zm1.61-5.15c0-1.78-.82-3-3.25-3-1.35,0-3.3.61-3.3,1a.58.58,0,0,0,.07.28l.27.74a.15.15,0,0,0,.15.1,6.86,6.86,0,0,1,2.57-.67c1.5,0,1.88.67,1.88,1.9v.76c-1.31,0-5.53.1-5.53,3.67a2.66,2.66,0,0,0,2.75,3,4.31,4.31,0,0,0,3-1.42c.1.3.48,1.42.8,1.42a.39.39,0,0,0,.17-.07l.82-.5c.09,0,.19-.09.19-.17s-.31-.53-.38-.78a5.17,5.17,0,0,1-.25-2.11Zm-8.77,5.91a.14.14,0,0,0-.14-.13,6.39,6.39,0,0,1-2,.57c-1.27,0-1.27-.86-1.27-1.71v-6h2.79a.32.32,0,0,0,.28-.19l.27-.83c0-.06,0-.1,0-.15s-.11-.14-.23-.14h-3.13V8.86c0-.13,0-.24-.1-.24l-.15,0L109.91,9c-.15,0-.23.13-.23.25v2.9H108.1c-.15,0-.15.1-.15.25v.8c0,.11,0,.26.15.26h1.58v6a3.38,3.38,0,0,0,.61,2.39,2.65,2.65,0,0,0,2,.74c1.14,0,2.72-.59,2.72-.87a1,1,0,0,0,0-.21Zm-8.71-.3c-.05-.06-.07-.12-.13-.12a5.79,5.79,0,0,1-2.6.86c-2.4,0-2.91-2.32-2.91-3.61h6.06c.23,0,.23-.17.23-.46,0-1.82-.31-5.24-3.84-5.24-2.62,0-4.18,2.26-4.18,5.36s1.65,5.35,4.45,5.37c1.57,0,3.34-.87,3.34-1.1a.58.58,0,0,0-.06-.17Zm-5.64-4.18c0-1,.42-3.08,2.37-3.08s2.19,2,2.19,3.08ZM84.44,22a.22.22,0,0,0,.25.25h1.1c.17,0,.26-.08.26-.25V14.11a3.29,3.29,0,0,1,2-.88c1.14,0,1.38.8,1.38,1.71v7a.22.22,0,0,0,.25.25h1.1a.22.22,0,0,0,.25-.25v-7.9a3.41,3.41,0,0,1,2.07-.86c1.14,0,1.37.8,1.37,1.71v7c0,.17.09.25.26.25h1.09c.17,0,.26-.08.26-.25V15c0-1.52-.17-3.17-2.52-3.17a5.41,5.41,0,0,0-2.8,1.27c-.49-.7-.55-1.27-2.24-1.27a5.14,5.14,0,0,0-2.75,1.25c0-.15-.25-1.25-.59-1.25-.06,0-.12.06-.17.09l-.9.5c-.09.07-.11.11-.11.15a3,3,0,0,1,.27.72,6.56,6.56,0,0,1,.13,1.48Z" transform="translate(0 0)"/><path class="cls-4" d="M77.61,21.23c-1.94,0-2.49-1.8-2.49-4.2,0-2.09.57-3.91,2.47-3.91s2.47,1.9,2.47,4c0,2.43-.57,4.14-2.45,4.14m4.18-4.12c0-3-1.22-5.3-4.12-5.3-3.06,0-4.28,2.49-4.28,5.41s1.22,5.32,4.07,5.32c3.08,0,4.33-2.47,4.33-5.43M67.16,12.4a.28.28,0,0,0-.15.21,1.44,1.44,0,0,0,.23.53,3.27,3.27,0,0,1,.36,1.61V22a.22.22,0,0,0,.25.25H69A.22.22,0,0,0,69.2,22V15c.51-.55,1.25-1.65,2-1.65a2,2,0,0,1,.69.19c.09,0,.11-.1.13-.14l.47-1.08a.88.88,0,0,0,.06-.17c0-.19-.55-.36-1-.36-1.22,0-2,1.18-2.53,1.77-.08-.46-.44-1.77-.84-1.77-.07,0-.11,0-.19.11Zm-2.43,8c0-.06-.07-.12-.13-.12a5.79,5.79,0,0,1-2.6.86c-2,0-2.42-2-2.42-3.95,0-2.4.61-3.94,2.68-3.94A3.85,3.85,0,0,1,64.5,14.3c.06,0,.08-.06.12-.12l.49-.89a.58.58,0,0,0,.06-.17c0-.32-1.62-1.31-3-1.31-2.6,0-4.28,2.15-4.28,5.68,0,3.08,1.45,5.05,4,5.05,1.57,0,3.34-.87,3.34-1.1a.58.58,0,0,0-.06-.17Zm-9.19-12A1.29,1.29,0,0,0,54.25,7.1a1.29,1.29,0,0,0,0,2.58,1.29,1.29,0,0,0,1.29-1.29m-.38,4c0-.19,0-.31-.27-.31h-3a.22.22,0,0,0-.25.25v.8c0,.17.08.26.25.26h1.65V22a.22.22,0,0,0,.25.25h1.1a.22.22,0,0,0,.25-.25ZM37.89,22a.22.22,0,0,0,.25.25h1.1a.22.22,0,0,0,.25-.25V14.11a3.35,3.35,0,0,1,2-.88c1.14,0,1.37.8,1.37,1.71v7a.22.22,0,0,0,.25.25h1.1c.17,0,.26-.08.26-.25v-7.9a3.38,3.38,0,0,1,2.06-.86c1.14,0,1.38.8,1.38,1.71v7a.22.22,0,0,0,.25.25h1.1a.22.22,0,0,0,.25-.25V15c0-1.52-.17-3.17-2.51-3.17a5.41,5.41,0,0,0-2.81,1.27c-.48-.7-.55-1.27-2.24-1.27a5.14,5.14,0,0,0-2.74,1.25c0-.15-.25-1.25-.59-1.25a.31.31,0,0,0-.17.09l-.91.5c-.08.07-.1.11-.1.15a3.66,3.66,0,0,1,.27.72,7.23,7.23,0,0,1,.13,1.48Z" transform="translate(0 0)"/><path class="cls-5" d="M81.59,30a1.4,1.4,0,0,1,.84-.35c.46,0,.64.37.64,1.31s-.19,1.4-.68,1.4a1.33,1.33,0,0,1-.8-.3Zm-.38-.86,0,0-.32.22a.08.08,0,0,0,0,0s0,0,.07.15a1.1,1.1,0,0,1,.15.7v3.95c0,.06,0,.09,0,.09h0l.39-.11a.08.08,0,0,0,.07-.09V32.55a1.32,1.32,0,0,0,.86.32c.75,0,1.21-.73,1.21-1.93s-.37-1.77-1.13-1.77a1.59,1.59,0,0,0-1,.42c-.09-.23-.21-.44-.28-.44m-3,3.22c-.4,0-.53-.2-.53-.83V29.27c0-.06,0-.08,0-.08h0l-.38.1a.11.11,0,0,0-.07.1V31.9a.88.88,0,0,0,1,1,1.55,1.55,0,0,0,1.08-.44c.09.24.2.44.27.44l0,0,.33-.21a.05.05,0,0,0,0,0l0-.05a1.06,1.06,0,0,1-.19-.74V29.27c0-.06,0-.08,0-.08H79.6l-.38.1a.11.11,0,0,0-.07.1V32a1.46,1.46,0,0,1-.92.37m-3.58,0c-.58,0-.87-.47-.87-1.45s.3-1.33.87-1.33.86.48.86,1.36v.06c0,.93-.29,1.36-.86,1.36m0-3.24c-.93,0-1.49.69-1.49,1.87s.52,1.83,1.41,1.83,1.5-.69,1.5-1.87-.52-1.83-1.42-1.83m-3.35.29c-.06-.18-.14-.29-.18-.29l-.06,0-.3.19s-.05,0-.05.06a.2.2,0,0,0,0,.08,1.6,1.6,0,0,1,.18,1v2.19c0,.07,0,.08.08.08h.39c.06,0,.08,0,.08-.08V30.27c.36-.42.53-.55.72-.55a.53.53,0,0,1,.22,0h0a0,0,0,0,0,0,0l.18-.4a.17.17,0,0,0,0-.05s0,0,0-.05a.71.71,0,0,0-.32-.07c-.28,0-.45.11-.82.51l-.09.1a1,1,0,0,0-.09-.32m-2.81,2.92c-.86,0-1.21-.64-1.21-2.2,0-1.38.35-2,1.12-2a1.48,1.48,0,0,1,.93.34l0,0a.07.07,0,0,0,0,0l.15-.31a.08.08,0,0,0,0-.06.12.12,0,0,0-.06-.09,2.07,2.07,0,0,0-1.14-.35c-1.15,0-1.77.92-1.77,2.65s.62,2.55,1.76,2.55a2.49,2.49,0,0,0,1.21-.29.1.1,0,0,0,.06-.11V30.34c0-.08,0-.1-.09-.1H68.52c-.09,0-.09,0-.09.1v.3c0,.08,0,.1.09.1h.57v1.51a1.28,1.28,0,0,1-.57.13m-5.47-2.92c-.07-.18-.15-.29-.19-.29l-.06,0-.3.19s0,0,0,.06a.2.2,0,0,0,0,.08,1.6,1.6,0,0,1,.18,1v2.19c0,.07,0,.08.09.08h.38c.07,0,.08,0,.08-.08V30.27c.36-.42.53-.55.72-.55a.6.6,0,0,1,.23,0h0a.05.05,0,0,0,0,0l.18-.4a.43.43,0,0,1,0-.05s0,0,0-.05a.71.71,0,0,0-.32-.07c-.28,0-.45.11-.82.51l-.08.1a2.07,2.07,0,0,0-.09-.32m-2.81.15c.48,0,.76.39.78,1.08H59.44c0-.71.31-1.08.8-1.08m1.29,1.53c.06,0,.08,0,.08-.13h0v-.21c0-1-.5-1.62-1.34-1.62s-1.44.72-1.44,1.85.6,1.85,1.52,1.85a2,2,0,0,0,.79-.16c.25-.1.37-.18.37-.25a.2.2,0,0,1,0-.05l-.14-.28a.05.05,0,0,0,0,0l-.07,0a1.66,1.66,0,0,1-.84.26c-.59,0-.93-.43-1-1.23ZM57.19,32a1.16,1.16,0,0,1-.84.42c-.48,0-.67-.41-.67-1.41s.22-1.3.77-1.3a1.37,1.37,0,0,1,.74.23Zm.37.9,0,0,.33-.18s0,0,0,0,0,0,0,0l0-.07a1.41,1.41,0,0,1-.18-.86V27.57c0-.06,0-.08-.05-.08h0l-.39.09a.09.09,0,0,0-.07.09V29.4a1.6,1.6,0,0,0-.79-.23c-.81,0-1.32.69-1.32,1.82s.43,1.88,1.15,1.88a1.65,1.65,0,0,0,1.08-.47c.07.24.18.45.25.45m-4.68-3.24c.49,0,.77.39.78,1.08H52.09c0-.71.3-1.08.79-1.08m1.29,1.53c.07,0,.08,0,.08-.13h0v-.21c0-1-.5-1.62-1.33-1.62s-1.44.72-1.44,1.85.59,1.85,1.51,1.85a2,2,0,0,0,.8-.16c.25-.1.37-.18.37-.25l0-.05L54,32.13a.05.05,0,0,0,0,0l-.07,0a1.69,1.69,0,0,1-.84.26c-.6,0-.93-.43-1-1.23Zm-5.24-3.57c0-.06,0-.08,0-.08h-.05l-.38.09a.09.09,0,0,0-.08.09v5c0,.07,0,.08.09.08h.39c.06,0,.08,0,.08-.08V31l1.52,1.82s0,0,0,0,0,0,0,0l.3-.22a.07.07,0,0,0,0-.06.09.09,0,0,0,0-.06l-1.3-1.56,1.25-1.36s0-.05,0-.07,0,0-.05-.06l-.27-.18s0,0-.06,0a.09.09,0,0,0-.08,0l-1.46,1.64ZM47.5,29.64a.19.19,0,0,0-.07-.12,1.59,1.59,0,0,0-1-.35c-.92,0-1.48.74-1.48,1.93s.51,1.77,1.38,1.77a1.83,1.83,0,0,0,1-.31c.1-.07.16-.13.16-.16l0,0v0L47.35,32s0,0-.05,0h0l-.16.12a1.23,1.23,0,0,1-.7.24q-.81,0-.81-1.35c0-.9.3-1.36.89-1.36a1.12,1.12,0,0,1,.75.33l.05,0a.07.07,0,0,0,.06,0l.16-.29v0m-4.17,3v0s0,.05.08.05h.39c.07,0,.08,0,.08-.08V29.35c0-.05,0-.08-.06-.08h-1.1s0,0,0,.08v.29c0,.06,0,.08,0,.08h.61Zm.22-5.15a.44.44,0,0,0-.44.44.44.44,0,0,0,.44.44A.43.43,0,0,0,44,28a.44.44,0,0,0-.44-.44m-4.86,3.87-.62-3.6c0-.07,0-.09-.07-.09h0l-.38.07c-.07,0-.08,0-.08.06v.06l.91,4.76c0,.08,0,.09.11.09H39c.07,0,.09,0,.11-.09l.76-4,.62,4c0,.08,0,.09.1.09H41c.08,0,.09,0,.11-.09l1-4.75a.15.15,0,0,0,0-.06s0-.05-.08-.06l-.38-.08h0s0,0-.07.09l-.66,3.65,0,.2v.17a3.41,3.41,0,0,0,0,.51l0-.27,0-.24v-.16l0-.2-.6-3.61v0s0-.06-.1-.06h-.39c-.07,0-.09,0-.1.09l-.71,3.58,0,.18v.17c0,.06,0,.13,0,.24s0,.16,0,.29a6.59,6.59,0,0,0-.07-.91" transform="translate(0 0)"/><path class="cls-3" d="M25.14,12.85a6.63,6.63,0,0,0,.73,4.47,7.64,7.64,0,0,1-.27,2.17l-.11-.24a23.59,23.59,0,0,0-3.16-5.86c-.11-.55-1.19-1-1.22-1.24,0,0-.46-.74-.15-.62,1,.41,2.23,1.47,4.18,1.32m11.7-7.47a4.8,4.8,0,0,0-2.78-.86,10.31,10.31,0,0,1-3.67-.23,4.34,4.34,0,0,0-1.48-.54c-.62-.13-2,.26-2.25-.54-.34-1.39-.41-1.74-.51-2-.17-.63-.15-.55.3-.6a15.88,15.88,0,0,1,3.19,0c.41.24.68.42.8.77a1.92,1.92,0,0,1,.18,1c0,.13.17.12.2,0A1.66,1.66,0,0,0,29.7.12,14.48,14.48,0,0,0,26,.12c-.63.09-.81.46-.28,1.43l.71,1.71c-2.73-.66-3.82-.09-3.84,1.49,0,.13-.07.45-.2.5a1.62,1.62,0,0,1-.87,0c-2.26-.37-3.42.52-3.45,2.66a.37.37,0,0,1-.25.22,1.48,1.48,0,0,0-1.46,1.43l-.09,1.12c0,.12-.07.14-.18,0l-1.18-.94c-.1-.07-.16-.05-.18,0l.07.13a4.18,4.18,0,0,1,.7,2.32c0,.1-.08.13-.18.07a6.53,6.53,0,0,0-6.33-.1,28.07,28.07,0,0,0-5,5.49,14.89,14.89,0,0,1-1.82,2.09,3.61,3.61,0,0,1-2,.63c-.16,0-.09.22,0,.2a2.32,2.32,0,0,0,2.06-.55A63.83,63.83,0,0,0,9,12.68c.26-.23,2-.31,1.7.17-1.78,2.56-4.89,8.49-5.24,9.06A3.7,3.7,0,0,1,3.48,23.1c-.14,0-.14.18-.06.2a3.66,3.66,0,0,0,2-.8,74.24,74.24,0,0,0,4.22-6.86L11,13.14a.63.63,0,0,1,.53-.16c-.38,2.32-.11,4.15.8,5.42a1.22,1.22,0,0,0,.28.32,4.5,4.5,0,0,0,2,1.3,4.17,4.17,0,0,0,.6.1h0a3.12,3.12,0,0,0,1.47-.19c1.42-.8,1.37-3.62.53-4.81a2.08,2.08,0,0,1-.33-1.76.44.44,0,0,1,.82-.07,14.34,14.34,0,0,1,.74,2.29c.34,1.14.49,2.45.62,3,.32,1.38.94,1.2,1.4.78.11-.07.07-.54-.06-.49-.46.18-.84.84-1-.92-.23-1.17-.4-3.62-1.58-5.28.13-.62,1.05-.4,1.77-.33.27,1.41,1.42,1.76,2.66,1.28l.26.46c1,1.71,2.7,5.59,2.88,5.77a7.39,7.39,0,0,0,2.51,2.36.12.12,0,0,0,.12-.21,10.23,10.23,0,0,1-2.13-2.12h0l0,0,0,0c.55-.43.44-4.9-.42-7.47-.58-1.72-2.16-1.95-4-1.86A3.73,3.73,0,0,0,22,7.76c0-.67.69-1,1.49-1l.48.1.13,0a4.67,4.67,0,0,0,.65.13l.13,0h.23l.54,0h.07a8.33,8.33,0,0,0,1-.09h0a7.71,7.71,0,0,0,1-.22,4.38,4.38,0,0,1,1.86.81.12.12,0,0,0,.16,0,2.43,2.43,0,0,0,0-1.14,3.15,3.15,0,0,0-1.87-2.3c.22-.29,1.28.26,1.9.58S32.12,5,34.1,5a4.28,4.28,0,0,1,2.81,1c.74.7.82.25-.07-.66" transform="translate(0 0)"/></g></g></g></svg>