<svg id="Ebene_1" data-name="Ebene 1" xmlns="http://www.w3.org/2000/svg" viewBox="0 0 97 20"><defs><style>.cls-1{fill:#727273;}.cls-2{fill:#0a7ac0;}.cls-3{fill:#fff;opacity:0;}</style></defs><path class="cls-1" d="M3.49,12.53V9.47a1,1,0,0,0-1-1.09,1,1,0,0,0-1,1.09v3.06h-1v-7h1V8.05a1.71,1.71,0,0,1,1.29-.56A1.65,1.65,0,0,1,4.49,9.32v3.21Z"/><path class="cls-1" d="M10.75,12a2,2,0,0,1-1.49.59A2,2,0,0,1,7.77,12a2.64,2.64,0,0,1-.59-2,2.61,2.61,0,0,1,.59-1.95,2,2,0,0,1,1.49-.59,2,2,0,0,1,1.49.59A2.61,2.61,0,0,1,11.34,10,2.64,2.64,0,0,1,10.75,12ZM10,8.67a1,1,0,0,0-.73-.29,1,1,0,0,0-.73.29A1.88,1.88,0,0,0,8.18,10a1.91,1.91,0,0,0,.35,1.37,1,1,0,0,0,.73.3,1,1,0,0,0,.73-.3A1.91,1.91,0,0,0,10.34,10,1.88,1.88,0,0,0,10,8.67Z"/><path class="cls-1" d="M15.41,12.53a1.27,1.27,0,0,1-1.36-1.38V5.53h1V11.1c0,.38.14.58.54.58H16v.85Z"/><path class="cls-1" d="M21.65,12a2.05,2.05,0,0,1-1.5.59A2,2,0,0,1,18.67,12a2.64,2.64,0,0,1-.59-2,2.61,2.61,0,0,1,.59-1.95,2,2,0,0,1,1.48-.59,2,2,0,0,1,1.5.59A2.61,2.61,0,0,1,22.24,10,2.64,2.64,0,0,1,21.65,12Zm-.76-3.33a1,1,0,0,0-.74-.29,1,1,0,0,0-.72.29A1.88,1.88,0,0,0,19.08,10a1.91,1.91,0,0,0,.35,1.37,1,1,0,0,0,.72.3,1,1,0,0,0,.74-.3A1.91,1.91,0,0,0,21.24,10,1.88,1.88,0,0,0,20.89,8.67Z"/><path class="cls-1" d="M26.39,12.53a1.1,1.1,0,0,1-1.14-1.24V8.16H24.6V7.79h.65V6.28h.5V7.79h1.07v.37H25.75V11.3c0,.49.23.79.73.79h.34v.44Z"/><path class="cls-1" d="M32.56,12.07a1.94,1.94,0,0,1-2.64,0,2.61,2.61,0,0,1-.59-1.91,2.61,2.61,0,0,1,.59-1.91,1.94,1.94,0,0,1,2.64,0,2.61,2.61,0,0,1,.59,1.91A2.61,2.61,0,0,1,32.56,12.07Zm-.34-3.49a1.38,1.38,0,0,0-2,0,2.17,2.17,0,0,0-.43,1.58,2.17,2.17,0,0,0,.43,1.58,1.38,1.38,0,0,0,2,0,2.17,2.17,0,0,0,.43-1.58A2.17,2.17,0,0,0,32.22,8.58Z"/><path class="cls-1" d="M39.11,12.07a1.94,1.94,0,0,1-2.64,0,2.61,2.61,0,0,1-.59-1.91,2.61,2.61,0,0,1,.59-1.91,1.94,1.94,0,0,1,2.64,0,2.61,2.61,0,0,1,.59,1.91A2.61,2.61,0,0,1,39.11,12.07Zm-.34-3.49a1.38,1.38,0,0,0-2,0,2.17,2.17,0,0,0-.43,1.58,2.17,2.17,0,0,0,.43,1.58,1.38,1.38,0,0,0,2,0,2.17,2.17,0,0,0,.43-1.58A2.17,2.17,0,0,0,38.77,8.58Z"/><path class="cls-1" d="M43.83,12.53a1.08,1.08,0,0,1-1.14-1.23V5.53h.5v5.76c0,.53.17.8.73.8h.34v.44Z"/><path class="cls-1" d="M48.37,12.59a2.61,2.61,0,0,1-1.92-.68l.34-.34a2,2,0,0,0,1.56.58c.92,0,1.42-.33,1.42-1,0-.49-.28-.73-.9-.79l-.79-.07c-.95-.08-1.43-.5-1.43-1.24s.67-1.35,1.71-1.35a2.84,2.84,0,0,1,1.66.5l-.34.34a2.14,2.14,0,0,0-1.32-.41c-.78,0-1.21.34-1.21.92s.29.74,1,.8l.77.06c.78.07,1.38.32,1.38,1.24S49.53,12.59,48.37,12.59Z"/><path class="cls-2" d="M26.71,19.05v.05s0,0-.34.45a.56.56,0,0,1-.4.23c-.12,0-.19-.1-.19-.25a2.66,2.66,0,0,1,.16-.77c-.55.76-.85,1-1.19,1-.15,0-.24-.13-.24-.36a1.93,1.93,0,0,1,.63-1.2,1.75,1.75,0,0,1,1.05-.59.53.53,0,0,1,.16,0l0-.06c.05-.1.08-.13.17-.13s.1,0,.1.06a.15.15,0,0,1,0,.06,6.32,6.32,0,0,0-.51,1.67c0,.08,0,.13.08.13s.11,0,.2-.12a1.12,1.12,0,0,0,.2-.25l0,0Zm-1.6-.47a1.46,1.46,0,0,0-.24.64c0,.13.06.21.14.21s.47-.26.79-.71a1.88,1.88,0,0,0,.33-.67c0-.07-.06-.12-.16-.13A1.22,1.22,0,0,0,25.11,18.58Z"/><path class="cls-2" d="M31.92,17.74c-.09,0-.1,0-.1,0v0l0-.07c0-.05,0-.05.11-.05h.3l.08-.28c.06-.23.09-.27.23-.27s.13,0,.13.08a.2.2,0,0,1,0,.07l0,.09-.08.31H33c.11,0,.12,0,.12,0v0l0,.06s0,0,0,0h-.55L32.18,19a1.26,1.26,0,0,0-.08.34.14.14,0,0,0,.16.15.93.93,0,0,0,.53-.32l.06-.06.09.09-.06.08a2.32,2.32,0,0,1-.22.21,1.05,1.05,0,0,1-.67.32c-.17,0-.28-.09-.28-.24a1,1,0,0,1,.06-.27l.42-1.53Z"/><path class="cls-2" d="M36.45,19.29l-.06.08a1,1,0,0,1-.8.41c-.4,0-.63-.27-.63-.73a1.88,1.88,0,0,1,.44-1.18,1,1,0,0,1,.82-.39c.31,0,.51.15.51.4,0,.44-.49.72-1.36.78,0,.16,0,.22,0,.32,0,.31.16.51.41.51a.73.73,0,0,0,.52-.22l.07-.06Zm-1-.76a1.43,1.43,0,0,0,.41-.09c.34-.13.51-.31.51-.55s-.08-.27-.23-.27-.56.33-.76.92Z"/><path class="cls-2" d="M40.62,18.32c.23-.26.31-.34.43-.46a1.29,1.29,0,0,1,.81-.38.3.3,0,0,1,.32.31c0,.17,0,.22-.23.75l-.08.19,0,.1-.09.23a.49.49,0,0,0,0,.18.08.08,0,0,0,.08.08c.08,0,.14-.05.46-.35l.09.09a4.31,4.31,0,0,1-.37.37c-.28.26-.43.35-.56.35a.16.16,0,0,1-.17-.17,4.14,4.14,0,0,1,.3-.83,4.85,4.85,0,0,0,.3-.87.18.18,0,0,0-.18-.16c-.28,0-.67.36-1,.87-.1.17-.34.64-.45.89s-.13.27-.19.27-.16-.05-.16-.12,0,0,.13-.39a8.94,8.94,0,0,0,.42-1.34.18.18,0,0,0-.17-.18c-.2,0-.47.26-.77.73a4.8,4.8,0,0,0-.46.91c-.12.3-.19.39-.28.39a.14.14,0,0,1-.15-.12c0-.07,0-.08.35-.91a2.61,2.61,0,0,0,.21-.71c0-.1,0-.16-.12-.16s-.17.07-.29.29c0,0,0,.06,0,.06h0l0,0s0,0,0,0a0,0,0,0,1,0,0A.41.41,0,0,1,38.7,18l.08-.15c.12-.21.31-.37.45-.37s.22.12.22.29a2.48,2.48,0,0,1-.08.52c.43-.54.8-.81,1.1-.81a.25.25,0,0,1,.24.28,2.38,2.38,0,0,1-.05.37Z"/><path class="cls-2" d="M44.54,18c.27-.32.51-.48.7-.48a.21.21,0,0,1,.21.19A6.5,6.5,0,0,1,45,18.92a1.66,1.66,0,0,0-.13.4.11.11,0,0,0,.11.11c.11,0,.26-.13.46-.39l.06-.08.1.1-.08.1a1.3,1.3,0,0,1-.84.62.23.23,0,0,1-.24-.22c0-.09,0-.1.12-.38L45,18.09a.55.55,0,0,0,0-.18.11.11,0,0,0-.09-.09c-.06,0-.16.08-.27.22Zm1.11-1.61a.23.23,0,0,1-.23.23.24.24,0,0,1-.23-.23.23.23,0,1,1,.46,0Z"/><path class="cls-2" d="M49,19.34a.77.77,0,0,1-.71.44.67.67,0,0,1-.68-.74,1.51,1.51,0,0,1,1.25-1.56c.3,0,.52.13.52.32a.18.18,0,0,1-.19.19c-.1,0-.16-.08-.16-.21s0-.09,0-.1a.3.3,0,0,0-.15,0,.7.7,0,0,0-.56.39,1.89,1.89,0,0,0-.28.91c0,.34.16.55.42.55a.64.64,0,0,0,.48-.23Z"/><path class="cls-2" d="M53.15,18.33a1.41,1.41,0,0,1-1.24,1.45c-.42,0-.71-.37-.71-.91a1.57,1.57,0,0,1,.4-1,1,1,0,0,1,.78-.38A.79.79,0,0,1,53.15,18.33ZM51.89,18A2.18,2.18,0,0,0,51.57,19c0,.38.13.6.36.6a.72.72,0,0,0,.58-.47,2.52,2.52,0,0,0,.24-1c0-.31-.14-.51-.36-.51A.59.59,0,0,0,51.89,18Z"/><path class="cls-2" d="M55.28,18.1c.22-.42.43-.62.65-.62s.19.11.19.27a2,2,0,0,1-.12.62c.5-.62.87-.89,1.21-.89a.31.31,0,0,1,.35.28,2.9,2.9,0,0,1-.3.9,3.85,3.85,0,0,0-.24.64.07.07,0,0,0,.07.06c.09,0,.25-.11.44-.3l0,0,.09.09-.07.08a3.88,3.88,0,0,1-.51.45.66.66,0,0,1-.35.14.17.17,0,0,1-.18-.16c0-.07,0-.07.25-.7a4.15,4.15,0,0,0,.37-1,.15.15,0,0,0-.15-.15c-.25,0-.64.36-1,.92a4.23,4.23,0,0,0-.35.71c-.14.34-.19.41-.27.41s-.18-.05-.18-.11a8.21,8.21,0,0,1,.38-1,3.5,3.5,0,0,0,.21-.69.14.14,0,0,0-.12-.14c-.1,0-.18.08-.34.31Z"/><path class="cls-2" d="M62.92,17.74c-.09,0-.1,0-.1,0v0l0-.07c0-.05,0-.05.11-.05h.31l.07-.28c.06-.23.1-.27.23-.27s.13,0,.13.08a.2.2,0,0,1,0,.07l0,.09-.08.31H64c.11,0,.12,0,.12,0v0l0,.06s0,0,0,0h-.55L63.19,19a1.26,1.26,0,0,0-.08.34.14.14,0,0,0,.15.15.9.9,0,0,0,.53-.32l.06-.06.09.09-.06.08a2.32,2.32,0,0,1-.22.21,1,1,0,0,1-.67.32c-.17,0-.28-.09-.28-.24a1,1,0,0,1,.06-.27l.43-1.53Z"/><path class="cls-2" d="M66,18.11c.26-.47.41-.63.61-.63s.29.16.29.38a3,3,0,0,1-.06.47l0,.18a3.18,3.18,0,0,1,.35-.6c.22-.32.36-.43.52-.43a.24.24,0,1,1,0,.47.21.21,0,0,1-.18-.1l0,0s-.12.08-.2.2a4.5,4.5,0,0,0-.61,1.28c-.14.39-.2.48-.3.48s-.17,0-.17-.09,0,0,.05-.19l.18-.56a2.81,2.81,0,0,0,.21-.8c0-.16-.07-.26-.18-.26s-.17,0-.34.29Z"/><path class="cls-2" d="M71.41,19.05v.05s0,0-.34.45a.56.56,0,0,1-.4.23c-.12,0-.19-.1-.19-.25a2.66,2.66,0,0,1,.16-.77c-.54.76-.85,1-1.19,1-.15,0-.24-.13-.24-.36a1.9,1.9,0,0,1,.64-1.2,1.7,1.7,0,0,1,1-.59l.16,0,0-.06c.05-.1.08-.13.17-.13s.1,0,.1.06a.15.15,0,0,1,0,.06,6.32,6.32,0,0,0-.51,1.67c0,.08,0,.13.08.13s.11,0,.2-.12a1.12,1.12,0,0,0,.2-.25l0,0Zm-1.6-.47a1.46,1.46,0,0,0-.24.64c0,.13.06.21.14.21s.48-.26.79-.71a1.88,1.88,0,0,0,.33-.67c0-.07-.06-.12-.16-.13C70.41,17.91,70.06,18.19,69.81,18.58Z"/><path class="cls-2" d="M75.15,16c.09,0,.44-.08.58-.12l.11,0h.07a0,0,0,0,1,0,0,.28.28,0,0,1,0,.08l-.82,3a1.18,1.18,0,0,0-.06.3c0,.05,0,.11.09.11s.18-.09.39-.39l.07-.1.11.06-.12.19c-.24.41-.5.64-.71.64a.2.2,0,0,1-.2-.22,2.66,2.66,0,0,1,.16-.7l0-.14c-.49.76-.81,1.06-1.15,1.06s-.42-.21-.42-.58a1.72,1.72,0,0,1,1.41-1.72.7.7,0,0,1,.41.13l.24-1a1.26,1.26,0,0,0,.07-.34c0-.13-.07-.18-.22-.18h-.1Zm-1,2a2.42,2.42,0,0,0-.42,1.16.25.25,0,0,0,.23.27c.14,0,.27-.1.47-.32A2.5,2.5,0,0,0,75,18a.35.35,0,0,0-.33-.35A.68.68,0,0,0,74.14,18Z"/><path class="cls-2" d="M79.09,19.29l-.06.08a1,1,0,0,1-.8.41c-.4,0-.63-.27-.63-.73A1.88,1.88,0,0,1,78,17.87a1.06,1.06,0,0,1,.82-.39c.31,0,.51.15.51.4,0,.44-.49.72-1.36.78,0,.16,0,.22,0,.32,0,.31.16.51.41.51a.73.73,0,0,0,.52-.22l.07-.06Zm-1-.76a1.36,1.36,0,0,0,.41-.09c.34-.13.51-.31.51-.55s-.08-.27-.23-.27-.56.33-.76.92Z"/><path class="cls-2" d="M83.26,18.32l.43-.46a1.29,1.29,0,0,1,.81-.38.3.3,0,0,1,.32.31c0,.17,0,.22-.23.75l-.08.19,0,.1-.09.23a.49.49,0,0,0,0,.18.08.08,0,0,0,.08.08c.08,0,.14-.05.46-.35l.09.09a4.31,4.31,0,0,1-.37.37c-.28.26-.43.35-.56.35a.16.16,0,0,1-.17-.17,4.14,4.14,0,0,1,.3-.83,4.85,4.85,0,0,0,.3-.87.18.18,0,0,0-.18-.16c-.28,0-.67.36-1,.87-.1.17-.34.64-.45.89s-.13.27-.19.27-.16-.05-.16-.12,0,0,.13-.39a8.94,8.94,0,0,0,.42-1.34.18.18,0,0,0-.17-.18c-.2,0-.47.26-.77.73a5.48,5.48,0,0,0-.46.91c-.12.3-.19.39-.28.39a.14.14,0,0,1-.15-.12c0-.07,0-.08.35-.91a2.37,2.37,0,0,0,.22-.71c0-.1,0-.16-.13-.16s-.17.07-.29.29c0,0,0,.06,0,.06h0l0,0s0,0,0,0a0,0,0,0,1,0,0,.41.41,0,0,1,.08-.13l.08-.15a.68.68,0,0,1,.46-.37c.12,0,.21.12.21.29a2.48,2.48,0,0,1-.08.52c.43-.54.8-.81,1.1-.81a.25.25,0,0,1,.24.28,2.38,2.38,0,0,1,0,.37Z"/><path class="cls-2" d="M89.06,19.05v.05s0,0-.34.45a.58.58,0,0,1-.41.23c-.11,0-.19-.1-.19-.25a3.12,3.12,0,0,1,.16-.77c-.54.76-.84,1-1.18,1-.15,0-.24-.13-.24-.36a1.93,1.93,0,0,1,.63-1.2,1.72,1.72,0,0,1,1-.59.53.53,0,0,1,.16,0l0-.06c0-.1.08-.13.17-.13s.1,0,.1.06a.15.15,0,0,1,0,.06,6.45,6.45,0,0,0-.52,1.67c0,.08,0,.13.08.13s.12,0,.21-.12A1.12,1.12,0,0,0,89,19l0,0Zm-1.6-.47a1.46,1.46,0,0,0-.24.64c0,.13.06.21.14.21s.47-.26.78-.71a1.78,1.78,0,0,0,.34-.67c0-.07-.06-.12-.17-.13S87.7,18.19,87.46,18.58Z"/><path class="cls-2" d="M91.07,18.11c.25-.47.41-.63.6-.63s.3.16.3.38a2.23,2.23,0,0,1-.07.47l0,.18a4.07,4.07,0,0,1,.36-.6c.21-.32.35-.43.52-.43a.24.24,0,1,1,0,.47.23.23,0,0,1-.19-.1.05.05,0,0,0,0,0s-.12.08-.2.2a4.78,4.78,0,0,0-.61,1.28c-.14.39-.19.48-.3.48s-.17,0-.17-.09,0,0,.05-.19l.19-.56a3,3,0,0,0,.2-.8c0-.16-.07-.26-.18-.26s-.16,0-.34.29Z"/><path class="cls-2" d="M95.24,15.94a3.44,3.44,0,0,0,.54-.12l.14,0H96s0,0,0,0v0c0,.11-.07.21-.1.32l-.6,2.05c.43-.53.76-.75,1.14-.75a.47.47,0,0,1,.49.47.57.57,0,0,1-.29.46,1.69,1.69,0,0,1-.9.22,1.21,1.21,0,0,1,.23.44c.13.34.2.42.35.42a.78.78,0,0,0,.45-.28l0-.06.07.09,0,.06a1.19,1.19,0,0,1-.15.18.75.75,0,0,1-.56.3c-.25,0-.37-.13-.53-.61s-.23-.52-.41-.58l-.29,1c0,.15-.07.18-.14.18s-.19,0-.19-.11,0-.05.06-.24l.74-2.66a3,3,0,0,0,.12-.52c0-.12-.08-.17-.29-.19Zm.43,2.55c.54,0,.91-.2.91-.48a.27.27,0,0,0-.28-.27c-.29,0-.65.26-1,.73Z"/><rect class="cls-3" x="-0.04" width="97" height="20.1"/></svg>