<svg id="Ebene_1" data-name="Ebene 1" xmlns="http://www.w3.org/2000/svg" viewBox="0 0 97 19.49"><defs><style>.cls-1{fill:#fff;}.cls-2{fill:#706f6f;}.cls-3{fill:#b2b2b2;}</style></defs><rect class="cls-1" width="97" height="19.49"/><rect class="cls-2" x="52.8" y="1.93" width="0.44" height="11.48"/><path class="cls-2" d="M20.92,6.56l.37-1.23h-4V2.18H16.05V5.33H14.77L14.4,6.56h1.65v4.51a2.58,2.58,0,0,0,2.58,2.58h2.22l.36-1.22H18.63a1.35,1.35,0,0,1-1.35-1.36V6.56Z" transform="translate(0 -0.25)"/><path class="cls-2" d="M81,3.72a1.64,1.64,0,0,1-.6-.11,1.38,1.38,0,0,1-.5-.32,1.77,1.77,0,0,1-.34-.5,1.73,1.73,0,0,1-.12-.66,1.75,1.75,0,0,1,.12-.65A1.69,1.69,0,0,1,79.92,1a1.38,1.38,0,0,1,.5-.32A1.46,1.46,0,0,1,81,.53a1.53,1.53,0,0,1,.6.12,1.47,1.47,0,0,1,.5.32,1.5,1.5,0,0,1,.33.51,1.57,1.57,0,0,1,.13.65,1.56,1.56,0,0,1-.13.66,1.56,1.56,0,0,1-.33.5,1.47,1.47,0,0,1-.5.32A1.73,1.73,0,0,1,81,3.72Zm0-.21a1.26,1.26,0,0,0,.51-.11A1.34,1.34,0,0,0,82,3.12a1.33,1.33,0,0,0,.28-.44,1.38,1.38,0,0,0,.11-.55,1.46,1.46,0,0,0-.11-.55A1.39,1.39,0,0,0,82,1.15,1.22,1.22,0,0,0,81,.75a1.27,1.27,0,0,0-.52.1,1.12,1.12,0,0,0-.41.3,1.42,1.42,0,0,0-.29.43,1.45,1.45,0,0,0-.1.55,1.38,1.38,0,0,0,.1.55,1.35,1.35,0,0,0,.29.44,1.2,1.2,0,0,0,.41.28A1.27,1.27,0,0,0,81,3.51Zm-.57-2.27H81a1,1,0,0,1,.24,0,.49.49,0,0,1,.21.08.57.57,0,0,1,.15.16.53.53,0,0,1,.06.26.48.48,0,0,1-.1.29.42.42,0,0,1-.25.17l.44.73h-.3l-.35-.64h-.43V3h-.24Zm.5.86A.69.69,0,0,0,81.29,2a.27.27,0,0,0,.13-.24.32.32,0,0,0-.09-.24A.51.51,0,0,0,81,1.46h-.29V2.1Z" transform="translate(0 -0.25)"/><path class="cls-3" d="M16.29,17.88a.46.46,0,0,0,.46.45h.43l-.07.23h-.36a.68.68,0,0,1-.68-.68V15.37h.22Z" transform="translate(0 -0.25)"/><path class="cls-3" d="M18.1,15.37h.22v.23H18.1Zm0,.91h.22v2.28H18.1Z" transform="translate(0 -0.25)"/><path class="cls-3" d="M21,19.24a.46.46,0,0,0,.46-.45v-.23H20.06a.68.68,0,0,1-.68-.68V17a.68.68,0,0,1,.68-.69h1.59v2.51a.68.68,0,0,1-.68.68H19.61l-.07-.23Zm-1.36-1.36a.45.45,0,0,0,.45.45h1.37V16.51H20.06a.46.46,0,0,0-.45.46Z" transform="translate(0 -0.25)"/><path class="cls-3" d="M23,16.51v2h-.23V15.37H23v.91h1.36A.69.69,0,0,1,25,17v1.59H24.8V17a.47.47,0,0,0-.46-.46Z" transform="translate(0 -0.25)"/><path class="cls-3" d="M27.74,18.33l-.07.23h-.59a.68.68,0,0,1-.68-.68V16.51h-.46l.07-.23h.39v-.91h.23v.91h1.13l-.06.23H26.63v1.37a.45.45,0,0,0,.45.45Z" transform="translate(0 -0.25)"/><path class="cls-3" d="M32.24,16.28v-.91h.22v3.19H30.87a.69.69,0,0,1-.68-.68V17a.69.69,0,0,1,.68-.69Zm-1.82,1.6a.45.45,0,0,0,.45.45h1.37V16.51H30.87a.46.46,0,0,0-.45.46Z" transform="translate(0 -0.25)"/><path class="cls-3" d="M35.11,16.28a.68.68,0,0,1,.68.69v.56h-2v.35a.45.45,0,0,0,.45.45h1.43l-.06.23H34.2a.68.68,0,0,1-.68-.68V17a.68.68,0,0,1,.68-.69Zm-.91.23a.46.46,0,0,0-.45.46v.34h1.82V17a.47.47,0,0,0-.46-.46Z" transform="translate(0 -0.25)"/><path class="cls-3" d="M37.38,16.51a.4.4,0,0,0,0,.8h1.07a.63.63,0,1,1,0,1.25H36.89l-.07-.23h1.62a.39.39,0,0,0,.4-.39.4.4,0,0,0-.4-.41H37.38a.61.61,0,0,1-.62-.62.63.63,0,0,1,.62-.63h1.51l.07.23Z" transform="translate(0 -0.25)"/><path class="cls-3" d="M40.08,15.37h.23v.23h-.23Zm0,.91h.23v2.28h-.23Z" transform="translate(0 -0.25)"/><path class="cls-3" d="M43,19.24a.45.45,0,0,0,.45-.45v-.23H42.05a.68.68,0,0,1-.68-.68V17a.68.68,0,0,1,.68-.69h1.59v2.51a.68.68,0,0,1-.68.68H41.59l-.07-.23Zm-1.37-1.36a.46.46,0,0,0,.46.45h1.36V16.51H42.05a.47.47,0,0,0-.46.46Z" transform="translate(0 -0.25)"/><path class="cls-3" d="M45.42,16.51A.46.46,0,0,0,45,17v1.59h-.23V17a.68.68,0,0,1,.68-.69h.91A.68.68,0,0,1,47,17v1.59h-.22V17a.47.47,0,0,0-.46-.46Z" transform="translate(0 -0.25)"/><path class="cls-3" d="M51.76,18.33l0,.23H50.3a.69.69,0,0,1-.68-.68V17a.69.69,0,0,1,.68-.69h1.37l.07.23H50.3a.46.46,0,0,0-.45.46v.91a.45.45,0,0,0,.45.45Z" transform="translate(0 -0.25)"/><path class="cls-3" d="M53.31,18.56a.69.69,0,0,1-.68-.68V17a.69.69,0,0,1,.68-.69h.91a.69.69,0,0,1,.69.69v.91a.69.69,0,0,1-.69.68Zm.91-.23a.46.46,0,0,0,.46-.45V17a.47.47,0,0,0-.46-.46h-.91a.46.46,0,0,0-.45.46v.91a.45.45,0,0,0,.45.45Z" transform="translate(0 -0.25)"/><path class="cls-3" d="M56.64,16.51a.46.46,0,0,0-.45.46v1.59H56V17a.68.68,0,0,1,.68-.69h.8a.72.72,0,0,1,.57.31.67.67,0,0,1,.56-.31h.8a.68.68,0,0,1,.68.69v1.59h-.22V17a.47.47,0,0,0-.46-.46h-.8a.45.45,0,0,0-.45.44v1.61h-.23V17a.45.45,0,0,0-.45-.44Z" transform="translate(0 -0.25)"/><path class="cls-3" d="M61.38,18.56v.91h-.23V16.28h1.59a.69.69,0,0,1,.69.69v.91a.69.69,0,0,1-.69.68ZM63.2,17a.47.47,0,0,0-.46-.46H61.38v1.82h1.36a.46.46,0,0,0,.46-.45Z" transform="translate(0 -0.25)"/><path class="cls-3" d="M65.12,18.56a.69.69,0,0,1-.69-.68V17a.69.69,0,0,1,.69-.69H66a.69.69,0,0,1,.68.69v.91a.69.69,0,0,1-.68.68Zm.91-.23a.45.45,0,0,0,.45-.45V17a.46.46,0,0,0-.45-.46h-.91a.47.47,0,0,0-.46.46v.91a.46.46,0,0,0,.46.45Z" transform="translate(0 -0.25)"/><path class="cls-3" d="M68.44,16.51A.46.46,0,0,0,68,17v1.59h-.23V17a.69.69,0,0,1,.68-.69h.91A.69.69,0,0,1,70,17v1.59h-.23V17a.47.47,0,0,0-.46-.46Z" transform="translate(0 -0.25)"/><path class="cls-3" d="M72.68,16.28a.68.68,0,0,1,.68.69v.56h-2v.35a.45.45,0,0,0,.45.45H73.2l-.06.23H71.77a.68.68,0,0,1-.68-.68V17a.68.68,0,0,1,.68-.69Zm-.91.23a.46.46,0,0,0-.45.46v.34h1.82V17a.47.47,0,0,0-.46-.46Z" transform="translate(0 -0.25)"/><path class="cls-3" d="M75.1,16.51a.47.47,0,0,0-.46.46v1.59h-.22V17a.68.68,0,0,1,.68-.69H76a.68.68,0,0,1,.68.69v1.59h-.23V17a.46.46,0,0,0-.45-.46Z" transform="translate(0 -0.25)"/><path class="cls-3" d="M79.41,18.33l-.07.23h-.59a.69.69,0,0,1-.69-.68V16.51h-.45l.07-.23h.38v-.91h.23v.91h1.14l-.07.23H78.29v1.37a.46.46,0,0,0,.46.45Z" transform="translate(0 -0.25)"/><path class="cls-3" d="M80.88,16.51a.4.4,0,0,0,0,.8H82a.63.63,0,0,1,0,1.25H80.39l-.07-.23h1.62a.39.39,0,0,0,.4-.39.4.4,0,0,0-.4-.41H80.88a.62.62,0,0,1-.63-.62.63.63,0,0,1,.63-.63h1.51l.07.23Z" transform="translate(0 -0.25)"/><path class="cls-2" d="M73.79,5.33,76.41,9.5l-2.62,4.15h1.55L78,9.5,75.33,5.33Z" transform="translate(0 -0.25)"/><path class="cls-2" d="M81.06,5.33,78.44,9.5l2.61,4.15H82.6L79.9,9.5l2.7-4.17Z" transform="translate(0 -0.25)"/><polygon class="cls-2" points="57.38 1.93 56.08 1.93 56.08 13.4 63.03 13.4 63.03 12.17 57.38 12.17 57.38 1.93"/><path class="cls-2" d="M70.78,5.33v5.74a1.34,1.34,0,0,1-1.35,1.35H66.64a1.34,1.34,0,0,1-1.35-1.35V5.33H64.06v5.74a2.58,2.58,0,0,0,2.58,2.58h2.79A2.59,2.59,0,0,0,72,11.07V5.33Z" transform="translate(0 -0.25)"/><path class="cls-2" d="M28.5,5.33H25.57A2.59,2.59,0,0,0,23,7.92v3.15a2.59,2.59,0,0,0,2.59,2.58h4.67l.37-1.22h-5a1.36,1.36,0,0,1-1.36-1.36v-1h6.87V7.92A2.59,2.59,0,0,0,28.5,5.33ZM25.57,6.56H28.5a1.36,1.36,0,0,1,1.36,1.36v1H24.21v-1A1.36,1.36,0,0,1,25.57,6.56Z" transform="translate(0 -0.25)"/><path class="cls-2" d="M44,5.33H41.73a2.58,2.58,0,0,0-2,.92,2.58,2.58,0,0,0-2-.92H35.54A2.59,2.59,0,0,0,33,7.92v5.73h1.23V7.92a1.36,1.36,0,0,1,1.35-1.36h2.25a1.34,1.34,0,0,1,1.35,1.29v5.8h1.23V7.85a1.34,1.34,0,0,1,1.36-1.29H44a1.36,1.36,0,0,1,1.36,1.36v5.73h1.23V7.92A2.59,2.59,0,0,0,44,5.33Z" transform="translate(0 -0.25)"/><rect class="cls-2" x="48.93" y="1.93" width="1.3" height="1.3"/><rect class="cls-2" x="48.93" y="5.08" width="1.3" height="8.32"/></svg>