<svg id="Ebene_1" data-name="Ebene 1" xmlns="http://www.w3.org/2000/svg" viewBox="0 0 201 70"><defs><style>.cls-1{fill:#fff;opacity:0;}.cls-2{fill:#010101;}.cls-3{fill:#f5cf00;}.cls-4{fill:#e30d15;}</style></defs><rect class="cls-1" width="201" height="70"/><path class="cls-2" d="M45.17,7.64a2.47,2.47,0,0,1-.11.75,1.7,1.7,0,0,1-.29.55,1.47,1.47,0,0,1-.42.37,2.25,2.25,0,0,1-.51.22v0a1.7,1.7,0,0,1,.6.23,1.94,1.94,0,0,1,.49.41,2.1,2.1,0,0,1,.33.59,2,2,0,0,1,.12.75,2.35,2.35,0,0,1-.16.89,1.76,1.76,0,0,1-.52.7,2.59,2.59,0,0,1-.89.47,4.68,4.68,0,0,1-1.27.16H40.86V5.54h1.59a4.48,4.48,0,0,1,1.24.15,2.42,2.42,0,0,1,.85.42,1.63,1.63,0,0,1,.48.66,2.41,2.41,0,0,1,.15.87m-1.05,0a1.22,1.22,0,0,0-.4-.94,1.82,1.82,0,0,0-1.27-.37H41.9V9.19h.54a1.74,1.74,0,0,0,1.25-.4,1.45,1.45,0,0,0,.43-1.12m.16,3.78a1.37,1.37,0,0,0-.43-1A1.82,1.82,0,0,0,42.6,10h-.7v2.87h.64a2,2,0,0,0,1.33-.36,1.37,1.37,0,0,0,.41-1.08m6.38,2.3h-.88v-.64h0a.84.84,0,0,1-.15.21,1.56,1.56,0,0,1-.3.26,3.15,3.15,0,0,1-.45.22,1.83,1.83,0,0,1-.59.09,2.06,2.06,0,0,1-.68-.11,1.23,1.23,0,0,1-.52-.36,1.72,1.72,0,0,1-.32-.65,3.45,3.45,0,0,1-.12-1V8h1v3.68a1.65,1.65,0,0,0,.23,1,.82.82,0,0,0,.72.31,1.16,1.16,0,0,0,.7-.21,2.65,2.65,0,0,0,.45-.41V8h1m4.59,5.71V10.07A1.75,1.75,0,0,0,55,9a.88.88,0,0,0-.75-.31,1.17,1.17,0,0,0-.71.21,2.31,2.31,0,0,0-.45.42v4.4h-1V8H53v.64h0a1.5,1.5,0,0,1,.15-.21,1.7,1.7,0,0,1,.31-.26A2.36,2.36,0,0,1,54,8a1.89,1.89,0,0,1,.6-.09,1.92,1.92,0,0,1,.69.11,1.35,1.35,0,0,1,.52.36A1.9,1.9,0,0,1,56.1,9a3.84,3.84,0,0,1,.11,1v3.75M57.39,11a4,4,0,0,1,.23-1.45,2.55,2.55,0,0,1,.58-.94A2.06,2.06,0,0,1,59,8.08a2.89,2.89,0,0,1,.91-.15,2.17,2.17,0,0,1,.47,0,1.45,1.45,0,0,1,.33.1V5.34l1-.11v8.52h-.88v-.61h0a.73.73,0,0,1-.13.2,1,1,0,0,1-.26.25,1.18,1.18,0,0,1-.42.21,1.64,1.64,0,0,1-.58.09,1.87,1.87,0,0,1-.77-.16,1.52,1.52,0,0,1-.63-.51,2.7,2.7,0,0,1-.44-.9A5.18,5.18,0,0,1,57.39,11M59.65,13a1.31,1.31,0,0,0,.41-.06,1.28,1.28,0,0,0,.31-.15,1,1,0,0,0,.22-.19.83.83,0,0,0,.13-.16V9a1.05,1.05,0,0,0-.3-.15A1.31,1.31,0,0,0,60,8.75a1.64,1.64,0,0,0-.63.12,1.19,1.19,0,0,0-.5.37,1.74,1.74,0,0,0-.34.68,3.72,3.72,0,0,0-.13,1,4.61,4.61,0,0,0,.1,1,1.9,1.9,0,0,0,.28.64,1.08,1.08,0,0,0,.88.46M66.83,10c0,.24,0,.46,0,.63s0,.34,0,.47H63.84a2.51,2.51,0,0,0,.44,1.49,1.32,1.32,0,0,0,1.11.48,1.53,1.53,0,0,0,.45-.06,2.32,2.32,0,0,0,.35-.14l.25-.17.15-.13.36.67-.18.18a1.77,1.77,0,0,1-.32.22,1.93,1.93,0,0,1-.5.2,2.48,2.48,0,0,1-.71.08,2.28,2.28,0,0,1-1-.18,1.74,1.74,0,0,1-.74-.55,2.56,2.56,0,0,1-.47-.95,5.13,5.13,0,0,1-.17-1.39,4.28,4.28,0,0,1,.18-1.31,2.52,2.52,0,0,1,.47-.91,1.69,1.69,0,0,1,.69-.53,2,2,0,0,1,.84-.17,1.66,1.66,0,0,1,1.29.51A2.34,2.34,0,0,1,66.83,10M65,8.68a1,1,0,0,0-.82.43,2.28,2.28,0,0,0-.36,1.24h2.08a.72.72,0,0,0,0-.17,2,2,0,0,0,0-.25A1.53,1.53,0,0,0,65.71,9,.8.8,0,0,0,65,8.68m5.56.51a2.64,2.64,0,0,0-.35-.29,1.09,1.09,0,0,0-.65-.18.92.92,0,0,0-.59.17.6.6,0,0,0-.2.43.73.73,0,0,0,.19.53,2.59,2.59,0,0,0,.56.45l.36.22a3.33,3.33,0,0,1,.91.74,1.51,1.51,0,0,1,.34,1,1.55,1.55,0,0,1-.47,1.14,1.83,1.83,0,0,1-1.35.46,2.27,2.27,0,0,1-.61-.07,3.5,3.5,0,0,1-.46-.16,1.77,1.77,0,0,1-.32-.21l-.22-.21.47-.76a1.36,1.36,0,0,0,.17.16,1.55,1.55,0,0,0,.24.19,1.57,1.57,0,0,0,.32.15,1.33,1.33,0,0,0,.42.06,1,1,0,0,0,.65-.19.57.57,0,0,0,.23-.47,1.23,1.23,0,0,0,0-.35.92.92,0,0,0-.16-.27,1.23,1.23,0,0,0-.27-.22l-.35-.24L69,11.07a3.42,3.42,0,0,1-.84-.72,1.55,1.55,0,0,1-.3-1A1.45,1.45,0,0,1,68,8.78a1.34,1.34,0,0,1,.36-.46A1.67,1.67,0,0,1,68.89,8a1.78,1.78,0,0,1,.65-.11,2.32,2.32,0,0,1,.57.06,2,2,0,0,1,.42.17,1.55,1.55,0,0,1,.28.2L71,8.5m4.29,5.25V10.07a2,2,0,0,0-.2-1,.73.73,0,0,0-.66-.31,1.33,1.33,0,0,0-.42.06,1.66,1.66,0,0,0-.33.15,1.69,1.69,0,0,0-.25.2l-.18.19v4.4h-1V8h.88v.64h0a1.2,1.2,0,0,1,.17-.23,1.56,1.56,0,0,1,.3-.26A1.38,1.38,0,0,1,74.08,8a1.74,1.74,0,0,1,.53-.08A1.43,1.43,0,0,1,76,8.66a1.72,1.72,0,0,1,.23-.26,1.78,1.78,0,0,1,.33-.25A1.85,1.85,0,0,1,77,8a1.72,1.72,0,0,1,.52-.07c1.16,0,1.74.67,1.74,2v3.83h-1V10.07a1.66,1.66,0,0,0-.25-1,.88.88,0,0,0-.74-.31,1.11,1.11,0,0,0-.67.2,3.5,3.5,0,0,0-.43.37,2.36,2.36,0,0,1,0,.28c0,.1,0,.21,0,.32v3.83m5.4,0h-1V8h1Zm-.47-7.09a.62.62,0,0,1-.48-.19.71.71,0,0,1-.18-.5.69.69,0,0,1,.18-.49.62.62,0,0,1,.48-.19.59.59,0,0,1,.46.19.69.69,0,0,1,.18.49.71.71,0,0,1-.18.5.59.59,0,0,1-.46.19m5.07,7.09V10.07A1.67,1.67,0,0,0,86,9a.87.87,0,0,0-.74-.31,1.15,1.15,0,0,0-.71.21,2.4,2.4,0,0,0-.46.42v4.4h-1V8H84v.64h0a1.5,1.5,0,0,1,.15-.21,1.7,1.7,0,0,1,.31-.26A2.36,2.36,0,0,1,84.94,8a2.1,2.1,0,0,1,1.28,0,1.32,1.32,0,0,1,.53.36,1.89,1.89,0,0,1,.33.65,3.4,3.4,0,0,1,.12,1v3.75m2.41,0h-1V8h1Zm-.48-7.09a.62.62,0,0,1-.48-.19.71.71,0,0,1-.18-.5.69.69,0,0,1,.18-.49.62.62,0,0,1,.48-.19.63.63,0,0,1,.47.19.73.73,0,0,1,.17.49.76.76,0,0,1-.17.5.63.63,0,0,1-.47.19m4.41,2.53a1.93,1.93,0,0,0-.34-.29,1.12,1.12,0,0,0-.66-.18.91.91,0,0,0-.58.17.58.58,0,0,0-.2.43.77.77,0,0,0,.18.53,3,3,0,0,0,.57.45l.36.21a3.54,3.54,0,0,1,.91.75,1.51,1.51,0,0,1,.34,1,1.55,1.55,0,0,1-.47,1.14,1.87,1.87,0,0,1-1.36.46,2.15,2.15,0,0,1-.6-.07,3,3,0,0,1-.46-.16,2.37,2.37,0,0,1-.33-.21,2.06,2.06,0,0,1-.21-.21l.46-.76.18.16a1,1,0,0,0,.24.19,1.35,1.35,0,0,0,.32.15,1.33,1.33,0,0,0,.42.06,1,1,0,0,0,.65-.19.6.6,0,0,0,.23-.47,1,1,0,0,0-.06-.35.74.74,0,0,0-.16-.27,1.43,1.43,0,0,0-.26-.22l-.36-.24L92,11.07a3.42,3.42,0,0,1-.84-.72,1.55,1.55,0,0,1-.31-1A1.45,1.45,0,0,1,91,8.78a1.31,1.31,0,0,1,.35-.46A1.85,1.85,0,0,1,91.86,8a1.74,1.74,0,0,1,.65-.11,2.37,2.37,0,0,1,.57.06,1.74,1.74,0,0,1,.41.17,1.34,1.34,0,0,1,.29.2L94,8.5m3.73.32H96.44V12a1.62,1.62,0,0,0,.15.83.62.62,0,0,0,.53.22,1,1,0,0,0,.36-.06l.23-.11.13.77a1.23,1.23,0,0,1-.28.15,1.53,1.53,0,0,1-.61.1,1.41,1.41,0,0,1-1.11-.41,2,2,0,0,1-.37-1.36V8.82h-.69V8.18L95.47,8l.11-1.6h.86V8h1.37M102.36,10c0,.24,0,.45,0,.63s0,.34,0,.47H99.37a2.58,2.58,0,0,0,.44,1.49,1.35,1.35,0,0,0,1.11.48,1.53,1.53,0,0,0,.45-.06,1.69,1.69,0,0,0,.35-.14,1.52,1.52,0,0,0,.25-.17l.15-.13.36.67-.18.18a1.47,1.47,0,0,1-.32.22,1.8,1.8,0,0,1-.5.2,2.45,2.45,0,0,1-.7.08,2.33,2.33,0,0,1-1-.18,1.8,1.8,0,0,1-.74-.55,2.73,2.73,0,0,1-.47-.95,5.16,5.16,0,0,1-.16-1.39,4.29,4.29,0,0,1,.17-1.31,2.52,2.52,0,0,1,.47-.91,1.83,1.83,0,0,1,.69-.53,2,2,0,0,1,.84-.17,1.66,1.66,0,0,1,1.29.51,2.29,2.29,0,0,1,.46,1.56m-1.81-1.29a1,1,0,0,0-.82.43,2.47,2.47,0,0,0-.36,1.24h2.09a.87.87,0,0,0,0-.18,1.77,1.77,0,0,0,0-.24,1.53,1.53,0,0,0-.24-.92.8.8,0,0,0-.69-.33m5.61.2L106,8.82a1.33,1.33,0,0,0-.32,0A1,1,0,0,0,105,9a1.39,1.39,0,0,0-.36.53v4.19h-1V8h.88v.77h0a1.66,1.66,0,0,1,.16-.33,1.23,1.23,0,0,1,.23-.28,1.27,1.27,0,0,1,.34-.2,1.66,1.66,0,0,1,.47-.07,1,1,0,0,1,.33,0l.2.06m1.79,5.72h-1V8h1Zm-.47-7.09a.62.62,0,0,1-.48-.19.71.71,0,0,1-.18-.5.69.69,0,0,1,.18-.49.62.62,0,0,1,.48-.19.59.59,0,0,1,.46.19.69.69,0,0,1,.18.49.71.71,0,0,1-.18.5.59.59,0,0,1-.46.19m6,7.09h-.88v-.64h0a.84.84,0,0,1-.15.21,1.56,1.56,0,0,1-.3.26,3.15,3.15,0,0,1-.45.22,1.83,1.83,0,0,1-.59.09,2.06,2.06,0,0,1-.68-.11,1.14,1.14,0,0,1-.51-.36,1.6,1.6,0,0,1-.33-.65,3.45,3.45,0,0,1-.12-1V8h1v3.68a1.73,1.73,0,0,0,.23,1,.83.83,0,0,0,.72.31,1.14,1.14,0,0,0,.7-.21,2.65,2.65,0,0,0,.45-.41V8h1M118,13.75V10.07a1.87,1.87,0,0,0-.2-1,.7.7,0,0,0-.65-.31,1.44,1.44,0,0,0-.43.06,1.35,1.35,0,0,0-.32.15,1.29,1.29,0,0,0-.25.2,1.53,1.53,0,0,0-.18.19v4.4h-1V8h.87v.64h0a2.15,2.15,0,0,1,.18-.23,1.48,1.48,0,0,1,.29-.26,1.38,1.38,0,0,1,.42-.21,1.53,1.53,0,0,1,.54-.08,1.43,1.43,0,0,1,1.38.76A1.6,1.6,0,0,1,119,8.4a2.3,2.3,0,0,1,.34-.25,1.61,1.61,0,0,1,.42-.18,1.79,1.79,0,0,1,.53-.07c1.15,0,1.74.67,1.74,2v3.83h-1V10.07a1.59,1.59,0,0,0-.25-1,.88.88,0,0,0-.74-.31,1.11,1.11,0,0,0-.67.2,2.74,2.74,0,0,0-.42.37,1.27,1.27,0,0,1,0,.28c0,.1,0,.21,0,.32v3.83M43.06,20.82H41.9v4.93h-1V20.82h-.7v-.64l.7-.13V18.91a2.41,2.41,0,0,1,.12-.8,1.79,1.79,0,0,1,.35-.55,1.36,1.36,0,0,1,.5-.31,2,2,0,0,1,.61-.09,1.58,1.58,0,0,1,.52.08l.29.13-.21.8a.73.73,0,0,0-.2-.1A.76.76,0,0,0,42.6,18a.65.65,0,0,0-.52.22,1.26,1.26,0,0,0-.18.78v1h1.29M48,25.75h-.88v-.64h0a1.24,1.24,0,0,1-.15.21,1.37,1.37,0,0,1-.31.26,2.57,2.57,0,0,1-.44.22,1.83,1.83,0,0,1-.59.09,2.06,2.06,0,0,1-.68-.11,1.17,1.17,0,0,1-.52-.36,1.72,1.72,0,0,1-.32-.65,3.5,3.5,0,0,1-.12-1V20h1v3.68a1.65,1.65,0,0,0,.24,1,.82.82,0,0,0,.72.31,1.16,1.16,0,0,0,.7-.21,2.65,2.65,0,0,0,.45-.41V20h1M45.65,18.4a.6.6,0,0,1-.17.44.55.55,0,0,1-.4.16.56.56,0,0,1-.41-.16.6.6,0,0,1-.16-.44.58.58,0,0,1,.16-.44.57.57,0,0,1,.41-.17.56.56,0,0,1,.4.17.59.59,0,0,1,.17.44m1.83,0a.6.6,0,0,1-.17.44.54.54,0,0,1-.4.16.57.57,0,0,1-.41-.16.6.6,0,0,1-.16-.44.57.57,0,0,1,.57-.61.54.54,0,0,1,.4.17.59.59,0,0,1,.17.44M52,20.88l-.15-.06a1.39,1.39,0,0,0-.32,0,1,1,0,0,0-.71.24,1.39,1.39,0,0,0-.36.53v4.19h-1V20h.88v.77h0a2.41,2.41,0,0,1,.15-.33,1.05,1.05,0,0,1,.24-.28,1,1,0,0,1,.34-.2,1.55,1.55,0,0,1,.47-.07,1,1,0,0,1,.32,0l.2.06m7.59-.39a2.48,2.48,0,0,1-.1.75,1.94,1.94,0,0,1-.3.55,1.39,1.39,0,0,1-.43.37,2,2,0,0,1-.5.22v0a1.63,1.63,0,0,1,.6.23,1.94,1.94,0,0,1,.49.41,1.88,1.88,0,0,1,.33.59,2.27,2.27,0,0,1,.13.75,2.35,2.35,0,0,1-.17.89,1.76,1.76,0,0,1-.52.7,2.63,2.63,0,0,1-.88.47,4.75,4.75,0,0,1-1.28.16H55.4V17.54H57a4.53,4.53,0,0,1,1.24.15,2.33,2.33,0,0,1,.85.42,1.57,1.57,0,0,1,.48.66,2.41,2.41,0,0,1,.15.87m-1,0a1.23,1.23,0,0,0-.41-.94A1.82,1.82,0,0,0,57,18.36h-.55v2.83H57a1.79,1.79,0,0,0,1.27-.4,1.48,1.48,0,0,0,.43-1.12m.15,3.78a1.34,1.34,0,0,0-.44-1.05A1.77,1.77,0,0,0,57.14,22h-.7v2.88h.64a2,2,0,0,0,1.33-.36,1.37,1.37,0,0,0,.41-1.08m3.34,2.3h-1V20h1Zm-.47-7.09a.62.62,0,0,1-.48-.19A.71.71,0,0,1,61,18a.69.69,0,0,1,.18-.49.62.62,0,0,1,.48-.19.59.59,0,0,1,.46.19.69.69,0,0,1,.18.49.71.71,0,0,1-.18.5.59.59,0,0,1-.46.19m2.9,5.76a.89.89,0,0,0,.1.5.42.42,0,0,0,.35.14l.22,0L65.4,25l.08.71a1.07,1.07,0,0,1-.26.1,1.73,1.73,0,0,1-.51.06,1.06,1.06,0,0,1-.79-.3,1.53,1.53,0,0,1-.29-1.06V17.34l1-.11M66.09,23a4,4,0,0,1,.23-1.45,2.69,2.69,0,0,1,.58-1,2.15,2.15,0,0,1,.81-.5,2.85,2.85,0,0,1,.91-.15,2.23,2.23,0,0,1,.47,0,1.87,1.87,0,0,1,.33.1V17.34l1-.11v8.52h-.88v-.61h0a.73.73,0,0,1-.13.2,1.25,1.25,0,0,1-.26.25,1.37,1.37,0,0,1-.42.21,1.68,1.68,0,0,1-.58.09,1.83,1.83,0,0,1-.77-.16,1.52,1.52,0,0,1-.63-.51,2.52,2.52,0,0,1-.44-.9A5.18,5.18,0,0,1,66.09,23M68.35,25a1.31,1.31,0,0,0,.41-.06,1.05,1.05,0,0,0,.3-.15,1.11,1.11,0,0,0,.23-.19.83.83,0,0,0,.13-.16V21a1.2,1.2,0,0,0-.3-.15,1.31,1.31,0,0,0-.43-.06,1.64,1.64,0,0,0-.63.12,1.19,1.19,0,0,0-.5.37,1.74,1.74,0,0,0-.34.68,3.37,3.37,0,0,0-.13,1,4.06,4.06,0,0,0,.1,1,1.9,1.9,0,0,0,.28.64,1,1,0,0,0,.41.35,1.12,1.12,0,0,0,.47.11m7.51.71H75v-.64h0a1.45,1.45,0,0,1-.16.21,1.56,1.56,0,0,1-.3.26,2.36,2.36,0,0,1-.45.22,1.76,1.76,0,0,1-.58.09,2.12,2.12,0,0,1-.69-.11,1.22,1.22,0,0,1-.51-.36,1.6,1.6,0,0,1-.33-.65,4,4,0,0,1-.11-1V20h1v3.68a1.73,1.73,0,0,0,.23,1,.85.85,0,0,0,.72.31,1.12,1.12,0,0,0,.7-.21,2.76,2.76,0,0,0,.46-.41V20h1m4.6,5.71V22.07a1.74,1.74,0,0,0-.25-1,.87.87,0,0,0-.74-.31,1.18,1.18,0,0,0-.72.21,2.31,2.31,0,0,0-.45.42v4.4h-1V20h.88v.64h0a1.13,1.13,0,0,1,.16-.21,1.41,1.41,0,0,1,.31-.26,1.89,1.89,0,0,1,.45-.22,1.78,1.78,0,0,1,.59-.09,1.85,1.85,0,0,1,.69.11,1.29,1.29,0,0,1,.53.36,1.89,1.89,0,0,1,.33.65,3.4,3.4,0,0,1,.12,1v3.75m5.53-5h-.71a1.94,1.94,0,0,1,.27,1,2.14,2.14,0,0,1-.15.82,1.87,1.87,0,0,1-.41.61,1.79,1.79,0,0,1-.64.38,2.19,2.19,0,0,1-.77.13h-.31a1,1,0,0,0-.3.19.44.44,0,0,0-.15.35.37.37,0,0,0,.13.29.74.74,0,0,0,.45.11h.72a3.52,3.52,0,0,1,.75.08,2,2,0,0,1,.61.27,1.37,1.37,0,0,1,.39.47,1.47,1.47,0,0,1,.14.69,1.79,1.79,0,0,1-.19.84,1.87,1.87,0,0,1-.56.66,2.77,2.77,0,0,1-.86.43,4.11,4.11,0,0,1-1.15.15,2.1,2.1,0,0,1-1.39-.4,1.41,1.41,0,0,1-.47-1.14,1.22,1.22,0,0,1,.11-.56,1.86,1.86,0,0,1,.58-.68l.26-.16v0a.92.92,0,0,1-.37-.8.8.8,0,0,1,.09-.39,1.18,1.18,0,0,1,.2-.27,1.3,1.3,0,0,1,.23-.18l.17-.09v0a1.68,1.68,0,0,1-.71-.64,2.05,2.05,0,0,1-.27-1.11A2.17,2.17,0,0,1,82.8,21a1.73,1.73,0,0,1,.41-.6,1.83,1.83,0,0,1,.62-.36,2.56,2.56,0,0,1,.75-.11,2,2,0,0,1,.77.14h1.73M84.3,25.57a1.94,1.94,0,0,1-.44,0c-.07,0-.14.09-.21.15a.91.91,0,0,0-.19.2,1.46,1.46,0,0,0-.13.28,1.07,1.07,0,0,0,0,.37c0,.62.33.92,1,.92a2,2,0,0,0,1.28-.34,1,1,0,0,0,.42-.78.63.63,0,0,0-.27-.58,1.18,1.18,0,0,0-.69-.18m.54-3.76a1.15,1.15,0,0,0-.29-.88,1,1,0,0,0-.68-.26,1.08,1.08,0,0,0-.72.26,1.11,1.11,0,0,0-.3.88,1.1,1.1,0,0,0,.3.88,1,1,0,0,0,.69.26,1,1,0,0,0,.71-.26,1.13,1.13,0,0,0,.29-.88M44.66,37.75h-.88v-.64h0a1.51,1.51,0,0,1-.16.2,2,2,0,0,1-.3.27,2.7,2.7,0,0,1-.45.22,1.76,1.76,0,0,1-.58.09,2.08,2.08,0,0,1-.69-.11,1.32,1.32,0,0,1-.52-.36,1.72,1.72,0,0,1-.32-.65,3.5,3.5,0,0,1-.12-1V32h1v3.68a1.73,1.73,0,0,0,.23,1,.83.83,0,0,0,.72.31,1.14,1.14,0,0,0,.7-.21,2.31,2.31,0,0,0,.45-.41V32h1m4.59,5.71V34.07A1.75,1.75,0,0,0,49,33a.88.88,0,0,0-.75-.31,1.17,1.17,0,0,0-.71.21,2.31,2.31,0,0,0-.45.42v4.4h-1V32H47v.64h0a1.83,1.83,0,0,1,.15-.21,2.12,2.12,0,0,1,.31-.26A2.19,2.19,0,0,1,48,32a1.78,1.78,0,0,1,.59-.09,1.92,1.92,0,0,1,.69.11,1.19,1.19,0,0,1,.52.36,1.74,1.74,0,0,1,.34.65,3.4,3.4,0,0,1,.12,1v3.75M51.4,35a4,4,0,0,1,.22-1.45,2.7,2.7,0,0,1,.59-1,2,2,0,0,1,.8-.5,2.89,2.89,0,0,1,.91-.15,2.17,2.17,0,0,1,.47,0,1.75,1.75,0,0,1,.34.1V29.34l1-.11v8.52h-.88v-.61h0a1.25,1.25,0,0,1-.14.2,1,1,0,0,1-.26.25,1.65,1.65,0,0,1-1,.3,1.79,1.79,0,0,1-.76-.16,1.49,1.49,0,0,1-.64-.51,2.49,2.49,0,0,1-.43-.91A4.65,4.65,0,0,1,51.4,35M53.65,37a1,1,0,0,0,.41-.07,1,1,0,0,0,.31-.14,1.51,1.51,0,0,0,.36-.36V33a1.28,1.28,0,0,0-.31-.15,1.31,1.31,0,0,0-.43-.06,1.59,1.59,0,0,0-.62.12,1.09,1.09,0,0,0-.51.37,1.88,1.88,0,0,0-.34.68,3.67,3.67,0,0,0-.13,1,4.61,4.61,0,0,0,.1,1,1.73,1.73,0,0,0,.29.64,1,1,0,0,0,.4.35,1.12,1.12,0,0,0,.47.11m6.24.71V29.54h4l-.07.82H60.93v3h2.7v.83h-2.7v3.53m3.72-2.86a4.5,4.5,0,0,1,.18-1.35,2.79,2.79,0,0,1,.5-.94,2,2,0,0,1,.73-.53,2.36,2.36,0,0,1,1.76,0,1.86,1.86,0,0,1,.7.53,2.76,2.76,0,0,1,.47.94,4.87,4.87,0,0,1,.17,1.35A4.6,4.6,0,0,1,69,36.26a2.46,2.46,0,0,1-.49.94,1.83,1.83,0,0,1-.73.52,2.39,2.39,0,0,1-1.77,0,1.59,1.59,0,0,1-.69-.52,2.71,2.71,0,0,1-.48-.93,5,5,0,0,1-.17-1.38m3.51,0a3.21,3.21,0,0,0-.33-1.66,1,1,0,0,0-.93-.51,1,1,0,0,0-.92.51,3.21,3.21,0,0,0-.33,1.66A3.14,3.14,0,0,0,66,36.54a1.08,1.08,0,0,0,.93.5,1,1,0,0,0,.92-.5,3.14,3.14,0,0,0,.33-1.65m4.72-2-.15-.06a1.33,1.33,0,0,0-.32,0,1,1,0,0,0-.71.24,1.39,1.39,0,0,0-.36.53v4.19h-1V32h.89v.77h0a1.66,1.66,0,0,1,.16-.33,1.23,1.23,0,0,1,.23-.28A1.27,1.27,0,0,1,72,32a1.61,1.61,0,0,1,.47-.07,1,1,0,0,1,.33,0L73,32m3.24,1.16a1.93,1.93,0,0,0-.34-.29,1.1,1.1,0,0,0-.66-.18.91.91,0,0,0-.58.17.57.57,0,0,0-.2.43.77.77,0,0,0,.18.53,2.69,2.69,0,0,0,.57.45l.36.21a3.51,3.51,0,0,1,.91.75,1.56,1.56,0,0,1,.34,1,1.53,1.53,0,0,1-.48,1.14,1.83,1.83,0,0,1-1.35.46,2.2,2.2,0,0,1-.6-.07,2.22,2.22,0,0,1-.46-.17,1.7,1.7,0,0,1-.33-.2l-.21-.21.46-.76.17.16a1.26,1.26,0,0,0,.25.19,1.35,1.35,0,0,0,.32.15A1.33,1.33,0,0,0,75,37a1,1,0,0,0,.65-.19.61.61,0,0,0,.23-.47.91.91,0,0,0-.06-.35.74.74,0,0,0-.16-.27,1.16,1.16,0,0,0-.26-.22l-.36-.24-.35-.23a3.42,3.42,0,0,1-.84-.72,1.55,1.55,0,0,1-.31-1,1.42,1.42,0,0,1,.13-.59,1.31,1.31,0,0,1,.35-.46,1.65,1.65,0,0,1,.53-.31,1.74,1.74,0,0,1,.65-.11,2.37,2.37,0,0,1,.57.06,1.94,1.94,0,0,1,.41.17,1.64,1.64,0,0,1,.29.2l.18.17m4.46.64L81,33a1.15,1.15,0,0,0-.2-.15l-.28-.12a1.13,1.13,0,0,0-.38-.05,1.58,1.58,0,0,0-.58.11,1.14,1.14,0,0,0-.46.36,1.87,1.87,0,0,0-.31.65,3.43,3.43,0,0,0-.12,1,4.54,4.54,0,0,0,.11,1.06,2,2,0,0,0,.27.68,1,1,0,0,0,.44.37,1.31,1.31,0,0,0,.56.12,1.2,1.2,0,0,0,.67-.16,1.94,1.94,0,0,0,.33-.25l.4.67a1.56,1.56,0,0,1-.18.17,1.45,1.45,0,0,1-.29.2,2.07,2.07,0,0,1-1,.22,2.7,2.7,0,0,1-.9-.15,1.8,1.8,0,0,1-.72-.51,2.56,2.56,0,0,1-.49-.93,4.81,4.81,0,0,1-.18-1.42,3.79,3.79,0,0,1,.22-1.39,2.52,2.52,0,0,1,.56-.92,1.92,1.92,0,0,1,.77-.51,2.28,2.28,0,0,1,.84-.16,2.37,2.37,0,0,1,.57.06,2.07,2.07,0,0,1,.42.14,1.26,1.26,0,0,1,.28.2,1.72,1.72,0,0,1,.19.17m4.13,5.28V34.07a1.74,1.74,0,0,0-.25-1,.87.87,0,0,0-.74-.31,1.18,1.18,0,0,0-.72.21,2.64,2.64,0,0,0-.45.42v4.4h-1V29.34l1-.11v3.39h0a1.49,1.49,0,0,1,.15-.19,1.31,1.31,0,0,1,.27-.24A2.59,2.59,0,0,1,84.4,32a1.82,1.82,0,0,1,.6-.08,1.5,1.5,0,0,1,1.19.49A2.38,2.38,0,0,1,86.63,34v3.75m5.44,0h-.88v-.64h0a1.1,1.1,0,0,1-.15.2,2,2,0,0,1-.3.27,2.7,2.7,0,0,1-.45.22,1.81,1.81,0,0,1-.58.09,2.08,2.08,0,0,1-.69-.11,1.32,1.32,0,0,1-.52-.36,1.72,1.72,0,0,1-.32-.65,3.5,3.5,0,0,1-.12-1V32h1v3.68a1.73,1.73,0,0,0,.23,1A.82.82,0,0,0,90,37a1.14,1.14,0,0,0,.7-.21,2.65,2.65,0,0,0,.45-.41V32h1m4.59,5.71V34.07a1.75,1.75,0,0,0-.24-1,.88.88,0,0,0-.75-.31,1.17,1.17,0,0,0-.71.21,2.31,2.31,0,0,0-.45.42v4.4h-1V32h.87v.64h0a1.24,1.24,0,0,1,.15-.21,2.12,2.12,0,0,1,.31-.26,2.19,2.19,0,0,1,.46-.22A1.78,1.78,0,0,1,96,31.9a1.92,1.92,0,0,1,.69.11,1.19,1.19,0,0,1,.52.36,1.74,1.74,0,0,1,.34.65,3.79,3.79,0,0,1,.12,1v3.75m5.53-5h-.71a1.94,1.94,0,0,1,.27,1,2.18,2.18,0,0,1-.15.82,1.75,1.75,0,0,1-.42.61,2.07,2.07,0,0,1-.62.38,2.3,2.3,0,0,1-.79.13h-.3a1,1,0,0,0-.3.19.42.42,0,0,0-.16.35.35.35,0,0,0,.14.28.66.66,0,0,0,.44.12h.73a3.52,3.52,0,0,1,.75.08,1.83,1.83,0,0,1,.6.27,1.21,1.21,0,0,1,.4.47,1.6,1.6,0,0,1,.14.69A1.79,1.79,0,0,1,103,39a2,2,0,0,1-.55.66,3,3,0,0,1-.88.43,4,4,0,0,1-1.14.15,2.1,2.1,0,0,1-1.39-.4,1.4,1.4,0,0,1-.48-1.15,1.2,1.2,0,0,1,.12-.55,1.56,1.56,0,0,1,.27-.4,1.33,1.33,0,0,1,.31-.28l.26-.16v0a.92.92,0,0,1-.37-.8.8.8,0,0,1,.09-.39,1,1,0,0,1,.2-.27,1.74,1.74,0,0,1,.22-.18l.18-.09v0a1.62,1.62,0,0,1-.71-.64,2.05,2.05,0,0,1-.27-1.11A2,2,0,0,1,99,33a1.63,1.63,0,0,1,1-1,2.56,2.56,0,0,1,.75-.11,1.94,1.94,0,0,1,.76.14h1.74m-2.78,5.53a2,2,0,0,1-.45,0,1.49,1.49,0,0,0-.2.15.91.91,0,0,0-.19.2,1,1,0,0,0-.13.28,1.06,1.06,0,0,0-.06.37c0,.62.34.92,1,.92a2,2,0,0,0,1.29-.34,1,1,0,0,0,.42-.78.68.68,0,0,0-.26-.59,1.33,1.33,0,0,0-.71-.17m.55-3.76a1.15,1.15,0,0,0-.29-.88,1,1,0,0,0-.69-.26,1.07,1.07,0,0,0-.71.26,1.44,1.44,0,0,0,0,1.76,1,1,0,0,0,.69.26,1,1,0,0,0,.71-.26,1.15,1.15,0,0,0,.29-.88"/><path class="cls-3" d="M31.92,45.75h1.5v20h-3.5v-20"/><path class="cls-4" d="M31.92,25.65h1.5v20.1h-3.5V25.65"/><path class="cls-2" d="M20.82,12.74a2.82,2.82,0,0,0,3,1.6,8.69,8.69,0,0,1-2-2.26L20,9.09a4.41,4.41,0,0,0-1.37-2.43,2.4,2.4,0,0,0,.56-.28c-1.22,0-2.43-.62-3.1-.62a.62.62,0,0,0-.7.59c0,.38.41.77,1.13.77a5.26,5.26,0,0,0,.6-.06,2.83,2.83,0,0,1,.7,1.72c0,1.31-1.57,2.34-3.15,2.34l-.27,0a3.57,3.57,0,0,1-.61-1.48c0-1,.68-1.9.68-2.93A1.93,1.93,0,0,0,14,5.49a1.78,1.78,0,0,0,.46-.55,1.33,1.33,0,0,1-.44,0c-.76,0-1.38-.2-2-.2-.34,0-.44.11-.44.21a.25.25,0,0,0,0,.1A1.76,1.76,0,0,0,11.26,5a3.45,3.45,0,0,0-.57-.05c-.74,0-1,.31-1,.57a2.21,2.21,0,0,0,.38.94,2.23,2.23,0,0,1,.78-.24c.39,0,.73.37.92.81a3.69,3.69,0,0,1-.58,0,4.51,4.51,0,0,1-1.3-.25,0,0,0,0,0,0,0c0,.1.2.36.6.51a7.68,7.68,0,0,0,1.44.29.64.64,0,0,1-.28.32h-.1a6.27,6.27,0,0,1-1.39-.41s0,0,0,0c0,.28.72.89,1.35,1.12A7.25,7.25,0,0,0,9.94,11.1l-.26,0c-1.58,0-3.15-1-3.15-2.34a2.83,2.83,0,0,1,.7-1.72,5.26,5.26,0,0,0,.6.06c.72,0,1.11-.39,1.13-.77a.62.62,0,0,0-.7-.59c-.67,0-1.88.62-3.1.62a2.4,2.4,0,0,0,.56.28A4.41,4.41,0,0,0,4.35,9.09l-1.87,3a8.57,8.57,0,0,1-2,2.26,2.83,2.83,0,0,0,3-1.6l1-1.53a4.29,4.29,0,0,0,.26.58l-1.9,3.05a8.68,8.68,0,0,1-2,2.25,2.82,2.82,0,0,0,3-1.59l1.64-2.63q.19.21.39.39L3.62,17a8.68,8.68,0,0,1-2,2.25,2.8,2.8,0,0,0,3-1.59L6.93,14l.46.27L4.63,18.69a8.49,8.49,0,0,1-2,2.25,2.83,2.83,0,0,0,3-1.59l2.84-4.54L9,15,5.83,20.12a8.49,8.49,0,0,1-2,2.25,2.83,2.83,0,0,0,3-1.59l3.41-5.47.11,0a3,3,0,0,1,.16.85,6.16,6.16,0,0,1-2.49,4.41,1.35,1.35,0,0,0,.38.05,3.74,3.74,0,0,0,.59,0,14.84,14.84,0,0,1-1.33,2.11,9.86,9.86,0,0,0-1.51-.14c-.44,0-.49.26-.49.49a1.16,1.16,0,0,0,.4.9c.09-.21.25-.48,1.07-.48h.08c-.24.27-1,.87-1,1.36a.9.9,0,0,0,.82.8.88.88,0,0,1,0-.27,2.13,2.13,0,0,1,.64-1.18,1.33,1.33,0,0,0,0,.2c0,.93.08,1.36.67,1.36A.93.93,0,0,0,9,25.54a1.27,1.27,0,0,1-.4-1.15v-.45a2.48,2.48,0,0,0,0-.39,2.64,2.64,0,0,1,.46,0s.84-.07,1,.37c.23-.21.56-.5.56-.83s-.1-.46-.53-.46c-.17,0-.68.1-1.11.1A10.2,10.2,0,0,1,10,21.14a1.19,1.19,0,0,0,.4.63,4.4,4.4,0,0,1,.79-2.11,10.77,10.77,0,0,1,.15,1.84c0,2.31-.55,4-1.73,4.35a1,1,0,0,0,.81.5c.43,0,.67-.48.91-.94.12.34.47,1.17.81,1.17s.7-.83.82-1.17c.24.46.47.94.91.94a1,1,0,0,0,.81-.5c-1.18-.33-1.73-2-1.73-4.35a9.81,9.81,0,0,1,.15-1.84,4.47,4.47,0,0,1,.78,2.11,1.15,1.15,0,0,0,.41-.63A11,11,0,0,1,15.4,22.7c-.43,0-1-.1-1.11-.1-.43,0-.53.24-.53.46s.33.62.56.83c.2-.44,1-.37,1-.37a2.7,2.7,0,0,1,.46,0,2.48,2.48,0,0,0,0,.39v.45a1.27,1.27,0,0,1-.4,1.15.93.93,0,0,0,.56.21c.59,0,.67-.43.67-1.36a1.33,1.33,0,0,0,0-.2,2.13,2.13,0,0,1,.64,1.18.93.93,0,0,1,0,.27.9.9,0,0,0,.83-.8c0-.49-.75-1.09-1-1.36h.08c.82,0,1,.27,1.07.48a1.19,1.19,0,0,0,.4-.9c0-.23-.05-.49-.49-.49a9.86,9.86,0,0,0-1.51.14A14.84,14.84,0,0,1,15.3,20.6a3.74,3.74,0,0,0,.59,0,1.22,1.22,0,0,0,.37-.05,6.19,6.19,0,0,1-2.48-4.41,3,3,0,0,1,.16-.85l.11,0,3.41,5.47a2.82,2.82,0,0,0,3,1.59,8.6,8.6,0,0,1-2-2.25L15.31,15l.51-.18,2.84,4.54a2.83,2.83,0,0,0,3,1.59,8.31,8.31,0,0,1-2-2.25L17,14.28l.46-.27,2.26,3.61a2.8,2.8,0,0,0,3,1.59,8.68,8.68,0,0,1-2-2.25l-2.31-3.7a4.68,4.68,0,0,0,.38-.39l1.65,2.63a2.82,2.82,0,0,0,3,1.59,8.68,8.68,0,0,1-2-2.25l-1.9-3.05a6,6,0,0,0,.26-.58m-14.35-2a3.38,3.38,0,0,1,1.12-2.3L6.84,7A3,3,0,0,0,6,8.83C6,10.5,7.76,12,9.78,12c0,.14,0,.3,0,.45s0,.47,0,.69A4.25,4.25,0,0,1,5.51,9.23M8.6,22.9v0h0a9.08,9.08,0,0,0,1.16-.07,1.39,1.39,0,0,1,.27,0c.16,0,.29,0,.29.22a.85.85,0,0,1-.32.48,1.43,1.43,0,0,0-1-.27,4.32,4.32,0,0,0-.68.07H8.26v.08a3.22,3.22,0,0,1,0,.52v.45a1.63,1.63,0,0,0,.26,1.09.57.57,0,0,1-.18,0c-.34,0-.43-.14-.43-1.12,0-.2,0-.38,0-.5v-.18l0,0a2.65,2.65,0,0,0-1,1.58.73.73,0,0,1-.32-.49c0-.27.42-.69.91-1.18l.31-.31-.09,0a1.82,1.82,0,0,0-.46-.08,1.41,1.41,0,0,0-1.1.33A1.08,1.08,0,0,1,6,23.06.29.29,0,0,1,6,22.85a.28.28,0,0,1,.18,0h0a12.1,12.1,0,0,1,1.6.15h0a13.35,13.35,0,0,0,1.49-2.4.76.76,0,0,1,.25,0c.23,0,.29.15.35.38a7.93,7.93,0,0,0-1.32,2m6.18-2.39a.7.7,0,0,1,.24,0A14,14,0,0,0,16.51,23h0a12.1,12.1,0,0,1,1.6-.15h0a.3.3,0,0,1,.19,0,.29.29,0,0,1,.06.21,1.21,1.21,0,0,1-.14.51,1.41,1.41,0,0,0-1.1-.33,1.74,1.74,0,0,0-.46.08h-.05l0,0,.32.31c.48.49.91.91.91,1.18a.73.73,0,0,1-.32.49,2.67,2.67,0,0,0-1.05-1.58l0,0v.18c0,.12,0,.3,0,.5,0,1-.1,1.12-.43,1.12a.48.48,0,0,1-.18,0A1.69,1.69,0,0,0,16,24.39v-.45a3,3,0,0,1,0-.52v-.08h0a4.18,4.18,0,0,0-.67-.07,1.47,1.47,0,0,0-1,.27.88.88,0,0,1-.31-.48c0-.21.12-.22.29-.22l.27,0a9.08,9.08,0,0,0,1.16.07h0l0,0a7.65,7.65,0,0,0-1.32-2c.07-.23.13-.38.36-.38M12.13,7.21a2.25,2.25,0,0,0-.42-.83,1.16,1.16,0,0,0-.86-.46,2.13,2.13,0,0,0-.67.17A1.9,1.9,0,0,1,10,5.5c0-.14.25-.29.72-.29,1,0,1.64.47,1.64,1.25a2,2,0,0,1-.2.75m.46-1a1.36,1.36,0,0,0-.25-.59c0-.2.09-.4.42-.24-.18.18,0,.5,0,.5s.36-.17.29-.4c.53.12.15.84-.41.73m2,6.9c0-.22,0-.45,0-.69a3.7,3.7,0,0,0,0-.45c2,0,3.75-1.46,3.75-3.12A3,3,0,0,0,17.51,7l.21-.05a3.38,3.38,0,0,1,1.12,2.3,4.26,4.26,0,0,1-4.24,3.86"/><path class="cls-2" d="M33.42,5.75v20h-3.5v-20"/></svg>