<svg id="Ebene_1" data-name="Ebene 1" xmlns="http://www.w3.org/2000/svg" viewBox="0 0 139.45 67"><defs><style>.cls-1{font-size:34.87px;font-family:Arial-BoldMT, Arial;font-weight:700;}.cls-1,.cls-2{fill:#b3b3b3;}.cls-3,.cls-4{fill:none;stroke-width:4px;fill-rule:evenodd;}.cls-3{stroke:#2b3089;}.cls-4{stroke:#e3051b;}</style></defs><text x="-0.6" y="-27"/><text class="cls-1" transform="translate(58.09 53.87)">AMO</text><rect class="cls-2" width="11.48" height="11.48"/><rect class="cls-2" y="28.22" width="11.48" height="11.47"/><rect class="cls-2" y="14.13" width="11.48" height="11.43"/><rect class="cls-2" y="42.36" width="11.48" height="11.43"/><rect class="cls-2" x="14.13" width="11.48" height="11.48"/><rect class="cls-2" x="14.13" y="28.22" width="11.48" height="11.47"/><rect class="cls-2" x="14.13" y="14.13" width="11.48" height="11.43"/><rect class="cls-2" x="14.13" y="42.36" width="11.48" height="11.43"/><rect class="cls-2" x="28.22" width="11.48" height="11.48"/><rect class="cls-2" x="28.22" y="28.22" width="11.48" height="11.47"/><rect class="cls-2" x="28.22" y="14.13" width="11.48" height="11.43"/><rect class="cls-2" x="28.22" y="42.36" width="11.48" height="11.43"/><rect class="cls-2" x="42.36" width="11.48" height="11.48"/><rect class="cls-2" x="42.36" y="28.22" width="11.48" height="11.47"/><rect class="cls-2" x="42.36" y="14.13" width="11.48" height="11.43"/><rect class="cls-2" x="42.36" y="42.36" width="11.48" height="11.43"/><path class="cls-3" d="M29.29,61.3a11.47,11.47,0,1,0-12.07,4Z" transform="translate(-0.6 -27)"/><polygon class="cls-4" points="46.07 17.59 45.31 28.69 44.47 40.04 35.23 33.84 25.82 27.42 35.82 22.49 46.07 17.59"/></svg>