<svg id="Ebene_1" data-name="Ebene 1" xmlns="http://www.w3.org/2000/svg" viewBox="0 0 201 70"><defs><style>.cls-1,.cls-4{fill:#1961ac;}.cls-2{fill:#fdc400;}.cls-3{fill:#171616;}.cls-4{opacity:0;}</style></defs><rect class="cls-1" x="0.25" y="16.1" width="55.1" height="36.96"/><polyline class="cls-2" points="39.91 39.91 41.48 39.91 40.22 40.85 40.71 42.35 39.45 41.42 38.19 42.35 38.69 40.85 37.41 39.91 38.98 39.91 39.45 38.44 39.91 39.91"/><polyline class="cls-2" points="28.62 21.4 30.18 21.4 28.92 22.35 29.42 23.85 28.16 22.93 26.9 23.85 27.39 22.35 26.12 21.4 27.68 21.4 28.16 19.94 28.62 21.4"/><polyline class="cls-2" points="28.62 46.56 30.18 46.56 28.92 47.52 29.42 49.02 28.16 48.09 26.9 49.02 27.39 47.52 26.12 46.56 27.68 46.56 28.16 45.11 28.62 46.56"/><polyline class="cls-2" points="21.68 44.8 23.25 44.8 21.99 45.75 22.47 47.25 21.22 46.33 19.96 47.25 20.45 45.75 19.18 44.8 20.74 44.8 21.22 43.34 21.68 44.8"/><polyline class="cls-2" points="40.18 28.2 41.75 28.2 40.49 29.15 40.98 30.65 39.72 29.73 38.46 30.65 38.96 29.15 37.69 28.2 39.25 28.2 39.72 26.74 40.18 28.2"/><polyline class="cls-2" points="17.46 28.06 19.03 28.06 17.76 29.01 18.26 30.51 17 29.59 15.74 30.51 16.24 29.01 14.96 28.06 16.53 28.06 17 26.6 17.46 28.06"/><polyline class="cls-2" points="35.42 23.58 36.99 23.58 35.73 24.52 36.22 26.02 34.96 25.1 33.7 26.02 34.2 24.52 32.92 23.58 34.48 23.58 34.96 22.11 35.42 23.58"/><polyline class="cls-2" points="22.36 23.44 23.93 23.44 22.67 24.39 23.15 25.89 21.9 24.96 20.64 25.89 21.13 24.39 19.86 23.44 21.42 23.44 21.9 21.98 22.36 23.44"/><polyline class="cls-2" points="35.97 44.8 37.53 44.8 36.27 45.75 36.76 47.25 35.5 46.33 34.25 47.25 34.74 45.75 33.47 44.8 35.03 44.8 35.5 43.34 35.97 44.8"/><polyline class="cls-2" points="16.1 33.78 17.67 33.78 16.41 34.73 16.9 36.23 15.64 35.3 14.38 36.23 14.88 34.73 13.61 33.78 15.17 33.78 15.64 32.31 16.1 33.78"/><polyline class="cls-2" points="41.27 33.91 42.84 33.91 41.58 34.86 42.07 36.37 40.81 35.44 39.55 36.37 40.05 34.86 38.78 33.91 40.34 33.91 40.81 32.45 41.27 33.91"/><polyline class="cls-2" points="17.6 39.91 19.17 39.91 17.91 40.85 18.39 42.35 17.13 41.42 15.88 42.35 16.37 40.85 15.1 39.91 16.66 39.91 17.13 38.44 17.6 39.91"/><polyline class="cls-3" points="68.92 16.26 73.06 16.26 73.06 17 69.72 17 69.72 19.11 72.2 19.11 72.2 19.83 69.72 19.83 69.72 22.29 73.25 22.29 73.25 23.02 68.92 23.02 68.92 16.26"/><path class="cls-3" d="M74.54,20.68V16.26h.81v4.31c0,1.09.52,1.84,1.71,1.84a1.59,1.59,0,0,0,1.71-1.82V16.26h.79v4.4a2.3,2.3,0,0,1-2.5,2.48,2.28,2.28,0,0,1-2.52-2.46"/><path class="cls-3" d="M81.42,16.26h2.32c1.53,0,2.4.65,2.4,1.89A1.75,1.75,0,0,1,84.57,20l1.66,3h-.87l-1.62-2.91H82.22V23h-.8V16.26m2.28,3.13c1,0,1.65-.29,1.65-1.21S84.76,17,83.69,17H82.22v2.4Z"/><path class="cls-3" d="M87.46,19.64c0-2.17,1.25-3.51,2.92-3.51s2.91,1.34,2.91,3.51-1.24,3.51-2.91,3.51-2.92-1.34-2.92-3.51m5,0c0-1.76-.88-2.78-2.1-2.78s-2.11,1-2.11,2.78.87,2.78,2.11,2.78S92.48,21.4,92.48,19.64Z"/><path class="cls-3" d="M94.9,16.26h2.29c1.46,0,2.44.58,2.44,1.92s-1.08,2-2.49,2H95.7V23h-.8V16.26m2.28,3.18c1.08,0,1.66-.32,1.66-1.23S98.27,17,97.17,17H95.7v2.45Z"/><path class="cls-3" d="M102.44,16.23h.84l2.4,6.79h-.84l-.67-1.94h-2.68L100.83,23h-.78l2.39-6.79M101.62,15h.8v.86h-.8Zm2.31,5.38-1.07-3.17h0l-1.1,3.17ZM103.28,15h.81v.86h-.81Z"/><rect class="cls-3" x="107.08" y="16.26" width="0.8" height="6.75"/><path class="cls-3" d="M109.46,21.38l.67-.3a1.92,1.92,0,0,0,1.92,1.35c1,0,1.59-.4,1.59-1.11s-.37-1-1.7-1.42-2.25-.8-2.25-2a1.94,1.94,0,0,1,2.18-1.79,2.39,2.39,0,0,1,2.38,1.52l-.64.35a1.76,1.76,0,0,0-1.75-1.14c-.86,0-1.37.43-1.37,1s.45,1,1.78,1.38,2.16.88,2.16,2-1,1.89-2.41,1.89a2.54,2.54,0,0,1-2.56-1.77"/><path class="cls-3" d="M115.68,19.61c0-2.11,1.18-3.48,2.87-3.48a2.42,2.42,0,0,1,2.5,2.08l-.77.2c-.29-1-.75-1.54-1.74-1.54-1.26,0-2,1.06-2,2.73s.8,2.81,2.06,2.81c1,0,1.55-.54,1.84-1.63l.75.17a2.57,2.57,0,0,1-2.6,2.2c-1.71,0-2.87-1.33-2.87-3.54"/><polyline class="cls-3" points="122.66 16.26 123.46 16.26 123.46 19.09 126.94 19.09 126.94 16.26 127.75 16.26 127.75 23.02 126.94 23.02 126.94 19.83 123.46 19.83 123.46 23.02 122.66 23.02 122.66 16.26"/><polyline class="cls-3" points="129.66 16.26 133.81 16.26 133.81 17 130.47 17 130.47 19.11 132.95 19.11 132.95 19.83 130.47 19.83 130.47 22.29 134 22.29 134 23.02 129.66 23.02 129.66 16.26"/><path class="cls-3" d="M137.48,20.68V16.26h.8v4.31A1.61,1.61,0,0,0,140,22.41a1.59,1.59,0,0,0,1.7-1.82V16.26h.79v4.4a2.3,2.3,0,0,1-2.5,2.48,2.27,2.27,0,0,1-2.51-2.46"/><polyline class="cls-3" points="144.35 16.26 145.2 16.26 148.75 21.6 148.77 21.6 148.77 16.26 149.53 16.26 149.53 23.02 148.81 23.02 145.13 17.53 145.11 17.53 145.11 23.02 144.35 23.02 144.35 16.26"/><rect class="cls-3" x="151.49" y="16.26" width="0.8" height="6.75"/><path class="cls-3" d="M154,19.64c0-2.17,1.25-3.51,2.92-3.51s2.9,1.34,2.9,3.51-1.23,3.51-2.9,3.51S154,21.81,154,19.64m5,0c0-1.76-.88-2.78-2.1-2.78s-2.1,1-2.1,2.78.86,2.78,2.1,2.78S159,21.4,159,19.64Z"/><polyline class="cls-3" points="161.4 16.26 162.25 16.26 165.81 21.6 165.82 21.6 165.82 16.26 166.57 16.26 166.57 23.02 165.85 23.02 162.18 17.53 162.16 17.53 162.16 23.02 161.4 23.02 161.4 16.26"/><polyline class="cls-3" points="68.92 36.35 73.06 36.35 73.06 37.09 69.72 37.09 69.72 39.2 72.2 39.2 72.2 39.91 69.72 39.91 69.72 42.38 73.25 42.38 73.25 43.1 68.92 43.1 68.92 36.35"/><path class="cls-3" d="M74.49,41.76V38.28h.79V41.6c0,.63.27.94.88.94a2.28,2.28,0,0,0,1.56-.78V38.28h.8v4.83h-.8v-.72a2.63,2.63,0,0,1-1.81.81,1.3,1.3,0,0,1-1.42-1.44"/><path class="cls-3" d="M80.13,38.28h.79v.9h0a2.06,2.06,0,0,1,1.86-1h.1l-.05.73h-.24A1.83,1.83,0,0,0,80.92,40v3.12h-.79V38.28"/><path class="cls-3" d="M83.66,40.69a2.25,2.25,0,1,1,4.48,0,2.25,2.25,0,1,1-4.48,0m3.68,0c0-1-.48-1.83-1.44-1.83s-1.45.75-1.45,1.83.48,1.85,1.45,1.85S87.34,41.8,87.34,40.69Z"/><path class="cls-3" d="M89.51,38.28h.79V39a2.09,2.09,0,0,1,1.59-.77c1.11,0,2,.83,2,2.51s-.86,2.49-2,2.49a2,2,0,0,1-1.5-.7v2.45h-.79V38.28m3.56,2.41c0-1.23-.59-1.83-1.36-1.83a1.91,1.91,0,0,0-1.41.74v2.21a1.89,1.89,0,0,0,1.4.73C92.54,42.54,93.07,42,93.07,40.69Z"/><path class="cls-3" d="M94.92,42c0-1,.83-1.67,3.22-2v-.22a.8.8,0,0,0-.91-.89,2.57,2.57,0,0,0-1.74.73l-.41-.49a3.18,3.18,0,0,1,2.23-.9,1.41,1.41,0,0,1,1.61,1.61v2.12a3.39,3.39,0,0,0,.14,1.2h-.81a2.24,2.24,0,0,1-.11-.67,2.58,2.58,0,0,1-1.86.74A1.19,1.19,0,0,1,94.92,42m3.22-.11V40.5c-1.84.29-2.44.74-2.44,1.34s.31.71.81.71A2.26,2.26,0,0,0,98.14,41.85Zm-2.23-4.93h.8v.86h-.8Zm1.66,0h.82v.86h-.82Z"/><path class="cls-3" d="M100.53,36.48h.82v.77h-.82Zm0,1.8h.78V43.1h-.78Z"/><path class="cls-3" d="M102.61,42.38l.48-.48a2,2,0,0,0,1.5.66c.75,0,1.17-.26,1.17-.75s-.43-.67-1.25-.86c-1-.25-1.73-.52-1.73-1.45,0-.73.65-1.32,1.7-1.32a2.51,2.51,0,0,1,1.84.69l-.41.53a2.09,2.09,0,0,0-1.4-.58c-.7,0-1,.31-1,.65s.39.61,1.14.79c1.1.26,1.84.52,1.84,1.52s-.83,1.42-1.93,1.42a2.57,2.57,0,0,1-2-.82"/><path class="cls-3" d="M107.59,40.69a2.24,2.24,0,0,1,2.21-2.51,1.93,1.93,0,0,1,1.9,1.35l-.67.28a1.26,1.26,0,0,0-1.24-1c-.7,0-1.4.48-1.4,1.84,0,1.19.57,1.86,1.38,1.86a1.32,1.32,0,0,0,1.3-1l.65.25a2,2,0,0,1-2,1.37,2.24,2.24,0,0,1-2.15-2.51"/><path class="cls-3" d="M113,36.35h.8V39a2.55,2.55,0,0,1,1.8-.83A1.31,1.31,0,0,1,117,39.63v3.48h-.79V39.8c0-.64-.27-.94-.89-.94a2.26,2.26,0,0,0-1.55.78v3.47H113V36.35"/><path class="cls-3" d="M118.34,40.69a2.26,2.26,0,0,1,2.18-2.51c1.15,0,2,.81,2,2.55v.16h-3.41c0,1.09.66,1.67,1.46,1.67a1.63,1.63,0,0,0,1.45-.78l.46.4a2.25,2.25,0,0,1-2,1,2.22,2.22,0,0,1-2.18-2.51m3.44-.41c-.06-.86-.47-1.44-1.27-1.44-.64,0-1.25.45-1.37,1.44Z"/><path class="cls-3" d="M123.91,38.28h.79v.9h0a2.07,2.07,0,0,1,1.87-1h.09l0,.73h-.23A1.83,1.83,0,0,0,124.7,40v3.12h-.79V38.28"/><polyline class="cls-3" points="130.02 36.35 134.07 36.35 134.07 37.09 130.82 37.09 130.82 39.26 133.21 39.26 133.21 39.98 130.82 39.98 130.82 43.1 130.02 43.1 130.02 36.35"/><path class="cls-3" d="M134.75,40.69a2.25,2.25,0,1,1,4.48,0,2.25,2.25,0,1,1-4.48,0m3.69,0c0-1-.49-1.83-1.44-1.83s-1.46.75-1.46,1.83.48,1.85,1.46,1.85S138.44,41.8,138.44,40.69Z"/><path class="cls-3" d="M140.61,38.28h.79V39a2.6,2.6,0,0,1,1.81-.83,1.31,1.31,0,0,1,1.43,1.45v3.48h-.79V39.8c0-.64-.28-.94-.89-.94a2.3,2.3,0,0,0-1.56.78v3.47h-.79V38.28"/><path class="cls-3" d="M146,40.7c0-1.68.88-2.52,2.06-2.52a2,2,0,0,1,1.5.71V36.35h.78v5.56a3.12,3.12,0,0,0,.15,1.2h-.82a2.62,2.62,0,0,1-.11-.69,2.08,2.08,0,0,1-1.59.76c-1.11,0-2-.79-2-2.48m3.56,1.09V39.58a1.84,1.84,0,0,0-1.39-.73c-.84,0-1.38.59-1.38,1.86s.6,1.82,1.37,1.82A1.89,1.89,0,0,0,149.54,41.79Z"/><path class="cls-3" d="M151.58,42.38l.47-.48a2,2,0,0,0,1.51.66c.75,0,1.16-.26,1.16-.75s-.42-.67-1.24-.86c-1-.25-1.73-.52-1.73-1.45,0-.73.64-1.32,1.69-1.32a2.52,2.52,0,0,1,1.85.69l-.41.53a2.09,2.09,0,0,0-1.4-.58c-.7,0-1,.31-1,.65s.39.61,1.15.79c1.08.26,1.83.52,1.83,1.52s-.83,1.42-1.93,1.42a2.57,2.57,0,0,1-2-.82"/><path class="cls-3" d="M69.15,49h-.84v-.64h.84v-.65c0-.81.44-1.31,1.46-1.31l.44,0V47a1.61,1.61,0,0,0-.33,0c-.44,0-.78.16-.78.68v.64H71V49H69.94v4.18h-.79V49"/><path class="cls-3" d="M72.13,51.81V48.33h.79v3.31c0,.64.27.94.89.94a2.27,2.27,0,0,0,1.55-.77V48.33h.8v4.82h-.8v-.72a2.58,2.58,0,0,1-1.8.81,1.3,1.3,0,0,1-1.43-1.43M72.92,47h.8v.86h-.8Zm1.66,0h.82v.86h-.82Z"/><path class="cls-3" d="M77.77,48.33h.79v.89h0a2.06,2.06,0,0,1,1.86-1h.1l-.05.73h-.23A1.85,1.85,0,0,0,78.56,50v3.12h-.79V48.33"/><path class="cls-3" d="M84.13,48.33h.78v.89h0a2.06,2.06,0,0,1,1.86-1h.1l0,.73h-.23A1.85,1.85,0,0,0,84.91,50v3.12h-.78V48.33"/><path class="cls-3" d="M87.38,50.74a2.25,2.25,0,0,1,2.19-2.51c1.14,0,2,.8,2,2.54v.17h-3.4c0,1.09.65,1.66,1.45,1.66a1.61,1.61,0,0,0,1.45-.78l.46.41a2.26,2.26,0,0,1-2,1,2.23,2.23,0,0,1-2.19-2.51m3.44-.41c-.06-.86-.47-1.45-1.26-1.45a1.4,1.4,0,0,0-1.37,1.45Z"/><path class="cls-3" d="M92.4,53.8a1.16,1.16,0,0,1,.88-1.06.64.64,0,0,1-.41-.62,1,1,0,0,1,.6-.77A1.59,1.59,0,0,1,92.73,50a1.78,1.78,0,0,1,2-1.73,2.09,2.09,0,0,1,1.42.5,2.65,2.65,0,0,1,1.15-.45V49a2.55,2.55,0,0,0-.87.16,1.46,1.46,0,0,1,.25.83,1.77,1.77,0,0,1-2,1.72,2.76,2.76,0,0,1-.77-.12c-.2.09-.33.21-.33.37s.15.3.67.34l1,.08c1.23.08,1.85.48,1.85,1.25s-1,1.4-2.35,1.4c-1.63,0-2.33-.47-2.33-1.2m4-.12c0-.43-.32-.62-1.33-.7l-.92-.06-.27,0c-.46.17-.71.47-.71.8,0,.48.5.72,1.7.72C95.79,54.41,96.36,54.12,96.36,53.68ZM95.91,50a1.08,1.08,0,0,0-1.22-1.14A1.13,1.13,0,1,0,95.91,50Z"/><path class="cls-3" d="M98.44,46.53h.81v.76h-.81Zm0,1.8h.79v4.82h-.79Z"/><path class="cls-3" d="M100.62,50.74a2.26,2.26,0,1,1,2.25,2.51,2.25,2.25,0,0,1-2.25-2.51m3.69,0c0-1-.49-1.84-1.44-1.84s-1.46.75-1.46,1.84.48,1.84,1.46,1.84S104.31,51.84,104.31,50.74Z"/><path class="cls-3" d="M106.48,48.33h.79v.72a2.59,2.59,0,0,1,1.8-.82,1.29,1.29,0,0,1,1.43,1.44v3.48h-.78v-3.3c0-.64-.28-1-.89-1a2.3,2.3,0,0,0-1.56.78v3.47h-.79V48.33"/><path class="cls-3" d="M111.78,52c0-1,.83-1.66,3.22-2v-.22a.8.8,0,0,0-.91-.9,2.58,2.58,0,0,0-1.74.74l-.41-.5a3.2,3.2,0,0,1,2.24-.89,1.41,1.41,0,0,1,1.6,1.61V52a3.14,3.14,0,0,0,.14,1.19h-.8a2,2,0,0,1-.12-.67,2.58,2.58,0,0,1-1.86.74A1.19,1.19,0,0,1,111.78,52m3.22-.1V50.54c-1.83.3-2.44.75-2.44,1.35s.31.71.81.71A2.3,2.3,0,0,0,115,51.9Z"/><rect class="cls-3" x="117.4" y="46.39" width="0.79" height="6.75"/><path class="cls-3" d="M119.58,50.74a2.25,2.25,0,0,1,2.18-2.51c1.14,0,2,.8,2,2.54v.17h-3.4c0,1.09.65,1.66,1.45,1.66a1.61,1.61,0,0,0,1.45-.78l.46.41a2.27,2.27,0,0,1-2,1,2.23,2.23,0,0,1-2.18-2.51m3.45-.41c-.07-.86-.48-1.45-1.28-1.45s-1.26.45-1.37,1.45Z"/><polyline class="cls-3" points="127.36 46.4 131.5 46.4 131.5 47.13 128.16 47.13 128.16 49.24 130.64 49.24 130.64 49.96 128.16 49.96 128.16 52.42 131.69 52.42 131.69 53.15 127.36 53.15 127.36 46.4"/><path class="cls-3" d="M133,48.33h.8v.72a2.59,2.59,0,0,1,1.8-.82A1.29,1.29,0,0,1,137,49.67v3.48h-.78v-3.3c0-.64-.27-1-.88-1a2.3,2.3,0,0,0-1.56.78v3.47H133V48.33"/><path class="cls-3" d="M138.94,52V49h-.84v-.64h.84V46.61h.79v1.72H141V49h-1.25v2.84c0,.51.16.76.74.76a2.36,2.36,0,0,0,.5-.06v.65a5.65,5.65,0,0,1-.69.05c-1,0-1.34-.39-1.34-1.23"/><path class="cls-3" d="M141.94,48.33h.82l.63,2.26c.16.59.28,1,.42,1.6h0c.16-.67.25-1,.41-1.61l.62-2.25h.68l.63,2.3c.17.58.26.93.41,1.56h0c.16-.63.25-1,.41-1.54l.66-2.32h.74l-1.47,4.82h-.73l-1-3.77h0l-1,3.77h-.72l-1.48-4.82"/><path class="cls-3" d="M149.56,46.53h.83v.76h-.83Zm0,1.8h.79v4.82h-.79Z"/><path class="cls-3" d="M151.75,50.74A2.24,2.24,0,0,1,154,48.23a1.92,1.92,0,0,1,1.89,1.34l-.67.28a1.24,1.24,0,0,0-1.23-1c-.7,0-1.4.49-1.4,1.85,0,1.18.56,1.85,1.38,1.85.61,0,1-.26,1.29-1l.65.26a2,2,0,0,1-2,1.37,2.23,2.23,0,0,1-2.15-2.51"/><polyline class="cls-3" points="157.14 46.4 157.92 46.4 157.92 50.73 160.08 48.33 160.97 48.33 159.39 50.05 161.14 53.15 160.31 53.15 158.88 50.64 157.92 51.67 157.92 53.15 157.14 53.15 157.14 46.4"/><rect class="cls-3" x="162.34" y="46.39" width="0.78" height="6.75"/><path class="cls-3" d="M164.73,51.81V48.33h.79v3.31c0,.64.27.94.88.94a2.29,2.29,0,0,0,1.56-.77V48.33h.8v4.82H168v-.72a2.58,2.58,0,0,1-1.8.81,1.29,1.29,0,0,1-1.43-1.43"/><path class="cls-3" d="M170.37,48.33h.8v.72a2.59,2.59,0,0,1,1.81-.82,1.29,1.29,0,0,1,1.42,1.44v3.48h-.79v-3.3c0-.64-.27-1-.88-1a2.3,2.3,0,0,0-1.56.78v3.47h-.8V48.33"/><path class="cls-3" d="M175.46,53.8a1.16,1.16,0,0,1,.88-1.06.65.65,0,0,1-.42-.62,1,1,0,0,1,.6-.77,1.61,1.61,0,0,1-.74-1.39,1.79,1.79,0,0,1,2-1.73,2.1,2.1,0,0,1,1.42.5,2.65,2.65,0,0,1,1.15-.45V49a2.47,2.47,0,0,0-.87.16,1.45,1.45,0,0,1,.24.83,1.76,1.76,0,0,1-1.94,1.72,2.76,2.76,0,0,1-.77-.12c-.2.09-.34.21-.34.37s.16.3.68.34l1,.08c1.23.08,1.85.48,1.85,1.25s-1,1.4-2.35,1.4c-1.63,0-2.33-.47-2.33-1.2m4-.12c0-.43-.32-.62-1.34-.7l-.91-.06-.27,0c-.46.17-.71.47-.71.8,0,.48.5.72,1.7.72C178.85,54.41,179.42,54.12,179.42,53.68ZM179,50a1.08,1.08,0,0,0-1.21-1.14,1.13,1.13,0,1,0,0,2.26A1.08,1.08,0,0,0,179,50Z"/><path class="cls-1" d="M68.92,26.23h.75v6.31h-.75Z"/><path class="cls-1" d="M71.18,28h.74v.67a2.44,2.44,0,0,1,1.69-.77,1.22,1.22,0,0,1,1.33,1.35v3.25h-.73V29.45c0-.6-.26-.88-.83-.88a2.12,2.12,0,0,0-1.46.73v3.24h-.74Z"/><path class="cls-1" d="M75.63,28h.79l1.26,3.65h0L78.94,28h.74L78,32.56h-.74Z"/><path class="cls-1" d="M80,30.29a2.11,2.11,0,0,1,2-2.35c1.06,0,1.87.75,1.87,2.38v.15H80.77c0,1,.61,1.57,1.36,1.57a1.52,1.52,0,0,0,1.35-.74l.43.38a2.11,2.11,0,0,1-1.83,1A2.08,2.08,0,0,1,80,30.29Zm3.21-.39c-.06-.8-.44-1.34-1.18-1.34a1.31,1.31,0,0,0-1.28,1.34Z"/><path class="cls-1" d="M84.59,31.86l.45-.45a1.83,1.83,0,0,0,1.4.63c.7,0,1.09-.25,1.09-.71s-.4-.63-1.16-.8c-1-.23-1.61-.49-1.61-1.36,0-.68.59-1.23,1.57-1.23a2.36,2.36,0,0,1,1.73.65l-.39.49a1.92,1.92,0,0,0-1.3-.54c-.66,0-.92.29-.92.6s.36.58,1.07.74c1,.25,1.71.49,1.71,1.42s-.77,1.32-1.79,1.32A2.4,2.4,0,0,1,84.59,31.86Z"/><path class="cls-1" d="M89.52,31.45V28.64h-.78V28h.78V26.43h.74V28h1.17v.6H90.26v2.64c0,.48.15.72.7.72a1.6,1.6,0,0,0,.46-.06v.61a4.89,4.89,0,0,1-.64.05C89.83,32.6,89.52,32.23,89.52,31.45Z"/><path class="cls-1" d="M92.45,26.36h.77v.71h-.77Zm0,1.68h.73v4.5h-.73Z"/><path class="cls-1" d="M94.87,31.45V28.64h-.78V28h.78V26.43h.74V28h1.17v.6H95.61v2.64c0,.48.15.72.7.72a1.6,1.6,0,0,0,.46-.06v.61a4.89,4.89,0,0,1-.64.05C95.18,32.6,94.87,32.23,94.87,31.45Z"/><path class="cls-1" d="M97.8,26.36h.77v.71H97.8Zm0,1.68h.73v4.5h-.73Z"/><path class="cls-1" d="M99.64,30.29a2.11,2.11,0,1,1,4.19,0,2.11,2.11,0,1,1-4.19,0Zm3.45,0c0-.94-.45-1.72-1.35-1.72s-1.35.7-1.35,1.72.44,1.72,1.35,1.72S103.09,31.32,103.09,30.29Z"/><path class="cls-1" d="M104.87,28h.75v.67a2.42,2.42,0,0,1,1.68-.77,1.22,1.22,0,0,1,1.33,1.35v3.25h-.73V29.45c0-.6-.26-.88-.83-.88a2.1,2.1,0,0,0-1.45.73v3.24h-.75Z"/><path class="cls-1" d="M111.92,26.36h.77v.71h-.77Zm0,1.68h.73v4.5h-.73Z"/><path class="cls-1" d="M114,28h.74v.67a2.44,2.44,0,0,1,1.69-.77,1.22,1.22,0,0,1,1.33,1.35v3.25h-.73V29.45c0-.6-.26-.88-.83-.88a2.12,2.12,0,0,0-1.46.73v3.24H114Z"/><path class="cls-1" d="M121,31.28V28h.73v3.09c0,.6.26.88.83.88a2.1,2.1,0,0,0,1.46-.73V28h.74v4.5H124v-.68a2.4,2.4,0,0,1-1.69.76A1.2,1.2,0,0,1,121,31.28Z"/><path class="cls-1" d="M126.05,28h.74v.67a2.44,2.44,0,0,1,1.69-.77,1.22,1.22,0,0,1,1.33,1.35v3.25h-.73V29.45c0-.6-.26-.88-.83-.88a2.12,2.12,0,0,0-1.46.73v3.24h-.74Z"/><path class="cls-1" d="M130.74,31.86l.45-.45a1.83,1.83,0,0,0,1.4.63c.7,0,1.09-.25,1.09-.71s-.4-.63-1.16-.8c-1-.23-1.62-.49-1.62-1.36,0-.68.6-1.23,1.58-1.23a2.33,2.33,0,0,1,1.72.65l-.38.49a1.92,1.92,0,0,0-1.3-.54c-.66,0-.92.29-.92.6s.36.58,1.07.74c1,.25,1.71.49,1.71,1.42s-.77,1.32-1.8,1.32A2.39,2.39,0,0,1,130.74,31.86Z"/><path class="cls-1" d="M135.1,30.29a2.11,2.11,0,0,1,2-2.35c1.07,0,1.88.75,1.88,2.38v.15h-3.19c0,1,.62,1.57,1.36,1.57a1.53,1.53,0,0,0,1.36-.74l.42.38a2.11,2.11,0,0,1-1.83,1A2.08,2.08,0,0,1,135.1,30.29Zm3.22-.39c-.06-.8-.45-1.34-1.19-1.34a1.31,1.31,0,0,0-1.28,1.34Z"/><path class="cls-1" d="M140.07,28h.73v.83h0a1.93,1.93,0,0,1,1.74-.93h.09l-.05.68h-.21a1.72,1.72,0,0,0-1.59,1v2.91h-.73Z"/><path class="cls-1" d="M143,30.29a2.11,2.11,0,0,1,2-2.35c1.07,0,1.88.75,1.88,2.38v.15h-3.18c0,1,.61,1.57,1.35,1.57a1.53,1.53,0,0,0,1.36-.74l.42.38A2.12,2.12,0,0,1,143,30.29Zm3.22-.39c-.06-.8-.45-1.34-1.19-1.34s-1.17.41-1.28,1.34Z"/><path class="cls-1" d="M149.48,32l3.69-5.15h-3.45v-.63h4.37v.54l-3.67,5.15h3.67v.62h-4.61Z"/><path class="cls-1" d="M155,31.28V28h.73v3.09c0,.6.26.88.83.88a2.12,2.12,0,0,0,1.46-.73V28h.74v4.5H158v-.68a2.4,2.4,0,0,1-1.69.76A1.2,1.2,0,0,1,155,31.28Z"/><path class="cls-1" d="M160.05,26.23h.73v4.06l2-2.25h.84l-1.48,1.61,1.64,2.89H163l-1.33-2.35-.9,1v1.38h-.73Z"/><path class="cls-1" d="M164.61,31.28V28h.74v3.09c0,.6.25.88.82.88a2.1,2.1,0,0,0,1.46-.73V28h.74v4.5h-.74v-.68a2.38,2.38,0,0,1-1.69.76A1.2,1.2,0,0,1,164.61,31.28Z"/><path class="cls-1" d="M169.67,28h.74v.67a2.47,2.47,0,0,1,1.69-.77,1.22,1.22,0,0,1,1.33,1.35v3.25h-.73V29.45c0-.6-.26-.88-.83-.88a2.12,2.12,0,0,0-1.46.73v3.24h-.74Z"/><path class="cls-1" d="M175,28.64h-.79V28H175v-.61c0-.76.4-1.22,1.35-1.22l.42,0v.59l-.31,0c-.41,0-.73.14-.73.63V28h1v.6h-1v3.9H175Z"/><path class="cls-1" d="M178,31.45V28.64h-.79V28H178V26.43h.73V28h1.17v.6h-1.17v2.64c0,.48.15.72.7.72a1.6,1.6,0,0,0,.46-.06v.61a4.89,4.89,0,0,1-.64.05C178.25,32.6,178,32.23,178,31.45Z"/><rect class="cls-4" width="201" height="70"/></svg>