<svg id="Ebene_1" data-name="Ebene 1" xmlns="http://www.w3.org/2000/svg" viewBox="0 0 695.78 817.82"><defs><style>.cls-1{fill:#4a4a49;}</style></defs><polygon class="cls-1" points="10.49 797.93 10.49 725.39 19.56 725.39 19.56 790.38 76.99 790.38 76.99 797.93 10.49 797.93"/><path class="cls-1" d="M166.3,831.64h9.06v54.41H166.3Zm9.06-9.06H166.3v-9.07h9.06Z" transform="translate(-77.22 -88.12)"/><path class="cls-1" d="M501.31,223.33H573V355h53.05V223.33H687V364.86h53.08V155.55H445.31V364.86h56ZM762.57,773.45H87.71V98.59H762.57ZM77.22,784H773V88.12H77.22Zm65-419.08a172.63,172.63,0,0,0,59.46,45.5,175.74,175.74,0,0,0,74.86,16.53C355.46,426.75,408,384.49,408,384.49V267.58H334.3v87.6c0,.76-.27.86-1.54,1.58-2.75,1.56-27.29,12.3-61.17,8.46-24.84-2.81-49.92-13.11-66.8-31.94-17.65-19.69-23.18-46.44-17.93-72s22.37-46.36,45.89-57.44,49.84-12.72,75.6-11.73A196.19,196.19,0,0,1,346,196.87c19.44,4.62,52.14,18.61,52.14,18.61V154.56s-39.06-16.25-85.68-20.48a276.81,276.81,0,0,0-75.91,3.72,184.9,184.9,0,0,0-69.7,28.09,130.59,130.59,0,0,0-46.77,57,140.33,140.33,0,0,0-9.22,74.6c3.73,24.79,15.42,48.18,31.38,67.34m248.07,113H279.77v14.78H380.54s18.51,41.85,18.51,83.66c0,28.83-5.31,58.47-19.36,83.85a129.35,129.35,0,0,1-26.94,34.19c-10.65,9.45-24.27,16.32-37.65,20.95-28,9.68-58.78,9.8-87.29,2.38s-55-25-72.47-48.59-26.59-53.44-26.74-82.84c-.14-28.09,8.77-56,18.4-82.13h0c2.52-6.85,5.16-13.66,7.83-20.46H137.26s-7.32,13.22-15.9,43.74c-5.7,20.25-10.5,41.86-9.58,63A165.88,165.88,0,0,0,127,653.9c9.3,19.8,22.82,38.05,39.72,52s37.1,24.94,58.66,29.88a176.39,176.39,0,0,0,66.79,2c21.38-3.29,42.51-11.16,60.21-23.69,17.89-12.68,31.6-29.3,42.07-48.5,10.91-20,15.45-40.13,18.14-61.8,8.31-66.82-22.3-126-22.3-126m276,206.81H616.17c-6-.12-12.19-1.21-17-5.07-5.21-4.14-7.76-10.5-8.91-16.89-2.11-11.78-1.48-27.09,7.14-36.27,5-5.36,11.74-6.94,18.82-7.27h50.08Zm0-118.54H640.44a24.47,24.47,0,0,1-6.12-.75c-13.14-3.53-21.55-15.21-27.77-26.55L560.6,447H479.27l50.08,105.66c5.07,10,11.77,18.72,21,25.21a51.24,51.24,0,0,0,13.76,7,46.52,46.52,0,0,0-7.71,2.18c-.61.22-2.47,1-2.47,1-15.21,6.86-25.85,19.76-33,34.55-5.85,14.18-8.42,29.17-6,44.43a86.55,86.55,0,0,0,19.85,42.59,84.14,84.14,0,0,0,21,17.34,80.56,80.56,0,0,0,15.77,6.43,68.15,68.15,0,0,0,19.78,2.77H740.17V447H666.25Z" transform="translate(-77.22 -88.12)"/><path class="cls-1" d="M222.22,837.69q-5.29,0-9.14.33a31.24,31.24,0,0,0-6.55,1.18,11.62,11.62,0,0,0-4.36,2.36,9.94,9.94,0,0,0-2.6,3.88,21.37,21.37,0,0,0-1.23,5.69c-.2,2.22-.31,4.82-.31,7.81s.11,5.54.31,7.72a21.07,21.07,0,0,0,1.23,5.63,9.94,9.94,0,0,0,2.6,3.84,11.63,11.63,0,0,0,4.36,2.37,31.24,31.24,0,0,0,6.55,1.18q3.84.33,9.14.33,4.53,0,8.07-.21a31.55,31.55,0,0,0,6.24-.95,13.59,13.59,0,0,0,4.55-2.12,10.42,10.42,0,0,0,3-3.74,19.5,19.5,0,0,0,1.72-5.81,54,54,0,0,0,.55-8.38,54.8,54.8,0,0,0-.55-8.41,19.64,19.64,0,0,0-1.72-5.83,10.23,10.23,0,0,0-3-3.71,13.35,13.35,0,0,0-4.55-2.07,31,31,0,0,0-6.24-.9q-3.54-.2-8.07-.19m33.24,40.81a41.06,41.06,0,0,1-1.79,13.17,18.37,18.37,0,0,1-5.76,8.48,23.29,23.29,0,0,1-10.3,4.51,79.28,79.28,0,0,1-15.39,1.28,113.76,113.76,0,0,1-14.29-.76,33,33,0,0,1-9.33-2.38,11.08,11.08,0,0,1-5.08-4.21,12,12,0,0,1-1.53-6.26h9.07a4.66,4.66,0,0,0,1,3,6.59,6.59,0,0,0,3.38,1.84,33.43,33.43,0,0,0,6.5.92q4.08.25,10.32.26a110.24,110.24,0,0,0,11.43-.5,17,17,0,0,0,7.46-2.33,10.17,10.17,0,0,0,4.06-5.58,32.71,32.71,0,0,0,1.23-10,11.21,11.21,0,0,1-2.11,2.45,14.21,14.21,0,0,1-4.2,2.46,34.87,34.87,0,0,1-7.11,1.89,64.54,64.54,0,0,1-10.76.76,75.07,75.07,0,0,1-15.4-1.35,23.71,23.71,0,0,1-10.3-4.61,18.45,18.45,0,0,1-5.76-8.78A45.55,45.55,0,0,1,189,858.94a46.54,46.54,0,0,1,1.79-14.07,18.41,18.41,0,0,1,5.76-8.83,23.46,23.46,0,0,1,10.3-4.58,76.65,76.65,0,0,1,15.4-1.33,73.33,73.33,0,0,1,10.76.66,39.56,39.56,0,0,1,7.11,1.66,14.38,14.38,0,0,1,4.2,2.15,10.94,10.94,0,0,1,2.11,2.1v-5.06h9.06Z" transform="translate(-77.22 -88.12)"/><path class="cls-1" d="M322,886.05v-30.7a38.87,38.87,0,0,0-.75-8.28,10.09,10.09,0,0,0-3-5.46,13.68,13.68,0,0,0-6.42-3,52.72,52.72,0,0,0-10.95-.92,56.17,56.17,0,0,0-12.07,1.06,20.56,20.56,0,0,0-7.39,3,9.93,9.93,0,0,0-3.71,4.6,16.86,16.86,0,0,0-1,6v33.72h-9.06V813.51h9.06v26.73a11,11,0,0,1,2.7-3.83,17,17,0,0,1,4-2.73,25,25,0,0,1,4.94-1.82,48.4,48.4,0,0,1,5.36-1.07c1.81-.25,3.59-.42,5.34-.52s3.36-.14,4.84-.14a64.86,64.86,0,0,1,10.41.73,28.52,28.52,0,0,1,7.42,2.18,14.74,14.74,0,0,1,4.89,3.56,15.59,15.59,0,0,1,2.85,4.94,25.43,25.43,0,0,1,1.35,6.28q.33,3.48.33,7.53l-.05,30.7Z" transform="translate(-77.22 -88.12)"/><path class="cls-1" d="M396.07,861.87a49.72,49.72,0,0,1-1.14,11.6,15.93,15.93,0,0,1-3.8,7.44,15,15,0,0,1-7,4,41.42,41.42,0,0,1-10.72,1.18,48.29,48.29,0,0,1-10.39-.94,15.17,15.17,0,0,1-6.81-3.21,12.59,12.59,0,0,1-3.73-6,33.45,33.45,0,0,1-1.13-9.43V839.2H340.15v-7.56h11.19V816.86h9.07v14.78h34.15v7.56H360.41v27.23a27.73,27.73,0,0,0,.68,7,6.47,6.47,0,0,0,2.2,3.58,7.57,7.57,0,0,0,4,1.32c1.65.12,3.68.19,6.07.19,1.89,0,3.58,0,5.08-.1a16.26,16.26,0,0,0,3.92-.59,7.68,7.68,0,0,0,2.86-1.51,7.29,7.29,0,0,0,1.91-2.86,18.52,18.52,0,0,0,1.06-4.65,60.77,60.77,0,0,0,.33-6.92Z" transform="translate(-77.22 -88.12)"/><path class="cls-1" d="M462.57,886.05v-30.7a38.8,38.8,0,0,0-.76-8.28,10.14,10.14,0,0,0-3-5.46,13.78,13.78,0,0,0-6.42-3,52.89,52.89,0,0,0-11-.92,56.23,56.23,0,0,0-12.07,1.06,20.56,20.56,0,0,0-7.39,3,9.93,9.93,0,0,0-3.71,4.6,17.09,17.09,0,0,0-1,6v33.72h-9.07V813.51h9.07v26.73a11,11,0,0,1,2.69-3.83,16.86,16.86,0,0,1,4-2.73,24.68,24.68,0,0,1,4.93-1.82,48.86,48.86,0,0,1,5.36-1.07c1.81-.25,3.59-.42,5.34-.52s3.36-.14,4.84-.14a64.86,64.86,0,0,1,10.41.73,28.4,28.4,0,0,1,7.42,2.18,14.74,14.74,0,0,1,4.89,3.56,15.4,15.4,0,0,1,2.85,4.94,25.43,25.43,0,0,1,1.35,6.28q.33,3.48.33,7.53l-.05,30.7Z" transform="translate(-77.22 -88.12)"/><path class="cls-1" d="M491.33,858.24c0,3,.11,5.59.33,7.8a22.09,22.09,0,0,0,1.25,5.7,10,10,0,0,0,2.57,3.87,12,12,0,0,0,4.35,2.38,28.48,28.48,0,0,0,6.54,1.22c2.57.21,5.61.32,9.14.32,3,0,5.72-.06,8.1-.2a30.25,30.25,0,0,0,6.23-1,14.14,14.14,0,0,0,4.56-2.13,9.88,9.88,0,0,0,3.05-3.76,20.69,20.69,0,0,0,1.7-5.86,55.62,55.62,0,0,0,.54-8.38,52.86,52.86,0,0,0-.54-8.19,19.47,19.47,0,0,0-1.7-5.68,9.63,9.63,0,0,0-3.05-3.62,13.61,13.61,0,0,0-4.56-2,32.92,32.92,0,0,0-6.23-.87q-3.57-.18-8.1-.18t-8.1.18a32.8,32.8,0,0,0-6.23.87,13.61,13.61,0,0,0-4.56,2,9.63,9.63,0,0,0-3.05,3.62,19.47,19.47,0,0,0-1.7,5.68,52.86,52.86,0,0,0-.54,8.19m-9.07,0a44.37,44.37,0,0,1,1.8-13.73,17.84,17.84,0,0,1,5.76-8.61,23.63,23.63,0,0,1,10.29-4.48,92.57,92.57,0,0,1,30.8,0,23.63,23.63,0,0,1,10.29,4.48,17.92,17.92,0,0,1,5.77,8.61,44.7,44.7,0,0,1,1.79,13.73,46.59,46.59,0,0,1-1.79,14,18.56,18.56,0,0,1-5.77,8.85,23.53,23.53,0,0,1-10.29,4.64,87.87,87.87,0,0,1-30.8,0,23.53,23.53,0,0,1-10.29-4.64,18.47,18.47,0,0,1-5.76-8.85,46.24,46.24,0,0,1-1.8-14" transform="translate(-77.22 -88.12)"/><path class="cls-1" d="M568.41,831.64v29.94a40.36,40.36,0,0,0,.75,8.44,10.42,10.42,0,0,0,3,5.54,13.6,13.6,0,0,0,6.43,3,52,52,0,0,0,11,.94,55.6,55.6,0,0,0,12.08-1.08,20.07,20.07,0,0,0,7.4-3,10.22,10.22,0,0,0,3.71-4.72,17.56,17.56,0,0,0,1-6.13V831.64h9.06v54.41H613.8v-9.51a13.89,13.89,0,0,1-6.91,6.8,33.86,33.86,0,0,1-8.06,2.67,58.63,58.63,0,0,1-12.27,1.08,64.08,64.08,0,0,1-10.45-.73,28.25,28.25,0,0,1-7.4-2.17,14.52,14.52,0,0,1-4.89-3.57,15.13,15.13,0,0,1-2.83-4.93,26.44,26.44,0,0,1-1.32-6.26q-.33-3.45-.33-7.56l0-30.23Z" transform="translate(-77.22 -88.12)"/><path class="cls-1" d="M655.4,861.07a68.82,68.82,0,0,1-8.38-.78,23.1,23.1,0,0,1-5.86-1.68,9.5,9.5,0,0,1-3.7-2.9,11.16,11.16,0,0,1-1.94-4.49,27.73,27.73,0,0,1-.57-5.79,13.34,13.34,0,0,1,1.8-7.15,12.63,12.63,0,0,1,5.76-4.72,36.09,36.09,0,0,1,10.29-2.63,126.25,126.25,0,0,1,15.4-.8,95.4,95.4,0,0,1,14.81,1,28,28,0,0,1,9.26,2.9,11.08,11.08,0,0,1,4.79,4.94,16.84,16.84,0,0,1,1.37,7.08h-9.07a7.89,7.89,0,0,0-1-4.15,6.4,6.4,0,0,0-3.37-2.53,25.11,25.11,0,0,0-6.5-1.28q-4.08-.35-10.32-.35-6.8,0-11.43.19a36.16,36.16,0,0,0-7.46.94,7.46,7.46,0,0,0-4.06,2.32,6.76,6.76,0,0,0-1.23,4.29,23.25,23.25,0,0,0,.21,3.15,5.4,5.4,0,0,0,1,2.52,4.76,4.76,0,0,0,2.22,1.52,18.16,18.16,0,0,0,4,.77c1.69.18,3.77.27,6.26.29l9,0q6.42,0,11.27.28a60.65,60.65,0,0,1,8.38,1,17.2,17.2,0,0,1,5.86,2.17,14.94,14.94,0,0,1,3.7,3.19,10.18,10.18,0,0,1,2,4.06,23,23,0,0,1,.57,5.41,24.21,24.21,0,0,1-.57,5.5,11.38,11.38,0,0,1-2,4.3,12.24,12.24,0,0,1-3.85,3.21,23,23,0,0,1-6.12,2.17,63.8,63.8,0,0,1-8.81,1.23q-5.11.4-11.92.4a100.24,100.24,0,0,1-14.29-.85,29.36,29.36,0,0,1-9.33-2.72,11.41,11.41,0,0,1-5.07-4.84,15.63,15.63,0,0,1-1.54-7.27H644a9.49,9.49,0,0,0,1,4.6,6.42,6.42,0,0,0,3.38,2.77,22.43,22.43,0,0,0,6.49,1.34q4.08.36,10.32.36,5.67,0,9.66-.26a49,49,0,0,0,6.68-.83,17.1,17.1,0,0,0,4.25-1.37,6.37,6.37,0,0,0,2.36-1.94,5.7,5.7,0,0,0,1-2.52,20.89,20.89,0,0,0,.21-3.1,16.23,16.23,0,0,0-.21-2.76,6.86,6.86,0,0,0-1-2.41A4.64,4.64,0,0,0,686,863a18.6,18.6,0,0,0-4-1,56.12,56.12,0,0,0-6.26-.57c-2.49-.11-5.49-.16-9-.16-4.28,0-8-.07-11.29-.19" transform="translate(-77.22 -88.12)"/><path class="cls-1" d="M742.26,837.69c-3,0-5.73.06-8.1.19a35,35,0,0,0-6.24.83,14.84,14.84,0,0,0-4.55,1.84,10.81,10.81,0,0,0-3,2.83,11.53,11.53,0,0,0-1.7,4.58,40.21,40.21,0,0,0-.54,7.11h45.34a25.57,25.57,0,0,0-1.18-8.66,11.84,11.84,0,0,0-3.74-5.18,14.64,14.64,0,0,0-6.56-2.78,52.62,52.62,0,0,0-9.68-.76m0,49.4a81.18,81.18,0,0,1-15.4-1.25,24.23,24.23,0,0,1-10.3-4.32,17.4,17.4,0,0,1-5.76-8.22A40,40,0,0,1,709,860.36a51.35,51.35,0,0,1,1.79-14.76,19.64,19.64,0,0,1,5.76-9.28,22.8,22.8,0,0,1,10.3-4.82,74.24,74.24,0,0,1,15.4-1.37,58,58,0,0,1,11.21,1,29.47,29.47,0,0,1,8.13,2.74,17.83,17.83,0,0,1,5.48,4.34,22.11,22.11,0,0,1,3.3,5.36,23.7,23.7,0,0,1,1.66,6.59,69.83,69.83,0,0,1,.44,8l-.75,3H718.08a34.16,34.16,0,0,0,1.22,10,10,10,0,0,0,4.07,5.68,17.07,17.07,0,0,0,7.46,2.28,113.19,113.19,0,0,0,11.43.49c4.15,0,7.59-.12,10.32-.34a23.37,23.37,0,0,0,6.49-1.28,6.35,6.35,0,0,0,3.38-2.62,8.69,8.69,0,0,0,1-4.36h9.06a16.78,16.78,0,0,1-1.53,7.49,11.53,11.53,0,0,1-5.08,5,28.92,28.92,0,0,1-9.33,2.79,98.2,98.2,0,0,1-14.28.87" transform="translate(-77.22 -88.12)"/></svg>