<svg id="Layer_1" data-name="Layer 1" xmlns="http://www.w3.org/2000/svg" viewBox="0 0 251.7 56.41"><defs><style>.cls-1{fill:#1d1d1b;fill-rule:evenodd;}</style></defs><path class="cls-1" d="M403.51,368.7h3.95l-.58-4.62h7.06l1.88,13.4-18.94-1.66,1.62-11.74h5.6l-.59,4.62Zm3.23-5.75-1.26-10.13L404.24,363h-5.59l1.66-12,11.67-1L413.79,363ZM188.31,336.71v3.85l-8.05-2.92v-.93Zm0,5.05-8.05-2.93v5.49l8.05,2.16v-4.72Zm0,5.88v4.48l-8.05-1.43v-5.2l8.05,2.15Zm0,5.62-8.05-1.42v5h-.6l8.65.75v-4.32Zm0,5.44V363H166.05v-6.2l22.26,1.95Zm-22.24-3.05,0,0v-6.29l8,1.42v5.58l-8-.69Zm0-7.44,8,1.4v-5.78l-8-2.15v6.51l.06,0Zm0-7.66-.11,0v-3.8h8v6l-7.93-2.12Zm22.15,23.53v4.25l-22.26,1.95v-6.2Zm0,5.36-8.05.71v5l8.05-1.42v-4.33Zm-14.22,1.25v5.58l-8,1.42v-6.3h0l8-.7Zm14.22,4.23v4.47l-8.05,2.15v-5.21l8.05-1.41Zm-14.22,2.5-8,1.4-.06,0v6.51l8-2.16v-5.77Zm14.22,3.13-8.05,2.16v5.49l8.05-2.93v-4.72Zm-14.22,3.81v6.09l-2.69,1h-5.35v-4.91l.11,0,7.93-2.12Zm14.22,2.09v5h-8.05v-2l8.05-2.94Zm60.85,5.8h-.3l-.44-.05-.42-.05-.21,0v0l1.07-12.38h0l.26.08h0v12.47Zm-2.49-.37L247.81,379l-.13-.12-.08-.1-2.25,12.68.18.07.39.14.41.12.34.1Zm-2.36-.9-.34-.17-.38-.22-.36-.24-.1-.06,3.51-13.11.05.13,0,0L244.31,391Zm-2.15-1.4v0l-.35-.29-.36-.3-.28-.3,4.69-12.93-3.7,13.84Zm-1.87-1.81,4.53-12.43-5.34,11.44,0,0,.31.41.32.38.14.17Zm-1.54-2,5-10.76-5.64,9.78.19.33.29.46.15.19Zm-1.28-2.13,5.37-9.26L237,382.67l.22.46.25.47Zm-1-2.12,5.48-7.84-5.84,7,.16.41.2.47Zm-.8-2.08,0-.08-.19-.59,0-.11,5.68-5.7-5.43,6.48Zm-.61-2-.13-.47,0-.22,5.38-4.52-5.21,5.21Zm-.47-1.92-.08-.46,0-.14,5-3.51-4.9,4.11Zm-.35-1.79-.08-.52,4.71-2.72-4.63,3.24ZM234,372l4.45-2.58-4.51,2.11v.16l0,.31Zm-.19-1.63,0-.11,0-.3,4-1.47-4,1.88Zm-.14-1.56,3.74-1.37-3.76,1,0,.36Zm-.1-1.51h0v-.33l3.63-.65-3.62,1Zm0-1.45v-.31l3.51-.3-3.51.61Zm0-1.45v-.28h3.35l-3.35.28Zm0-1.41v-.29l3.33.29Zm0-1.42v-.3l3.47.62-3.48-.32Zm.06-1.41,0-.33,3.54.95-3.57-.62Zm.13-1.47,0-.34,3.63,1.32-3.66-1Zm.14-1.51,3.9,1.42-3.85-1.79,0,.11,0,.26Zm.22-1.54v-.08l.05-.34,4.17,2.4-4.23-2Zm.27-1.6,4.48,2.59-4.39-3.08v.06l-.09.43Zm.34-1.67,4.85,3.38-4.71-3.95-.12.54,0,0Zm.46-1.76,0-.1.16-.53,4.86,4.86-5.05-4.23Zm.57-1.84v0l.2-.56,0-.13,5.11,6.11-5.36-5.38Zm.7-1.92.14-.35.21-.47,5.14,7.36-5.49-6.54Zm.88-2,.26-.45.2-.43,5,8.72-5.49-7.84Zm1.11-2,.25-.38L239,342l.06-.08,4.75,10.16-5.34-9.25Zm1.36-1.93,5.05,10.84L240.55,340l0,0-.31.37-.33.38-.1.13Zm1.64-1.78,4.47,12.24-3.49-13-.13.09-.36.28-.36.32-.13.11Zm1.93-1.48,3.53,13.12v0L244.47,337l-.31.18-.4.2-.39.22Zm2.19-1,.25-.09.43-.13.42-.12.13,0,1.13,13-.11.11-2.25-12.71Zm2.33-.58L249,348.47l.07,0,.13,0V335.87l-.25,0-.47.05-.46,0-.11,0Zm2.41-.13h0l.42,0,.44,0,.4.06-1.09,12.38h0l-.17,0V335.87Zm2.39.3-1.12,12.73.1.08.06,0,2.18-12.48-.23-.09-.41-.13-.39-.11-.19-.05ZM255,337l.26.11.36.21.38.22.12.07-3.41,12.76,0,0,0,0L255,337Zm2.1,1.28.33.25.34.28.3.27-4.47,12.27,3.5-13.07Zm1.84,1.66-4.28,11.75,5.06-10.85-.31-.36-.32-.36-.15-.18Zm1.54,1.91-4.78,10.25,5.39-9.34-.15-.25-.3-.46-.16-.2Zm1.27,2-5.08,8.81,5.56-7.93-.19-.38-.27-.48,0,0Zm1,2-5.24,7.49,5.59-6.67-.11-.3-.24-.52Zm.82,2,.06.17.19.55v0L258.41,354l5.16-6.15Zm.63,1.93.16.55,0,.11-5.19,4.36,5-5Zm.5,1.86.11.52,0,.06-4.94,3.45,4.81-4Zm.38,1.76-4.58,3.21,4.67-2.69-.07-.47,0-.05Zm.28,1.7-4.18,2.42,4.26-2v-.11l-.07-.33Zm.22,1.6,0,.11,0,.29-4.09,1.49,4-1.89Zm.16,1.55L262,359.63l3.73-1,0-.36Zm.09,1.51,0,.26-3.16.57,3.14-.83Zm.08,1.38v.36l-3.93.35,3.93-.71Zm0,1.49V363h-3.33l3.33-.29Zm0,1.42v.28l-3.33-.28Zm-15.65,15.7h0l.27-.08,1.07,12.37v.06h-.16l-.44.05-.42.05h-.35V379.78Zm1.36-.68,1.11,12.78.41-.11.39-.13.4-.14.12-.05-2.21-12.55h0l-.2.2Zm1.11-1.57.08-.14,0-.05,3.46,12.92-.08,0-.36.24-.36.22-.38.2-2.38-13.43Zm.79-1.86,4.72,12.95-.27.25-.33.32-.35.3,0,0-3.73-13.86Zm1.07-.33,4.5,12.35.19-.22.31-.39.3-.38-5.3-11.36Zm1-.42,5,10.71.19-.28.28-.46.14-.25-5.61-9.72Zm1-.55,5.29,9.14,0-.11.26-.52.15-.32-5.74-8.19Zm.9-.68,5.38,7.68,0-.1.23-.56.06-.19-5.72-6.83Zm.82-.77,5.6,5.6-.14.46-.11.31-5.35-6.37Zm.86-.71,5.27,4.44-.14.52,0,.14-5.1-5.1Zm.68-.89,5,3.5-.1.43,0,.17-4.89-4.1Zm.67-.9,4.58,3.21.07-.38v-.14l-4.66-2.69Zm.62-.94,4.21,2.43,0,0,0-.4-4.28-2Zm.5-1,4,1.43,0,.39-3.93-1.82Zm.36-1.07,3.72,1.35v-.36l-3.73-1Zm.19-1.12,3.64.65,0,.33-3.62-1Zm.21-1.08,3.47.3v.31l-3.47-.61Zm-59.81,27.07h-.35l-.35,0-.34-.05-.33-.05h0l9.32-5.38-.19.32-.24.39-.25.38-.25.35-.27.34-.25.33-.27.32-.28.3-.29.29-.28.27-.28.25-.29.24-.28.22-.3.2-.3.19-.3.19-.31.16-.31.14-.32.13-.31.11-.33.11-.33.08-.33.07-.34.05-.33.05-.36,0Zm-2.58-.74,11.5-6.64h0l.22-.49.22-.5.21-.5.2-.52.19-.52.19-.54.19-.55h0l-16.77,7.82.18.19.26.29.29.29.27.27.28.23.3.24.28.22.31.19.3.19.3.17.32.16.31.14.13,0,.3-.17Zm-4.55-3.35,17.92-8.35.06-.25.17-.6.16-.6.14-.6.13-.61v-.1l-20.67,7.52,0,0,.22.47.22.46.24.44.23.42.24.41.25.41.24.38.25.36.17.22ZM193,383.57l-.19-.44-.2-.52-.19-.52-.19-.55L192,381l-.17-.55-.16-.57-.06-.24,8.59-2.29.12.33.14.34.16.3.17.29.18.25.17.22.17.22.19.16.21.12.18.11.22.08.21.05h.47l.22-.05.22-.08.24-.09.2-.13.19-.16.19-.19.19-.23.17-.24.16-.28.16-.3.14-.33.14-.36.12-.39.12-.41.11-.48,0-.15,9.27-2.49-.06.47-.1.66-.11.65-.09.53L193,383.57Zm-1.62-5-.09-.43-.14-.61-.13-.61-.12-.63-.11-.63-.11-.65-.08-.5,8.76-1.54,0,.28.08.63.09.57.1.55.11.52.11.48.06.27-8.56,2.3Zm-.94-5.18,8.79-1.54,0-.6,0-.74-.05-.75,0-.79v-.45l-9,.77.05.93.06.7.06.73.08.69.08.68,0,.37Zm-.44-5.22,0-.91-.05-1.56v-1.62H199v2.34l0,1-9,.79Zm-.1-5.22v-.35l0-1.46.07-1.46,0-.82,9,.78v.24l0,.86,0,.92,0,.93V363Zm.24-5.21.08-.86.14-1.36.19-1.3.08-.55,8.79,1.54v.08l-.08.7-.07.71-.06.74-.06.79,0,.3-9-.79Zm.68-5.19,8.74,1.56,0-.08.11-.58.11-.55.11-.54.13-.49.12-.45.13-.44,0-.11-8.63-2.32-.05.14-.16.59-.14.58-.12.61-.13.6-.13.61-.11.62,0,.25Zm1.18-5.08.14-.46.17-.55.17-.53.19-.52.21-.54.2-.5.22-.5.1-.26,20.89,7.6.06.36.13.62.09.64.11.65v.06L205.13,351l-.11-.33-.13-.34-.14-.35-.16-.28-.14-.27-.17-.24-.16-.2-.17-.18-.19-.15-.19-.13-.19-.09-.22-.08-.2,0-.22,0-.24,0-.22,0-.22.08-.2.11-.21.14-.2.18-.19.2-.18.24-.17.27-.14.23L192,347.47Zm1.87-4.89.08-.15.23-.45.24-.43.24-.41.25-.39.23-.38.27-.37.27-.37.27-.33.15-.19,17.15,8,.11.35.16.58.17.55.14.58.14.57,0,.16-20.13-7.33Zm3-4.31,15.86,7.39-.11-.3-.19-.5-.2-.51-.21-.48-.22-.48-.22-.45-.22-.44-.23-.46-.14-.24-9.46-5.45-.49-.29,0,0-.18,0-.37.09-.34.1-.33.12-.35.13-.31.15-.33.16-.32.18-.31.22-.32.2-.3.22-.29.25-.29.25-.16.15Zm6.08-2.4,6.7,3.87-.25-.33-.25-.31-.27-.3-.27-.28-.3-.27-.27-.25-.28-.25-.28-.22-.29-.22-.29-.21-.3-.19-.3-.17-.3-.14-.33-.14-.32-.13-.31-.11-.32-.09-.33-.08-.33-.07-.33-.06-.34,0-.35,0Zm11.87,18.88-9.36-2.5,0,.06.09.49.1.54.08.53.08.57.09.59,0,.19,9.09,1.61-.06-.68-.15-1.37v0Zm.3,3.23.07,1,0,1-9-.8,0-.68,0-.75-.05-.71,0-.61,9.07,1.59Zm.16,3.08,0,.91v1h-9.06v-2.11l0-.57,9,.79Zm0,3v1.05l0,.84-9.08.78,0-.7,0-1.12v-.85Zm-.06,3-.06,1.14,0,.83-9.09,1.59,0-.63.05-.91,0-1v-.23l9.08-.81Zm-.21,3.1L206,371.79l0,.69-.08.72-.08.7-.08.63,0,.2,9.21-2.47.11-1.1.07-1Zm20.11,8.69V380l-9.58,11.42h-3l12.55-12.55ZM221,391.42,234.44,378h-1.12l-16,13.42Zm-4.13-1.1L231.57,378H230l-13.11,9.17v3.15Zm0-4.5L228.05,378h-2.31l-8.85,5.11v2.71Zm0-4,8.77-5.06v-1.42l-8.77,4.09v2.39Zm0-3.61v-2.16l8.77-3.18v1.25l-8.77,4.09Zm0-3.34,8.77-3.19v-1.13l-8.77,2.34v2Zm0-3.14v-1.86l8.77-1.54v1.05l-8.77,2.35Zm0-3,8.77-1.55v-1l-8.77.75v1.8Zm0-2.91v-1.75h8.77v1l-8.77.77Zm0-2.88V361.2l8.77.77v1Zm0-2.87v-1.79l8.77,1.54v1l-8.77-.76Zm0-2.92,8.77,1.54v-1.05l-8.77-2.35v1.86Zm0-3v-2l8.77,3.18v1.13l-8.77-2.34Zm0-3.18,8.77,3.19v-1.24l-8.77-4.09V351Zm0-3.38V345.2l8.77,5.07v1.4l-8.77-4.09Zm0-3.67v-2.69l8.77,6.14V349l-8.77-5.07Zm0-4.07,8.77,6.15v-1.94l-8.75-7.34h0v3.13Zm1.75-3.13,7,5.88v-2.34l-3.53-3.54Zm5.07,0h1.95v2l-1.95-2Zm11.45,45L227,391.42h2.47l5.66-8.08v-1.61Zm0,3.56-4.3,6.13H233l2.2-3.82v-2.31Zm0,4.57-.9,1.56h.9v-1.56ZM291,360.74V363H279v-1.43l8.79-.78Zm0,3.34v2.49l-12-1.06v-1.43Zm0,3.6v2.55l-12-2.12v-1.47l12,1Zm0,3.67-12-2.11v1.53L291,374v-2.64Zm0,3.8v2.77l-7.84-2.84,0-.15,0-.33,0-.34.05-.35v-.38l0-.37v-.05l7.61,2Zm0,4-8.12-2.95-.09.25-.11.27-.11.26-.11.24-.13.24-.12.22-.15.2-.06.08,9,4.18v-3Zm0,4.25v3.31l-23.82-13.75-.08-.7,9.85,4.6.06.12.18.32.17.3.17.26.19.26.21.22.19.19.18.18.21.15.2.14.21.09.22.1.22.06.22,0,.22,0H280l.17,0,.17,0,.19,0,.18-.08.17-.08.16-.1.15-.11h0l9.82,4.58Zm0,4.6-23.65-13.64.07.56.06.35,17.6,12.33h0l.18-.34.17-.38.17-.38.18-.39.14-.41.16.6.14.63.12.67.14.69,0,.33,4,2.82H291V388Zm-2.38,3.44H287l-.13-.83-.06-.44,1.82,1.27Zm-4.09-2.86-16.8-11.77.11.61.11.6,0,.08,14.9,12.51.2-.18.24-.23.2-.24.22-.23.21-.29.2-.26.19-.3.2-.3ZM282,391.3,268.4,379.92l.09.38.15.53.15.55.18.54,0,.08,10,10,.22.24.22,0,.28-.06.28-.06.27-.07.3-.09.27-.09.25-.11.27-.11.25-.15.25-.14.08,0Zm-4.33.91-7.69-7.7.16.37.2.44.22.44.21.42.22.41.22.41.23.38.22.38.24.34.24.33.25.33.23.32.27.28.25.3.25.27.26.25.26.23.27.22.27.22.27.19.28.18.28.17.29.14.28.14.3.13.3.11.28.09.3.08.31.06.3.05,0,0ZM267,370.94l9.34,4.37-.11-.42-.12-.55-.11-.62,0,0-9-3.29,0,.44,0,.11Zm-.11-1.78,8.9,3.24v0l-.08-.75-.06-.57-8.79-2.36,0,.47Zm-.08-1.65v-.43l8.68,1.55,0,.41.05.81-8.75-2.34Zm13.8,4.86H279v-.44l1.64.44ZM266.78,366l8.67,1.53,0-.43v-.72l-8.64-.76V366Zm0-1.51,0-.36h8.62v1.12l-8.64-.76Zm0-1.49,0-.36,8.59-.76V363Zm0-1.5,0-.45,8.61-1.54,0,.58,0,.66-8.59.75Zm.08-1.59,8.61-1.54.06-.72v-.44l-8.66,2.33,0,.37Zm.11-1.57,0-.49,8.83-3.21,0,.19-.08.65,0,.53-8.7,2.33Zm.16-1.73,8.9-3.24.06-.33.11-.55.13-.5.08-.29-9.22,4.3,0,.25,0,.36Zm.23-1.92,9.55-4.45.14-.33.18-.32.17-.29.17-.26.21-.23.2-.19.21-.17.22-.15.22-.09.23-.08.24-.05h.42l.19,0,.18.05.17,0,.17.08.19.1.16.11.05,0,8.24-3.84-.1-.27-.28-.77-.31-.72-.33-.73h0l-20.39,11.77-.1.75Zm21.85-8.95.1.3.25.86.22.9.13.52-7.77,2.83,0-.08-.09-.31-.11-.28-.11-.29-.11-.27-.13-.23-.12-.22-.05-.08,7.83-3.65Zm.93,3.68.05.27.17,1,.16,1,.05.3-7.82,2.09-.06-.41-.15-.85-.07-.39,0-.22,7.72-2.82Zm.58,3.71.1.74.11,1.12-7.93,1.6-.08-1,0-.32,7.83-2.11Zm-23-.64,0-.16.16-.86,17.9-12.53.21.26.2.25.19.27.19.29.2.29.17.28.19.31.16.29-19.6,11.31Zm.52-2.61.3-1.18.08-.3,14.09-11.83.1.05.26.11.24.14.25.12.24.16.23.17.24.18.22.17.24.19.22.2.07.07-16.78,11.75Zm.93-3.42v0l.18-.54.18-.55.19-.53.19-.54.13-.28,7.66-7.68L278,336l.35,0,.38-.05.37,0h1l.31,0,.29,0,.28,0,.27,0,.25.06-12.3,10.32Zm2.44-5.63,4-4-.06,0-.33.17-.33.22-.32.22-.3.24-.3.25-.3.27-.28.28-.28.3-.28.33-.29.33-.27.36-.25.36-.25.38-.12.22Zm5.93-4.7h0l.17.17-.17-.17ZM306.33,358l.08-.08.14-.14.11-.14.12-.16.11-.17.11-.17.1-.19.08-.21.09-.2.08-.22.06-.24.07-.23,0-.24.05-.28.05-.27,0-.27.05-.58v-.53l9.17-1.64v.11l0,1.4,0,1.38-.1,1.39-.09.79-10.35.89Zm10.21.24-.11.77-.27,1.29-.32,1.26-.34,1.18-.08.22h-22.7v-2.63l23.82-2.09ZM315,364.08l-.36.83-.5,1-.57.9-.58.77-.63.67-.2.18-19.43-1.7v-2.63Zm-22.27-4.89,8.12-.71v-3.57l-8.12,1.45v2.83Zm14.94-6.64,9.14-1.65v-.13l-.14-1.38-.2-1.34-.29-1.32-.09-.41-9.75,2.61,0,0,.11.11.13.13.11.14.11.14.09.16.1.17.09.17.08.19.08.22.06.21.07.22.06.23.05.24.09.5,0,.55v.21Zm-14.94,2.67v-2.66l8.12-2.17v3.39l-8.12,1.44Zm11.5-6.89h-3.38v.9l-8.12,2.19v-3l21-7.66.12.17.6,1,.52,1.1.46,1.16.33,1-11.58,3.1ZM314,391.42h-3l-4-1.86-.91-5L320.8,390l-.22,1.45H314Zm-5.73,0-1.07-.49.1.49Zm-2.47-8.12L321,388.84l.81-5.44-6.36-1.7-.47,3.16-.71-3.48-9.28-2.5.8,4.42Zm-1-5.63-.74-4,9,1.59,1,4.93-9.27-2.49Zm10.87,2.91,6.36,1.7.25-1.65h7.14l.52,3.77,16,4.28V381l-8-1.41v2.66l-.43-2.74-21.06-3.71-.71,4.76Zm30.25,9.27v1.57h-15L330,385.6l15.81,4.25Zm-42.06-17.37,9,1.57-.93-4.54-19.1-1.67v2.69l8.12,1.43V370.5h2.56l.38,2Zm-2.94.61v3.54l-8.12-2.18v-2.79l8.12,1.43Zm0,4.71-8.12-2.19v3l8.12,3V377.8Zm0,4.92v4l-8.12-3.79v-3.18l8.12,3Zm0,5.26-8.12-3.78v3.49l6.47,3.73h1.65V388ZM297,391.42h-4.23V389l4.23,2.44Zm19.52-16.71.71-4.73,19,1.67,1,6.71-20.72-3.65Zm21.32,3.76v-6.68l8,.71v7.39l-8-1.42Zm-45.07-31.21v-3.19l15.45-7.19.67.13,1,.37.94.49.88.62.8.72.57.66-20.34,7.39Zm0-4.42,13.15-6.13h-8.6l-4.55,2.62v3.51Zm0-4.81,2.3-1.32h-2.3V338Zm24.63,30.83L336,370.5l-1-6.42h-7.74l.63,4.62h-4.34l.63-4.62h-6.12l-.73,4.78Zm.9-5.91L319,358l6.12-.53-.75,5.46Zm8.87,0-.75-5.57,7.52-.66,1,6.23Zm-8-6.07,6.11-.54.47-3.52.47,3.44,7.51-.66-1-6.42L320,351.46l-.82,5.42Zm1-6.58.79-5.29,10.73-2.88.9,5.94-12.42,2.23Zm1-6.5L331.5,341l-.66-4.31H325L322,337.79l-.91,6Zm16.66,26.86v-6.58h16.86v6.86h-8.81v.42l-8-.7Zm0-7.71v-6.58l8-.71v3h8.81V363Zm0-7.71v-7l19.51-3.51v5H345.84v4.82l-8,.69Zm0-8.1,19.51-3.51v-6.92h-5.4l-14.11,3.79v6.64Zm0-7.81v-2.62h9.8l-9.8,2.62Zm29.28-2.62v5.17l-8.59,1.54v-6.71Zm0,6.31-8.59,1.54v8.87l8.59-.74V343Zm0,10.79V363h-8.59v-8.39l8.59-.75Zm0,10.27v9.14l-8.59-.76v-8.38Zm0,10.27v9.28l-8.59-1.51V373.6l8.59.75Zm0,10.42-8.59-1.51v8.16h8.59v-6.65Zm27.54,6.65h-8.95l-.79-3.51,9.28,1.64.46,1.87Zm-10-4.7,9.26,1.63L391,376.44l-8.87-.78,2.47,11.06Zm-2.74-12.21-.84-3.78-1.22,3.59-9.25-.8v-9.44H388l2.71,11.2-8.86-.77ZM370.56,363v-9.44l7.72-.68v6.48l2.17-6.67,7.4-.64-1.59,4.72,1.49,6.23Zm0-10.57,7.72-.68V341l-7.72,1.39v10Zm10.27-.9,3.79-11.61,7.79-1.4-4.17,12.36-7.41.65Zm-10.27-10.23v-4.54h7.72v3.16l-7.72,1.38ZM385,338.66l7.81-1.4.17-.55h-7.33l-.65,2Zm-5.58,36.76-8.87-.77v9.6l7.72,1.35v-6.81l1.15-3.37Zm-1.15,11.33v4.67h-7.72v-6l7.72,1.37Zm31.83,4.47,1.16.2h6.48L416,378.63,396.73,377l-1.6,11.62,5.9,1,1.23-9h6.51l1.34,10.59Zm-9.24-.49-.09.69h-6l.23-1.73,5.9,1Zm-.41-41,1.8-13.05h7.88l1.68,12.06Z" transform="translate(-166.05 -335.86)"/></svg>