<svg id="Ebene_1" data-name="Ebene 1" xmlns="http://www.w3.org/2000/svg" viewBox="0 0 140.35 32.44"><defs><style>.cls-1{fill:#fdfdfe;}.cls-2{fill:#aa6eb6;}.cls-3{fill:#cf8df9;}.cls-4{fill:#bc73c5;}.cls-5{fill:#a26bf8;}.cls-6{fill:#796791;}.cls-7{fill:#8c9af3;}.cls-8{fill:#b088ec;}.cls-9{fill:#7d64a1;}.cls-10{fill:#3db0f8;}.cls-11{fill:#b877c9;}.cls-12{fill:#bf7cd5;}.cls-13{fill:#d77ee2;}.cls-14{fill:#db82ef;}.cls-15{fill:#b571be;}.cls-16{fill:#916fa8;}.cls-17{fill:#83aafc;}.cls-18{fill:#a26db1;}.cls-19{fill:#8d65d7;}.cls-20{fill:#b682db;}.cls-21{fill:#666291;}.cls-22{fill:#996aa7;}.cls-23{fill:#5a5f80;}.cls-24{fill:#8365bb;}.cls-25{fill:#5da9fa;}.cls-26{fill:#9f98fc;}.cls-27{fill:#6fa6fc;}.cls-28{fill:#b392e6;}.cls-29{fill:#8764c9;}.cls-30{fill:#fdfbfe;}</style></defs><path class="cls-1" d="M140.35,80.84H0V48.4H140.35ZM124.43,64.1V61.84l0-2.25V53.42h-2.29V74.66h13.53V72.32H124.76c-.14-.75-.24-1.27-.33-1.78,0-1.39,0-2.78,0-4.17ZM18.23,72.48H14.38c-1.67,0-3.34,0-5-.09a7.72,7.72,0,0,1-1.85-.57v-8c0-2.84.08-5.67.1-8.5,0-2.19-.2-2.33-2.44-1.73V74.71H21.32V72.48Zm87.82,2.23h12.76c-.29-.95.74-2.27-.93-2.37s-3.61.07-5.42.13H108l-.48-2.58q0-3.7,0-7.39c0-1.08,0-2.15,0-3.23s.08-2.43.09-3.65c0-2.23,0-2.23-2.43-2V59c0,1.18,0,2.36,0,3.54,0,2.68,0,5.36,0,8,0,1.12-.1,2.25,0,3.36C105.17,74.19,105.74,74.44,106.05,74.71ZM34.23,62.2l-1.89-1.31c1.18-1.62,2.43-3.2,3.51-4.89a3.41,3.41,0,0,0,.43-2.21c0-.26-1.13-.47-1.75-.49a24.42,24.42,0,0,0-2.83.17H23.48v2.26h7.57l1.73.18-5.26,7.54A14.71,14.71,0,0,0,28.84,65c.08.07.72-.21.83-.46.71-1.59,1.8-1.25,3-.67l2,3.15c.09,2.08-.35,3.92-2.31,5-2.25,1.29-3.89,1-6.38-1.19l-1.19-3.43h-2a5.6,5.6,0,0,0,1.56,5,7.08,7.08,0,0,0,12.54-5.8A5.8,5.8,0,0,0,34.23,62.2ZM83.81,72.43l-1,2.33c1.26-.19,2.71.77,2.81-1.28l2.14-4.56a6.17,6.17,0,0,1,1.43-.67,18.56,18.56,0,0,1,2.48-.17,36.37,36.37,0,0,0,3.76.09c1.25-.1,2,.27,2.28,1.54a4.94,4.94,0,0,0,.4.84A19.45,19.45,0,0,1,99,72.93c.43,1.83,1.54,2.22,3.35,1.62-.7-1.67-1.4-3.32-2.1-5l-2.16-5.15c-1.37-3.44-2.71-6.89-4.15-10.3a1.71,1.71,0,0,0-1.3-.8c-1.84-.06-1.55,1.65-2.06,2.7l-2.48,6.09q-1.12,2.76-2.26,5.52C85.14,69.24,84.47,70.83,83.81,72.43Zm-35.12-19-4.19-.08-2.69-.12c-1.14-.05-1.56.45-1.53,1.63.08,3.83,0,7.66.07,11.49v8.36h8a8.48,8.48,0,0,0,8.29-6.11,50,50,0,0,0,.3-7c-.13-1.55-1.05-3-1.62-4.56A7.79,7.79,0,0,0,48.69,53.44ZM81.35,65.72,83,60.89l2.76-7.69c-1.35.36-2.67-.7-3.25.91s-1.12,3.45-1.67,5.18l-1.76,5.36-1.83,5a10.45,10.45,0,0,1-.57-1.1q-2.28-6.68-4.54-13.34c-.74-2.18-.9-2.28-3.23-1.63.32,3.33,3.24,6.27,1.55,9.91l-2.19,6.15c-.22-.45-.49-.89-.67-1.37-.71-1.92-1.4-3.85-2.1-5.78-.78-2.42-1.56-4.85-2.35-7.27-.73-2.21-.81-2.25-3.53-1.7l2.83,7.74c1.33,4.09,2.69,8.18,4,12.28a1.63,1.63,0,0,0,1.82,1.3c1.08,0,1.4-.49,1.53-1.37l2.72-8c1,2.63,2.06,5.23,2.89,7.9.42,1.36,1.26,1.77,2.32,1.36.53-.21.74-1.24,1.09-1.89Z" transform="translate(0 -48.4)"/><path class="cls-2" d="M70.43,63.46c1.69-3.64-1.23-6.58-1.55-9.91,2.33-.65,2.49-.55,3.23,1.63q2.27,6.68,4.54,13.34a10.45,10.45,0,0,0,.57,1.1c.51,1.06,1,2.12,1.55,3.18-.35.65-.56,1.68-1.09,1.89-1.06.41-1.9,0-2.32-1.36-.83-2.67-1.91-5.27-2.89-7.9-.35-.31-.72-.61-1-.94S70.76,63.81,70.43,63.46Z" transform="translate(0 -48.4)"/><path class="cls-3" d="M36.89,66.67a7.08,7.08,0,0,1-12.54,5.8l1.59-1.62C28.43,73,30.07,73.33,32.32,72c2-1.12,2.4-3,2.31-5Z" transform="translate(0 -48.4)"/><path class="cls-4" d="M65.47,62.46c.7,1.93,1.39,3.86,2.1,5.78.18.48.45.92.67,1.37.2,1.4.13,2.9,1.51,3.83-.13.88-.45,1.39-1.53,1.37a1.63,1.63,0,0,1-1.82-1.3c-1.29-4.1-2.65-8.19-4-12.28Z" transform="translate(0 -48.4)"/><path class="cls-5" d="M124.43,70.54l.33,1.78h10.89v2.34H122.12V71.5Z" transform="translate(0 -48.4)"/><path class="cls-6" d="M90.54,56c.51-1.05.22-2.76,2.06-2.7a1.71,1.71,0,0,1,1.3.8c1.44,3.41,2.78,6.86,4.15,10.3l-2.27.33c-.89-2.07-1.76-4.14-2.66-6.2-.2-.46-.36-1.37-1-.31Z" transform="translate(0 -48.4)"/><path class="cls-7" d="M27.52,63.47l5.26-7.54-1.73-.18.65-2.28a24.42,24.42,0,0,1,2.83-.17c.62,0,1.72.23,1.75.49A3.41,3.41,0,0,1,35.85,56c-1.08,1.69-2.33,3.27-3.51,4.89-.41.25-.81.51-1.23.73Z" transform="translate(0 -48.4)"/><path class="cls-8" d="M40.35,66.36c0-3.83,0-7.66-.07-11.49,0-1.18.39-1.68,1.53-1.63l2.69.12-1,2.37c-.94,0-.93.59-.93,1.27,0,3,0,6,0,9Z" transform="translate(0 -48.4)"/><path class="cls-9" d="M95.78,64.76l2.27-.33,2.16,5.15-2.12,1a4.94,4.94,0,0,1-.4-.84c-.27-1.27-1-1.64-2.28-1.54a36.37,36.37,0,0,1-3.76-.09c-.14-.77-.27-1.53-.4-2.29,1.21,0,2.42-.08,3.63,0C95.65,65.78,96,65.52,95.78,64.76Z" transform="translate(0 -48.4)"/><path class="cls-10" d="M5.16,63.78V53.54c2.24-.6,2.46-.46,2.44,1.73,0,2.83-.07,5.66-.1,8.5Z" transform="translate(0 -48.4)"/><path class="cls-11" d="M65.47,62.46l-3-1.23-2.83-7.74c2.72-.55,2.8-.51,3.53,1.7C63.91,57.61,64.69,60,65.47,62.46Z" transform="translate(0 -48.4)"/><path class="cls-12" d="M55.33,57c.57,1.52,1.49,3,1.62,4.56a50,50,0,0,1-.3,7l-2.16-1c0-.47.12-.94.15-1.41.18-2.71.29-5.41-1.17-7.87Z" transform="translate(0 -48.4)"/><path class="cls-13" d="M54.49,67.65l2.16,1a8.48,8.48,0,0,1-8.29,6.11V72.46A7.23,7.23,0,0,0,54.49,67.65Z" transform="translate(0 -48.4)"/><path class="cls-14" d="M48.36,72.46v2.26h-8V69.9l2.25-.32a5,5,0,0,1,0,1c-.23,1.56.46,2.06,2,1.93C45.82,72.35,47.09,72.45,48.36,72.46Z" transform="translate(0 -48.4)"/><path class="cls-15" d="M69.75,73.44c-1.38-.93-1.31-2.43-1.51-3.83l2.19-6.15c.33.35.64.7,1,1s.7.63,1,.94Z" transform="translate(0 -48.4)"/><path class="cls-16" d="M91.25,65.79c.13.76.26,1.52.4,2.29a18.56,18.56,0,0,0-2.48.17,6.17,6.17,0,0,0-1.43.67L85.8,67.64q1.14-2.76,2.26-5.52L90,63.46l-.67,2.16Z" transform="translate(0 -48.4)"/><path class="cls-17" d="M13.42,74.71H5.15V72.15l2.37-.33a7.72,7.72,0,0,0,1.85.57c1.67.1,3.34.07,5,.09Z" transform="translate(0 -48.4)"/><path class="cls-16" d="M80.81,59.29c.55-1.73,1.06-3.47,1.67-5.18s1.9-.55,3.25-.91L83,60.89Z" transform="translate(0 -48.4)"/><path class="cls-9" d="M107.51,62.5q0,3.69,0,7.39l-2.34.65c0-2.68,0-5.36,0-8Z" transform="translate(0 -48.4)"/><path class="cls-18" d="M78.77,72.8c-.52-1.06-1-2.12-1.55-3.18l1.83-5,2.3,1.07Z" transform="translate(0 -48.4)"/><path class="cls-19" d="M112.46,72.47c1.81-.06,3.62-.24,5.42-.13s.64,1.42.93,2.37h-7.63C111.61,74,112,73.22,112.46,72.47Z" transform="translate(0 -48.4)"/><path class="cls-20" d="M55.33,57l-1.86,1.33A7.54,7.54,0,0,0,48,55.73l.65-2.29A7.79,7.79,0,0,1,55.33,57Z" transform="translate(0 -48.4)"/><path class="cls-21" d="M122.12,59.93V53.42h2.29v6.17Z" transform="translate(0 -48.4)"/><path class="cls-9" d="M90,63.46l-1.92-1.34L90.54,56l1.54,2.22Z" transform="translate(0 -48.4)"/><path class="cls-22" d="M81.35,65.72l-2.3-1.07c.59-1.79,1.17-3.58,1.76-5.36L83,60.89Z" transform="translate(0 -48.4)"/><path class="cls-23" d="M105.16,59V53.6c2.44-.21,2.45-.21,2.43,2,0,1.22-.06,2.44-.09,3.65Z" transform="translate(0 -48.4)"/><path class="cls-22" d="M85.8,67.64l1.94,1.28L85.6,73.48l-1.79-1C84.47,70.83,85.14,69.24,85.8,67.64Z" transform="translate(0 -48.4)"/><path class="cls-24" d="M98.09,70.55l2.12-1c.7,1.65,1.4,3.3,2.1,5-1.81.6-2.92.21-3.35-1.62A19.45,19.45,0,0,0,98.09,70.55Z" transform="translate(0 -48.4)"/><path class="cls-25" d="M28.16,55.74H23.48V53.48h5.65Z" transform="translate(0 -48.4)"/><path class="cls-26" d="M25.94,70.85l-1.59,1.62a5.6,5.6,0,0,1-1.56-5h2Z" transform="translate(0 -48.4)"/><path class="cls-19" d="M124.43,70.54l-2.31,1V66.69l2.3-.32Z" transform="translate(0 -48.4)"/><path class="cls-26" d="M27.52,63.47l3.59-1.85c.42-.22.82-.48,1.23-.73l1.89,1.31-1.6,1.65c-1.16-.58-2.25-.92-3,.67-.11.25-.75.53-.83.46A14.71,14.71,0,0,1,27.52,63.47Z" transform="translate(0 -48.4)"/><path class="cls-8" d="M32.63,63.85l1.6-1.65a5.8,5.8,0,0,1,2.66,4.47L34.63,67C34,66,33.3,64.9,32.63,63.85Z" transform="translate(0 -48.4)"/><path class="cls-27" d="M7.52,71.82l-2.37.33c0-1.5,0-3,0-4.5H7.51Z" transform="translate(0 -48.4)"/><path class="cls-28" d="M48.69,53.44,48,55.73H43.55l1-2.37Z" transform="translate(0 -48.4)"/><path class="cls-29" d="M112.46,72.47c-.42.75-.85,1.49-1.28,2.24h-5.13L108,72.47Z" transform="translate(0 -48.4)"/><path class="cls-24" d="M108,72.47l-1.93,2.24c-.31-.27-.88-.52-.9-.81-.09-1.11,0-2.24,0-3.36l2.34-.65Z" transform="translate(0 -48.4)"/><path class="cls-25" d="M7.51,67.65H5.16V63.78H7.5C7.5,65.06,7.51,66.35,7.51,67.65Z" transform="translate(0 -48.4)"/><path class="cls-26" d="M18.23,72.48h3.09V74.7H16.94Z" transform="translate(0 -48.4)"/><path class="cls-21" d="M105.16,59l2.34.31c0,1.08,0,2.15,0,3.23h-2.36Z" transform="translate(0 -48.4)"/><path class="cls-7" d="M18.23,72.48,16.94,74.7H13.42l1-2.23Z" transform="translate(0 -48.4)"/><path class="cls-3" d="M42.59,69.58l-2.25.32c0-1.18,0-2.36,0-3.54L42.59,66Z" transform="translate(0 -48.4)"/><path class="cls-27" d="M28.16,55.74l1-2.26H31.7l-.65,2.28Z" transform="translate(0 -48.4)"/><path class="cls-9" d="M122.12,59.93l2.29-.34c0,.75,0,1.5,0,2.25l-2.31.34Z" transform="translate(0 -48.4)"/><path class="cls-24" d="M122.12,62.18l2.31-.34V64.1l-2.31.66Z" transform="translate(0 -48.4)"/><path class="cls-29" d="M122.12,64.76l2.31-.66c0,.76,0,1.51,0,2.27l-2.3.32Z" transform="translate(0 -48.4)"/><path class="cls-18" d="M83.81,72.43l1.79,1c-.1,2-1.55,1.09-2.81,1.28Z" transform="translate(0 -48.4)"/><path class="cls-30" d="M90,63.46l2.1-5.21c.68-1.06.84-.15,1,.31.9,2.06,1.77,4.13,2.66,6.2.17.76-.13,1-.9,1-1.21,0-2.42,0-3.63,0l-1.94-.17Z" transform="translate(0 -48.4)"/><path class="cls-30" d="M42.59,69.58V66c0-3,0-6,0-9,0-.68,0-1.31.93-1.27H48a7.54,7.54,0,0,1,5.43,2.64c1.46,2.46,1.35,5.16,1.17,7.87,0,.47-.1.94-.15,1.41a7.23,7.23,0,0,1-6.13,4.81c-1.27,0-2.54-.11-3.79,0-1.5.13-2.19-.37-2-1.93A5,5,0,0,0,42.59,69.58Z" transform="translate(0 -48.4)"/></svg>