<svg xmlns="http://www.w3.org/2000/svg" viewBox="0 0 334.49 182.32"><defs><style>.cls-1{fill:none;}.cls-2{fill:#f60;fill-rule:evenodd;}</style></defs><g id="Bounding_Box" data-name="Bounding Box"><rect class="cls-1" width="334.49" height="182.32"/></g><g id="Logo"><path d="M53.49,120.08A8.07,8.07,0,0,1,55,117.4a6.94,6.94,0,0,1,2.48-1.79,8.73,8.73,0,0,1,6.61,0,7,7,0,0,1,2.46,1.79,8.09,8.09,0,0,1,1.55,2.68,10.18,10.18,0,0,1,.53,3.32,9.9,9.9,0,0,1-.53,3.26,7.86,7.86,0,0,1-1.55,2.63A6.94,6.94,0,0,1,64.12,131a8.85,8.85,0,0,1-6.61,0A6.85,6.85,0,0,1,55,129.29a7.83,7.83,0,0,1-1.54-2.63A9.65,9.65,0,0,1,53,123.4,9.92,9.92,0,0,1,53.49,120.08Zm3.21,5.28a5.18,5.18,0,0,0,.75,1.71,3.75,3.75,0,0,0,1.34,1.22,4.64,4.64,0,0,0,4,0,3.75,3.75,0,0,0,1.34-1.22,5.39,5.39,0,0,0,.75-1.71,8,8,0,0,0,.24-2,8.48,8.48,0,0,0-.24-2,5.48,5.48,0,0,0-.75-1.76,3.68,3.68,0,0,0-1.34-1.23,4.64,4.64,0,0,0-4,0,3.68,3.68,0,0,0-1.34,1.23,5.26,5.26,0,0,0-.75,1.76,8.48,8.48,0,0,0-.24,2A8,8,0,0,0,56.7,125.36Z" transform="translate(0 0)"/><path d="M73.57,119.75v1.48h0a3.54,3.54,0,0,1,1.47-1.36,4.49,4.49,0,0,1,2-.43,4.94,4.94,0,0,1,2.35.52A4.79,4.79,0,0,1,81,121.32a5.45,5.45,0,0,1,1,2,8.73,8.73,0,0,1,.32,2.36A7.88,7.88,0,0,1,82,127.9a5.39,5.39,0,0,1-1,1.9,4.65,4.65,0,0,1-3.81,1.82,4.57,4.57,0,0,1-2-.44,3.68,3.68,0,0,1-1.48-1.29h0v5.48H70.54V119.75Zm4.13,9.18a2.56,2.56,0,0,0,.85-.82,3.21,3.21,0,0,0,.45-1.17,7,7,0,0,0,.14-1.37,6.16,6.16,0,0,0-.15-1.36,3.36,3.36,0,0,0-.48-1.2,2.59,2.59,0,0,0-.86-.85,2.38,2.38,0,0,0-1.29-.33,2.43,2.43,0,0,0-1.31.33,2.53,2.53,0,0,0-.85.84,3.63,3.63,0,0,0-.46,1.18,7.89,7.89,0,0,0-.13,1.39,7,7,0,0,0,.14,1.37,3.63,3.63,0,0,0,.47,1.17,2.6,2.6,0,0,0,.86.82,2.92,2.92,0,0,0,2.62,0Z" transform="translate(0 0)"/><path d="M90.39,119.75v2.13H88.07v5.73A1.07,1.07,0,0,0,89.41,129a4.43,4.43,0,0,0,.52,0c.16,0,.32,0,.46-.06v2.45a5.69,5.69,0,0,1-.89.09c-.33,0-.65,0-1,0a10.4,10.4,0,0,1-1.4-.09,3.31,3.31,0,0,1-1.17-.4,2,2,0,0,1-.79-.82,3,3,0,0,1-.29-1.41v-6.83H83v-2.13h1.92v-3.47h3.18v3.47Z" transform="translate(0 0)"/><path d="M91.81,123A5.42,5.42,0,0,1,93,121.11a5.34,5.34,0,0,1,1.87-1.23,7.15,7.15,0,0,1,4.94,0,5.47,5.47,0,0,1,1.9,1.23,5.4,5.4,0,0,1,1.2,1.92,7.57,7.57,0,0,1,0,5,5.44,5.44,0,0,1-1.2,1.91,5.31,5.31,0,0,1-1.9,1.22,7.31,7.31,0,0,1-4.94,0A5.19,5.19,0,0,1,93,130a5.47,5.47,0,0,1-1.21-1.91,7.57,7.57,0,0,1,0-5Zm2.88,3.88a3.5,3.5,0,0,0,.46,1.18,2.42,2.42,0,0,0,.87.84,2.58,2.58,0,0,0,1.34.31,2.64,2.64,0,0,0,1.35-.31,2.34,2.34,0,0,0,.87-.84,3.5,3.5,0,0,0,.46-1.18,6.9,6.9,0,0,0,.14-1.36,7,7,0,0,0-.14-1.37,3.42,3.42,0,0,0-.46-1.18,2.34,2.34,0,0,0-.87-.84,2.55,2.55,0,0,0-1.35-.33,2.49,2.49,0,0,0-1.34.33,2.42,2.42,0,0,0-.87.84,3.42,3.42,0,0,0-.46,1.18,7,7,0,0,0-.13,1.37A6.89,6.89,0,0,0,94.69,126.91Z" transform="translate(0 0)"/><path d="M112.92,127.39a2.5,2.5,0,0,0,.77.9,3.27,3.27,0,0,0,1.13.52,5.4,5.4,0,0,0,1.34.16,7.25,7.25,0,0,0,1-.07,3.49,3.49,0,0,0,1-.31A2.23,2.23,0,0,0,119,128a1.59,1.59,0,0,0,.31-1,1.42,1.42,0,0,0-.41-1,3.31,3.31,0,0,0-1.09-.67,10.13,10.13,0,0,0-1.52-.47l-1.73-.45a15.27,15.27,0,0,1-1.74-.55,5.6,5.6,0,0,1-1.52-.84,3.91,3.91,0,0,1-1.09-1.29,3.82,3.82,0,0,1-.41-1.86,4.21,4.21,0,0,1,.52-2.14,4.87,4.87,0,0,1,1.38-1.51,6,6,0,0,1,1.93-.9,8.31,8.31,0,0,1,2.15-.29,10,10,0,0,1,2.4.28,6.06,6.06,0,0,1,2,.91,4.47,4.47,0,0,1,1.42,1.6,4.93,4.93,0,0,1,.53,2.36h-3.41a2.8,2.8,0,0,0-.3-1.18,2,2,0,0,0-.68-.74,2.77,2.77,0,0,0-1-.38,5.69,5.69,0,0,0-1.2-.11,4,4,0,0,0-.85.08,2.25,2.25,0,0,0-.78.32,1.9,1.9,0,0,0-.57.56,1.55,1.55,0,0,0-.22.85,1.45,1.45,0,0,0,.18.76,1.58,1.58,0,0,0,.7.53,9,9,0,0,0,1.46.5l2.43.62c.3.06.71.17,1.24.33a5.67,5.67,0,0,1,1.58.75,4.77,4.77,0,0,1,1.35,1.37,3.86,3.86,0,0,1,.57,2.21,5,5,0,0,1-.42,2,4.48,4.48,0,0,1-1.26,1.62,6.23,6.23,0,0,1-2.09,1.06,9.59,9.59,0,0,1-2.87.38,10.4,10.4,0,0,1-2.57-.32,6.59,6.59,0,0,1-2.19-1,4.89,4.89,0,0,1-1.51-1.77,5.11,5.11,0,0,1-.54-2.55h3.4A2.89,2.89,0,0,0,112.92,127.39Z" transform="translate(0 0)"/><path d="M127.82,128.55a3.28,3.28,0,0,0,3.72.21,2,2,0,0,0,.85-1h2.8a5.36,5.36,0,0,1-2.06,3,6.06,6.06,0,0,1-3.36.9,6.61,6.61,0,0,1-2.46-.44,5.11,5.11,0,0,1-1.86-1.24,5.63,5.63,0,0,1-1.18-1.93,7.17,7.17,0,0,1-.41-2.46,6.84,6.84,0,0,1,.42-2.42,5.71,5.71,0,0,1,3.08-3.22,6.09,6.09,0,0,1,2.41-.47,5.47,5.47,0,0,1,2.57.57,5.06,5.06,0,0,1,1.8,1.53,6.55,6.55,0,0,1,1,2.2,8.39,8.39,0,0,1,.22,2.57H127A3.22,3.22,0,0,0,127.82,128.55Zm3.6-6.09a2.23,2.23,0,0,0-1.74-.63,2.74,2.74,0,0,0-1.26.26,2.4,2.4,0,0,0-.81.64,2.44,2.44,0,0,0-.43.81,3.35,3.35,0,0,0-.14.75h5.17A3.7,3.7,0,0,0,131.42,122.46Z" transform="translate(0 0)"/><path d="M140.36,119.75v1.57h0a4.63,4.63,0,0,1,1.51-1.39,4.2,4.2,0,0,1,2-.49,4.54,4.54,0,0,1,2,.43,2.84,2.84,0,0,1,1.38,1.5,4.89,4.89,0,0,1,1.4-1.35,3.71,3.71,0,0,1,2.09-.58,6.53,6.53,0,0,1,1.7.22,3.4,3.4,0,0,1,1.34.72,3.29,3.29,0,0,1,.88,1.28,5.48,5.48,0,0,1,.31,1.92v7.74h-3.18v-6.55c0-.39,0-.76,0-1.1a2.3,2.3,0,0,0-.25-.9,1.48,1.48,0,0,0-.59-.6,2.14,2.14,0,0,0-1.06-.22,2.07,2.07,0,0,0-1.09.25,1.89,1.89,0,0,0-.65.67,2.81,2.81,0,0,0-.31.94,7.59,7.59,0,0,0-.08,1.07v6.44h-3.18v-6.49c0-.34,0-.68,0-1a3,3,0,0,0-.19-.92,1.41,1.41,0,0,0-.56-.69,2.13,2.13,0,0,0-1.15-.25,2.31,2.31,0,0,0-.6.1,1.83,1.83,0,0,0-.71.38,2.33,2.33,0,0,0-.6.8,3.35,3.35,0,0,0-.24,1.38v6.71h-3.18V119.75Z" transform="translate(0 0)"/><path d="M157.64,118v-2.62h3.18V118Zm3.18,1.79v11.57h-3.18V119.75Z" transform="translate(0 0)"/><path d="M168.65,121.83a2.21,2.21,0,0,0-1.27.35,2.72,2.72,0,0,0-.85.9,3.79,3.79,0,0,0-.46,1.2,6.54,6.54,0,0,0-.13,1.31,6.25,6.25,0,0,0,.13,1.28,4.06,4.06,0,0,0,.44,1.18,2.5,2.5,0,0,0,.82.86,2.26,2.26,0,0,0,1.25.33,2.34,2.34,0,0,0,1.76-.63,3,3,0,0,0,.77-1.71h3.07a5.28,5.28,0,0,1-1.79,3.51,5.83,5.83,0,0,1-3.78,1.21,6.39,6.39,0,0,1-2.39-.44,5.38,5.38,0,0,1-1.85-1.22,5.62,5.62,0,0,1-1.18-1.87,6.3,6.3,0,0,1-.43-2.38,7.49,7.49,0,0,1,.4-2.5,5.39,5.39,0,0,1,1.15-2,5.15,5.15,0,0,1,1.85-1.31,6.45,6.45,0,0,1,2.51-.47,7.17,7.17,0,0,1,2,.27,5.16,5.16,0,0,1,1.7.82,4.3,4.3,0,0,1,1.22,1.36,4.19,4.19,0,0,1,.54,1.93H171A2.13,2.13,0,0,0,168.65,121.83Z" transform="translate(0 0)"/><path d="M176,123a5.3,5.3,0,0,1,1.22-1.92,5.39,5.39,0,0,1,1.88-1.23,6.42,6.42,0,0,1,2.46-.44,6.51,6.51,0,0,1,2.47.44,5.43,5.43,0,0,1,1.89,1.23,5.28,5.28,0,0,1,1.21,1.92,7.57,7.57,0,0,1,0,5A5.33,5.33,0,0,1,186,130a5.27,5.27,0,0,1-1.89,1.22,6.92,6.92,0,0,1-2.47.43,6.82,6.82,0,0,1-2.46-.43,5.23,5.23,0,0,1-1.88-1.22,5.35,5.35,0,0,1-1.22-1.91,7.74,7.74,0,0,1,0-5Zm2.9,3.88a3.49,3.49,0,0,0,.45,1.18,2.5,2.5,0,0,0,.87.84,2.58,2.58,0,0,0,1.34.31,2.67,2.67,0,0,0,1.35-.31,2.34,2.34,0,0,0,.87-.84,3.5,3.5,0,0,0,.46-1.18,6.9,6.9,0,0,0,.14-1.36,7,7,0,0,0-.14-1.37,3.42,3.42,0,0,0-.46-1.18,2.34,2.34,0,0,0-.87-.84,2.57,2.57,0,0,0-1.35-.33,2.49,2.49,0,0,0-2.21,1.17,3.41,3.41,0,0,0-.45,1.18,7,7,0,0,0-.14,1.37A6.9,6.9,0,0,0,178.93,126.91Z" transform="translate(0 0)"/><path d="M192.64,119.75v1.62h.07a3.63,3.63,0,0,1,1.57-1.47,4.44,4.44,0,0,1,2-.46,5.39,5.39,0,0,1,2.09.35,3,3,0,0,1,1.29,1,3.81,3.81,0,0,1,.66,1.5,9.8,9.8,0,0,1,.19,2v7.11H197.3v-6.53a4.14,4.14,0,0,0-.44-2.14,1.75,1.75,0,0,0-1.6-.7,2.22,2.22,0,0,0-1.88.76,4.4,4.4,0,0,0-.58,2.55v6.06h-3.18V119.75Z" transform="translate(0 0)"/><path d="M211.16,129.85a3.23,3.23,0,0,1-1.47,1.35,4.78,4.78,0,0,1-2.05.42,5,5,0,0,1-2.29-.51,4.65,4.65,0,0,1-1.62-1.36,6.51,6.51,0,0,1-1-2,8.62,8.62,0,0,1-.32-2.33,8,8,0,0,1,.32-2.25,6.07,6.07,0,0,1,1-1.92,4.66,4.66,0,0,1,3.84-1.83,4.5,4.5,0,0,1,2,.44,3.49,3.49,0,0,1,1.46,1.28h0v-5.82h3.18v16h-3v-1.47Zm-.14-5.72a3.37,3.37,0,0,0-.46-1.17,2.51,2.51,0,0,0-.84-.81,2.42,2.42,0,0,0-1.29-.32,2.49,2.49,0,0,0-2.19,1.14,3.74,3.74,0,0,0-.47,1.18,6.21,6.21,0,0,0-.15,1.38,5.64,5.64,0,0,0,.16,1.34,3.6,3.6,0,0,0,.51,1.2,2.82,2.82,0,0,0,.87.85,2.33,2.33,0,0,0,1.27.32,2.54,2.54,0,0,0,1.31-.31,2.41,2.41,0,0,0,.84-.84,4,4,0,0,0,.44-1.19,7.23,7.23,0,0,0,.14-1.4A6.84,6.84,0,0,0,211,124.13Z" transform="translate(0 0)"/><path d="M224.52,131.32v-1.61h-.07a3.55,3.55,0,0,1-1.57,1.46,4.71,4.71,0,0,1-2,.45,5.69,5.69,0,0,1-2.1-.34,3,3,0,0,1-1.28-.95,3.67,3.67,0,0,1-.66-1.5,9.12,9.12,0,0,1-.19-2v-7.12h3.17v6.54a4.06,4.06,0,0,0,.45,2.14,1.74,1.74,0,0,0,1.59.7,2.21,2.21,0,0,0,1.88-.77,4.27,4.27,0,0,0,.58-2.54v-6.07h3.18v11.57Z" transform="translate(0 0)"/><path d="M235.31,121.83a2.27,2.27,0,0,0-1.28.35,2.79,2.79,0,0,0-.84.9,4,4,0,0,0-.46,1.2,6.54,6.54,0,0,0-.13,1.31,6.25,6.25,0,0,0,.13,1.28,4.06,4.06,0,0,0,.44,1.18,2.41,2.41,0,0,0,.82.86,2.25,2.25,0,0,0,1.26.33,2.33,2.33,0,0,0,1.75-.63,3,3,0,0,0,.77-1.71h3.07a5.28,5.28,0,0,1-1.79,3.51,5.83,5.83,0,0,1-3.78,1.21,6.36,6.36,0,0,1-2.39-.44A5.38,5.38,0,0,1,231,130a5.62,5.62,0,0,1-1.18-1.87,6.5,6.5,0,0,1-.43-2.38,7.75,7.75,0,0,1,.39-2.5,5.56,5.56,0,0,1,1.16-2,5.15,5.15,0,0,1,1.85-1.31,6.42,6.42,0,0,1,2.51-.47,7.3,7.3,0,0,1,2,.27,5.11,5.11,0,0,1,1.69.82,4.3,4.3,0,0,1,1.22,1.36,4.19,4.19,0,0,1,.54,1.93h-3.11A2.13,2.13,0,0,0,235.31,121.83Z" transform="translate(0 0)"/><path d="M249.14,119.75v2.13h-2.32v5.73a1.07,1.07,0,0,0,1.34,1.34,4.18,4.18,0,0,0,.51,0c.17,0,.32,0,.47-.06v2.45a5.82,5.82,0,0,1-.89.09c-.33,0-.65,0-1,0a10.3,10.3,0,0,1-1.4-.09,3.31,3.31,0,0,1-1.17-.4,2,2,0,0,1-.8-.82,3,3,0,0,1-.29-1.41v-6.83h-1.92v-2.13h1.92v-3.47h3.19v3.47Z" transform="translate(0 0)"/><path d="M250.55,123a5.3,5.3,0,0,1,3.09-3.15,6.42,6.42,0,0,1,2.46-.44,6.52,6.52,0,0,1,2.48.44,5.34,5.34,0,0,1,1.89,1.23,5.56,5.56,0,0,1,1.21,1.92,7.74,7.74,0,0,1,0,5,5.61,5.61,0,0,1-1.21,1.91,5.18,5.18,0,0,1-1.89,1.22,6.93,6.93,0,0,1-2.48.43,6.82,6.82,0,0,1-2.46-.43,5.23,5.23,0,0,1-1.88-1.22,5.47,5.47,0,0,1-1.21-1.91,7.74,7.74,0,0,1,0-5Zm2.89,3.88a3.5,3.5,0,0,0,.46,1.18,2.39,2.39,0,0,0,.86.84,2.63,2.63,0,0,0,1.34.31,2.71,2.71,0,0,0,1.36-.31,2.34,2.34,0,0,0,.87-.84,3.5,3.5,0,0,0,.46-1.18,6.89,6.89,0,0,0,.13-1.36,7,7,0,0,0-.13-1.37,3.42,3.42,0,0,0-.46-1.18,2.34,2.34,0,0,0-.87-.84,2.61,2.61,0,0,0-1.36-.33,2.54,2.54,0,0,0-1.34.33,2.39,2.39,0,0,0-.86.84,3.42,3.42,0,0,0-.46,1.18,7,7,0,0,0-.14,1.37A6.9,6.9,0,0,0,253.44,126.91Z" transform="translate(0 0)"/><path d="M267.16,119.75v2.15h0a4.19,4.19,0,0,1,.61-1,3.85,3.85,0,0,1,.87-.79,4.6,4.6,0,0,1,1.05-.5,3.86,3.86,0,0,1,1.17-.18,2.59,2.59,0,0,1,.69.11v3a5.29,5.29,0,0,0-.54-.08,4.12,4.12,0,0,0-.6,0,3.49,3.49,0,0,0-1.48.29,2.63,2.63,0,0,0-1,.8,3.21,3.21,0,0,0-.53,1.17,6.68,6.68,0,0,0-.15,1.46v5.21h-3.18V119.75Z" transform="translate(0 0)"/><path d="M275.79,128.45a1.87,1.87,0,0,0,.55.6,2.17,2.17,0,0,0,.77.35,3.84,3.84,0,0,0,.91.11,3,3,0,0,0,.7-.08,2.31,2.31,0,0,0,.67-.24,1.57,1.57,0,0,0,.51-.45,1.2,1.2,0,0,0,.2-.7c0-.48-.32-.84-1-1.08a20.82,20.82,0,0,0-2.65-.72c-.47-.1-.92-.23-1.36-.37a4.43,4.43,0,0,1-1.18-.56,2.76,2.76,0,0,1-.83-.87,2.56,2.56,0,0,1-.31-1.29,3.49,3.49,0,0,1,.44-1.83,3.12,3.12,0,0,1,1.15-1.13,5,5,0,0,1,1.61-.58,10.16,10.16,0,0,1,1.84-.17,9.06,9.06,0,0,1,1.82.18,4.9,4.9,0,0,1,1.58.6,3.65,3.65,0,0,1,1.15,1.13,3.74,3.74,0,0,1,.55,1.78h-3a1.4,1.4,0,0,0-.69-1.24,3.14,3.14,0,0,0-1.48-.32l-.58,0a1.71,1.71,0,0,0-.57.15,1.16,1.16,0,0,0-.44.32.85.85,0,0,0-.18.57.9.9,0,0,0,.31.69,2.55,2.55,0,0,0,.82.44,11.17,11.17,0,0,0,1.15.3l1.33.29c.46.11.91.23,1.35.38a4.58,4.58,0,0,1,1.17.59,2.91,2.91,0,0,1,.83.92,2.73,2.73,0,0,1,.31,1.36,3.72,3.72,0,0,1-.45,1.91,3.78,3.78,0,0,1-1.2,1.25,4.84,4.84,0,0,1-1.69.65,9.6,9.6,0,0,1-1.94.2,9.21,9.21,0,0,1-2-.21,5,5,0,0,1-1.71-.67,3.74,3.74,0,0,1-1.23-1.24,3.88,3.88,0,0,1-.53-1.93h3A1.76,1.76,0,0,0,275.79,128.45Z" transform="translate(0 0)"/><path class="cls-2" d="M74.6,100.76C60.43,100.76,51,90.38,51,75.27S61.15,49.68,74.6,49.68c13.8-.06,23.54,10.18,23.54,25.59,0,15.08-9.26,25.49-23.54,25.49m0-40.95c-8.48,0-12,7.87-12,15.41s3.85,15.2,12,15.2,12-7.81,12-15.25C86.52,67.53,83,59.81,74.6,59.81Zm66.21,25.4c.1,9.37-8.87,15.59-19.67,15.59-21.46,0-20-16-20.11-17.28h11.38c-.48,5,4.63,7.73,9.21,7.63,3.37-.05,7.52-.67,8-5.12,1.06-8.92-28-2.51-28-21,0-9.85,9.83-15.26,19.43-15.26,13.59,0,19.66,8,19.66,16.68H129.1s.57-6.88-8.2-6.88c-3.43,0-7.24,1.36-7.67,4.55C112.08,72.41,140.57,66.24,140.81,85.21Zm35.15-2,8.1,16.25H171.67L164.49,84h-7.34V99.44h-11.3V51h24.69c8.67,0,15.2,7.26,15.2,16.66C185.74,75,182.37,80.23,176,83.19Zm-7.07-21.94H157.15v13h11.4c3.33,0,5.72-3.21,5.72-6.46C174.27,64.77,172.27,61.25,168.89,61.25Zm52.92,38.19-2.87-8.38H200l-2.94,8.38H185L202.57,51h13.76l17.53,48.42ZM215.53,81l-6.07-17.68L203.38,81Zm55.69,18.47V73.5l-11.63,19L248,73.5V99.44H235.76V51H248l11.59,19.71L271.22,51h12.23V99.44Z" transform="translate(0 0)"/></g></svg>