<?xml version="1.0" encoding="utf-8"?>
<!-- Generator: Adobe Illustrator 24.3.0, SVG Export Plug-In . SVG Version: 6.00 Build 0)  -->
<svg version="1.1" xmlns="http://www.w3.org/2000/svg" xmlns:xlink="http://www.w3.org/1999/xlink" x="0px" y="0px"
	 viewBox="0 0 113.39 113.39" style="enable-background:new 0 0 113.39 113.39;" xml:space="preserve">
<style type="text/css">
	.st0{display:none;}
	.st1{display:inline;fill:url(#SVGID_1_);}
	.st2{display:inline;fill:url(#SVGID_2_);}
	.st3{display:inline;opacity:0.5;fill:none;stroke:#000000;stroke-width:0.8504;stroke-miterlimit:10;}
	.st4{display:inline;}
	
		.st5{display:inline;fill:none;stroke:#FFFFFF;stroke-width:0.8504;stroke-linecap:round;stroke-linejoin:round;stroke-miterlimit:10;}
	.st6{display:inline;fill:none;stroke:url(#SVGID_3_);stroke-width:0.8504;stroke-linecap:round;stroke-miterlimit:10;}
	.st7{display:inline;opacity:0.4;fill:url(#SVGID_4_);}
	.st8{fill:none;stroke:#0FA2E3;stroke-width:0.8504;stroke-linecap:round;stroke-miterlimit:10;}
	.st9{fill:none;stroke:#0FA2E3;stroke-width:0.8504;stroke-linecap:square;stroke-miterlimit:10;}
	.st10{display:inline;fill:url(#SVGID_5_);}
	.st11{display:inline;fill:url(#SVGID_6_);}
	.st12{display:inline;fill:url(#SVGID_7_);}
	.st13{fill:#0FA2E3;}
	.st14{display:inline;opacity:0.3;}
	.st15{fill:none;stroke:#000000;stroke-width:0.8504;stroke-linecap:round;stroke-linejoin:round;stroke-miterlimit:10;}
	.st16{fill:url(#SVGID_8_);}
	.st17{fill:url(#SVGID_9_);}
	.st18{fill:url(#SVGID_10_);}
	.st19{fill:url(#down_2_);}
	.st20{fill:#AFAFAF;}
	.st21{opacity:0.7;}
	.st22{clip-path:url(#SVGID_12_);fill:url(#SVGID_13_);}
	.st23{fill:none;stroke:#000000;stroke-width:0.8504;stroke-linecap:round;stroke-miterlimit:10;}
</style>
<g id="Ebene_1" class="st0">
	
		<linearGradient id="SVGID_1_" gradientUnits="userSpaceOnUse" x1="166.2117" y1="-668.6896" x2="259.3552" y2="-668.6896" gradientTransform="matrix(0.5515 -0.8342 0.8342 0.5515 497.5951 603.4115)">
		<stop  offset="0" style="stop-color:#7FBEED"/>
		<stop  offset="0.775" style="stop-color:#DEEDFB"/>
		<stop  offset="0.8837" style="stop-color:#E9F3FD"/>
	</linearGradient>
	<circle class="st1" cx="57.15" cy="57.12" r="46.57"/>
	<linearGradient id="SVGID_2_" gradientUnits="userSpaceOnUse" x1="6.7331" y1="71.9313" x2="93.3799" y2="71.9313">
		<stop  offset="0" style="stop-color:#0FA2E3"/>
		<stop  offset="0.0464" style="stop-color:#17A3E3;stop-opacity:0.7243"/>
		<stop  offset="0.0696" style="stop-color:#2BA5E4;stop-opacity:0.5867"/>
		<stop  offset="0.0876" style="stop-color:#41AAE6;stop-opacity:0.4796"/>
		<stop  offset="0.103" style="stop-color:#5AB0E9;stop-opacity:0.3882"/>
		<stop  offset="0.1167" style="stop-color:#74BAEC;stop-opacity:0.3069"/>
		<stop  offset="0.1292" style="stop-color:#91C6F0;stop-opacity:0.2328"/>
		<stop  offset="0.1407" style="stop-color:#AFD4F4;stop-opacity:0.1639"/>
		<stop  offset="0.1516" style="stop-color:#CDE4F9;stop-opacity:0.0994"/>
		<stop  offset="0.1615" style="stop-color:#EAF3FD;stop-opacity:0.0406"/>
		<stop  offset="0.1683" style="stop-color:#FFFFFF;stop-opacity:0"/>
		<stop  offset="0.1738" style="stop-color:#F6FAFE;stop-opacity:0.0371"/>
		<stop  offset="0.1966" style="stop-color:#D0E5F9;stop-opacity:0.193"/>
		<stop  offset="0.2192" style="stop-color:#A8D1F3;stop-opacity:0.3474"/>
		<stop  offset="0.2411" style="stop-color:#81BFEE;stop-opacity:0.4965"/>
		<stop  offset="0.262" style="stop-color:#5DB1E9;stop-opacity:0.6393"/>
		<stop  offset="0.2817" style="stop-color:#3DA9E6;stop-opacity:0.7741"/>
		<stop  offset="0.2998" style="stop-color:#20A4E3;stop-opacity:0.8978"/>
		<stop  offset="0.3148" style="stop-color:#0FA2E3"/>
		<stop  offset="0.3475" style="stop-color:#1EA3E3;stop-opacity:0.8842"/>
		<stop  offset="0.3827" style="stop-color:#39A8E5;stop-opacity:0.7598"/>
		<stop  offset="0.419" style="stop-color:#56AFE8;stop-opacity:0.6314"/>
		<stop  offset="0.4562" style="stop-color:#77BBEC;stop-opacity:0.5001"/>
		<stop  offset="0.4939" style="stop-color:#9BCBF1;stop-opacity:0.3666"/>
		<stop  offset="0.5322" style="stop-color:#C0DDF7;stop-opacity:0.2313"/>
		<stop  offset="0.5701" style="stop-color:#E5F0FC;stop-opacity:0.0972"/>
		<stop  offset="0.5976" style="stop-color:#FFFFFF;stop-opacity:0"/>
		<stop  offset="0.7217" style="stop-color:#8BC3EF"/>
	</linearGradient>
	<path class="st2" d="M69.11,98.17c-5.14,1.79-7.49,1.52-14.63-4.6s-40.3-33.7-44.73-37.28c-4.7-3.79-3.8-5.34,1.98-6.52
		c7.13-1.46,20.81-4.11,23.6-4.8s4.4,0.12,6.24,1.6c1.84,1.48,43.9,33.95,48.21,37.34c5.2,4.08,4.86,5.27-1.61,7.66
		C82.1,93.82,69.11,98.17,69.11,98.17z"/>
	<path class="st3" d="M11.73,49.77c7.13-1.46,20.81-4.11,23.6-4.8s4.4,0.12,6.24,1.6c1.84,1.48,43.9,33.95,48.21,37.34"/>
	<g class="st4">
		<path d="M79.03,75.06c2.47,1.96,4.97,3.88,7.46,5.8l3.75,2.89c0.64,0.48,1.26,0.97,1.87,1.51c0.6,0.55,1.22,1.1,1.64,1.98
			c0.22,0.43,0.29,1.06,0.07,1.59c-0.21,0.52-0.57,0.87-0.91,1.16c-0.7,0.56-1.44,0.93-2.17,1.28c-1.47,0.69-2.96,1.22-4.44,1.77
			c-2.97,1.08-5.94,2.13-8.91,3.18l-8.95,3.1c-1.54,0.48-3.27,0.88-5.03,0.61c-1.76-0.26-3.29-1.07-4.66-1.94
			C56,96.17,53.68,94,51.26,92.01l-7.25-6.06L14.97,61.74l-3.63-3.02l-1.82-1.51c-0.61-0.5-1.24-1.05-1.78-1.7
			c-0.52-0.66-1.08-1.37-1.26-2.38c-0.09-0.5,0-1.1,0.29-1.53c0.28-0.44,0.67-0.71,1.04-0.94c1.51-0.85,3.1-1.12,4.64-1.45
			l18.54-3.72c0.22-0.05,0.44,0.1,0.49,0.32c0.05,0.22-0.1,0.44-0.32,0.49l0,0l-18.54,3.72c-1.53,0.3-3.11,0.6-4.32,1.4
			c-0.59,0.43-0.87,0.94-0.65,1.45c0.19,0.53,0.7,1.08,1.23,1.57c1.07,0.97,2.34,1.96,3.55,2.97l3.65,3.01
			c9.71,8.04,19.45,16.04,29.1,24.15l7.23,6.09c2.43,2.03,4.74,4.18,7.28,5.84c1.27,0.81,2.6,1.5,3.98,1.7
			c1.37,0.22,2.81-0.08,4.27-0.53l8.95-2.97c2.99-1,5.97-2.01,8.94-3.04c1.48-0.53,2.98-1.02,4.39-1.61
			c1.33-0.57,3.02-1.39,2.51-2.38c-0.22-0.58-0.74-1.17-1.27-1.71c-0.54-0.54-1.13-1.05-1.73-1.55L86,81.5
			c-2.49-1.93-4.97-3.87-7.49-5.77c-0.19-0.14-0.22-0.41-0.08-0.59S78.84,74.91,79.03,75.06C79.03,75.06,79.03,75.06,79.03,75.06z"
			/>
	</g>
	<path class="st5" d="M13.82,60.23c-1.78-1.47-3.1-2.56-3.77-3.11"/>
	<path class="st5" d="M19.61,65.03c-1.73-1.44-2.93-2.43-4.3-3.56"/>
	
		<linearGradient id="SVGID_3_" gradientUnits="userSpaceOnUse" x1="97.0834" y1="248.7626" x2="184.0035" y2="248.7626" gradientTransform="matrix(0.9659 0.2588 -0.2588 0.9659 -15.5557 -218.142)">
		<stop  offset="0.023" style="stop-color:#FFFFFF;stop-opacity:0"/>
		<stop  offset="0.1319" style="stop-color:#FFFFFF"/>
		<stop  offset="0.5963" style="stop-color:#FFFFFF"/>
		<stop  offset="0.6944" style="stop-color:#FFFFFF;stop-opacity:0.4"/>
		<stop  offset="0.7761" style="stop-color:#FFFFFF"/>
		<stop  offset="0.857" style="stop-color:#FFFFFF;stop-opacity:0.3"/>
		<stop  offset="0.9164" style="stop-color:#FFFFFF"/>
		<stop  offset="0.9823" style="stop-color:#FFFFFF;stop-opacity:0"/>
	</linearGradient>
	<path class="st6" d="M97.64,68.7c-5.93,2.19-20.76,7.3-20.76,7.3c-5.02,1.75-7.31,1.49-14.28-4.49S22.09,37.66,17.79,34.14"/>
	<linearGradient id="SVGID_4_" gradientUnits="userSpaceOnUse" x1="62.0325" y1="26.5975" x2="53.7215" y2="73.7318">
		<stop  offset="0.2712" style="stop-color:#FFFFFF"/>
		<stop  offset="0.4751" style="stop-color:#FFFFFF;stop-opacity:0"/>
		<stop  offset="0.6828" style="stop-color:#FFFFFF"/>
	</linearGradient>
	<path class="st7" d="M97.07,62.07C92.86,58.77,51.8,27.06,50,25.62c-1.8-1.44-3.38-2.24-6.1-1.57c-2.72,0.67-16.08,3.22-23.04,4.69
		c-6.21,1.31-6.8,2.37-1.98,6.33c4.3,3.52,36.74,30.45,43.71,36.43c6.97,5.98,9.26,6.24,14.28,4.49c0,0,12.68-4.25,18.61-6.44
		C101.81,67.22,102.14,66.06,97.07,62.07z M23.4,31.58l-0.9,0.18c-0.07,0.01-0.13,0.02-0.19,0.02c-0.45,0-0.85-0.31-0.94-0.77
		c-0.11-0.52,0.23-1.03,0.75-1.14l0.91-0.19c0.53-0.1,1.03,0.23,1.13,0.75C24.26,30.97,23.92,31.47,23.4,31.58z M27.25,30.8
		L26.24,31c-0.06,0.01-0.13,0.02-0.19,0.02c-0.45,0-0.85-0.32-0.94-0.77c-0.1-0.52,0.23-1.03,0.76-1.13l1-0.2
		c0.53-0.1,1.03,0.23,1.13,0.75C28.11,30.19,27.77,30.7,27.25,30.8z M37.17,28.79l-6.83,1.39c-0.06,0.01-0.13,0.02-0.19,0.02
		c-0.45,0-0.85-0.32-0.94-0.77c-0.1-0.52,0.23-1.03,0.76-1.13l6.83-1.39c0.53-0.11,1.03,0.23,1.13,0.76
		C38.03,28.18,37.69,28.69,37.17,28.79z"/>
	<g class="st4">
		<line class="st8" x1="94.9" y1="70.22" x2="87.34" y2="64.76"/>
		<polyline class="st9" points="91.1,65.11 87.2,64.32 87.08,66.9 		"/>
	</g>
	
		<radialGradient id="SVGID_5_" cx="1421.6722" cy="250.0936" r="4.6835" gradientTransform="matrix(-0.9659 -0.2588 -0.2588 0.9659 1532.936 196.7751)" gradientUnits="userSpaceOnUse">
		<stop  offset="0.2973" style="stop-color:#FFFFFF"/>
		<stop  offset="0.7141" style="stop-color:#FFFFFF;stop-opacity:0"/>
	</radialGradient>
	<circle class="st10" cx="94.98" cy="70.39" r="4.68"/>
	<g class="st4">
		<line class="st8" x1="88.37" y1="72.54" x2="80.82" y2="67.08"/>
		<polyline class="st9" points="84.57,67.43 80.67,66.64 80.55,69.21 		"/>
	</g>
	
		<radialGradient id="SVGID_6_" cx="1427.379" cy="254.0197" r="4.6835" gradientTransform="matrix(-0.9659 -0.2588 -0.2588 0.9659 1532.936 196.7751)" gradientUnits="userSpaceOnUse">
		<stop  offset="0.2973" style="stop-color:#FFFFFF"/>
		<stop  offset="0.7141" style="stop-color:#FFFFFF;stop-opacity:0"/>
	</radialGradient>
	<circle class="st11" cx="88.45" cy="72.71" r="4.68"/>
	<g class="st4">
		<line class="st8" x1="81.85" y1="74.85" x2="74.29" y2="69.39"/>
		<polyline class="st9" points="78.04,69.74 74.14,68.95 74.02,71.53 		"/>
	</g>
	
		<radialGradient id="SVGID_7_" cx="1433.0858" cy="257.9457" r="4.6835" gradientTransform="matrix(-0.9659 -0.2588 -0.2588 0.9659 1532.936 196.7751)" gradientUnits="userSpaceOnUse">
		<stop  offset="0.2973" style="stop-color:#FFFFFF"/>
		<stop  offset="0.7141" style="stop-color:#FFFFFF;stop-opacity:0"/>
	</radialGradient>
	<circle class="st12" cx="81.92" cy="75.02" r="4.68"/>
	<g class="st4">
		<g>
			<line class="st8" x1="49.39" y1="34.56" x2="56.76" y2="18.69"/>
			<g>
				<polygon class="st13" points="58.73,22.71 57.92,22.98 56.62,18.99 52.74,20.57 52.42,19.78 57.15,17.86 				"/>
			</g>
		</g>
	</g>
	<g class="st4">
		<g>
			<line class="st8" x1="64.74" y1="46.29" x2="72.1" y2="30.42"/>
			<g>
				<polygon class="st13" points="74.07,34.44 73.26,34.7 71.96,30.72 68.08,32.3 67.76,31.51 72.49,29.58 				"/>
			</g>
		</g>
	</g>
	<g class="st4">
		<g>
			<line class="st8" x1="80.08" y1="58.01" x2="87.44" y2="42.15"/>
			<g>
				<polygon class="st13" points="89.41,46.17 88.6,46.43 87.31,42.44 83.42,44.03 83.1,43.24 87.83,41.31 				"/>
			</g>
		</g>
	</g>
	<g class="st4">
		<g>
			<line class="st8" x1="34.23" y1="38.11" x2="41.6" y2="22.25"/>
			<g>
				<polygon class="st13" points="43.57,26.27 42.76,26.53 41.46,22.54 37.58,24.13 37.26,23.34 41.99,21.41 				"/>
			</g>
		</g>
	</g>
	<g class="st4">
		<g>
			<line class="st8" x1="49.58" y1="49.84" x2="56.94" y2="33.98"/>
			<g>
				<polygon class="st13" points="58.91,38 58.1,38.26 56.8,34.27 52.92,35.86 52.6,35.07 57.33,33.14 				"/>
			</g>
		</g>
	</g>
	<g class="st4">
		<g>
			<line class="st8" x1="64.92" y1="61.57" x2="72.28" y2="45.7"/>
			<g>
				<polygon class="st13" points="74.25,49.72 73.44,49.99 72.15,46 68.26,47.58 67.94,46.79 72.67,44.87 				"/>
			</g>
		</g>
	</g>
	<g class="st14">
		<path class="st15" d="M20.87,50.53c1.8-0.36,5.07-1.04,6.83-1.39"/>
		<path class="st15" d="M16.77,51.35c0.33-0.07,0.66-0.13,1-0.2"/>
		<path class="st15" d="M13.02,52.11c0.29-0.06,0.59-0.12,0.9-0.18"/>
	</g>
</g>
<g id="Ebene_2">
	
		<linearGradient id="SVGID_8_" gradientUnits="userSpaceOnUse" x1="166.4109" y1="-668.7258" x2="259.5543" y2="-668.7258" gradientTransform="matrix(0.5515 -0.8342 0.8342 0.5515 497.5951 603.4115)">
		<stop  offset="0" style="stop-color:#7FBEED"/>
		<stop  offset="0.775" style="stop-color:#DEEDFB"/>
		<stop  offset="0.8837" style="stop-color:#E9F3FD"/>
	</linearGradient>
	<circle class="st16" cx="57.23" cy="56.94" r="46.57"/>
	
		<linearGradient id="SVGID_9_" gradientUnits="userSpaceOnUse" x1="-230.1733" y1="358.9003" x2="-161.0485" y2="269.077" gradientTransform="matrix(1.0145 0.112 0.2458 0.964 182.5561 -229.4865)">
		<stop  offset="0.3006" style="stop-color:#D5D6D3"/>
		<stop  offset="0.3592" style="stop-color:#FDFDFD"/>
		<stop  offset="0.4042" style="stop-color:#E8E9E4"/>
		<stop  offset="0.9796" style="stop-color:#E8E9E4"/>
		<stop  offset="1" style="stop-color:#FAFBF5"/>
	</linearGradient>
	<path class="st17" d="M89.19,13.93l-1.77-1l0,0c-1.17-0.61-2.64-0.65-4.09,0.02L25.36,38.27c-2.65,1.23-4.2,4.4-3.45,7.08
		l11.78,42.7c0.32,1.16,1.03,2.04,1.94,2.56l0,0l0.01,0c0.07,0.04,0.15,0.08,0.22,0.12l1.48,0.84l1.29-0.51
		c0.4-0.08,0.81-0.21,1.22-0.4l57.68-26.83c2.65-1.23,4.2-4.4,3.45-7.08l-11.5-41.19c-0.08-0.27-0.17-0.53-0.29-0.77L89.19,13.93z"
		/>
	<g id="top">
		
			<linearGradient id="SVGID_10_" gradientUnits="userSpaceOnUse" x1="-203.3098" y1="80.8962" x2="-127.1903" y2="80.8962" gradientTransform="matrix(1 -2.617992e-03 0.2458 0.964 208.556 -25.735)">
			<stop  offset="0.0299" style="stop-color:#F0F7FE"/>
			<stop  offset="0.1672" style="stop-color:#EBF4FD"/>
			<stop  offset="0.3998" style="stop-color:#DAEBFB"/>
			<stop  offset="0.6781" style="stop-color:#BFDCF7"/>
			<stop  offset="0.702" style="stop-color:#BBDAF6"/>
			<stop  offset="0.899" style="stop-color:#99CAF1"/>
			<stop  offset="1" style="stop-color:#8BC3EF"/>
		</linearGradient>
		<path class="st18" d="M99.08,64.71L41.4,91.54c-2.65,1.23-5.41,0.07-6.16-2.61l-11.78-42.7c-0.75-2.68,0.8-5.84,3.45-7.08
			l57.96-25.32c2.65-1.23,5.41-0.07,6.16,2.61l11.5,41.19C103.28,60.3,101.73,63.47,99.08,64.71z"/>
	</g>
	<linearGradient id="down_2_" gradientUnits="userSpaceOnUse" x1="67.3167" y1="71.0753" x2="90.0972" y2="100.233">
		<stop  offset="0" style="stop-color:#A6A6A6"/>
		<stop  offset="0.0624" style="stop-color:#B1B1B1"/>
		<stop  offset="0.3159" style="stop-color:#DBDBDB"/>
		<stop  offset="0.5148" style="stop-color:#F5F5F5"/>
		<stop  offset="0.6332" style="stop-color:#FFFFFF"/>
	</linearGradient>
	<path id="down_1_" class="st19" d="M53.25,106.29L40.74,97.4c-2.55-1.8-2.55-4.22,0-5.4l60.11-27.97c2.55-1.19,6.65-0.66,9.22,1.11
		c2.33,1.6,2.33,12.79-0.16,18.3c-2.49,5.51-24.33,18.47-34.63,20.42S56.63,108.37,53.25,106.29z"/>
	<g id="kebrd">
		<path class="st20" d="M48.71,95.07l2.41-1.12c0.29-0.13,0.27-0.43-0.05-0.65l-0.68-0.48c-0.31-0.22-0.81-0.29-1.09-0.16
			l-2.41,1.12c-0.29,0.13-0.27,0.43,0.05,0.65l0.68,0.48C47.93,95.13,48.42,95.2,48.71,95.07z"/>
		<path class="st20" d="M53.15,93l2.41-1.12c0.29-0.13,0.27-0.43-0.05-0.65l-0.68-0.48c-0.31-0.22-0.81-0.29-1.09-0.16l-2.41,1.12
			c-0.29,0.13-0.27,0.43,0.05,0.65l0.68,0.48C52.37,93.06,52.86,93.13,53.15,93z"/>
		<path class="st20" d="M57.59,90.93L60,89.81c0.29-0.13,0.27-0.43-0.05-0.65l-0.68-0.48c-0.31-0.22-0.81-0.29-1.09-0.16l-2.41,1.12
			c-0.29,0.13-0.27,0.43,0.05,0.65l0.68,0.48C56.81,91,57.3,91.07,57.59,90.93z"/>
		<path class="st20" d="M62.03,88.87l2.41-1.12c0.29-0.13,0.27-0.43-0.05-0.65l-0.68-0.48c-0.31-0.22-0.81-0.29-1.09-0.16
			l-2.41,1.12c-0.29,0.13-0.27,0.43,0.05,0.65l0.68,0.48C61.25,88.93,61.74,89,62.03,88.87z"/>
		<path class="st20" d="M66.47,86.8l2.41-1.12c0.29-0.13,0.27-0.43-0.05-0.65l-0.68-0.48c-0.31-0.22-0.81-0.29-1.09-0.16l-2.41,1.12
			c-0.29,0.13-0.27,0.43,0.05,0.65l0.68,0.48C65.69,86.86,66.19,86.93,66.47,86.8z"/>
		<path class="st20" d="M70.91,84.73l2.41-1.12c0.29-0.13,0.27-0.43-0.05-0.65l-0.68-0.48c-0.31-0.22-0.81-0.29-1.09-0.16
			l-2.41,1.12c-0.29,0.13-0.27,0.43,0.05,0.65l0.68,0.48C70.13,84.8,70.63,84.87,70.91,84.73z"/>
		<path class="st20" d="M75.35,82.67l2.41-1.12c0.29-0.13,0.27-0.43-0.05-0.65l-0.68-0.48c-0.31-0.22-0.81-0.29-1.09-0.16
			l-2.41,1.12c-0.29,0.13-0.27,0.43,0.05,0.65l0.68,0.48C74.57,82.73,75.07,82.8,75.35,82.67z"/>
		<path class="st20" d="M79.8,80.6l2.41-1.12c0.29-0.13,0.27-0.43-0.05-0.65l-0.68-0.48c-0.31-0.22-0.81-0.29-1.09-0.16l-2.41,1.12
			c-0.29,0.13-0.27,0.43,0.05,0.65l0.68,0.48C79.02,80.66,79.51,80.73,79.8,80.6z"/>
		<path class="st20" d="M84.24,78.53l2.41-1.12c0.29-0.13,0.27-0.43-0.05-0.65l-0.68-0.48c-0.31-0.22-0.81-0.29-1.09-0.16
			l-2.41,1.12c-0.29,0.13-0.27,0.43,0.05,0.65l0.68,0.48C83.46,78.6,83.95,78.67,84.24,78.53z"/>
		<path class="st20" d="M88.68,76.47l2.41-1.12c0.29-0.13,0.27-0.43-0.05-0.65l-0.68-0.48c-0.31-0.22-0.81-0.29-1.09-0.16
			l-2.41,1.12c-0.29,0.13-0.27,0.43,0.05,0.65l0.68,0.48C87.9,76.53,88.39,76.6,88.68,76.47z"/>
		<path class="st20" d="M93.12,74.4l2.41-1.12c0.29-0.13,0.27-0.43-0.05-0.65l-0.68-0.48c-0.31-0.22-0.81-0.29-1.09-0.16l-2.41,1.12
			c-0.29,0.13-0.27,0.43,0.05,0.65l0.68,0.48C92.34,74.46,92.83,74.53,93.12,74.4z"/>
		<path class="st20" d="M97.56,72.33l2.41-1.12c0.29-0.13,0.27-0.43-0.05-0.65l-0.68-0.48c-0.31-0.22-0.81-0.29-1.09-0.16
			l-2.41,1.12c-0.29,0.13-0.27,0.43,0.05,0.65l0.68,0.48C96.78,72.4,97.27,72.47,97.56,72.33z"/>
		<path class="st20" d="M52.67,97.9l1.97-0.91c0.27-0.13,0.25-0.4-0.05-0.61l-1.91-1.35c-0.3-0.21-0.77-0.28-1.04-0.15l-1.97,0.91
			c-0.27,0.13-0.25,0.4,0.05,0.61l1.91,1.35C51.93,97.95,52.4,98.02,52.67,97.9z"/>
		<path class="st20" d="M57.11,95.83l1.97-0.91c0.27-0.13,0.25-0.4-0.05-0.61l-1.91-1.35c-0.3-0.21-0.77-0.28-1.04-0.15l-1.97,0.91
			c-0.27,0.13-0.25,0.4,0.05,0.61l1.91,1.35C56.37,95.89,56.84,95.96,57.11,95.83z"/>
		<path class="st20" d="M61.55,93.76l1.97-0.91c0.27-0.13,0.25-0.4-0.05-0.61l-1.91-1.35c-0.3-0.21-0.77-0.28-1.04-0.15l-1.97,0.91
			c-0.27,0.13-0.25,0.4,0.05,0.61l1.91,1.35C60.81,93.82,61.28,93.89,61.55,93.76z"/>
		<path class="st20" d="M65.99,91.7l1.97-0.91c0.27-0.13,0.25-0.4-0.05-0.61L66,88.81c-0.3-0.21-0.77-0.28-1.04-0.15l-1.97,0.91
			c-0.27,0.13-0.25,0.4,0.05,0.61l1.91,1.35C65.25,91.75,65.72,91.82,65.99,91.7z"/>
		<path class="st20" d="M70.43,89.63l1.97-0.91c0.27-0.13,0.25-0.4-0.05-0.61l-1.91-1.35c-0.3-0.21-0.77-0.28-1.04-0.15l-1.97,0.91
			c-0.27,0.13-0.25,0.4,0.05,0.61l1.91,1.35C69.69,89.69,70.16,89.76,70.43,89.63z"/>
		<path class="st20" d="M74.87,87.56l1.97-0.91c0.27-0.13,0.25-0.4-0.05-0.61l-1.91-1.35c-0.3-0.21-0.77-0.28-1.04-0.15l-1.97,0.91
			c-0.27,0.13-0.25,0.4,0.05,0.61l1.91,1.35C74.13,87.62,74.6,87.69,74.87,87.56z"/>
		<path class="st20" d="M79.31,85.5l1.97-0.91c0.27-0.13,0.25-0.4-0.05-0.61l-1.91-1.35c-0.3-0.21-0.77-0.28-1.04-0.15l-1.97,0.91
			c-0.27,0.13-0.25,0.4,0.05,0.61l1.91,1.35C78.57,85.55,79.04,85.62,79.31,85.5z"/>
		<path class="st20" d="M83.75,83.43l1.97-0.91c0.27-0.13,0.25-0.4-0.05-0.61l-1.91-1.35c-0.3-0.21-0.77-0.28-1.04-0.15l-1.97,0.91
			c-0.27,0.13-0.25,0.4,0.05,0.61l1.91,1.35C83.01,83.49,83.48,83.56,83.75,83.43z"/>
		<path class="st20" d="M88.19,81.36l1.97-0.91c0.27-0.13,0.25-0.4-0.05-0.61l-1.91-1.35c-0.3-0.21-0.77-0.28-1.04-0.15l-1.97,0.91
			c-0.27,0.13-0.25,0.4,0.05,0.61l1.91,1.35C87.45,81.42,87.92,81.49,88.19,81.36z"/>
		<path class="st20" d="M92.64,79.3l1.97-0.91c0.27-0.13,0.25-0.4-0.05-0.61l-1.91-1.35c-0.3-0.21-0.77-0.28-1.04-0.15l-1.97,0.91
			c-0.27,0.13-0.25,0.4,0.05,0.61l1.91,1.35C91.89,79.35,92.36,79.42,92.64,79.3z"/>
		<path class="st20" d="M97.08,77.23l1.97-0.91c0.27-0.13,0.25-0.4-0.05-0.61l-1.91-1.35c-0.3-0.21-0.77-0.28-1.04-0.15l-1.97,0.91
			c-0.27,0.13-0.25,0.4,0.05,0.61l1.91,1.35C96.34,77.29,96.8,77.36,97.08,77.23z"/>
		<path class="st20" d="M99.04,80.35L97.13,79c-0.3-0.21-0.77-0.28-1.04-0.15l-1.97,0.91c-0.27,0.13-0.25,0.4,0.05,0.61l1.91,1.35
			c0.3,0.21,0.77,0.28,1.04,0.15l1.97-0.91C99.36,80.84,99.34,80.56,99.04,80.35z"/>
		<path class="st20" d="M92.68,83.95l1.97-0.91c0.27-0.13,0.25-0.4-0.05-0.61l-1.91-1.35c-0.3-0.21-0.77-0.28-1.04-0.15l-1.97,0.91
			c-0.27,0.13-0.25,0.4,0.05,0.61l1.91,1.35C91.94,84,92.41,84.07,92.68,83.95z"/>
		<path class="st20" d="M88.24,86.01l1.97-0.91c0.27-0.13,0.25-0.4-0.05-0.61l-1.91-1.35c-0.3-0.21-0.77-0.28-1.04-0.15l-1.97,0.91
			c-0.27,0.13-0.25,0.4,0.05,0.61l1.91,1.35C87.5,86.07,87.97,86.14,88.24,86.01z"/>
		<path class="st20" d="M83.8,88.08l1.97-0.91c0.27-0.13,0.25-0.4-0.05-0.61L83.8,85.2c-0.3-0.21-0.77-0.28-1.04-0.15l-1.97,0.91
			c-0.27,0.13-0.25,0.4,0.05,0.61l1.91,1.35C83.06,88.14,83.53,88.21,83.8,88.08z"/>
		<path class="st20" d="M79.36,90.14l1.97-0.91c0.27-0.13,0.25-0.4-0.05-0.61l-1.91-1.35c-0.3-0.21-0.77-0.28-1.04-0.15l-1.97,0.91
			c-0.27,0.13-0.25,0.4,0.05,0.61l1.91,1.35C78.62,90.2,79.08,90.27,79.36,90.14z"/>
		<path class="st20" d="M76.84,90.68l-1.91-1.35c-0.3-0.21-0.77-0.28-1.04-0.15l-1.97,0.91c-0.27,0.13-0.25,0.4,0.05,0.61l1.91,1.35
			c0.3,0.21,0.77,0.28,1.04,0.15l1.97-0.91C77.16,91.17,77.13,90.89,76.84,90.68z"/>
		<path class="st20" d="M70.48,94.28l1.97-0.91c0.27-0.13,0.25-0.4-0.05-0.61l-1.91-1.35c-0.3-0.21-0.77-0.28-1.04-0.15l-1.97,0.91
			c-0.27,0.13-0.25,0.4,0.05,0.61l1.91,1.35C69.74,94.34,70.2,94.41,70.48,94.28z"/>
		<path class="st20" d="M67.96,94.82l-1.91-1.35c-0.3-0.21-0.77-0.28-1.04-0.15l-1.97,0.91c-0.27,0.13-0.25,0.4,0.05,0.61L65,96.19
			c0.3,0.21,0.77,0.28,1.04,0.15L68,95.43C68.27,95.3,68.25,95.03,67.96,94.82z"/>
		<path class="st20" d="M56.68,100.7l6.85-3.19c0.29-0.13,0.27-0.43-0.05-0.65l-1.86-1.31c-0.31-0.22-0.81-0.29-1.09-0.16
			l-6.85,3.19c-0.29,0.13-0.27,0.43,0.05,0.65l1.86,1.31C55.9,100.76,56.39,100.83,56.68,100.7z"/>
		<path class="st20" d="M90.11,87.04l1.91,1.35c0.3,0.21,0.77,0.28,1.04,0.15l1.97-0.91c0.27-0.13,0.25-0.4-0.05-0.61l-1.91-1.35
			c-0.3-0.21-0.77-0.28-1.04-0.15l-1.97,0.91C89.79,86.55,89.81,86.82,90.11,87.04z"/>
		<path class="st20" d="M85.67,89.1l1.91,1.35c0.3,0.21,0.77,0.28,1.04,0.15l1.97-0.91c0.27-0.13,0.25-0.4-0.05-0.61l-1.91-1.35
			c-0.3-0.21-0.77-0.28-1.04-0.15l-1.97,0.91C85.35,88.62,85.37,88.89,85.67,89.1z"/>
		<path class="st20" d="M81.23,91.17l1.91,1.35c0.3,0.21,0.77,0.28,1.04,0.15l1.97-0.91c0.27-0.13,0.25-0.4-0.05-0.61l-1.91-1.35
			c-0.3-0.21-0.77-0.28-1.04-0.15l-1.97,0.91C80.91,90.68,80.93,90.96,81.23,91.17z"/>
		<path class="st20" d="M81.66,93.21l-1.91-1.35c-0.3-0.21-0.77-0.28-1.04-0.15l-1.97,0.91c-0.27,0.13-0.25,0.4,0.05,0.61l1.91,1.35
			c0.3,0.21,0.77,0.28,1.04,0.15l1.97-0.91C81.98,93.7,81.96,93.42,81.66,93.21z"/>
		<path class="st20" d="M72.35,95.3l1.91,1.35c0.3,0.21,0.77,0.28,1.04,0.15l1.97-0.91c0.27-0.13,0.25-0.4-0.05-0.61l-1.91-1.35
			c-0.3-0.21-0.77-0.28-1.04-0.15l-1.97,0.91C72.03,94.82,72.05,95.09,72.35,95.3z"/>
		<path class="st20" d="M67.91,97.37l1.91,1.35c0.3,0.21,0.77,0.28,1.04,0.15l1.97-0.91c0.27-0.13,0.25-0.4-0.05-0.61l-1.91-1.35
			c-0.3-0.21-0.77-0.28-1.04-0.15l-1.97,0.91C67.59,96.88,67.61,97.16,67.91,97.37z"/>
	</g>
	<g class="st21">
		<defs>
			<path id="SVGID_11_" class="st21" d="M41.71,91.07L26.8,39.57c0,0,55.23-24.15,58.6-25.39c3.37-1.24,4.97,1.07,5.68,4.08
				c0.71,3.02,10.12,35.52,11.01,38.89s-0.53,6.22-2.84,7.28C96.94,65.5,41.71,91.07,41.71,91.07z"/>
		</defs>
		<clipPath id="SVGID_12_">
			<use xlink:href="#SVGID_11_"  style="overflow:visible;"/>
		</clipPath>
		
			<radialGradient id="SVGID_13_" cx="-138.353" cy="-537.2295" r="36.6385" gradientTransform="matrix(0.9359 -0.3522 0.3522 0.9359 402.8383 492.5951)" gradientUnits="userSpaceOnUse">
			<stop  offset="0.2164" style="stop-color:#FFFFFF"/>
			<stop  offset="0.9169" style="stop-color:#FFFFFF;stop-opacity:0"/>
		</radialGradient>
		<circle class="st22" cx="84.16" cy="38.5" r="36.64"/>
	</g>
	<g id="top_2_">
		<path d="M87.01,14.19L87.01,14.19c1.55,0,2.78,0.95,3.2,2.48l11.5,41.19c0.64,2.29-0.7,5.01-2.99,6.08L41.04,90.77
			c-0.59,0.27-1.19,0.41-1.78,0.41c-1.55,0-2.78-0.95-3.2-2.48L24.28,46c-0.64-2.29,0.7-5.01,2.97-6.07L85.24,14.6
			C85.82,14.33,86.42,14.19,87.01,14.19 M87.01,13.34c-0.69,0-1.42,0.16-2.13,0.49L26.91,39.15c-2.65,1.23-4.2,4.4-3.45,7.08
			l11.78,42.7c0.54,1.95,2.16,3.1,4.02,3.1c0.69,0,1.42-0.16,2.13-0.49l57.68-26.83c2.65-1.23,4.2-4.4,3.45-7.08l-11.5-41.19
			C90.49,14.49,88.88,13.34,87.01,13.34L87.01,13.34z"/>
	</g>
	<path id="down_9_" class="st23" d="M49.26,103.41l-8.53-6.01c-2.55-1.8-2.55-4.22,0-5.4l60.11-27.97"/>
</g>
</svg>
