<svg id="Logo" xmlns="http://www.w3.org/2000/svg" width="190.109" height="44.684" viewBox="0 0 190.109 44.684">
    <path id="Pfad_1" data-name="Pfad 1" d="M227.127,242.084v44.684h44.666V242.084Zm40.479,32.287h-5.463A6.381,6.381,0,0,1,255.77,268V256.718h-4.09l.882-2.942h3.208V245.93h2.941v7.846h9.216v2.942h-9.215V268a3.436,3.436,0,0,0,3.431,3.433h6.345Z" transform="translate(-227.127 -242.084)" fill="#007ac2"/>
    <path id="Pfad_2" data-name="Pfad 2" d="M346.151,277.7V272.3a6.38,6.38,0,0,0-6.372-6.374h-7.842a6.381,6.381,0,0,0-6.372,6.374v7.845a6.381,6.381,0,0,0,6.372,6.375h12.128l.883-2.942H331.937a3.436,3.436,0,0,1-3.431-3.433V277.7Zm-14.214-8.826h7.842a3.436,3.436,0,0,1,3.431,3.432v2.452h-14.7V272.3a3.436,3.436,0,0,1,3.431-3.432" transform="translate(-277.316 -254.236)" fill="#007ac2"/>
    <path id="Pfad_3" data-name="Pfad 3" d="M406.664,265.928H399.8a6.392,6.392,0,0,0-4.9,2.3,6.39,6.39,0,0,0-4.9-2.3h-6.862a6.381,6.381,0,0,0-6.372,6.374v14.221H379.7V272.3a3.436,3.436,0,0,1,3.432-3.432H390a3.4,3.4,0,0,1,3.431,3.276v14.378h2.941V272.146a3.4,3.4,0,0,1,3.431-3.276h6.862a3.436,3.436,0,0,1,3.431,3.432v14.221h2.941V272.3a6.381,6.381,0,0,0-6.372-6.374" transform="translate(-303.419 -254.236)" fill="#007ac2"/>
    <rect id="Rechteck_1" data-name="Rechteck 1" width="2.941" height="20.595" transform="translate(114.517 11.692)" fill="#007ac2"/>
    <rect id="Rechteck_2" data-name="Rechteck 2" width="2.941" height="2.942" transform="translate(114.517 3.846)" fill="#007ac2"/>
    <path id="Pfad_4" data-name="Pfad 4" d="M482.336,283.581a3.436,3.436,0,0,1-3.431-3.433V272.3a3.436,3.436,0,0,1,3.431-3.432h13.011l-.882-2.942H482.336a6.381,6.381,0,0,0-6.372,6.374v7.845a6.381,6.381,0,0,0,6.372,6.375h12.558l.587-2.942Z" transform="translate(-353.996 -254.236)" fill="#007ac2"/>
    <path id="Pfad_5" data-name="Pfad 5" d="M535.777,265.928h-7.843a6.381,6.381,0,0,0-6.372,6.374v7.845a6.381,6.381,0,0,0,6.372,6.375h7.843a6.381,6.381,0,0,0,6.372-6.375V272.3a6.381,6.381,0,0,0-6.372-6.374m0,17.653h-7.843a3.436,3.436,0,0,1-3.431-3.433V272.3a3.436,3.436,0,0,1,3.431-3.432h7.843a3.436,3.436,0,0,1,3.431,3.432v7.845a3.436,3.436,0,0,1-3.431,3.433" transform="translate(-377.245 -254.236)" fill="#007ac2"/>
    <path id="Pfad_6" data-name="Pfad 6" d="M586.976,265.928h-7.843a6.381,6.381,0,0,0-6.372,6.374v14.221H575.7V272.3a3.436,3.436,0,0,1,3.431-3.432h7.843a3.436,3.436,0,0,1,3.431,3.432v14.221h2.941V272.3a6.381,6.381,0,0,0-6.372-6.374" transform="translate(-403.348 -254.236)" fill="#007ac2"/>
    <path id="Pfad_7" data-name="Pfad 7" d="M378.5,322.886a.983.983,0,0,0-.981.981V327.3h-.491v-3.433A1.47,1.47,0,0,1,378.5,322.4h1.716a1.471,1.471,0,0,0,2.451,0h1.716a1.469,1.469,0,0,1,1.47,1.471V327.3h-.49v-3.433a.984.984,0,0,0-.98-.981H382.67a.969.969,0,0,0-.98.941V327.3H381.2v-3.473a.975.975,0,0,0-.98-.941Z" transform="translate(-303.556 -283.016)" fill="#007ac2"/>
    <path id="Pfad_8" data-name="Pfad 8" d="M378.5,322.886a.983.983,0,0,0-.981.981V327.3h-.491v-3.433A1.47,1.47,0,0,1,378.5,322.4h1.716a1.471,1.471,0,0,0,2.451,0h1.716a1.469,1.469,0,0,1,1.47,1.471V327.3h-.49v-3.433a.984.984,0,0,0-.98-.981H382.67a.969.969,0,0,0-.98.941V327.3H381.2v-3.473a.975.975,0,0,0-.98-.941Z" transform="translate(-303.556 -283.016)" fill="#007ac2" stroke="#515150" stroke-miterlimit="10" stroke-width="0.5"/>
    <path id="Pfad_9" data-name="Pfad 9" d="M400.032,318.394h.491v.49h-.491Zm0,1.962h.491v4.9h-.491Z" transform="translate(-315.283 -280.976)" fill="#007ac2"/>
    <path id="Pfad_10" data-name="Pfad 10" d="M400.032,318.394h.491v.49h-.491Zm0,1.962h.491v4.9h-.491Z" transform="translate(-315.283 -280.976)" fill="#007ac2" stroke="#515150" stroke-miterlimit="10" stroke-width="0.5"/>
    <path id="Pfad_11" data-name="Pfad 11" d="M410.441,326.811l-.1.49H407.3a1.468,1.468,0,0,1-1.47-1.471v-1.962a1.468,1.468,0,0,1,1.47-1.471h2.942l.147.49H407.3a.983.983,0,0,0-.98.981v1.962a.983.983,0,0,0,.98.981Z" transform="translate(-318.24 -283.016)" fill="#007ac2"/>
    <path id="Pfad_12" data-name="Pfad 12" d="M410.441,326.811l-.1.49H407.3a1.468,1.468,0,0,1-1.47-1.471v-1.962a1.468,1.468,0,0,1,1.47-1.471h2.942l.147.49H407.3a.983.983,0,0,0-.98.981v1.962a.983.983,0,0,0,.98.981Z" transform="translate(-318.24 -283.016)" fill="#007ac2" stroke="#515150" stroke-miterlimit="10" stroke-width="0.5"/>
    <path id="Pfad_13" data-name="Pfad 13" d="M423.256,322.4l.147.49h-2.5a1.054,1.054,0,0,0-.981.981V327.3h-.49v-4.9h.49v.884a.967.967,0,0,1,.981-.884Z" transform="translate(-325.174 -283.016)" fill="#007ac2"/>
    <path id="Pfad_14" data-name="Pfad 14" d="M423.256,322.4l.147.49h-2.5a1.054,1.054,0,0,0-.981.981V327.3h-.49v-4.9h.49v.884a.967.967,0,0,1,.981-.884Z" transform="translate(-325.174 -283.016)" fill="#007ac2" stroke="#515150" stroke-miterlimit="10" stroke-width="0.5"/>
    <path id="Pfad_15" data-name="Pfad 15" d="M432.7,327.3a1.469,1.469,0,0,1-1.47-1.471v-1.962a1.469,1.469,0,0,1,1.47-1.471h1.961a1.469,1.469,0,0,1,1.471,1.471v1.962a1.469,1.469,0,0,1-1.471,1.471Zm1.961-.49a.984.984,0,0,0,.981-.981v-1.962a.984.984,0,0,0-.981-.981H432.7a.983.983,0,0,0-.98.981v1.962a.983.983,0,0,0,.98.981Z" transform="translate(-331.19 -283.016)" fill="#007ac2"/>
    <path id="Pfad_16" data-name="Pfad 16" d="M432.7,327.3a1.469,1.469,0,0,1-1.47-1.471v-1.962a1.469,1.469,0,0,1,1.47-1.471h1.961a1.469,1.469,0,0,1,1.471,1.471v1.962a1.469,1.469,0,0,1-1.471,1.471Zm1.961-.49a.984.984,0,0,0,.981-.981v-1.962a.984.984,0,0,0-.981-.981H432.7a.983.983,0,0,0-.98.981v1.962a.983.983,0,0,0,.98.981Z" transform="translate(-331.19 -283.016)" fill="#007ac2" stroke="#515150" stroke-miterlimit="10" stroke-width="0.5"/>
    <path id="Pfad_17" data-name="Pfad 17" d="M447.5,322.886a.984.984,0,0,0-.981.981V327.3h-.49v-3.433A1.469,1.469,0,0,1,447.5,322.4h1.961a1.469,1.469,0,0,1,1.47,1.471V327.3h-.49v-3.433a.984.984,0,0,0-.98-.981Z" transform="translate(-338.736 -283.016)" fill="#007ac2"/>
    <path id="Pfad_18" data-name="Pfad 18" d="M447.5,322.886a.984.984,0,0,0-.981.981V327.3h-.49v-3.433A1.469,1.469,0,0,1,447.5,322.4h1.961a1.469,1.469,0,0,1,1.47,1.471V327.3h-.49v-3.433a.984.984,0,0,0-.98-.981Z" transform="translate(-338.736 -283.016)" fill="#007ac2" stroke="#515150" stroke-miterlimit="10" stroke-width="0.5"/>
    <path id="Pfad_19" data-name="Pfad 19" d="M465.044,323.868a.983.983,0,0,0-.98-.981h-3.088l.147-.49h2.941a1.469,1.469,0,0,1,1.47,1.471V327.3H462.1a1.423,1.423,0,1,1,0-2.845h2.941Zm0,2.943v-1.864H462.1a.933.933,0,1,0,0,1.864Z" transform="translate(-346.179 -283.016)" fill="#007ac2"/>
    <path id="Pfad_20" data-name="Pfad 20" d="M465.044,323.868a.983.983,0,0,0-.98-.981h-3.088l.147-.49h2.941a1.469,1.469,0,0,1,1.47,1.471V327.3H462.1a1.423,1.423,0,1,1,0-2.845h2.941Zm0,2.943v-1.864H462.1a.933.933,0,1,0,0,1.864Z" transform="translate(-346.179 -283.016)" fill="#007ac2" stroke="#515150" stroke-miterlimit="10" stroke-width="0.5"/>
    <path id="Pfad_21" data-name="Pfad 21" d="M477.1,322.886a.984.984,0,0,0-.981.981V327.3h-.49v-3.433A1.469,1.469,0,0,1,477.1,322.4h1.961a1.469,1.469,0,0,1,1.47,1.471V327.3h-.49v-3.433a.984.984,0,0,0-.98-.981Z" transform="translate(-353.827 -283.016)" fill="#007ac2"/>
    <path id="Pfad_22" data-name="Pfad 22" d="M477.1,322.886a.984.984,0,0,0-.981.981V327.3h-.49v-3.433A1.469,1.469,0,0,1,477.1,322.4h1.961a1.469,1.469,0,0,1,1.47,1.471V327.3h-.49v-3.433a.984.984,0,0,0-.98-.981Z" transform="translate(-353.827 -283.016)" fill="#007ac2" stroke="#515150" stroke-miterlimit="10" stroke-width="0.5"/>
    <path id="Pfad_23" data-name="Pfad 23" d="M491.9,327.3a1.469,1.469,0,0,1-1.47-1.471v-1.962a1.469,1.469,0,0,1,1.47-1.471h1.961a1.469,1.469,0,0,1,1.471,1.471v1.962a1.469,1.469,0,0,1-1.471,1.471Zm1.961-.49a.984.984,0,0,0,.981-.981v-1.962a.984.984,0,0,0-.981-.981H491.9a.983.983,0,0,0-.98.981v1.962a.983.983,0,0,0,.98.981Z" transform="translate(-361.373 -283.016)" fill="#007ac2"/>
    <path id="Pfad_24" data-name="Pfad 24" d="M491.9,327.3a1.469,1.469,0,0,1-1.47-1.471v-1.962a1.469,1.469,0,0,1,1.47-1.471h1.961a1.469,1.469,0,0,1,1.471,1.471v1.962a1.469,1.469,0,0,1-1.471,1.471Zm1.961-.49a.984.984,0,0,0,.981-.981v-1.962a.984.984,0,0,0-.981-.981H491.9a.983.983,0,0,0-.98.981v1.962a.983.983,0,0,0,.98.981Z" transform="translate(-361.373 -283.016)" fill="#007ac2" stroke="#515150" stroke-miterlimit="10" stroke-width="0.5"/>
    <path id="Pfad_25" data-name="Pfad 25" d="M513.04,323.547a.791.791,0,0,0-.794.8.783.783,0,0,0,.794.794h2.144a1.255,1.255,0,1,1,0,2.51h-3.12l-.137-.457h3.248a.8.8,0,1,0,0-1.6H513.04a1.255,1.255,0,0,1,0-2.51h3.038l.137.456Z" transform="translate(-372.262 -283.369)" fill="#007ac2"/>
    <path id="Pfad_26" data-name="Pfad 26" d="M513.04,323.547a.791.791,0,0,0-.794.8.783.783,0,0,0,.794.794h2.144a1.255,1.255,0,1,1,0,2.51h-3.12l-.137-.457h3.248a.8.8,0,1,0,0-1.6H513.04a1.255,1.255,0,0,1,0-2.51h3.038l.137.456Z" transform="translate(-372.262 -283.369)" fill="#007ac2" stroke="#515150" stroke-miterlimit="10" stroke-width="0.5"/>
    <path id="Pfad_27" data-name="Pfad 27" d="M526.75,327.655a1.368,1.368,0,0,1-1.369-1.37V324.46a1.368,1.368,0,0,1,1.369-1.37h1.825a1.367,1.367,0,0,1,1.369,1.37v1.826a1.367,1.367,0,0,1-1.369,1.37Zm1.825-.457a.915.915,0,0,0,.912-.913V324.46a.915.915,0,0,0-.912-.913H526.75a.915.915,0,0,0-.912.913v1.826a.915.915,0,0,0,.912.913Z" transform="translate(-379.192 -283.369)" fill="#007ac2"/>
    <path id="Pfad_28" data-name="Pfad 28" d="M526.75,327.655a1.368,1.368,0,0,1-1.369-1.37V324.46a1.368,1.368,0,0,1,1.369-1.37h1.825a1.367,1.367,0,0,1,1.369,1.37v1.826a1.367,1.367,0,0,1-1.369,1.37Zm1.825-.457a.915.915,0,0,0,.912-.913V324.46a.915.915,0,0,0-.912-.913H526.75a.915.915,0,0,0-.912.913v1.826a.915.915,0,0,0,.912.913Z" transform="translate(-379.192 -283.369)" fill="#007ac2" stroke="#515150" stroke-miterlimit="10" stroke-width="0.5"/>
    <path id="Pfad_29" data-name="Pfad 29" d="M539.617,324.388a.915.915,0,0,0,.912.913h.867l-.137.457h-.73a1.367,1.367,0,0,1-1.368-1.37v-5.02h.456Z" transform="translate(-386.217 -281.472)" fill="#007ac2"/>
    <path id="Pfad_30" data-name="Pfad 30" d="M539.617,324.388a.915.915,0,0,0,.912.913h.867l-.137.457h-.73a1.367,1.367,0,0,1-1.368-1.37v-5.02h.456Z" transform="translate(-386.217 -281.472)" fill="#007ac2" stroke="#515150" stroke-miterlimit="10" stroke-width="0.5"/>
    <path id="Pfad_31" data-name="Pfad 31" d="M550.826,327.2a.915.915,0,0,0,.912-.913v-3.2h.456v3.2a1.367,1.367,0,0,1-1.368,1.37H549a1.367,1.367,0,0,1-1.369-1.37v-3.2h.456v3.2a.915.915,0,0,0,.912.913Z" transform="translate(-390.536 -283.369)" fill="#007ac2"/>
    <path id="Pfad_32" data-name="Pfad 32" d="M550.826,327.2a.915.915,0,0,0,.912-.913v-3.2h.456v3.2a1.367,1.367,0,0,1-1.368,1.37H549a1.367,1.367,0,0,1-1.369-1.37v-3.2h.456v3.2a.915.915,0,0,0,.912.913Z" transform="translate(-390.536 -283.369)" fill="#007ac2" stroke="#515150" stroke-miterlimit="10" stroke-width="0.5"/>
    <path id="Pfad_33" data-name="Pfad 33" d="M564.457,325.3l-.137.457h-1.186a1.367,1.367,0,0,1-1.369-1.37V321.65h-.913l.137-.457h.776v-1.826h.456v1.826H564.5l-.137.457h-2.144v2.738a.915.915,0,0,0,.913.913Z" transform="translate(-397.276 -281.472)" fill="#007ac2"/>
    <path id="Pfad_34" data-name="Pfad 34" d="M564.457,325.3l-.137.457h-1.186a1.367,1.367,0,0,1-1.369-1.37V321.65h-.913l.137-.457h.776v-1.826h.456v1.826H564.5l-.137.457h-2.144v2.738a.915.915,0,0,0,.913.913Z" transform="translate(-397.276 -281.472)" fill="#007ac2" stroke="#515150" stroke-miterlimit="10" stroke-width="0.5"/>
    <path id="Pfad_35" data-name="Pfad 35" d="M572.211,319.367h.456v.457h-.456Zm0,1.826h.456v4.565h-.456Z" transform="translate(-403.068 -281.472)" fill="#007ac2"/>
    <path id="Pfad_36" data-name="Pfad 36" d="M572.211,319.367h.456v.457h-.456Zm0,1.826h.456v4.565h-.456Z" transform="translate(-403.068 -281.472)" fill="#007ac2" stroke="#515150" stroke-miterlimit="10" stroke-width="0.5"/>
    <path id="Pfad_37" data-name="Pfad 37" d="M578.979,327.655a1.368,1.368,0,0,1-1.369-1.37V324.46a1.368,1.368,0,0,1,1.369-1.37H580.8a1.368,1.368,0,0,1,1.369,1.37v1.826a1.368,1.368,0,0,1-1.369,1.37Zm1.825-.457a.915.915,0,0,0,.912-.913V324.46a.915.915,0,0,0-.912-.913h-1.825a.915.915,0,0,0-.912.913v1.826a.915.915,0,0,0,.912.913Z" transform="translate(-405.821 -283.369)" fill="#007ac2"/>
    <path id="Pfad_38" data-name="Pfad 38" d="M578.979,327.655a1.368,1.368,0,0,1-1.369-1.37V324.46a1.368,1.368,0,0,1,1.369-1.37H580.8a1.368,1.368,0,0,1,1.369,1.37v1.826a1.368,1.368,0,0,1-1.369,1.37Zm1.825-.457a.915.915,0,0,0,.912-.913V324.46a.915.915,0,0,0-.912-.913h-1.825a.915.915,0,0,0-.912.913v1.826a.915.915,0,0,0,.912.913Z" transform="translate(-405.821 -283.369)" fill="#007ac2" stroke="#515150" stroke-miterlimit="10" stroke-width="0.5"/>
    <path id="Pfad_39" data-name="Pfad 39" d="M592.759,323.547a.915.915,0,0,0-.912.913v3.2h-.456v-3.2a1.367,1.367,0,0,1,1.368-1.369h1.825a1.367,1.367,0,0,1,1.368,1.369v3.2H595.5v-3.2a.915.915,0,0,0-.912-.913Z" transform="translate(-412.846 -283.369)" fill="#007ac2"/>
    <path id="Pfad_40" data-name="Pfad 40" d="M592.759,323.547a.915.915,0,0,0-.912.913v3.2h-.456v-3.2a1.367,1.367,0,0,1,1.368-1.369h1.825a1.367,1.367,0,0,1,1.368,1.369v3.2H595.5v-3.2a.915.915,0,0,0-.912-.913Z" transform="translate(-412.846 -283.369)" fill="#007ac2" stroke="#515150" stroke-miterlimit="10" stroke-width="0.5"/>
    <path id="Pfad_41" data-name="Pfad 41" d="M606.232,323.547a.791.791,0,0,0-.794.8.783.783,0,0,0,.794.794h2.144a1.255,1.255,0,1,1,0,2.51h-3.12l-.137-.457h3.248a.8.8,0,1,0,0-1.6h-2.135a1.255,1.255,0,0,1,0-2.51h3.039l.137.456Z" transform="translate(-419.776 -283.369)" fill="#007ac2"/>
    <path id="Pfad_42" data-name="Pfad 42" d="M606.232,323.547a.791.791,0,0,0-.794.8.783.783,0,0,0,.794.794h2.144a1.255,1.255,0,1,1,0,2.51h-3.12l-.137-.457h3.248a.8.8,0,1,0,0-1.6h-2.135a1.255,1.255,0,0,1,0-2.51h3.039l.137.456Z" transform="translate(-419.776 -283.369)" fill="#007ac2" stroke="#515150" stroke-miterlimit="10" stroke-width="0.5"/>
</svg>
