<?xml version="1.0" standalone="no"?>
<!DOCTYPE svg PUBLIC "-//W3C//DTD SVG 20010904//EN"
 "http://www.w3.org/TR/2001/REC-SVG-20010904/DTD/svg10.dtd">
<svg version="1.0" xmlns="http://www.w3.org/2000/svg"
 width="1320.000000pt" height="167.000000pt" viewBox="0 0 1320.000000 167.000000"
 preserveAspectRatio="xMidYMid meet">

<g transform="translate(0.000000,167.000000) scale(0.100000,-0.100000)"
fill="#000000" stroke="none">
<path d="M3140 1495 l0 -165 -238 0 c-260 0 -302 -7 -356 -57 -61 -56 -66 -82
-66 -366 0 -163 4 -275 12 -304 14 -59 78 -127 133 -142 25 -7 166 -11 388
-11 l347 0 0 605 0 605 -110 0 -110 0 0 -165z m148 -437 l-3 -533 -310 -3
c-357 -3 -363 -1 -402 78 -22 42 -23 55 -23 300 0 374 -21 354 377 358 l283 3
0 165 0 164 40 0 40 0 -2 -532z"/>
<path d="M2630 890 l0 -290 290 0 290 0 0 290 0 290 -290 0 -290 0 0 -290z
m510 0 l0 -220 -220 0 -220 0 0 220 0 220 220 0 220 0 0 -220z"/>
<path d="M3680 1565 l0 -35 4723 2 4722 3 3 33 3 32 -4725 0 -4726 0 0 -35z"/>
<path d="M1195 1314 c-22 -8 -54 -29 -73 -47 -54 -53 -62 -98 -62 -372 0 -269
8 -319 61 -379 54 -62 91 -68 396 -64 254 3 270 4 309 25 52 28 90 72 104 121
21 78 49 72 -320 72 l-330 0 0 55 0 55 330 0 330 0 0 183 c0 207 -10 257 -64
311 -52 51 -85 56 -377 55 -205 0 -273 -4 -304 -15z m602 -74 c61 -37 68 -57
71 -232 l4 -158 -331 0 -331 0 0 -125 0 -125 321 0 c337 0 343 -1 288 -43 -42
-31 -94 -37 -339 -37 -264 0 -287 5 -325 70 -19 33 -20 52 -20 305 0 307 1
310 78 346 38 17 68 19 297 19 235 0 257 -2 287 -20z"/>
<path d="M1210 1055 l0 -125 290 0 290 0 0 125 0 125 -290 0 -290 0 0 -125z
m510 0 l0 -55 -220 0 -220 0 0 55 0 55 220 0 220 0 0 -55z"/>
<path d="M4039 1316 c-57 -20 -96 -53 -118 -99 -19 -39 -21 -62 -21 -206 0
-96 5 -180 12 -203 17 -58 82 -113 152 -129 l56 -12 0 -51 0 -51 -52 -13 c-73
-17 -121 -52 -148 -107 -20 -41 -22 -58 -19 -168 4 -111 6 -126 31 -167 16
-28 43 -55 70 -70 42 -25 47 -25 308 -28 283 -4 315 0 383 45 62 40 82 95 82
228 0 95 -4 117 -23 157 -28 57 -69 93 -120 108 -20 5 -94 10 -164 10 l-128 0
0 55 0 55 113 0 c146 0 207 17 263 74 57 56 64 99 64 366 l0 220 -352 0 c-262
-1 -362 -4 -389 -14z m661 -272 l0 -216 -33 -33 c-46 -46 -89 -55 -259 -55
l-148 0 0 -125 0 -125 168 0 c143 0 172 -3 201 -18 56 -30 71 -71 71 -189 0
-117 -9 -145 -59 -176 -34 -21 -47 -22 -296 -25 -233 -2 -264 -1 -294 15 -64
33 -76 61 -79 187 l-4 113 32 36 c34 39 80 57 148 57 l42 0 0 125 0 125 -37 0
c-58 0 -111 18 -146 50 l-32 28 -3 163 c-2 89 -1 172 2 184 8 31 53 74 90 84
17 5 167 10 334 10 l302 1 0 -216z"/>
<path d="M4040 1000 l0 -180 295 0 295 0 0 180 0 180 -295 0 -295 0 0 -180z
m520 0 l0 -110 -220 0 -220 0 0 110 0 110 220 0 220 0 0 -110z"/>
<path d="M4040 285 l0 -125 295 0 295 0 0 125 0 125 -295 0 -295 0 0 -125z
m520 0 l0 -55 -220 0 -220 0 0 55 0 55 220 0 220 0 0 -55z"/>
<path d="M5456 1315 c-57 -20 -88 -46 -116 -96 -25 -44 -25 -44 -25 -319 l0
-275 26 -56 c29 -61 63 -91 124 -108 64 -17 519 -15 581 4 83 24 144 101 144
183 l0 22 -330 0 -330 0 0 55 0 55 330 0 330 0 0 193 c0 182 -1 195 -24 244
-17 36 -38 60 -67 80 l-42 28 -281 2 c-224 2 -289 0 -320 -12z m590 -71 c60
-28 74 -76 74 -247 l0 -147 -330 0 -330 0 0 -125 0 -125 320 0 c176 0 320 -4
320 -8 0 -16 -38 -44 -77 -58 -28 -9 -101 -13 -275 -14 -274 0 -300 5 -336 69
-21 37 -22 51 -22 305 0 304 2 314 73 347 38 17 68 19 295 19 212 0 260 -3
288 -16z"/>
<path d="M5460 1055 l0 -125 295 0 295 0 0 125 0 125 -295 0 -295 0 0 -125z
m510 0 l0 -55 -220 0 -220 0 0 55 0 55 220 0 220 0 0 -55z"/>
<path d="M6730 992 c0 -374 5 -413 61 -476 56 -64 69 -66 581 -66 l458 0 0
440 0 440 -110 0 -110 0 0 -330 0 -330 -110 0 -110 0 0 330 0 330 -110 0 -110
0 0 -330 0 -330 -110 0 -110 0 0 330 0 330 -110 0 -110 0 0 -338z m150 -62 l0
-330 180 0 180 0 0 330 0 330 40 0 40 0 0 -330 0 -330 180 0 180 0 0 330 0
330 40 0 40 0 0 -370 0 -371 -432 3 c-477 3 -459 1 -501 68 -21 34 -22 46 -25
353 l-3 317 40 0 41 0 0 -330z"/>
<path d="M8503 1314 c-51 -19 -108 -79 -122 -131 -22 -79 -50 -73 319 -73
l330 0 0 -55 0 -55 -245 0 c-262 0 -291 -4 -343 -53 -54 -50 -67 -93 -67 -222
0 -105 3 -125 22 -161 28 -52 72 -90 121 -104 22 -6 176 -10 385 -10 l348 0
-3 363 c-3 349 -4 363 -25 402 -27 50 -58 80 -105 100 -53 22 -552 21 -615 -1z
m604 -74 c66 -40 68 -50 68 -400 l0 -315 -320 0 c-289 0 -324 2 -348 18 -48
31 -62 71 -62 182 0 114 14 153 68 185 30 19 52 20 310 20 l277 0 0 125 0 125
-320 0 c-176 0 -320 4 -320 8 0 14 33 40 70 56 28 12 86 15 290 16 236 0 257
-2 287 -20z"/>
<path d="M8520 725 l0 -125 290 0 290 0 0 125 0 125 -290 0 -290 0 0 -125z
m510 0 l0 -55 -220 0 -220 0 0 55 0 55 220 0 220 0 0 -55z"/>
<path d="M9807 1073 c69 -142 165 -340 214 -441 l88 -183 111 3 111 3 209 430
c115 237 210 434 210 438 0 4 -54 6 -121 5 l-121 -3 -141 -307 c-78 -170 -145
-308 -148 -308 -3 0 -70 139 -148 310 l-143 310 -123 0 -124 0 126 -257z m241
-170 c91 -194 168 -353 171 -353 4 0 80 158 170 351 91 193 170 353 177 356 7
2 26 3 42 1 l31 -3 -178 -365 -177 -365 -62 -3 c-50 -2 -63 0 -72 15 -15 25
-350 714 -350 720 0 2 19 3 41 1 l42 -3 165 -352z"/>
<path d="M11371 1316 c-18 -6 -51 -26 -72 -44 -61 -52 -69 -93 -69 -377 0
-282 8 -327 70 -386 59 -56 91 -61 390 -57 249 3 267 4 305 25 68 36 115 105
115 168 l0 25 -330 0 -330 0 0 55 0 55 330 0 330 0 0 183 c0 207 -10 257 -64
311 -18 17 -51 37 -73 44 -56 17 -555 15 -602 -2z m596 -76 c61 -37 68 -57 71
-232 l4 -158 -331 0 -331 0 0 -125 0 -125 320 0 c190 0 320 -4 320 -9 0 -16
-51 -51 -92 -62 -25 -6 -133 -9 -286 -7 -277 3 -283 5 -319 76 -16 33 -18 65
-18 302 0 301 1 306 78 341 38 17 68 19 297 19 235 0 257 -2 287 -20z"/>
<path d="M11380 1055 l0 -125 290 0 290 0 0 125 0 125 -290 0 -290 0 0 -125z
m510 0 l0 -55 -220 0 -220 0 0 55 0 55 220 0 220 0 0 -55z"/>
<path d="M40 195 l0 -35 1770 0 1770 0 0 35 0 35 -1770 0 -1770 0 0 -35z"/>
</g>
</svg>
