<?xml version="1.0" encoding="utf-8"?>
<!-- Generator: Adobe Illustrator 23.0.3, SVG Export Plug-In . SVG Version: 6.00 Build 0)  -->
<svg version="1.1" id="Ebene_1" xmlns="http://www.w3.org/2000/svg" xmlns:xlink="http://www.w3.org/1999/xlink" x="0px" y="0px"
	 viewBox="0 0 113.39 113.39" style="enable-background:new 0 0 113.39 113.39;" xml:space="preserve">
<style type="text/css">
	.st0{fill:none;stroke:#FFFFFF;stroke-width:0.8504;stroke-linecap:round;stroke-miterlimit:10;}
	.st1{fill:#FFFFFF;}
	.st2{fill:#009FE3;}
</style>
<line class="st0" x1="10.22" y1="59.92" x2="59.44" y2="68.76"/>
<rect x="10.45" y="11.33" class="st1" width="91.45" height="91.45"/>
<path class="st2" d="M26.44,43.99H13.57c-0.47,0-0.85-0.38-0.85-0.85s0.38-0.85,0.85-0.85h12.19l4.45-4.3
	c0.34-0.33,0.88-0.32,1.2,0.02c0.33,0.34,0.32,0.88-0.02,1.2L26.44,43.99z"/>
<path class="st2" d="M68.54,51.83c-2.48,0-4.49-2.02-4.49-4.49s2.02-4.49,4.49-4.49c2.48,0,4.49,2.02,4.49,4.49
	S71.02,51.83,68.54,51.83z M68.54,44.54c-1.54,0-2.79,1.25-2.79,2.79s1.25,2.79,2.79,2.79s2.79-1.25,2.79-2.79
	C71.33,45.8,70.08,44.54,68.54,44.54z"/>
<polygon class="st2" points="46.19,58.19 23.57,58.19 23.57,56.49 45.44,56.49 50.32,51.06 51.58,52.2 "/>
<polygon class="st2" points="53.36,50.22 52.1,49.08 54.44,46.48 64.9,46.48 64.9,48.19 55.19,48.19 "/>
<g>
	<path class="st2" d="M80.23,78.22H58.99c-5.34,0-10.44-2.5-13.72-6.7H26.1v-1.7h20.02l0.25,0.34c2.95,3.98,7.67,6.35,12.62,6.35
		h21.24V78.22z"/>
</g>
<g>
	<path d="M60.84,95.09c-2.48,0-4.49-2.02-4.49-4.49c0-2.48,2.02-4.49,4.49-4.49c2.48,0,4.49,2.02,4.49,4.49
		C65.33,93.07,63.31,95.09,60.84,95.09z M60.84,87.8c-1.54,0-2.79,1.25-2.79,2.79s1.25,2.79,2.79,2.79s2.79-1.25,2.79-2.79
		S62.38,87.8,60.84,87.8z"/>
	<polygon points="44.85,84.77 39.89,78.07 34.66,78.07 34.66,76.37 40.74,76.37 46.22,83.76 	"/>
	<polygon points="57.19,91.44 49.8,91.44 46.32,86.75 47.69,85.74 50.65,89.74 57.19,89.74 	"/>
</g>
<g>
	<path d="M60.84,65c-2.48,0-4.49-2.02-4.49-4.49s2.02-4.49,4.49-4.49c2.48,0,4.49,2.02,4.49,4.49S63.31,65,60.84,65z M60.84,57.72
		c-1.54,0-2.79,1.25-2.79,2.79s1.25,2.79,2.79,2.79s2.79-1.25,2.79-2.79S62.38,57.72,60.84,57.72z"/>
	<rect x="17.55" y="64.32" width="13.95" height="1.7"/>
	<polygon points="47.64,66.02 34.66,66.02 34.66,64.32 46.88,64.32 51.08,59.66 57.19,59.66 57.19,61.36 51.83,61.36 	"/>
</g>
<g>
	<path d="M57.55,39.11c-2.48,0-4.49-2.02-4.49-4.49s2.02-4.49,4.49-4.49s4.49,2.02,4.49,4.49S60.03,39.11,57.55,39.11z M57.55,31.82
		c-1.54,0-2.79,1.25-2.79,2.79s1.25,2.79,2.79,2.79s2.79-1.25,2.79-2.79S59.09,31.82,57.55,31.82z"/>
	<polygon points="46.17,38.1 44.91,36.97 47.79,33.76 53.91,33.76 53.91,35.46 48.55,35.46 	"/>
	<rect x="41.64" y="39.09" transform="matrix(0.6688 -0.7434 0.7434 0.6688 -15.3251 45.4757)" width="3.48" height="1.7"/>
</g>
<rect x="10.46" y="76.37" width="4.88" height="1.7"/>
<path class="st2" d="M23.57,71.53h-9.98c-0.47,0-0.85-0.38-0.85-0.85l-0.05-13.34c0-0.23,0.09-0.44,0.25-0.6s0.38-0.25,0.6-0.25
	h5.86v1.7h-5l0.04,11.64h9.13V71.53z"/>
<path d="M34.36,50.81H10.91c-0.47,0-0.85-0.38-0.85-0.85s0.38-0.85,0.85-0.85h23.07l6.57-7.31c0.31-0.35,0.85-0.38,1.2-0.06
	c0.35,0.31,0.38,0.85,0.06,1.2l-6.83,7.59C34.83,50.71,34.6,50.81,34.36,50.81z"/>
<path class="st2" d="M33.42,40.57c-2.48,0-4.49-2.02-4.49-4.49s2.02-4.49,4.49-4.49s4.49,2.02,4.49,4.49S35.9,40.57,33.42,40.57z
	 M33.42,33.28c-1.54,0-2.79,1.25-2.79,2.79s1.25,2.79,2.79,2.79s2.79-1.25,2.79-2.79C36.21,34.54,34.96,33.28,33.42,33.28z"/>
<path d="M35.01,94.38c-2.48,0-4.49-2.02-4.49-4.49c0-2.48,2.02-4.49,4.49-4.49s4.49,2.02,4.49,4.49S37.48,94.38,35.01,94.38z
	 M35.01,87.1c-1.54,0-2.79,1.25-2.79,2.79s1.25,2.79,2.79,2.79s2.79-1.25,2.79-2.79S36.55,87.1,35.01,87.1z"/>
<polygon points="31.36,90.74 17.96,90.74 17.96,76.37 31.5,76.37 31.5,78.07 19.66,78.07 19.66,89.04 31.36,89.04 "/>
<g>
	<path class="st2" d="M80.23,78.22c-0.47,0-0.87-0.38-0.87-0.84c0-0.47,0.34-0.85,0.81-0.86h0.05c1.6,0,2.86-0.75,3.46-2.06
		c0.75-1.61,0.33-3.64-1.07-5.29c-1.14-1.34-1.89-2.45-2.37-3.33c-0.63,1.03-1.58,2.28-2.41,3.31c-0.97,1.2-1.46,2.56-1.39,3.83
		c0.03,0.47-0.33,0.87-0.8,0.9s-0.87-0.33-0.9-0.8c-0.1-1.69,0.52-3.47,1.76-5c2.52-3.12,2.74-4.02,2.75-4.06l0.12-0.7
		c0.07-0.41,0.44-0.68,0.85-0.7c0.42,0.01,0.77,0.32,0.83,0.73c0.02,0.17,0.31,1.73,2.85,4.71c1.84,2.16,2.35,4.88,1.32,7.11
		C84.34,77.08,82.47,78.22,80.23,78.22z"/>
</g>
<g>
	<g>
		<path d="M78.4,60.2c-0.05,0-0.1-0.01-0.14-0.03c-0.22-0.08-0.34-0.32-0.26-0.54c0.58-1.63-0.23-3.22-0.24-3.23
			c-1.04-1.79-0.38-3.44-0.35-3.51l7.69-22.23c0.08-0.22,0.32-0.34,0.54-0.26s0.34,0.32,0.26,0.54l-7.7,22.25
			c-0.03,0.08-0.54,1.37,0.3,2.8c0.05,0.09,1,1.94,0.29,3.93C78.74,60.09,78.57,60.2,78.4,60.2z"/>
		<rect x="73.44" y="37.91" transform="matrix(0.3248 -0.9458 0.9458 0.3248 19.7332 104.3193)" width="18.98" height="0.85"/>
	</g>
	<g>
		<path d="M81.9,61.44c-0.05,0-0.1-0.01-0.14-0.03c-0.22-0.08-0.34-0.32-0.26-0.54c0.71-1.99,2.62-2.82,2.7-2.85
			c1.58-0.6,2-1.95,2.01-1.96l7.71-22.27c0.08-0.22,0.32-0.34,0.54-0.26s0.34,0.32,0.26,0.54l-7.7,22.25
			c-0.02,0.06-0.55,1.76-2.5,2.49c0,0-1.63,0.72-2.21,2.35C82.23,61.33,82.07,61.44,81.9,61.44z"/>
		<rect x="82.24" y="41.05" transform="matrix(0.3248 -0.9458 0.9458 0.3248 22.7104 114.7556)" width="18.98" height="0.85"/>
	</g>
	<g>
		<path d="M91.62,28.51l-6.65-2.37c-1.24-0.44-1.89-1.81-1.45-3.05c0.23-0.64,0.66-1.12,1.24-1.4c0.58-0.27,1.23-0.31,1.82-0.09
			l2.35,0.84c-1.21-1.9-1.48-4.27-0.72-6.41c1.36-3.82,5.57-5.81,9.39-4.46l-0.29,0.8c-3.38-1.2-7.1,0.57-8.3,3.94
			c-0.72,2.01-0.4,4.25,0.85,5.98c0.08,0.11,0.1,0.26,0.06,0.39l-0.17,0.49c-0.08,0.22-0.32,0.34-0.54,0.26l-2.91-1.04
			c-0.38-0.14-0.8-0.12-1.17,0.06c-0.37,0.18-0.65,0.49-0.79,0.87c-0.3,0.84,0.12,1.72,0.92,2.01l6.65,2.37L91.62,28.51z"/>
	</g>
	<g>
		<path d="M98.98,30.99c-0.26,0-0.53-0.04-0.79-0.14l-7.94-2.83l0.29-0.8l7.94,2.83c0.8,0.28,1.68-0.13,1.96-0.93
			c0.15-0.43,0.13-0.85-0.04-1.22c-0.18-0.37-0.49-0.65-0.87-0.79l-2.91-1.04c-0.11-0.04-0.19-0.12-0.24-0.22
			c-0.05-0.1-0.05-0.22-0.02-0.33l0.17-0.49c0.05-0.13,0.16-0.23,0.29-0.27c2.07-0.55,3.73-2.09,4.45-4.1
			c1.2-3.38-0.57-7.1-3.94-8.3l0.29-0.8c3.82,1.36,5.82,5.57,4.46,9.39c-0.76,2.14-2.47,3.8-4.61,4.51l2.36,0.84
			c0.6,0.21,1.08,0.65,1.35,1.23s0.31,1.22,0.09,1.82C100.89,30.37,99.96,30.99,98.98,30.99z"/>
	</g>
</g>
<path d="M84.82,102.06H15.76c-3.18,0-5.77-2.59-5.77-5.77v-6.51c0-0.23,0.19-0.42,0.43-0.42s0.43,0.19,0.43,0.42v6.51
	c0,2.71,2.21,4.92,4.92,4.92h69.06c2.71,0,4.92-2.21,4.92-4.92v-6.32c0-0.23,0.19-0.42,0.42-0.42s0.42,0.19,0.42,0.42v6.32
	C90.6,99.47,88.01,102.06,84.82,102.06z"/>
<path d="M10.41,36.81c-0.23,0-0.43-0.19-0.43-0.43V29.2c0-3.18,2.59-5.77,5.77-5.77h52.78c0.23,0,0.42,0.19,0.42,0.43
	s-0.19,0.43-0.42,0.43H15.76c-2.71,0-4.92,2.21-4.92,4.92v7.18C10.84,36.62,10.65,36.81,10.41,36.81z"/>
</svg>
