<?xml version="1.0" encoding="utf-8"?>
<!-- Generator: Adobe Illustrator 23.0.3, SVG Export Plug-In . SVG Version: 6.00 Build 0)  -->
<svg version="1.1" id="Ebene_1" xmlns="http://www.w3.org/2000/svg" xmlns:xlink="http://www.w3.org/1999/xlink" x="0px" y="0px"
	 viewBox="0 0 113.39 113.39" style="enable-background:new 0 0 113.39 113.39;" xml:space="preserve">
<style type="text/css">
	.st0{fill:none;stroke:#FFFFFF;stroke-width:0.8504;stroke-linecap:round;stroke-miterlimit:10;}
	.st1{fill:#D4EDFC;}
	.st2{fill:#009FE3;}
</style>
<line class="st0" x1="10.22" y1="59.92" x2="59.44" y2="68.76"/>
<polygon class="st1" points="61.13,59.99 52.11,59.99 47.77,52.45 53.01,43.16 70.63,43.16 "/>
<path class="st2" d="M22.84,90.41l-0.72-0.88c1.27-1.04,3.51-1.67,5.98-1.67c2.27,0,4.41,0.55,5.71,1.46l-0.65,0.93
	C32.04,89.47,30.15,89,28.1,89C25.92,89,23.9,89.54,22.84,90.41z"/>
<path class="st2" d="M40.96,90.41l-0.72-0.88c1.27-1.04,3.51-1.67,5.98-1.67c2.27,0,4.41,0.55,5.71,1.46l-0.65,0.93
	C50.16,89.47,48.27,89,46.22,89C44.04,89,42.02,89.54,40.96,90.41z"/>
<path class="st2" d="M59.08,90.4l-0.72-0.88c1.27-1.04,3.51-1.67,5.98-1.67c2.27,0,4.41,0.55,5.71,1.46l-0.65,0.93
	C68.28,89.47,66.39,89,64.34,89C62.16,89,60.14,89.54,59.08,90.4z"/>
<path class="st2" d="M77.2,90.41l-0.72-0.88c1.28-1.04,3.51-1.67,5.98-1.67c2.27,0,4.41,0.55,5.71,1.46l-0.65,0.93
	C86.4,89.47,84.51,89,82.46,89C80.28,89,78.26,89.54,77.2,90.41z"/>
<g>
	<path d="M84.31,22.14c-0.07,0-0.14-0.02-0.21-0.06l-15.76-8.9c-0.2-0.12-0.28-0.37-0.16-0.58c0.12-0.21,0.38-0.28,0.58-0.16
		l15.76,8.9c0.2,0.12,0.28,0.37,0.16,0.58C84.6,22.06,84.46,22.14,84.31,22.14z"/>
	<path d="M51.36,58.85c-0.14,0-0.29-0.07-0.36-0.21l-3.59-5.97c-0.08-0.13-0.08-0.29-0.01-0.43l15.4-27.31
		c0.12-0.21,0.38-0.28,0.58-0.16s0.28,0.37,0.16,0.58l-15.28,27.1l3.47,5.76c0.12,0.2,0.06,0.46-0.15,0.58
		C51.51,58.83,51.44,58.85,51.36,58.85z"/>
	<path d="M47.93,69.2c-0.07,0-0.14-0.02-0.21-0.05c-0.2-0.12-0.28-0.38-0.16-0.58l4.96-8.78c0.08-0.13,0.22-0.22,0.37-0.22h8
		l15.28-27.09c0.12-0.21,0.38-0.28,0.58-0.16s0.28,0.37,0.16,0.58L61.5,60.2c-0.08,0.13-0.22,0.22-0.37,0.22h-8l-4.83,8.57
		C48.22,69.12,48.08,69.2,47.93,69.2z"/>
	<path d="M63.91,33.65c-0.07,0-0.14-0.02-0.21-0.05l-3.94-2.22c-0.2-0.12-0.28-0.38-0.16-0.58s0.38-0.27,0.58-0.16l3.94,2.22
		c0.2,0.12,0.28,0.38,0.16,0.58C64.2,33.57,64.06,33.65,63.91,33.65z"/>
	<path d="M60.99,38.82c-0.07,0-0.14-0.02-0.21-0.06l-3.94-2.22c-0.2-0.12-0.28-0.37-0.16-0.58c0.11-0.21,0.37-0.28,0.58-0.16
		l3.94,2.22c0.2,0.12,0.28,0.37,0.16,0.58C61.28,38.75,61.14,38.82,60.99,38.82z"/>
	<path d="M58.07,44c-0.07,0-0.14-0.02-0.21-0.06l-3.94-2.22c-0.2-0.12-0.28-0.37-0.16-0.58c0.12-0.2,0.38-0.28,0.58-0.16l3.94,2.22
		c0.2,0.12,0.28,0.37,0.16,0.58C58.36,43.92,58.22,44,58.07,44z"/>
	<path d="M55.15,49.18c-0.07,0-0.14-0.02-0.21-0.06L51,46.9c-0.2-0.12-0.28-0.37-0.16-0.58c0.12-0.2,0.38-0.28,0.58-0.16l3.94,2.22
		c0.2,0.12,0.28,0.37,0.16,0.58C55.44,49.1,55.3,49.18,55.15,49.18z"/>
	<path d="M81.7,36.07c-0.07,0-0.14-0.02-0.21-0.06L57.76,22.63c-0.2-0.12-0.28-0.37-0.16-0.58c0.12-0.2,0.38-0.28,0.58-0.16
		l23.73,13.39c0.2,0.12,0.28,0.37,0.16,0.58C81.99,36,81.85,36.07,81.7,36.07z"/>
	<g>
		<rect x="64.93" y="18.64" transform="matrix(0.4917 -0.8708 0.8708 0.4917 18.8658 70.4521)" width="9.69" height="0.85"/>
		<rect x="73.48" y="23.46" transform="matrix(0.4917 -0.8708 0.8708 0.4917 19.0161 80.3434)" width="9.69" height="0.85"/>
	</g>
</g>
<path class="st2" d="M97.39,96.46H12.56c-0.29,0-0.55-0.14-0.71-0.38s-0.18-0.54-0.07-0.8l15.3-35.62c0.13-0.31,0.44-0.51,0.78-0.51
	H46.1c0.47,0,0.85,0.38,0.85,0.85s-0.38,0.85-0.85,0.85H28.42L13.85,94.76h82.27L82.18,60.84H65.87c-0.47,0-0.85-0.38-0.85-0.85
	s0.38-0.85,0.85-0.85h16.88c0.34,0,0.66,0.21,0.79,0.53l14.65,35.62c0.11,0.26,0.08,0.56-0.08,0.8
	C97.94,96.32,97.67,96.46,97.39,96.46z"/>
<path d="M28.1,91.94c-3.88,0-6.92-1.54-6.92-3.51s3.04-3.51,6.92-3.51s6.92,1.54,6.92,3.51S31.98,91.94,28.1,91.94z M28.1,85.77
	c-3.63,0-6.07,1.38-6.07,2.66s2.44,2.66,6.07,2.66s6.07-1.38,6.07-2.66S31.73,85.77,28.1,85.77z"/>
<path d="M46.22,91.94c-3.88,0-6.92-1.54-6.92-3.51s3.04-3.51,6.92-3.51s6.92,1.54,6.92,3.51S50.1,91.94,46.22,91.94z M46.22,85.77
	c-3.63,0-6.07,1.38-6.07,2.66s2.44,2.66,6.07,2.66s6.07-1.38,6.07-2.66S49.85,85.77,46.22,85.77z"/>
<path d="M64.34,91.94c-3.88,0-6.92-1.54-6.92-3.51s3.04-3.51,6.92-3.51s6.92,1.54,6.92,3.51S68.22,91.94,64.34,91.94z M64.34,85.77
	c-3.63,0-6.07,1.38-6.07,2.66s2.44,2.66,6.07,2.66c3.63,0,6.07-1.38,6.07-2.66S67.97,85.77,64.34,85.77z"/>
<path d="M82.46,91.94c-3.88,0-6.92-1.54-6.92-3.51s3.04-3.51,6.92-3.51s6.92,1.54,6.92,3.51S86.34,91.94,82.46,91.94z M82.46,85.77
	c-3.63,0-6.07,1.38-6.07,2.66s2.44,2.66,6.07,2.66s6.07-1.38,6.07-2.66S86.09,85.77,82.46,85.77z"/>
<path d="M31.26,82.14c-3.46,0-6.16-1.38-6.16-3.15c0-1.77,2.71-3.15,6.16-3.15s6.16,1.38,6.16,3.15
	C37.42,80.75,34.71,82.14,31.26,82.14z M31.26,76.68c-3.13,0-5.31,1.21-5.31,2.3c0,1.09,2.18,2.3,5.31,2.3s5.31-1.21,5.31-2.3
	C36.57,77.9,34.39,76.68,31.26,76.68z"/>
<path d="M47.27,82.14c-3.46,0-6.16-1.38-6.16-3.15c0-1.77,2.71-3.15,6.16-3.15s6.16,1.38,6.16,3.15
	C53.44,80.75,50.73,82.14,47.27,82.14z M47.27,76.68c-3.13,0-5.31,1.21-5.31,2.3c0,1.09,2.18,2.3,5.31,2.3s5.31-1.21,5.31-2.3
	C52.59,77.9,50.4,76.68,47.27,76.68z"/>
<path d="M63.29,82.14c-3.46,0-6.16-1.38-6.16-3.15c0-1.77,2.71-3.15,6.16-3.15c3.45,0,6.16,1.38,6.16,3.15
	C69.45,80.75,66.74,82.14,63.29,82.14z M63.29,76.68c-3.13,0-5.31,1.21-5.31,2.3c0,1.09,2.18,2.3,5.31,2.3
	c3.13,0,5.31-1.21,5.31-2.3C68.6,77.9,66.42,76.68,63.29,76.68z"/>
<path d="M79.21,82.14c-3.46,0-6.16-1.38-6.16-3.15c0-1.77,2.71-3.15,6.16-3.15c3.46,0,6.16,1.38,6.16,3.15
	C85.37,80.75,82.66,82.14,79.21,82.14z M79.21,76.68c-3.13,0-5.31,1.21-5.31,2.3c0,1.09,2.18,2.3,5.31,2.3s5.31-1.21,5.31-2.3
	C84.52,77.9,82.34,76.68,79.21,76.68z"/>
<path d="M33.88,73.09c-3.11,0-5.55-1.26-5.55-2.86h0.85c0,0.95,1.93,2.01,4.7,2.01s4.7-1.06,4.7-2.01h0.85
	C39.43,71.83,36.99,73.09,33.88,73.09z"/>
<path d="M48.18,73.09c-3.11,0-5.55-1.26-5.55-2.86h0.85c0,0.95,1.93,2.01,4.7,2.01s4.7-1.06,4.7-2.01h0.85
	C53.73,71.83,51.29,73.09,48.18,73.09z"/>
<path d="M62.47,73.09c-3.11,0-5.55-1.26-5.55-2.86h0.85c0,0.95,1.93,2.01,4.7,2.01c2.77,0,4.7-1.06,4.7-2.01h0.85
	C68.02,71.83,65.58,73.09,62.47,73.09z"/>
<path d="M76.68,73.09c-3.11,0-5.55-1.26-5.55-2.86h0.85c0,0.95,1.93,2.01,4.7,2.01s4.7-1.06,4.7-2.01h0.85
	C82.23,71.83,79.79,73.09,76.68,73.09z"/>
<path d="M35.57,67.01c-2.98,0-5.31-1.21-5.31-2.75h0.85c0,0.9,1.83,1.9,4.46,1.9s4.46-1,4.46-1.9h0.85
	C40.88,65.81,38.55,67.01,35.57,67.01z"/>
<path d="M75.96,67.01c-2.98,0-5.31-1.21-5.31-2.75h0.85c0,0.9,1.83,1.9,4.46,1.9s4.46-1,4.46-1.9h0.85
	C81.27,65.81,78.94,67.01,75.96,67.01z"/>
<path d="M62.82,67.01c-2.98,0-5.31-1.21-5.31-2.75h0.85c0,0.9,1.83,1.9,4.46,1.9c2.63,0,4.46-1,4.46-1.9h0.85
	C68.13,65.81,65.79,67.01,62.82,67.01z"/>
<path class="st2" d="M97.39,100.95H12.56c-0.47,0-0.85-0.38-0.85-0.85s0.38-0.85,0.85-0.85h84.83c0.47,0,0.85,0.38,0.85,0.85
	S97.86,100.95,97.39,100.95z"/>
</svg>
