<?xml version="1.0" encoding="utf-8"?>
<!-- Generator: Adobe Illustrator 23.0.3, SVG Export Plug-In . SVG Version: 6.00 Build 0)  -->
<svg version="1.1" id="Ebene_1" xmlns="http://www.w3.org/2000/svg" xmlns:xlink="http://www.w3.org/1999/xlink" x="0px" y="0px"
	 viewBox="0 0 113.39 113.39" style="enable-background:new 0 0 113.39 113.39;" xml:space="preserve">
<style type="text/css">
	.st0{fill:#009FE3;}
	.st1{fill:#5BC5F2;}
	.st2{fill:#FFFFFF;}
</style>
<path class="st0" d="M50.94,93.98c-7.93,0-14.13-16.67-14.13-37.94c0-21.28,6.21-37.94,14.13-37.94c1.05,0,2.09,0.29,3.1,0.87
	c0.41,0.23,0.55,0.75,0.32,1.16c-0.23,0.41-0.75,0.55-1.16,0.32c-0.74-0.43-1.5-0.64-2.25-0.64c-6.74,0-12.43,16.6-12.43,36.24
	s5.69,36.24,12.43,36.24c0.72,0,1.46-0.2,2.18-0.6c0.41-0.22,0.93-0.08,1.16,0.33c0.23,0.41,0.08,0.93-0.33,1.16
	C52.97,93.71,51.96,93.98,50.94,93.98z"/>
<g>
	<g>
		<g>
			<path d="M35.43,75.21c0-0.31-0.25-0.57-0.57-0.57c-0.31,0-0.57,0.25-0.57,0.57c0,0.32,0.26,0.57,0.57,0.57
				C35.18,75.78,35.43,75.52,35.43,75.21z"/>
			<path d="M34.86,76.2c-0.55,0-0.99-0.45-0.99-0.99c0-0.55,0.45-0.99,0.99-0.99c0.55,0,0.99,0.45,0.99,0.99
				C35.86,75.76,35.41,76.2,34.86,76.2z M34.86,75.07c-0.08,0-0.14,0.06-0.14,0.14c0,0.16,0.29,0.16,0.29,0
				C35.01,75.13,34.94,75.07,34.86,75.07z"/>
		</g>
	</g>
</g>
<g>
	<g>
		<path d="M28.49,77.21c-1.1,0-2-0.9-2-2.01c0-1.1,0.9-2,2-2c1.1,0,2,0.9,2,2C30.49,76.31,29.6,77.21,28.49,77.21z M28.49,74.05
			c-0.64,0-1.15,0.52-1.15,1.15c0,0.64,0.52,1.16,1.15,1.16c0.64,0,1.15-0.52,1.15-1.16C29.64,74.57,29.13,74.05,28.49,74.05z"/>
	</g>
</g>
<g>
	<g>
		<g>
			<path d="M22.69,75.21c0-0.31-0.25-0.57-0.57-0.57c-0.31,0-0.57,0.25-0.57,0.57c0,0.32,0.26,0.57,0.57,0.57
				C22.43,75.78,22.69,75.52,22.69,75.21z"/>
			<path d="M22.12,76.2c-0.55,0-0.99-0.45-0.99-0.99c0-0.55,0.45-0.99,0.99-0.99c0.55,0,0.99,0.45,0.99,0.99
				C23.11,75.76,22.67,76.2,22.12,76.2z M22.12,75.07c-0.08,0-0.14,0.06-0.14,0.14c0,0.16,0.29,0.16,0.29,0
				C22.26,75.13,22.2,75.07,22.12,75.07z"/>
		</g>
	</g>
</g>
<g>
	<g>
		<g>
			<path d="M16.31,75.21c0-0.31-0.25-0.57-0.57-0.57c-0.31,0-0.57,0.25-0.57,0.57c0,0.32,0.26,0.57,0.57,0.57
				C16.06,75.78,16.31,75.52,16.31,75.21z"/>
			<path d="M15.75,76.2c-0.55,0-0.99-0.45-0.99-0.99c0-0.55,0.45-0.99,0.99-0.99c0.55,0,0.99,0.45,0.99,0.99
				C16.74,75.76,16.29,76.2,15.75,76.2z M15.75,75.07c-0.08,0-0.14,0.06-0.14,0.14c0,0.16,0.29,0.16,0.29,0
				C15.89,75.13,15.83,75.07,15.75,75.07z"/>
		</g>
	</g>
</g>
<g>
	<g>
		<g>
			<path d="M32.26,70.46c0-0.31-0.25-0.57-0.57-0.57c-0.31,0-0.57,0.25-0.57,0.57c0,0.32,0.26,0.57,0.57,0.57
				C32.01,71.03,32.26,70.77,32.26,70.46z"/>
			<path d="M31.7,71.45c-0.55,0-0.99-0.45-0.99-0.99c0-0.55,0.45-0.99,0.99-0.99c0.55,0,0.99,0.45,0.99,0.99
				C32.69,71.01,32.24,71.45,31.7,71.45z M31.7,70.31c-0.08,0-0.14,0.06-0.14,0.14c0,0.16,0.29,0.16,0.29,0
				C31.84,70.38,31.78,70.31,31.7,70.31z"/>
		</g>
	</g>
</g>
<g>
	<g>
		<g>
			<path d="M25.89,70.46c0-0.31-0.25-0.57-0.57-0.57c-0.31,0-0.57,0.25-0.57,0.57c0,0.32,0.26,0.57,0.57,0.57
				C25.64,71.03,25.89,70.77,25.89,70.46z"/>
			<path d="M25.32,71.45c-0.55,0-0.99-0.45-0.99-0.99c0-0.55,0.45-0.99,0.99-0.99c0.55,0,0.99,0.45,0.99,0.99
				C26.32,71.01,25.87,71.45,25.32,71.45z M25.32,70.31c-0.08,0-0.14,0.06-0.14,0.14c0,0.16,0.29,0.16,0.29,0
				C25.47,70.38,25.4,70.31,25.32,70.31z"/>
		</g>
	</g>
</g>
<g>
	<g>
		<g>
			<path d="M19.52,70.46c0-0.31-0.25-0.57-0.57-0.57c-0.31,0-0.57,0.25-0.57,0.57c0,0.32,0.26,0.57,0.57,0.57
				C19.27,71.03,19.52,70.77,19.52,70.46z"/>
			<path d="M18.95,71.45c-0.55,0-0.99-0.45-0.99-0.99c0-0.55,0.45-0.99,0.99-0.99c0.55,0,0.99,0.45,0.99,0.99
				C19.94,71.01,19.5,71.45,18.95,71.45z M18.95,70.31c-0.08,0-0.14,0.06-0.14,0.14c0,0.16,0.29,0.16,0.29,0
				C19.09,70.38,19.03,70.31,18.95,70.31z"/>
		</g>
	</g>
</g>
<g>
	<g>
		<g>
			<path d="M13.15,70.46c0-0.31-0.25-0.57-0.57-0.57c-0.31,0-0.57,0.25-0.57,0.57c0,0.32,0.26,0.57,0.57,0.57
				C12.89,71.03,13.15,70.77,13.15,70.46z"/>
			<path d="M12.58,71.45c-0.55,0-0.99-0.45-0.99-0.99c0-0.55,0.45-0.99,0.99-0.99c0.55,0,0.99,0.45,0.99,0.99
				C13.57,71.01,13.13,71.45,12.58,71.45z M12.58,70.31c-0.08,0-0.14,0.06-0.14,0.14c0,0.16,0.29,0.16,0.29,0
				C12.72,70.38,12.66,70.31,12.58,70.31z"/>
		</g>
	</g>
</g>
<g>
	<g>
		<path d="M28.53,67.15c-0.8,0-1.44-0.65-1.44-1.44s0.65-1.44,1.44-1.44c0.8,0,1.44,0.65,1.44,1.44S29.33,67.15,28.53,67.15z
			 M28.53,65.11c-0.33,0-0.59,0.27-0.59,0.59s0.27,0.59,0.59,0.59c0.33,0,0.59-0.27,0.59-0.59S28.86,65.11,28.53,65.11z"/>
	</g>
</g>
<g>
	<g>
		<g>
			<path d="M22.72,65.7c0-0.31-0.25-0.57-0.57-0.57c-0.31,0-0.57,0.25-0.57,0.57c0,0.32,0.26,0.57,0.57,0.57
				C22.47,66.27,22.72,66.02,22.72,65.7z"/>
			<path d="M22.16,66.7c-0.55,0-0.99-0.45-0.99-0.99s0.45-0.99,0.99-0.99c0.55,0,0.99,0.45,0.99,0.99S22.7,66.7,22.16,66.7z
				 M22.16,65.56c-0.08,0-0.14,0.06-0.14,0.14c0,0.16,0.29,0.16,0.29,0C22.3,65.62,22.24,65.56,22.16,65.56z"/>
		</g>
	</g>
</g>
<g>
	<g>
		<path d="M15.78,67.71c-1.1,0-2-0.9-2-2c0-1.1,0.9-2,2-2c1.1,0,2,0.9,2,2C17.79,66.81,16.89,67.71,15.78,67.71z M15.78,64.55
			c-0.64,0-1.15,0.52-1.15,1.15c0,0.64,0.52,1.16,1.15,1.16c0.64,0,1.15-0.52,1.15-1.16C16.94,65.07,16.42,64.55,15.78,64.55z"/>
	</g>
</g>
<g>
	<g>
		<g>
			<path d="M32.3,60.95c0-0.31-0.25-0.57-0.57-0.57c-0.31,0-0.57,0.25-0.57,0.57c0,0.32,0.26,0.57,0.57,0.57
				C32.05,61.52,32.3,61.27,32.3,60.95z"/>
			<path d="M31.73,61.95c-0.55,0-0.99-0.45-0.99-0.99s0.45-0.99,0.99-0.99c0.55,0,0.99,0.45,0.99,0.99S32.28,61.95,31.73,61.95z
				 M31.73,60.81c-0.08,0-0.14,0.06-0.14,0.14c0,0.16,0.29,0.16,0.29,0C31.88,60.87,31.81,60.81,31.73,60.81z"/>
		</g>
	</g>
</g>
<g>
	<g>
		<g>
			<path d="M25.93,60.95c0-0.31-0.25-0.57-0.57-0.57c-0.31,0-0.57,0.25-0.57,0.57c0,0.32,0.26,0.57,0.57,0.57
				C25.68,61.52,25.93,61.27,25.93,60.95z"/>
			<path d="M25.36,61.95c-0.55,0-0.99-0.45-0.99-0.99s0.45-0.99,0.99-0.99c0.55,0,0.99,0.45,0.99,0.99S25.91,61.95,25.36,61.95z
				 M25.36,60.81c-0.08,0-0.14,0.06-0.14,0.14c0,0.16,0.29,0.16,0.29,0C25.5,60.87,25.44,60.81,25.36,60.81z"/>
		</g>
	</g>
</g>
<g>
	<g>
		<path d="M18.99,62.45c-0.83,0-1.5-0.67-1.5-1.5c0-0.83,0.67-1.5,1.5-1.5c0.82,0,1.5,0.67,1.5,1.5
			C20.49,61.78,19.81,62.45,18.99,62.45z M18.99,60.31c-0.36,0-0.65,0.29-0.65,0.65c0,0.36,0.29,0.65,0.65,0.65
			c0.36,0,0.65-0.29,0.65-0.65C19.64,60.6,19.35,60.31,18.99,60.31z"/>
	</g>
</g>
<g>
	<g>
		<g>
			<path d="M13.18,60.95c0-0.31-0.25-0.57-0.57-0.57c-0.31,0-0.57,0.25-0.57,0.57c0,0.32,0.26,0.57,0.57,0.57
				C12.93,61.52,13.18,61.27,13.18,60.95z"/>
			<path d="M12.62,61.95c-0.55,0-0.99-0.45-0.99-0.99s0.45-0.99,0.99-0.99c0.55,0,0.99,0.45,0.99,0.99S13.16,61.95,12.62,61.95z
				 M12.62,60.81c-0.08,0-0.14,0.06-0.14,0.14c0,0.16,0.29,0.16,0.29,0C12.76,60.87,12.7,60.81,12.62,60.81z"/>
		</g>
	</g>
</g>
<g>
	<g>
		<g>
			<path d="M29.13,56.2c0-0.31-0.25-0.57-0.57-0.57c-0.31,0-0.57,0.25-0.57,0.57c0,0.32,0.26,0.57,0.57,0.57
				C28.88,56.77,29.13,56.52,29.13,56.2z"/>
			<path d="M28.57,57.19c-0.55,0-0.99-0.45-0.99-0.99c0-0.55,0.45-0.99,0.99-0.99c0.55,0,0.99,0.45,0.99,0.99
				C29.56,56.75,29.11,57.19,28.57,57.19z M28.57,56.06c-0.08,0-0.14,0.06-0.14,0.14c0,0.16,0.29,0.16,0.29,0
				C28.71,56.12,28.65,56.06,28.57,56.06z"/>
		</g>
	</g>
</g>
<g>
	<g>
		<g>
			<path d="M22.76,56.2c0-0.31-0.25-0.57-0.57-0.57c-0.31,0-0.57,0.25-0.57,0.57c0,0.32,0.26,0.57,0.57,0.57
				C22.51,56.77,22.76,56.52,22.76,56.2z"/>
			<path d="M22.19,57.19c-0.55,0-0.99-0.45-0.99-0.99c0-0.55,0.45-0.99,0.99-0.99c0.55,0,0.99,0.45,0.99,0.99
				C23.19,56.75,22.74,57.19,22.19,57.19z M22.19,56.06c-0.08,0-0.14,0.06-0.14,0.14c0,0.16,0.29,0.16,0.29,0
				C22.34,56.12,22.27,56.06,22.19,56.06z"/>
		</g>
	</g>
</g>
<g>
	<g>
		<path d="M15.82,58.21c-1.11,0-2-0.9-2-2c0-1.1,0.9-2,2-2c1.1,0,2,0.9,2,2C17.83,57.31,16.93,58.21,15.82,58.21z M15.82,55.05
			c-0.64,0-1.15,0.52-1.15,1.15c0,0.64,0.52,1.15,1.15,1.15c0.64,0,1.15-0.52,1.15-1.15C16.97,55.56,16.46,55.05,15.82,55.05z"/>
	</g>
</g>
<g>
	<g>
		<g>
			<path d="M32.34,51.45c0-0.31-0.25-0.57-0.57-0.57c-0.31,0-0.57,0.25-0.57,0.57c0,0.32,0.26,0.57,0.57,0.57
				C32.09,52.02,32.34,51.76,32.34,51.45z"/>
			<path d="M31.77,52.44c-0.55,0-0.99-0.45-0.99-0.99c0-0.55,0.45-0.99,0.99-0.99c0.55,0,0.99,0.45,0.99,0.99
				C32.77,52,32.32,52.44,31.77,52.44z M31.77,51.31c-0.08,0-0.14,0.06-0.14,0.14c0,0.16,0.29,0.16,0.29,0
				C31.91,51.37,31.85,51.31,31.77,51.31z"/>
		</g>
	</g>
</g>
<g>
	<g>
		<path d="M25.4,53.45c-1.11,0-2-0.9-2-2.01c0-1.1,0.9-2,2-2c1.1,0,2,0.9,2,2C27.4,52.55,26.5,53.45,25.4,53.45z M25.4,50.29
			c-0.64,0-1.15,0.52-1.15,1.15c0,0.64,0.52,1.15,1.15,1.15c0.64,0,1.15-0.52,1.15-1.15C26.55,50.81,26.04,50.29,25.4,50.29z"/>
	</g>
</g>
<g>
	<g>
		<g>
			<path d="M19.59,51.45c0-0.31-0.25-0.57-0.57-0.57c-0.31,0-0.57,0.25-0.57,0.57c0,0.32,0.26,0.57,0.57,0.57
				C19.34,52.02,19.59,51.76,19.59,51.45z"/>
			<path d="M19.03,52.44c-0.55,0-0.99-0.45-0.99-0.99c0-0.55,0.45-0.99,0.99-0.99c0.55,0,0.99,0.45,0.99,0.99
				C20.02,52,19.57,52.44,19.03,52.44z M19.03,51.31c-0.08,0-0.14,0.06-0.14,0.14c0,0.16,0.29,0.16,0.29,0
				C19.17,51.37,19.11,51.31,19.03,51.31z"/>
		</g>
	</g>
</g>
<g>
	<g>
		<g>
			<path d="M13.22,51.45c0-0.31-0.25-0.57-0.57-0.57c-0.31,0-0.57,0.25-0.57,0.57c0,0.32,0.26,0.57,0.57,0.57
				C12.97,52.02,13.22,51.76,13.22,51.45z"/>
			<path d="M12.65,52.44c-0.55,0-0.99-0.45-0.99-0.99c0-0.55,0.45-0.99,0.99-0.99c0.55,0,0.99,0.45,0.99,0.99
				C13.65,52,13.2,52.44,12.65,52.44z M12.65,51.31c-0.08,0-0.14,0.06-0.14,0.14c0,0.16,0.29,0.16,0.29,0
				C12.8,51.37,12.73,51.31,12.65,51.31z"/>
		</g>
	</g>
</g>
<g>
	<g>
		<g>
			<path d="M29.17,46.7c0-0.31-0.25-0.57-0.57-0.57c-0.31,0-0.57,0.25-0.57,0.57c0,0.32,0.26,0.57,0.57,0.57
				C28.92,47.27,29.17,47.01,29.17,46.7z"/>
			<path d="M28.6,47.69c-0.55,0-0.99-0.45-0.99-0.99c0-0.55,0.45-0.99,0.99-0.99c0.55,0,0.99,0.45,0.99,0.99
				C29.6,47.25,29.15,47.69,28.6,47.69z M28.6,46.55c-0.08,0-0.14,0.06-0.14,0.14c0,0.16,0.29,0.16,0.29,0
				C28.75,46.62,28.69,46.55,28.6,46.55z"/>
		</g>
	</g>
</g>
<g>
	<g>
		<g>
			<path d="M22.8,46.7c0-0.31-0.25-0.57-0.57-0.57c-0.31,0-0.57,0.25-0.57,0.57c0,0.32,0.26,0.57,0.57,0.57
				C22.55,47.27,22.8,47.01,22.8,46.7z"/>
			<path d="M22.23,47.69c-0.55,0-0.99-0.45-0.99-0.99c0-0.55,0.45-0.99,0.99-0.99c0.55,0,0.99,0.45,0.99,0.99
				C23.23,47.25,22.78,47.69,22.23,47.69z M22.23,46.55c-0.08,0-0.14,0.06-0.14,0.14c0,0.16,0.29,0.16,0.29,0
				C22.38,46.62,22.31,46.55,22.23,46.55z"/>
		</g>
	</g>
</g>
<g>
	<g>
		<g>
			<path d="M16.43,46.7c0-0.31-0.25-0.57-0.57-0.57c-0.31,0-0.57,0.25-0.57,0.57c0,0.32,0.26,0.57,0.57,0.57
				C16.17,47.27,16.43,47.01,16.43,46.7z"/>
			<path d="M15.86,47.69c-0.55,0-0.99-0.45-0.99-0.99c0-0.55,0.45-0.99,0.99-0.99c0.55,0,0.99,0.45,0.99,0.99
				C16.85,47.25,16.41,47.69,15.86,47.69z M15.86,46.55c-0.08,0-0.14,0.06-0.14,0.14c0,0.16,0.29,0.16,0.29,0
				C16,46.62,15.94,46.55,15.86,46.55z"/>
		</g>
	</g>
</g>
<g>
	<g>
		<g>
			<path d="M32.38,41.94c0-0.31-0.25-0.57-0.57-0.57c-0.31,0-0.57,0.25-0.57,0.57c0,0.32,0.26,0.57,0.57,0.57
				C32.12,42.51,32.38,42.26,32.38,41.94z"/>
			<path d="M31.81,42.94c-0.55,0-0.99-0.45-0.99-0.99c0-0.55,0.45-0.99,0.99-0.99c0.55,0,0.99,0.45,0.99,0.99
				C32.8,42.49,32.36,42.94,31.81,42.94z M31.81,41.8c-0.08,0-0.14,0.06-0.14,0.14c0,0.16,0.29,0.16,0.29,0
				C31.95,41.86,31.89,41.8,31.81,41.8z"/>
		</g>
	</g>
</g>
<g>
	<g>
		<g>
			<path d="M26.01,41.94c0-0.31-0.25-0.57-0.57-0.57c-0.31,0-0.57,0.25-0.57,0.57c0,0.32,0.26,0.57,0.57,0.57
				C25.75,42.51,26.01,42.26,26.01,41.94z"/>
			<path d="M25.44,42.94c-0.55,0-0.99-0.45-0.99-0.99c0-0.55,0.45-0.99,0.99-0.99c0.55,0,0.99,0.45,0.99,0.99
				C26.43,42.49,25.98,42.94,25.44,42.94z M25.44,41.8c-0.08,0-0.14,0.06-0.14,0.14c0,0.16,0.29,0.16,0.29,0
				C25.58,41.86,25.52,41.8,25.44,41.8z"/>
		</g>
	</g>
</g>
<g>
	<g>
		<g>
			<path d="M19.63,41.94c0-0.31-0.25-0.57-0.57-0.57c-0.31,0-0.57,0.25-0.57,0.57c0,0.32,0.26,0.57,0.57,0.57
				C19.38,42.51,19.63,42.26,19.63,41.94z"/>
			<path d="M19.06,42.94c-0.55,0-0.99-0.45-0.99-0.99c0-0.55,0.45-0.99,0.99-0.99c0.55,0,0.99,0.45,0.99,0.99
				C20.06,42.49,19.61,42.94,19.06,42.94z M19.06,41.8c-0.08,0-0.14,0.06-0.14,0.14c0,0.16,0.29,0.16,0.29,0
				C19.21,41.86,19.15,41.8,19.06,41.8z"/>
		</g>
	</g>
</g>
<g>
	<g>
		<path d="M12.69,43.95c-1.1,0-2-0.9-2-2.01c0-1.1,0.9-2,2-2c1.1,0,2,0.9,2,2C14.7,43.05,13.8,43.95,12.69,43.95z M12.69,40.79
			c-0.64,0-1.15,0.52-1.15,1.15c0,0.64,0.52,1.16,1.15,1.16c0.64,0,1.15-0.52,1.15-1.16C13.84,41.31,13.33,40.79,12.69,40.79z"/>
	</g>
</g>
<g>
	<g>
		<g>
			<path d="M35.58,37.19c0-0.31-0.25-0.57-0.57-0.57c-0.31,0-0.57,0.25-0.57,0.57c0,0.32,0.26,0.57,0.57,0.57
				C35.33,37.76,35.58,37.51,35.58,37.19z"/>
			<path d="M35.02,38.19c-0.55,0-0.99-0.45-0.99-0.99c0-0.55,0.45-0.99,0.99-0.99c0.55,0,0.99,0.45,0.99,0.99
				C36.01,37.74,35.56,38.19,35.02,38.19z M35.02,37.05c-0.08,0-0.14,0.06-0.14,0.14c0,0.16,0.29,0.16,0.29,0
				C35.16,37.11,35.1,37.05,35.02,37.05z"/>
		</g>
	</g>
</g>
<g>
	<g>
		<path d="M28.64,38.76c-0.87,0-1.57-0.71-1.57-1.57c0-0.87,0.7-1.57,1.57-1.57c0.87,0,1.57,0.7,1.57,1.57
			C30.21,38.06,29.51,38.76,28.64,38.76z M28.64,36.47c-0.4,0-0.72,0.32-0.72,0.72c0,0.4,0.32,0.72,0.72,0.72
			c0.4,0,0.72-0.32,0.72-0.72C29.36,36.8,29.04,36.47,28.64,36.47z"/>
	</g>
</g>
<g>
	<g>
		<g>
			<path d="M22.84,37.19c0-0.31-0.25-0.57-0.57-0.57c-0.31,0-0.57,0.25-0.57,0.57c0,0.32,0.26,0.57,0.57,0.57
				C22.58,37.76,22.84,37.51,22.84,37.19z"/>
			<path d="M22.27,38.19c-0.55,0-0.99-0.45-0.99-0.99c0-0.55,0.45-0.99,0.99-0.99c0.55,0,0.99,0.45,0.99,0.99
				C23.26,37.74,22.82,38.19,22.27,38.19z M22.27,37.05c-0.08,0-0.14,0.06-0.14,0.14c0,0.16,0.29,0.16,0.29,0
				C22.41,37.11,22.35,37.05,22.27,37.05z"/>
		</g>
	</g>
</g>
<g>
	<g>
		<g>
			<path d="M16.47,37.19c0-0.31-0.25-0.57-0.57-0.57c-0.31,0-0.57,0.25-0.57,0.57c0,0.32,0.26,0.57,0.57,0.57
				C16.21,37.76,16.47,37.51,16.47,37.19z"/>
			<path d="M15.9,38.19c-0.55,0-0.99-0.45-0.99-0.99c0-0.55,0.45-0.99,0.99-0.99c0.55,0,0.99,0.45,0.99,0.99
				C16.89,37.74,16.44,38.19,15.9,38.19z M15.9,37.05c-0.08,0-0.14,0.06-0.14,0.14c0,0.16,0.29,0.16,0.29,0
				C16.04,37.11,15.98,37.05,15.9,37.05z"/>
		</g>
	</g>
</g>
<path d="M80.8,36.16c-0.57,0-1.03,0.46-1.03,1.03c0,0.57,0.46,1.03,1.03,1.03c0.57,0,1.03-0.46,1.03-1.03
	C81.84,36.62,81.37,36.16,80.8,36.16z"/>
<path d="M87.18,36.16c-0.57,0-1.03,0.46-1.03,1.03c0,0.57,0.46,1.03,1.03,1.03c0.57,0,1.03-0.46,1.03-1.03
	C88.21,36.62,87.75,36.16,87.18,36.16z"/>
<path d="M93.55,36.16c-0.57,0-1.03,0.46-1.03,1.03c0,0.57,0.46,1.03,1.03,1.03s1.03-0.46,1.03-1.03
	C94.58,36.62,94.12,36.16,93.55,36.16z"/>
<path d="M99.92,36.16c-0.57,0-1.03,0.46-1.03,1.03c0,0.57,0.46,1.03,1.03,1.03c0.57,0,1.03-0.46,1.03-1.03
	C100.95,36.62,100.49,36.16,99.92,36.16z"/>
<path d="M83.97,40.91c-0.57,0-1.03,0.46-1.03,1.03c0,0.57,0.46,1.03,1.03,1.03c0.57,0,1.03-0.46,1.03-1.03
	C85,41.38,84.54,40.91,83.97,40.91z"/>
<path d="M90.35,40.91c-0.57,0-1.03,0.46-1.03,1.03c0,0.57,0.46,1.03,1.03,1.03c0.57,0,1.03-0.46,1.03-1.03
	C91.38,41.38,90.91,40.91,90.35,40.91z"/>
<path d="M96.72,40.91c-0.57,0-1.03,0.46-1.03,1.03c0,0.57,0.46,1.03,1.03,1.03c0.57,0,1.03-0.46,1.03-1.03
	C97.75,41.38,97.29,40.91,96.72,40.91z"/>
<path d="M103.09,40.91c-0.57,0-1.03,0.46-1.03,1.03c0,0.57,0.46,1.03,1.03,1.03c0.57,0,1.03-0.46,1.03-1.03
	C104.12,41.38,103.66,40.91,103.09,40.91z"/>
<path d="M87.18,45.67c-0.57,0-1.03,0.46-1.03,1.03c0,0.57,0.46,1.03,1.03,1.03c0.57,0,1.03-0.46,1.03-1.03
	C88.21,46.13,87.75,45.67,87.18,45.67z"/>
<path d="M93.55,45.67c-0.57,0-1.03,0.46-1.03,1.03c0,0.57,0.46,1.03,1.03,1.03s1.03-0.46,1.03-1.03
	C94.58,46.13,94.12,45.67,93.55,45.67z"/>
<path d="M99.92,45.67c-0.57,0-1.03,0.46-1.03,1.03c0,0.57,0.46,1.03,1.03,1.03c0.57,0,1.03-0.46,1.03-1.03
	C100.95,46.13,100.49,45.67,99.92,45.67z"/>
<path d="M83.97,50.42c-0.57,0-1.03,0.46-1.03,1.03c0,0.57,0.46,1.03,1.03,1.03c0.57,0,1.03-0.46,1.03-1.03
	C85,50.88,84.54,50.42,83.97,50.42z"/>
<path d="M90.35,50.42c-0.57,0-1.03,0.46-1.03,1.03c0,0.57,0.46,1.03,1.03,1.03c0.57,0,1.03-0.46,1.03-1.03
	C91.38,50.88,90.91,50.42,90.35,50.42z"/>
<path d="M96.72,50.42c-0.57,0-1.03,0.46-1.03,1.03c0,0.57,0.46,1.03,1.03,1.03c0.57,0,1.03-0.46,1.03-1.03
	C97.75,50.88,97.29,50.42,96.72,50.42z"/>
<path d="M103.09,50.42c-0.57,0-1.03,0.46-1.03,1.03c0,0.57,0.46,1.03,1.03,1.03c0.57,0,1.03-0.46,1.03-1.03
	C104.12,50.88,103.66,50.42,103.09,50.42z"/>
<path d="M87.18,55.17c-0.57,0-1.03,0.46-1.03,1.03c0,0.57,0.46,1.03,1.03,1.03c0.57,0,1.03-0.46,1.03-1.03
	C88.21,55.63,87.75,55.17,87.18,55.17z"/>
<path d="M93.55,55.17c-0.57,0-1.03,0.46-1.03,1.03c0,0.57,0.46,1.03,1.03,1.03s1.03-0.46,1.03-1.03
	C94.58,55.63,94.12,55.17,93.55,55.17z"/>
<path d="M99.92,55.17c-0.57,0-1.03,0.46-1.03,1.03c0,0.57,0.46,1.03,1.03,1.03c0.57,0,1.03-0.46,1.03-1.03
	C100.95,55.63,100.49,55.17,99.92,55.17z"/>
<path d="M83.97,59.92c-0.57,0-1.03,0.46-1.03,1.03c0,0.57,0.46,1.03,1.03,1.03c0.57,0,1.03-0.46,1.03-1.03
	C85,60.39,84.54,59.92,83.97,59.92z"/>
<path d="M90.35,59.92c-0.57,0-1.03,0.46-1.03,1.03c0,0.57,0.46,1.03,1.03,1.03c0.57,0,1.03-0.46,1.03-1.03
	C91.38,60.39,90.91,59.92,90.35,59.92z"/>
<path d="M96.72,59.92c-0.57,0-1.03,0.46-1.03,1.03c0,0.57,0.46,1.03,1.03,1.03c0.57,0,1.03-0.46,1.03-1.03
	C97.75,60.39,97.29,59.92,96.72,59.92z"/>
<path d="M103.09,59.92c-0.57,0-1.03,0.46-1.03,1.03c0,0.57,0.46,1.03,1.03,1.03c0.57,0,1.03-0.46,1.03-1.03
	C104.12,60.39,103.66,59.92,103.09,59.92z"/>
<path d="M87.18,64.68c-0.57,0-1.03,0.46-1.03,1.03c0,0.57,0.46,1.03,1.03,1.03c0.57,0,1.03-0.46,1.03-1.03
	C88.21,65.14,87.75,64.68,87.18,64.68z"/>
<path d="M93.55,64.68c-0.57,0-1.03,0.46-1.03,1.03c0,0.57,0.46,1.03,1.03,1.03s1.03-0.46,1.03-1.03
	C94.58,65.14,94.12,64.68,93.55,64.68z"/>
<path d="M99.92,64.68c-0.57,0-1.03,0.46-1.03,1.03c0,0.57,0.46,1.03,1.03,1.03c0.57,0,1.03-0.46,1.03-1.03
	C100.95,65.14,100.49,64.68,99.92,64.68z"/>
<path d="M83.97,69.43c-0.57,0-1.03,0.46-1.03,1.03s0.46,1.03,1.03,1.03c0.57,0,1.03-0.46,1.03-1.03S84.54,69.43,83.97,69.43z"/>
<path d="M90.35,69.43c-0.57,0-1.03,0.46-1.03,1.03s0.46,1.03,1.03,1.03c0.57,0,1.03-0.46,1.03-1.03S90.91,69.43,90.35,69.43z"/>
<path d="M96.72,69.43c-0.57,0-1.03,0.46-1.03,1.03s0.46,1.03,1.03,1.03c0.57,0,1.03-0.46,1.03-1.03S97.29,69.43,96.72,69.43z"/>
<path d="M103.09,69.43c-0.57,0-1.03,0.46-1.03,1.03s0.46,1.03,1.03,1.03c0.57,0,1.03-0.46,1.03-1.03S103.66,69.43,103.09,69.43z"/>
<path d="M80.8,74.18c-0.57,0-1.03,0.46-1.03,1.03c0,0.57,0.46,1.03,1.03,1.03c0.57,0,1.03-0.46,1.03-1.03
	C81.84,74.64,81.37,74.18,80.8,74.18z"/>
<path d="M87.18,74.18c-0.57,0-1.03,0.46-1.03,1.03c0,0.57,0.46,1.03,1.03,1.03c0.57,0,1.03-0.46,1.03-1.03
	C88.21,74.64,87.75,74.18,87.18,74.18z"/>
<path d="M93.55,74.18c-0.57,0-1.03,0.46-1.03,1.03c0,0.57,0.46,1.03,1.03,1.03s1.03-0.46,1.03-1.03
	C94.58,74.64,94.12,74.18,93.55,74.18z"/>
<path d="M99.92,74.18c-0.57,0-1.03,0.46-1.03,1.03c0,0.57,0.46,1.03,1.03,1.03c0.57,0,1.03-0.46,1.03-1.03
	C100.95,74.64,100.49,74.18,99.92,74.18z"/>
<g>
	<ellipse class="st1" cx="65.03" cy="56.04" rx="13.28" ry="37.09"/>
	<path d="M65.04,93.98c-7.93,0-14.13-16.67-14.13-37.94c0-21.28,6.21-37.94,14.13-37.94c7.92,0,14.13,16.67,14.13,37.94
		C79.17,77.31,72.96,93.98,65.04,93.98z M65.04,19.79c-6.74,0-12.43,16.6-12.43,36.24s5.69,36.24,12.43,36.24
		c6.74,0,12.43-16.6,12.43-36.24S71.77,19.79,65.04,19.79z"/>
</g>
<path class="st2" d="M57.15,36.05c-0.39,0-0.71,0.51-0.71,1.15c0,0.63,0.32,1.14,0.71,1.14c0.39,0,0.71-0.51,0.71-1.14
	C57.86,36.56,57.54,36.05,57.15,36.05z"/>
<path class="st2" d="M61.09,36.05c-0.39,0-0.71,0.51-0.71,1.15c0,0.63,0.32,1.14,0.71,1.14s0.71-0.51,0.71-1.14
	C61.79,36.56,61.47,36.05,61.09,36.05z"/>
<path class="st2" d="M65.02,36.05c-0.39,0-0.71,0.51-0.71,1.15c0,0.63,0.32,1.14,0.71,1.14s0.71-0.51,0.71-1.14
	C65.73,36.56,65.41,36.05,65.02,36.05z"/>
<path class="st2" d="M68.96,36.05c-0.39,0-0.71,0.51-0.71,1.15c0,0.63,0.32,1.14,0.71,1.14c0.39,0,0.71-0.51,0.71-1.14
	C69.67,36.56,69.35,36.05,68.96,36.05z"/>
<path class="st2" d="M72.89,36.05c-0.39,0-0.71,0.51-0.71,1.15c0,0.63,0.32,1.14,0.71,1.14c0.39,0,0.71-0.51,0.71-1.14
	C73.6,36.56,73.28,36.05,72.89,36.05z"/>
<path class="st2" d="M59.1,40.8c-0.39,0-0.71,0.51-0.71,1.15c0,0.63,0.32,1.15,0.71,1.15s0.71-0.51,0.71-1.15
	C59.81,41.31,59.49,40.8,59.1,40.8z"/>
<path class="st2" d="M63.04,40.8c-0.39,0-0.71,0.51-0.71,1.15c0,0.63,0.32,1.15,0.71,1.15s0.71-0.51,0.71-1.15
	C63.75,41.31,63.43,40.8,63.04,40.8z"/>
<path class="st2" d="M66.98,40.8c-0.39,0-0.71,0.51-0.71,1.15c0,0.63,0.32,1.15,0.71,1.15s0.71-0.51,0.71-1.15
	C67.69,41.31,67.37,40.8,66.98,40.8z"/>
<path class="st2" d="M70.92,40.8c-0.39,0-0.71,0.51-0.71,1.15c0,0.63,0.32,1.15,0.71,1.15c0.39,0,0.71-0.51,0.71-1.15
	C71.62,41.31,71.3,40.8,70.92,40.8z"/>
<path class="st2" d="M57.15,45.55c-0.39,0-0.71,0.51-0.71,1.15c0,0.63,0.32,1.14,0.71,1.14c0.39,0,0.71-0.51,0.71-1.14
	C57.86,46.07,57.54,45.55,57.15,45.55z"/>
<path class="st2" d="M61.09,45.55c-0.39,0-0.71,0.51-0.71,1.15c0,0.63,0.32,1.14,0.71,1.14s0.71-0.51,0.71-1.14
	C61.79,46.07,61.47,45.55,61.09,45.55z"/>
<path class="st2" d="M65.02,45.55c-0.39,0-0.71,0.51-0.71,1.15c0,0.63,0.32,1.14,0.71,1.14s0.71-0.51,0.71-1.14
	C65.73,46.07,65.41,45.55,65.02,45.55z"/>
<path class="st2" d="M68.96,45.55c-0.39,0-0.71,0.51-0.71,1.15c0,0.63,0.32,1.14,0.71,1.14c0.39,0,0.71-0.51,0.71-1.14
	C69.67,46.07,69.35,45.55,68.96,45.55z"/>
<path class="st2" d="M72.89,45.55c-0.39,0-0.71,0.51-0.71,1.15c0,0.63,0.32,1.14,0.71,1.14c0.39,0,0.71-0.51,0.71-1.14
	C73.6,46.07,73.28,45.55,72.89,45.55z"/>
<path class="st2" d="M61.09,26.54c-0.39,0-0.71,0.51-0.71,1.15c0,0.63,0.32,1.14,0.71,1.14s0.71-0.51,0.71-1.14
	C61.79,27.06,61.47,26.54,61.09,26.54z"/>
<path class="st2" d="M65.02,26.54c-0.39,0-0.71,0.51-0.71,1.15c0,0.63,0.32,1.14,0.71,1.14s0.71-0.51,0.71-1.14
	C65.73,27.06,65.41,26.54,65.02,26.54z"/>
<path class="st2" d="M68.96,26.54c-0.39,0-0.71,0.51-0.71,1.15c0,0.63,0.32,1.14,0.71,1.14c0.39,0,0.71-0.51,0.71-1.14
	C69.67,27.06,69.35,26.54,68.96,26.54z"/>
<path class="st2" d="M59.1,31.29c-0.39,0-0.71,0.51-0.71,1.15c0,0.63,0.32,1.15,0.71,1.15s0.71-0.51,0.71-1.15
	C59.81,31.81,59.49,31.29,59.1,31.29z"/>
<path class="st2" d="M63.04,31.29c-0.39,0-0.71,0.51-0.71,1.15c0,0.63,0.32,1.15,0.71,1.15s0.71-0.51,0.71-1.15
	C63.75,31.81,63.43,31.29,63.04,31.29z"/>
<path class="st2" d="M66.98,31.29c-0.39,0-0.71,0.51-0.71,1.15c0,0.63,0.32,1.15,0.71,1.15s0.71-0.51,0.71-1.15
	C67.69,31.81,67.37,31.29,66.98,31.29z"/>
<path class="st2" d="M70.92,31.29c-0.39,0-0.71,0.51-0.71,1.15c0,0.63,0.32,1.15,0.71,1.15c0.39,0,0.71-0.51,0.71-1.15
	C71.62,31.81,71.3,31.29,70.92,31.29z"/>
<path class="st2" d="M63.04,21.79c-0.39,0-0.71,0.51-0.71,1.15s0.32,1.15,0.71,1.15s0.71-0.51,0.71-1.15S63.43,21.79,63.04,21.79z"
	/>
<path class="st2" d="M66.98,21.79c-0.39,0-0.71,0.51-0.71,1.15s0.32,1.15,0.71,1.15s0.71-0.51,0.71-1.15S67.37,21.79,66.98,21.79z"
	/>
<path class="st2" d="M59.1,50.3c-0.39,0-0.71,0.51-0.71,1.15c0,0.63,0.32,1.15,0.71,1.15s0.71-0.51,0.71-1.15
	C59.81,50.82,59.49,50.3,59.1,50.3z"/>
<path class="st2" d="M63.04,50.3c-0.39,0-0.71,0.51-0.71,1.15c0,0.63,0.32,1.15,0.71,1.15s0.71-0.51,0.71-1.15
	C63.75,50.82,63.43,50.3,63.04,50.3z"/>
<path class="st2" d="M66.98,50.3c-0.39,0-0.71,0.51-0.71,1.15c0,0.63,0.32,1.15,0.71,1.15s0.71-0.51,0.71-1.15
	C67.69,50.82,67.37,50.3,66.98,50.3z"/>
<path class="st2" d="M70.92,50.3c-0.39,0-0.71,0.51-0.71,1.15c0,0.63,0.32,1.15,0.71,1.15c0.39,0,0.71-0.51,0.71-1.15
	C71.62,50.82,71.3,50.3,70.92,50.3z"/>
<path class="st2" d="M74.85,52.6c0.39,0,0.71-0.51,0.71-1.15c0-0.63-0.32-1.15-0.71-1.15c-0.39,0-0.71,0.51-0.71,1.15
	C74.14,52.08,74.46,52.6,74.85,52.6z"/>
<path class="st2" d="M57.15,55.06c-0.39,0-0.71,0.51-0.71,1.15c0,0.63,0.32,1.14,0.71,1.14c0.39,0,0.71-0.51,0.71-1.14
	C57.86,55.57,57.54,55.06,57.15,55.06z"/>
<path class="st2" d="M61.09,55.06c-0.39,0-0.71,0.51-0.71,1.15c0,0.63,0.32,1.14,0.71,1.14s0.71-0.51,0.71-1.14
	C61.79,55.57,61.47,55.06,61.09,55.06z"/>
<path class="st2" d="M65.02,55.06c-0.39,0-0.71,0.51-0.71,1.15c0,0.63,0.32,1.14,0.71,1.14s0.71-0.51,0.71-1.14
	C65.73,55.57,65.41,55.06,65.02,55.06z"/>
<path class="st2" d="M68.96,55.06c-0.39,0-0.71,0.51-0.71,1.15c0,0.63,0.32,1.14,0.71,1.14c0.39,0,0.71-0.51,0.71-1.14
	C69.67,55.57,69.35,55.06,68.96,55.06z"/>
<path class="st2" d="M72.89,55.06c-0.39,0-0.71,0.51-0.71,1.15c0,0.63,0.32,1.14,0.71,1.14c0.39,0,0.71-0.51,0.71-1.14
	C73.6,55.57,73.28,55.06,72.89,55.06z"/>
<path class="st2" d="M59.1,59.81c-0.39,0-0.71,0.51-0.71,1.15c0,0.63,0.32,1.15,0.71,1.15s0.71-0.51,0.71-1.15
	C59.81,60.32,59.49,59.81,59.1,59.81z"/>
<path class="st2" d="M63.04,59.81c-0.39,0-0.71,0.51-0.71,1.15c0,0.63,0.32,1.15,0.71,1.15s0.71-0.51,0.71-1.15
	C63.75,60.32,63.43,59.81,63.04,59.81z"/>
<path class="st2" d="M55.18,50.3c-0.39,0-0.71,0.51-0.71,1.15c0,0.63,0.32,1.15,0.71,1.15s0.71-0.51,0.71-1.15
	C55.89,50.82,55.57,50.3,55.18,50.3z"/>
<path class="st2" d="M55.18,59.81c-0.39,0-0.71,0.51-0.71,1.15c0,0.63,0.32,1.15,0.71,1.15s0.71-0.51,0.71-1.15
	C55.89,60.32,55.57,59.81,55.18,59.81z"/>
<path class="st2" d="M66.98,59.81c-0.39,0-0.71,0.51-0.71,1.15c0,0.63,0.32,1.15,0.71,1.15s0.71-0.51,0.71-1.15
	C67.69,60.32,67.37,59.81,66.98,59.81z"/>
<path class="st2" d="M70.92,59.81c-0.39,0-0.71,0.51-0.71,1.15c0,0.63,0.32,1.15,0.71,1.15c0.39,0,0.71-0.51,0.71-1.15
	C71.62,60.32,71.3,59.81,70.92,59.81z"/>
<path class="st2" d="M74.85,62.1c0.39,0,0.71-0.51,0.71-1.15c0-0.63-0.32-1.15-0.71-1.15c-0.39,0-0.71,0.51-0.71,1.15
	C74.14,61.59,74.46,62.1,74.85,62.1z"/>
<path class="st2" d="M57.15,64.56c-0.39,0-0.71,0.51-0.71,1.15c0,0.63,0.32,1.14,0.71,1.14c0.39,0,0.71-0.51,0.71-1.14
	C57.86,65.08,57.54,64.56,57.15,64.56z"/>
<path class="st2" d="M61.09,64.56c-0.39,0-0.71,0.51-0.71,1.15c0,0.63,0.32,1.14,0.71,1.14s0.71-0.51,0.71-1.14
	C61.79,65.08,61.47,64.56,61.09,64.56z"/>
<path class="st2" d="M65.02,64.56c-0.39,0-0.71,0.51-0.71,1.15c0,0.63,0.32,1.14,0.71,1.14s0.71-0.51,0.71-1.14
	C65.73,65.08,65.41,64.56,65.02,64.56z"/>
<path class="st2" d="M68.96,64.56c-0.39,0-0.71,0.51-0.71,1.15c0,0.63,0.32,1.14,0.71,1.14c0.39,0,0.71-0.51,0.71-1.14
	C69.67,65.08,69.35,64.56,68.96,64.56z"/>
<path class="st2" d="M72.89,64.56c-0.39,0-0.71,0.51-0.71,1.15c0,0.63,0.32,1.14,0.71,1.14c0.39,0,0.71-0.51,0.71-1.14
	C73.6,65.08,73.28,64.56,72.89,64.56z"/>
<path class="st2" d="M59.1,69.31c-0.39,0-0.71,0.51-0.71,1.15s0.32,1.15,0.71,1.15s0.71-0.51,0.71-1.15S59.49,69.31,59.1,69.31z"/>
<path class="st2" d="M63.04,69.31c-0.39,0-0.71,0.51-0.71,1.15s0.32,1.15,0.71,1.15s0.71-0.51,0.71-1.15S63.43,69.31,63.04,69.31z"
	/>
<path class="st2" d="M66.98,69.31c-0.39,0-0.71,0.51-0.71,1.15s0.32,1.15,0.71,1.15s0.71-0.51,0.71-1.15S67.37,69.31,66.98,69.31z"
	/>
<path class="st2" d="M70.92,69.31c-0.39,0-0.71,0.51-0.71,1.15s0.32,1.15,0.71,1.15c0.39,0,0.71-0.51,0.71-1.15
	S71.3,69.31,70.92,69.31z"/>
<path class="st2" d="M57.15,74.07c-0.39,0-0.71,0.51-0.71,1.15c0,0.63,0.32,1.14,0.71,1.14c0.39,0,0.71-0.51,0.71-1.14
	C57.86,74.58,57.54,74.07,57.15,74.07z"/>
<path class="st2" d="M61.09,74.07c-0.39,0-0.71,0.51-0.71,1.15c0,0.63,0.32,1.14,0.71,1.14s0.71-0.51,0.71-1.14
	C61.79,74.58,61.47,74.07,61.09,74.07z"/>
<path class="st2" d="M65.02,74.07c-0.39,0-0.71,0.51-0.71,1.15c0,0.63,0.32,1.14,0.71,1.14s0.71-0.51,0.71-1.14
	C65.73,74.58,65.41,74.07,65.02,74.07z"/>
<path class="st2" d="M68.96,74.07c-0.39,0-0.71,0.51-0.71,1.15c0,0.63,0.32,1.14,0.71,1.14c0.39,0,0.71-0.51,0.71-1.14
	C69.67,74.58,69.35,74.07,68.96,74.07z"/>
<path class="st2" d="M72.89,74.07c-0.39,0-0.71,0.51-0.71,1.15c0,0.63,0.32,1.14,0.71,1.14c0.39,0,0.71-0.51,0.71-1.14
	C73.6,74.58,73.28,74.07,72.89,74.07z"/>
<path class="st2" d="M59.1,78.82c-0.39,0-0.71,0.51-0.71,1.15s0.32,1.15,0.71,1.15s0.71-0.51,0.71-1.15S59.49,78.82,59.1,78.82z"/>
<path class="st2" d="M63.04,78.82c-0.39,0-0.71,0.51-0.71,1.15s0.32,1.15,0.71,1.15s0.71-0.51,0.71-1.15S63.43,78.82,63.04,78.82z"
	/>
<path class="st2" d="M66.98,78.82c-0.39,0-0.71,0.51-0.71,1.15s0.32,1.15,0.71,1.15s0.71-0.51,0.71-1.15S67.37,78.82,66.98,78.82z"
	/>
<path class="st2" d="M68.96,83.57c-0.39,0-0.71,0.51-0.71,1.15c0,0.63,0.32,1.14,0.71,1.14c0.39,0,0.71-0.51,0.71-1.14
	C69.67,84.09,69.35,83.57,68.96,83.57z"/>
<path class="st2" d="M66.98,88.33c-0.39,0-0.71,0.51-0.71,1.15c0,0.63,0.32,1.15,0.71,1.15s0.71-0.51,0.71-1.15
	C67.69,88.84,67.37,88.33,66.98,88.33z"/>
<path class="st2" d="M63.04,88.33c-0.39,0-0.71,0.51-0.71,1.15c0,0.63,0.32,1.15,0.71,1.15s0.71-0.51,0.71-1.15
	C63.75,88.84,63.43,88.33,63.04,88.33z"/>
<path class="st2" d="M70.92,78.82c-0.39,0-0.71,0.51-0.71,1.15s0.32,1.15,0.71,1.15c0.39,0,0.71-0.51,0.71-1.15
	S71.3,78.82,70.92,78.82z"/>
<path class="st2" d="M61.09,83.57c-0.39,0-0.71,0.51-0.71,1.15c0,0.63,0.32,1.14,0.71,1.14s0.71-0.51,0.71-1.14
	C61.79,84.09,61.47,83.57,61.09,83.57z"/>
<path class="st2" d="M65.02,83.57c-0.39,0-0.71,0.51-0.71,1.15c0,0.63,0.32,1.14,0.71,1.14s0.71-0.51,0.71-1.14
	C65.73,84.09,65.41,83.57,65.02,83.57z"/>
</svg>
