<?xml version="1.0" encoding="utf-8"?>
<!-- Generator: Adobe Illustrator 23.0.3, SVG Export Plug-In . SVG Version: 6.00 Build 0)  -->
<svg version="1.1" id="Ebene_1" xmlns="http://www.w3.org/2000/svg" xmlns:xlink="http://www.w3.org/1999/xlink" x="0px" y="0px"
	 viewBox="0 0 113.39 113.39" style="enable-background:new 0 0 113.39 113.39;" xml:space="preserve">
<style type="text/css">
	.st0{fill:none;stroke:#FFFFFF;stroke-width:0.8504;stroke-linecap:round;stroke-miterlimit:10;}
	.st1{fill:#009FE3;}
	.st2{fill:#1D1D1B;}
	.st3{fill:#FFFFFF;}
</style>
<line class="st0" x1="10.22" y1="59.92" x2="59.44" y2="68.76"/>
<g>
	<path class="st1" d="M46.92,75.63c1.83,0,9.2,0,9.2,0v18.03c0,0-6.19,0-9.2,0s-3-2.54-3-4.16s0-8.56,0-10.07
		C43.91,76.71,45.42,75.63,46.92,75.63z"/>
	<path class="st2" d="M84.48,94.08c-0.04,0-0.07,0-0.11-0.01c-0.23-0.06-0.36-0.29-0.3-0.52l13.42-50.29
		c0.06-0.21,0.09-0.44,0.09-0.68c0-1.38-1.24-2.58-2.66-2.58H79.64c-0.01,0-0.02,0-0.03,0c-1.17,0-2.21,1.22-2.51,2.37l-7.48,27.37
		c-0.06,0.23-0.29,0.36-0.52,0.3c-0.23-0.06-0.36-0.3-0.3-0.52l7.48-27.37c0.4-1.49,1.8-2.99,3.37-2.99h15.28
		c1.87,0,3.5,1.6,3.5,3.43c0,0.31-0.04,0.61-0.12,0.9L84.89,93.76C84.84,93.96,84.67,94.08,84.48,94.08z"/>
	<path class="st2" d="M94.64,39.99c-0.04,0-0.08-0.01-0.12-0.02c-0.23-0.06-0.36-0.3-0.29-0.53l1.89-6.56
		c0.37-1.37-0.45-2.78-1.83-3.15l-6.27-1.68c-0.67-0.18-1.36-0.09-1.96,0.26c-0.6,0.34-1.02,0.9-1.2,1.57l-1.25,4.65
		c-0.06,0.23-0.29,0.36-0.52,0.3c-0.23-0.06-0.36-0.29-0.3-0.52l1.25-4.65c0.24-0.89,0.81-1.62,1.6-2.08s1.72-0.58,2.6-0.34
		l6.27,1.68c1.83,0.49,2.91,2.37,2.43,4.2l-1.89,6.56C95,39.87,94.83,39.99,94.64,39.99z"/>
	<path class="st2" d="M84.48,94.08H46.92c-1.89,0-3.43-1.54-3.43-3.43V78.63c0-1.89,1.54-3.43,3.43-3.43h20.85
		c3.44,0,8.17,2.46,11.76,6.13c0.16,0.17,0.16,0.44-0.01,0.6c-0.17,0.17-0.44,0.16-0.6-0.01c-3.45-3.52-7.93-5.88-11.15-5.88H46.92
		c-1.42,0-2.58,1.16-2.58,2.58v12.02c0,1.42,1.16,2.58,2.58,2.58h37.56c0.23,0,0.42,0.19,0.42,0.42S84.71,94.08,84.48,94.08z"/>
	<path class="st2" d="M56.11,94.08c-0.23,0-0.43-0.19-0.43-0.42V75.63c0-0.23,0.19-0.42,0.43-0.42s0.43,0.19,0.43,0.42v18.03
		C56.54,93.89,56.35,94.08,56.11,94.08z"/>
	<circle class="st2" cx="40.66" cy="77.96" r="1.09"/>
	<circle class="st2" cx="40.66" cy="82.27" r="1.09"/>
	<circle class="st2" cx="40.66" cy="86.57" r="1.09"/>
	<circle class="st2" cx="40.66" cy="90.88" r="1.09"/>
	<circle class="st2" cx="36.67" cy="75.85" r="0.95"/>
	<circle class="st2" cx="36.67" cy="80.16" r="0.95"/>
	<circle class="st2" cx="36.67" cy="84.47" r="0.95"/>
	<circle class="st2" cx="36.67" cy="88.77" r="0.95"/>
	<circle class="st2" cx="36.67" cy="93.08" r="0.95"/>
	<circle class="st2" cx="32.68" cy="73.75" r="0.8"/>
	<circle class="st2" cx="32.68" cy="78.05" r="0.8"/>
	<circle class="st2" cx="32.68" cy="82.36" r="0.8"/>
	<circle class="st2" cx="32.68" cy="86.66" r="0.8"/>
	<circle class="st2" cx="32.68" cy="90.97" r="0.8"/>
	<circle class="st3" cx="50.89" cy="82.27" r="1.11"/>
	<circle class="st3" cx="50.89" cy="86.57" r="1.11"/>
	<circle class="st3" cx="46.9" cy="80.16" r="1.11"/>
	<circle class="st3" cx="46.9" cy="84.47" r="1.11"/>
	<circle class="st3" cx="46.9" cy="88.77" r="1.11"/>
	<circle class="st2" cx="32.68" cy="95.27" r="0.8"/>
	<circle class="st2" cx="28.69" cy="71.64" r="0.66"/>
	<circle class="st2" cx="28.69" cy="75.94" r="0.66"/>
	<circle class="st2" cx="28.69" cy="80.25" r="0.66"/>
	<circle class="st2" cx="28.69" cy="84.55" r="0.66"/>
	<circle class="st2" cx="28.69" cy="88.86" r="0.66"/>
	<circle class="st2" cx="28.69" cy="93.16" r="0.66"/>
	<circle class="st2" cx="28.69" cy="97.47" r="0.66"/>
	<circle class="st2" cx="24.7" cy="69.53" r="0.58"/>
	<circle class="st2" cx="24.7" cy="73.83" r="0.58"/>
	<circle class="st2" cx="24.7" cy="78.14" r="0.58"/>
	<circle class="st2" cx="24.7" cy="82.44" r="0.58"/>
	<circle class="st2" cx="24.7" cy="86.75" r="0.58"/>
	<circle class="st2" cx="24.7" cy="91.05" r="0.58"/>
	<circle class="st2" cx="24.7" cy="95.36" r="0.58"/>
	<circle class="st2" cx="24.7" cy="99.67" r="0.58"/>
	<circle class="st2" cx="20.71" cy="71.72" r="0.51"/>
	<circle class="st2" cx="20.71" cy="76.03" r="0.51"/>
	<circle class="st2" cx="20.71" cy="80.34" r="0.51"/>
	<circle class="st2" cx="20.71" cy="84.64" r="0.51"/>
	<circle class="st2" cx="20.71" cy="88.95" r="0.51"/>
	<circle class="st2" cx="20.71" cy="93.25" r="0.51"/>
	<circle class="st2" cx="20.71" cy="97.56" r="0.51"/>
	<circle class="st2" cx="16.98" cy="78.14" r="0.51"/>
	<circle class="st2" cx="16.98" cy="82.44" r="0.51"/>
	<circle class="st2" cx="16.98" cy="86.75" r="0.51"/>
	<circle class="st2" cx="16.98" cy="91.05" r="0.51"/>
</g>
<circle class="st1" cx="42.35" cy="37.3" r="23.58"/>
<path class="st1" d="M42.35,63.66c-14.54,0-26.37-11.83-26.37-26.36c0-14.54,11.83-26.37,26.37-26.37S68.72,22.76,68.72,37.3
	S56.89,63.66,42.35,63.66z M42.35,11.78c-14.07,0-25.52,11.45-25.52,25.52s11.45,25.52,25.52,25.52S67.87,51.37,67.87,37.3
	S56.42,11.78,42.35,11.78z"/>
<g>
	<g>
		<g>
			<path class="st3" d="M53.92,53.92c0-0.31-0.25-0.55-0.55-0.55s-0.55,0.25-0.55,0.55c0,0.31,0.25,0.55,0.55,0.55
				C53.68,54.48,53.92,54.23,53.92,53.92z"/>
			<path class="st3" d="M53.37,55.11c-0.66,0-1.19-0.53-1.19-1.19s0.53-1.19,1.19-1.19s1.19,0.53,1.19,1.19
				C54.56,54.58,54.03,55.11,53.37,55.11z M53.37,53.84c-0.05,0-0.09,0.04-0.09,0.08c0,0.09,0.17,0.1,0.17,0
				C53.46,53.88,53.42,53.84,53.37,53.84z"/>
		</g>
	</g>
</g>
<g>
	<g>
		<g>
			<path class="st3" d="M48.35,53.92c0-0.31-0.25-0.55-0.55-0.55s-0.55,0.25-0.55,0.55c0,0.31,0.25,0.55,0.55,0.55
				C48.1,54.48,48.35,54.23,48.35,53.92z"/>
			<path class="st3" d="M47.8,55.11c-0.66,0-1.19-0.53-1.19-1.19s0.53-1.19,1.19-1.19s1.19,0.53,1.19,1.19
				C48.99,54.58,48.45,55.11,47.8,55.11z M47.8,53.84c-0.05,0-0.09,0.04-0.09,0.08c0,0.09,0.17,0.09,0.17,0
				C47.88,53.88,47.84,53.84,47.8,53.84z"/>
		</g>
	</g>
</g>
<g>
	<g>
		<g>
			<path class="st3" d="M42.78,53.92c0-0.31-0.25-0.55-0.55-0.55s-0.55,0.25-0.55,0.55c0,0.31,0.25,0.55,0.55,0.55
				C42.53,54.48,42.78,54.23,42.78,53.92z"/>
			<path class="st3" d="M42.23,55.11c-0.66,0-1.19-0.53-1.19-1.19s0.53-1.19,1.19-1.19s1.19,0.53,1.19,1.19S42.88,55.11,42.23,55.11
				z M42.23,53.84c-0.05,0-0.09,0.04-0.09,0.08c0,0.09,0.17,0.1,0.17,0C42.31,53.88,42.27,53.84,42.23,53.84z"/>
		</g>
	</g>
</g>
<g>
	<g>
		<g>
			<path class="st3" d="M37.21,53.92c0-0.31-0.25-0.55-0.55-0.55s-0.55,0.25-0.55,0.55c0,0.31,0.25,0.55,0.55,0.55
				C36.96,54.48,37.21,54.23,37.21,53.92z"/>
			<path class="st3" d="M36.65,55.11c-0.66,0-1.19-0.53-1.19-1.19s0.53-1.19,1.19-1.19s1.19,0.53,1.19,1.19S37.31,55.11,36.65,55.11
				z M36.65,53.84c-0.05,0-0.09,0.04-0.09,0.08c0,0.09,0.17,0.1,0.17,0C36.74,53.88,36.7,53.84,36.65,53.84z"/>
		</g>
	</g>
</g>
<g>
	<g>
		<g>
			<path class="st3" d="M31.63,53.92c0-0.31-0.25-0.55-0.55-0.55s-0.55,0.25-0.55,0.55c0,0.31,0.25,0.55,0.55,0.55
				C31.39,54.48,31.63,54.23,31.63,53.92z"/>
			<path class="st3" d="M31.08,55.11c-0.66,0-1.19-0.53-1.19-1.19s0.53-1.19,1.19-1.19s1.19,0.53,1.19,1.19S31.74,55.11,31.08,55.11
				z M31.08,53.84c-0.05,0-0.09,0.04-0.09,0.08c0,0.09,0.17,0.09,0.17,0C31.17,53.88,31.13,53.84,31.08,53.84z"/>
		</g>
	</g>
</g>
<g>
	<g>
		<g>
			<path class="st3" d="M56.72,49.77c0-0.31-0.25-0.55-0.55-0.55s-0.55,0.25-0.55,0.55c0,0.31,0.25,0.55,0.55,0.55
				C56.48,50.32,56.72,50.07,56.72,49.77z"/>
			<path class="st3" d="M56.17,50.96c-0.66,0-1.19-0.53-1.19-1.19s0.53-1.19,1.19-1.19s1.19,0.53,1.19,1.19
				C57.36,50.42,56.83,50.96,56.17,50.96z M56.17,49.68c-0.05,0-0.09,0.04-0.09,0.08c0,0.09,0.17,0.09,0.17,0
				C56.26,49.72,56.22,49.68,56.17,49.68z"/>
		</g>
	</g>
</g>
<g>
	<g>
		<g>
			<path class="st3" d="M51.15,49.77c0-0.31-0.25-0.55-0.55-0.55s-0.55,0.25-0.55,0.55c0,0.31,0.25,0.55,0.55,0.55
				C50.91,50.32,51.15,50.07,51.15,49.77z"/>
			<path class="st3" d="M50.6,50.96c-0.66,0-1.19-0.53-1.19-1.19s0.53-1.19,1.19-1.19s1.19,0.53,1.19,1.19
				C51.79,50.42,51.26,50.96,50.6,50.96z M50.6,49.68c-0.05,0-0.09,0.04-0.09,0.08c0,0.09,0.17,0.09,0.17,0
				C50.69,49.72,50.65,49.68,50.6,49.68z"/>
		</g>
	</g>
</g>
<g>
	<g>
		<g>
			<path class="st3" d="M45.58,49.77c0-0.31-0.25-0.55-0.55-0.55s-0.55,0.25-0.55,0.55c0,0.31,0.25,0.55,0.55,0.55
				S45.58,50.07,45.58,49.77z"/>
			<path class="st3" d="M45.03,50.96c-0.66,0-1.19-0.53-1.19-1.19s0.53-1.19,1.19-1.19s1.19,0.53,1.19,1.19
				C46.22,50.42,45.68,50.96,45.03,50.96z M45.03,49.68c-0.05,0-0.09,0.04-0.09,0.08c0,0.09,0.17,0.09,0.17,0
				C45.11,49.72,45.08,49.68,45.03,49.68z"/>
		</g>
	</g>
</g>
<g>
	<g>
		<g>
			<path class="st3" d="M40.01,49.77c0-0.31-0.25-0.55-0.55-0.55s-0.55,0.25-0.55,0.55c0,0.31,0.25,0.55,0.55,0.55
				S40.01,50.07,40.01,49.77z"/>
			<path class="st3" d="M39.46,50.96c-0.66,0-1.19-0.53-1.19-1.19s0.53-1.19,1.19-1.19s1.19,0.53,1.19,1.19
				C40.65,50.42,40.11,50.96,39.46,50.96z M39.46,49.68c-0.05,0-0.09,0.04-0.09,0.08c0,0.09,0.17,0.09,0.17,0
				C39.54,49.72,39.5,49.68,39.46,49.68z"/>
		</g>
	</g>
</g>
<g>
	<g>
		<g>
			<path class="st3" d="M34.44,49.77c0-0.31-0.25-0.55-0.55-0.55s-0.55,0.25-0.55,0.55c0,0.31,0.25,0.55,0.55,0.55
				S34.44,50.07,34.44,49.77z"/>
			<path class="st3" d="M33.88,50.96c-0.66,0-1.19-0.53-1.19-1.19s0.53-1.19,1.19-1.19s1.19,0.53,1.19,1.19
				C35.07,50.42,34.54,50.96,33.88,50.96z M33.88,49.68c-0.05,0-0.09,0.04-0.09,0.08c0,0.09,0.17,0.09,0.17,0
				C33.97,49.72,33.93,49.68,33.88,49.68z"/>
		</g>
	</g>
</g>
<g>
	<g>
		<g>
			<path class="st3" d="M28.86,49.77c0-0.31-0.25-0.55-0.55-0.55s-0.55,0.25-0.55,0.55c0,0.31,0.25,0.55,0.55,0.55
				C28.62,50.32,28.86,50.07,28.86,49.77z"/>
			<path class="st3" d="M28.31,50.96c-0.66,0-1.19-0.53-1.19-1.19s0.53-1.19,1.19-1.19s1.19,0.53,1.19,1.19
				C29.5,50.42,28.97,50.96,28.31,50.96z M28.31,49.68c-0.05,0-0.09,0.04-0.09,0.08c0,0.09,0.17,0.09,0.17,0
				C28.4,49.72,28.36,49.68,28.31,49.68z"/>
		</g>
	</g>
</g>
<g>
	<g>
		<g>
			<path class="st3" d="M59.53,45.61c0-0.31-0.25-0.55-0.55-0.55s-0.55,0.25-0.55,0.55c0,0.31,0.25,0.55,0.55,0.55
				C59.28,46.17,59.53,45.92,59.53,45.61z"/>
			<path class="st3" d="M58.97,46.8c-0.66,0-1.19-0.53-1.19-1.19s0.53-1.19,1.19-1.19s1.19,0.53,1.19,1.19S59.63,46.8,58.97,46.8z
				 M58.97,45.53c-0.05,0-0.09,0.04-0.09,0.08c0,0.09,0.17,0.09,0.17,0C59.06,45.57,59.02,45.53,58.97,45.53z"/>
		</g>
	</g>
</g>
<g>
	<g>
		<g>
			<path class="st3" d="M53.95,45.61c0-0.31-0.25-0.55-0.55-0.55s-0.55,0.25-0.55,0.55c0,0.31,0.25,0.55,0.55,0.55
				C53.71,46.17,53.95,45.92,53.95,45.61z"/>
			<path class="st3" d="M53.4,46.8c-0.66,0-1.19-0.53-1.19-1.19s0.53-1.19,1.19-1.19s1.19,0.53,1.19,1.19S54.06,46.8,53.4,46.8z
				 M53.4,45.53c-0.05,0-0.09,0.04-0.09,0.08c0,0.09,0.17,0.09,0.17,0C53.49,45.57,53.45,45.53,53.4,45.53z"/>
		</g>
	</g>
</g>
<g>
	<g>
		<g>
			<path class="st3" d="M48.38,45.61c0-0.31-0.25-0.55-0.55-0.55s-0.55,0.25-0.55,0.55c0,0.31,0.25,0.55,0.55,0.55
				C48.14,46.17,48.38,45.92,48.38,45.61z"/>
			<path class="st3" d="M47.83,46.8c-0.66,0-1.19-0.53-1.19-1.19s0.53-1.19,1.19-1.19s1.19,0.53,1.19,1.19S48.49,46.8,47.83,46.8z
				 M47.83,45.53c-0.05,0-0.09,0.04-0.09,0.08c0,0.09,0.17,0.09,0.17,0C47.92,45.57,47.88,45.53,47.83,45.53z"/>
		</g>
	</g>
</g>
<g>
	<g>
		<g>
			<path class="st3" d="M42.81,45.61c0-0.31-0.25-0.55-0.55-0.55s-0.55,0.25-0.55,0.55c0,0.31,0.25,0.55,0.55,0.55
				C42.56,46.17,42.81,45.92,42.81,45.61z"/>
			<path class="st3" d="M42.26,46.8c-0.66,0-1.19-0.53-1.19-1.19s0.53-1.19,1.19-1.19s1.19,0.53,1.19,1.19S42.91,46.8,42.26,46.8z
				 M42.26,45.53c-0.05,0-0.09,0.04-0.09,0.08c0,0.09,0.17,0.09,0.17,0C42.34,45.57,42.31,45.53,42.26,45.53z"/>
		</g>
	</g>
</g>
<g>
	<g>
		<g>
			<path class="st3" d="M37.24,45.61c0-0.31-0.25-0.55-0.55-0.55s-0.55,0.25-0.55,0.55c0,0.31,0.25,0.55,0.55,0.55
				C36.99,46.17,37.24,45.92,37.24,45.61z"/>
			<path class="st3" d="M36.69,46.8c-0.66,0-1.19-0.53-1.19-1.19s0.53-1.19,1.19-1.19s1.19,0.53,1.19,1.19S37.34,46.8,36.69,46.8z
				 M36.69,45.53c-0.05,0-0.09,0.04-0.09,0.08c0,0.09,0.17,0.09,0.17,0C36.77,45.57,36.73,45.53,36.69,45.53z"/>
		</g>
	</g>
</g>
<g>
	<g>
		<g>
			<path class="st3" d="M31.67,45.61c0-0.31-0.25-0.55-0.55-0.55s-0.55,0.25-0.55,0.55c0,0.31,0.25,0.55,0.55,0.55
				C31.42,46.17,31.67,45.92,31.67,45.61z"/>
			<path class="st3" d="M31.11,46.8c-0.66,0-1.19-0.53-1.19-1.19s0.53-1.19,1.19-1.19s1.19,0.53,1.19,1.19S31.77,46.8,31.11,46.8z
				 M31.11,45.53c-0.05,0-0.09,0.04-0.09,0.08c0,0.09,0.17,0.09,0.17,0C31.2,45.57,31.16,45.53,31.11,45.53z"/>
		</g>
	</g>
</g>
<g>
	<g>
		<g>
			<path class="st3" d="M26.09,45.61c0-0.31-0.25-0.55-0.55-0.55s-0.55,0.25-0.55,0.55c0,0.31,0.25,0.55,0.55,0.55
				C25.85,46.17,26.09,45.92,26.09,45.61z"/>
			<path class="st3" d="M25.54,46.8c-0.66,0-1.19-0.53-1.19-1.19s0.53-1.19,1.19-1.19s1.19,0.53,1.19,1.19S26.2,46.8,25.54,46.8z
				 M25.54,45.53c-0.05,0-0.09,0.04-0.09,0.08c0,0.09,0.17,0.09,0.17,0C25.63,45.57,25.59,45.53,25.54,45.53z"/>
		</g>
	</g>
</g>
<g>
	<g>
		<g>
			<path class="st3" d="M62.33,41.46c0-0.31-0.25-0.55-0.55-0.55s-0.55,0.25-0.55,0.55c0,0.31,0.25,0.55,0.55,0.55
				S62.33,41.76,62.33,41.46z"/>
			<path class="st3" d="M61.78,42.65c-0.66,0-1.19-0.53-1.19-1.19s0.53-1.19,1.19-1.19s1.19,0.53,1.19,1.19S62.43,42.65,61.78,42.65
				z M61.78,41.37c-0.05,0-0.09,0.04-0.09,0.08c0,0.09,0.17,0.09,0.17,0C61.86,41.41,61.82,41.37,61.78,41.37z"/>
		</g>
	</g>
</g>
<g>
	<g>
		<g>
			<path class="st3" d="M56.76,41.46c0-0.31-0.25-0.55-0.55-0.55s-0.55,0.25-0.55,0.55c0,0.31,0.25,0.55,0.55,0.55
				S56.76,41.76,56.76,41.46z"/>
			<path class="st3" d="M56.21,42.65c-0.66,0-1.19-0.53-1.19-1.19s0.53-1.19,1.19-1.19s1.19,0.53,1.19,1.19S56.86,42.65,56.21,42.65
				z M56.21,41.37c-0.05,0-0.09,0.04-0.09,0.08c0,0.09,0.17,0.09,0.17,0C56.29,41.41,56.25,41.37,56.21,41.37z"/>
		</g>
	</g>
</g>
<g>
	<g>
		<g>
			<path class="st3" d="M51.18,41.46c0-0.31-0.25-0.55-0.55-0.55s-0.55,0.25-0.55,0.55c0,0.31,0.25,0.55,0.55,0.55
				C50.94,42.01,51.18,41.76,51.18,41.46z"/>
			<path class="st3" d="M50.63,42.65c-0.66,0-1.19-0.53-1.19-1.19s0.53-1.19,1.19-1.19s1.19,0.53,1.19,1.19S51.29,42.65,50.63,42.65
				z M50.63,41.37c-0.05,0-0.09,0.04-0.09,0.08c0,0.09,0.17,0.09,0.17,0C50.72,41.41,50.68,41.37,50.63,41.37z"/>
		</g>
	</g>
</g>
<g>
	<g>
		<g>
			<path class="st3" d="M45.61,41.46c0-0.31-0.25-0.55-0.55-0.55s-0.55,0.25-0.55,0.55c0,0.31,0.25,0.55,0.55,0.55
				C45.37,42.01,45.61,41.76,45.61,41.46z"/>
			<path class="st3" d="M45.06,42.65c-0.66,0-1.19-0.53-1.19-1.19s0.53-1.19,1.19-1.19s1.19,0.53,1.19,1.19S45.72,42.65,45.06,42.65
				z M45.06,41.37c-0.05,0-0.09,0.04-0.09,0.08c0,0.09,0.17,0.09,0.17,0C45.15,41.41,45.11,41.37,45.06,41.37z"/>
		</g>
	</g>
</g>
<g>
	<g>
		<g>
			<path class="st3" d="M40.04,41.46c0-0.31-0.25-0.55-0.55-0.55s-0.55,0.25-0.55,0.55c0,0.31,0.25,0.55,0.55,0.55
				S40.04,41.76,40.04,41.46z"/>
			<path class="st3" d="M39.49,42.65c-0.66,0-1.19-0.53-1.19-1.19s0.53-1.19,1.19-1.19s1.19,0.53,1.19,1.19S40.14,42.65,39.49,42.65
				z M39.49,41.37c-0.05,0-0.09,0.04-0.09,0.08c0,0.09,0.17,0.09,0.17,0C39.57,41.41,39.54,41.37,39.49,41.37z"/>
		</g>
	</g>
</g>
<g>
	<g>
		<g>
			<path class="st3" d="M34.47,41.46c0-0.31-0.25-0.55-0.55-0.55s-0.55,0.25-0.55,0.55c0,0.31,0.25,0.55,0.55,0.55
				S34.47,41.76,34.47,41.46z"/>
			<path class="st3" d="M33.92,42.65c-0.66,0-1.19-0.53-1.19-1.19s0.53-1.19,1.19-1.19s1.19,0.53,1.19,1.19S34.57,42.65,33.92,42.65
				z M33.92,41.37c-0.05,0-0.09,0.04-0.09,0.08c0,0.09,0.17,0.09,0.17,0C34,41.41,33.96,41.37,33.92,41.37z"/>
		</g>
	</g>
</g>
<g>
	<g>
		<g>
			<path class="st3" d="M28.9,41.46c0-0.31-0.25-0.55-0.55-0.55s-0.55,0.25-0.55,0.55c0,0.31,0.25,0.55,0.55,0.55
				S28.9,41.76,28.9,41.46z"/>
			<path class="st3" d="M28.34,42.65c-0.66,0-1.19-0.53-1.19-1.19s0.53-1.19,1.19-1.19s1.19,0.53,1.19,1.19S29,42.65,28.34,42.65z
				 M28.34,41.37c-0.05,0-0.09,0.04-0.09,0.08c0,0.09,0.17,0.09,0.17,0C28.43,41.41,28.39,41.37,28.34,41.37z"/>
		</g>
	</g>
</g>
<g>
	<g>
		<g>
			<path class="st3" d="M23.32,41.46c0-0.31-0.25-0.55-0.55-0.55s-0.55,0.25-0.55,0.55c0,0.31,0.25,0.55,0.55,0.55
				C23.08,42.01,23.32,41.76,23.32,41.46z"/>
			<path class="st3" d="M22.77,42.65c-0.66,0-1.19-0.53-1.19-1.19s0.53-1.19,1.19-1.19s1.19,0.53,1.19,1.19S23.43,42.65,22.77,42.65
				z M22.77,41.37c-0.05,0-0.09,0.04-0.09,0.08c0,0.09,0.17,0.09,0.17,0C22.86,41.41,22.82,41.37,22.77,41.37z"/>
		</g>
	</g>
</g>
<g>
	<g>
		<g>
			<path class="st3" d="M59.56,37.3c0-0.31-0.25-0.55-0.55-0.55S58.46,37,58.46,37.3c0,0.31,0.25,0.55,0.55,0.55
				C59.31,37.86,59.56,37.61,59.56,37.3z"/>
			<path class="st3" d="M59.01,38.49c-0.66,0-1.19-0.53-1.19-1.19s0.53-1.19,1.19-1.19s1.19,0.53,1.19,1.19S59.66,38.49,59.01,38.49
				z M59.01,37.22c-0.05,0-0.09,0.04-0.09,0.08c0,0.09,0.17,0.09,0.17,0C59.09,37.26,59.05,37.22,59.01,37.22z"/>
		</g>
	</g>
</g>
<g>
	<g>
		<g>
			<path class="st3" d="M53.99,37.3c0-0.31-0.25-0.55-0.55-0.55S52.89,37,52.89,37.3c0,0.31,0.25,0.55,0.55,0.55
				C53.74,37.86,53.99,37.61,53.99,37.3z"/>
			<path class="st3" d="M53.44,38.49c-0.66,0-1.19-0.53-1.19-1.19s0.53-1.19,1.19-1.19s1.19,0.53,1.19,1.19S54.09,38.49,53.44,38.49
				z M53.44,37.22c-0.05,0-0.09,0.04-0.09,0.08c0,0.09,0.17,0.1,0.17,0C53.52,37.26,53.48,37.22,53.44,37.22z"/>
		</g>
	</g>
</g>
<g>
	<g>
		<g>
			<path class="st3" d="M48.42,37.3c0-0.31-0.25-0.55-0.55-0.55S47.32,37,47.32,37.3c0,0.31,0.25,0.55,0.55,0.55
				C48.17,37.86,48.42,37.61,48.42,37.3z"/>
			<path class="st3" d="M47.86,38.49c-0.66,0-1.19-0.53-1.19-1.19s0.53-1.19,1.19-1.19s1.19,0.53,1.19,1.19S48.52,38.49,47.86,38.49
				z M47.86,37.22c-0.05,0-0.09,0.04-0.09,0.08c0,0.09,0.17,0.09,0.17,0C47.95,37.26,47.91,37.22,47.86,37.22z"/>
		</g>
	</g>
</g>
<g>
	<g>
		<g>
			<path class="st3" d="M42.84,37.3c0-0.31-0.25-0.55-0.55-0.55S41.74,37,41.74,37.3c0,0.31,0.25,0.55,0.55,0.55
				C42.6,37.86,42.84,37.61,42.84,37.3z"/>
			<path class="st3" d="M42.29,38.49c-0.66,0-1.19-0.53-1.19-1.19s0.53-1.19,1.19-1.19s1.19,0.53,1.19,1.19S42.95,38.49,42.29,38.49
				z M42.29,37.22c-0.05,0-0.09,0.04-0.09,0.08c0,0.09,0.17,0.1,0.17,0C42.38,37.26,42.34,37.22,42.29,37.22z"/>
		</g>
	</g>
</g>
<g>
	<g>
		<g>
			<path class="st3" d="M37.27,37.3c0-0.31-0.25-0.55-0.55-0.55S36.17,37,36.17,37.3c0,0.31,0.25,0.55,0.55,0.55
				C37.03,37.86,37.27,37.61,37.27,37.3z"/>
			<path class="st3" d="M36.72,38.49c-0.66,0-1.19-0.53-1.19-1.19s0.53-1.19,1.19-1.19s1.19,0.53,1.19,1.19S37.38,38.49,36.72,38.49
				z M36.72,37.22c-0.05,0-0.09,0.04-0.09,0.08c0,0.09,0.17,0.1,0.17,0C36.8,37.26,36.77,37.22,36.72,37.22z"/>
		</g>
	</g>
</g>
<g>
	<g>
		<g>
			<path class="st3" d="M31.7,37.3c0-0.31-0.25-0.55-0.55-0.55S30.6,37,30.6,37.3c0,0.31,0.25,0.55,0.55,0.55
				C31.45,37.86,31.7,37.61,31.7,37.3z"/>
			<path class="st3" d="M31.15,38.49c-0.66,0-1.19-0.53-1.19-1.19s0.53-1.19,1.19-1.19s1.19,0.53,1.19,1.19S31.8,38.49,31.15,38.49z
				 M31.15,37.22c-0.05,0-0.09,0.04-0.09,0.08c0,0.09,0.17,0.09,0.17,0C31.23,37.26,31.19,37.22,31.15,37.22z"/>
		</g>
	</g>
</g>
<g>
	<g>
		<g>
			<path class="st3" d="M26.13,37.3c0-0.31-0.25-0.55-0.55-0.55S25.03,37,25.03,37.3c0,0.31,0.25,0.55,0.55,0.55
				C25.88,37.86,26.13,37.61,26.13,37.3z"/>
			<path class="st3" d="M25.58,38.49c-0.66,0-1.19-0.53-1.19-1.19s0.53-1.19,1.19-1.19s1.19,0.53,1.19,1.19S26.23,38.49,25.58,38.49
				z M25.58,37.22c-0.05,0-0.09,0.04-0.09,0.08c0,0.09,0.17,0.1,0.17,0C25.66,37.26,25.62,37.22,25.58,37.22z"/>
		</g>
	</g>
</g>
<g>
	<g>
		<g>
			<path class="st3" d="M62.36,33.15c0-0.31-0.25-0.55-0.55-0.55s-0.55,0.25-0.55,0.55c0,0.31,0.25,0.55,0.55,0.55
				C62.12,33.7,62.36,33.45,62.36,33.15z"/>
			<path class="st3" d="M61.81,34.34c-0.66,0-1.19-0.53-1.19-1.19s0.53-1.19,1.19-1.19S63,32.49,63,33.15
				C63,33.8,62.47,34.34,61.81,34.34z M61.81,33.06c-0.05,0-0.09,0.04-0.09,0.08c0,0.09,0.17,0.09,0.17,0
				C61.9,33.1,61.86,33.06,61.81,33.06z"/>
		</g>
	</g>
</g>
<g>
	<g>
		<g>
			<path class="st3" d="M56.79,33.15c0-0.31-0.25-0.55-0.55-0.55s-0.55,0.25-0.55,0.55c0,0.31,0.25,0.55,0.55,0.55
				S56.79,33.45,56.79,33.15z"/>
			<path class="st3" d="M56.24,34.34c-0.66,0-1.19-0.53-1.19-1.19s0.53-1.19,1.19-1.19s1.19,0.53,1.19,1.19
				C57.43,33.8,56.89,34.34,56.24,34.34z M56.24,33.06c-0.05,0-0.09,0.04-0.09,0.08c0,0.09,0.17,0.09,0.17,0
				C56.32,33.1,56.29,33.06,56.24,33.06z"/>
		</g>
	</g>
</g>
<g>
	<g>
		<g>
			<path class="st3" d="M51.22,33.15c0-0.31-0.25-0.55-0.55-0.55s-0.55,0.25-0.55,0.55c0,0.31,0.25,0.55,0.55,0.55
				S51.22,33.45,51.22,33.15z"/>
			<path class="st3" d="M50.67,34.34c-0.66,0-1.19-0.53-1.19-1.19s0.53-1.19,1.19-1.19s1.19,0.53,1.19,1.19
				C51.86,33.8,51.32,34.34,50.67,34.34z M50.67,33.06c-0.05,0-0.09,0.04-0.09,0.08c0,0.09,0.17,0.09,0.17,0
				C50.75,33.1,50.71,33.06,50.67,33.06z"/>
		</g>
	</g>
</g>
<g>
	<g>
		<g>
			<path class="st3" d="M45.65,33.15c0-0.31-0.25-0.55-0.55-0.55s-0.55,0.25-0.55,0.55c0,0.31,0.25,0.55,0.55,0.55
				S45.65,33.45,45.65,33.15z"/>
			<path class="st3" d="M45.09,34.34c-0.66,0-1.19-0.53-1.19-1.19s0.53-1.19,1.19-1.19s1.19,0.53,1.19,1.19
				C46.28,33.8,45.75,34.34,45.09,34.34z M45.09,33.06c-0.05,0-0.09,0.04-0.09,0.08c0,0.09,0.17,0.09,0.17,0
				C45.18,33.1,45.14,33.06,45.09,33.06z"/>
		</g>
	</g>
</g>
<g>
	<g>
		<g>
			<path class="st3" d="M40.07,33.15c0-0.31-0.25-0.55-0.55-0.55s-0.55,0.25-0.55,0.55c0,0.31,0.25,0.55,0.55,0.55
				C39.83,33.7,40.07,33.45,40.07,33.15z"/>
			<path class="st3" d="M39.52,34.34c-0.66,0-1.19-0.53-1.19-1.19s0.53-1.19,1.19-1.19s1.19,0.53,1.19,1.19
				C40.71,33.8,40.18,34.34,39.52,34.34z M39.52,33.06c-0.05,0-0.09,0.04-0.09,0.08c0,0.09,0.17,0.09,0.17,0
				C39.61,33.1,39.57,33.06,39.52,33.06z"/>
		</g>
	</g>
</g>
<g>
	<g>
		<g>
			<path class="st3" d="M34.5,33.15c0-0.31-0.25-0.55-0.55-0.55s-0.55,0.25-0.55,0.55c0,0.31,0.25,0.55,0.55,0.55
				C34.26,33.7,34.5,33.45,34.5,33.15z"/>
			<path class="st3" d="M33.95,34.34c-0.66,0-1.19-0.53-1.19-1.19s0.53-1.19,1.19-1.19s1.19,0.53,1.19,1.19
				C35.14,33.8,34.61,34.34,33.95,34.34z M33.95,33.06c-0.05,0-0.09,0.04-0.09,0.08c0,0.09,0.17,0.09,0.17,0
				C34.04,33.1,34,33.06,33.95,33.06z"/>
		</g>
	</g>
</g>
<g>
	<g>
		<g>
			<path class="st3" d="M28.93,33.15c0-0.31-0.25-0.55-0.55-0.55s-0.55,0.25-0.55,0.55c0,0.31,0.25,0.55,0.55,0.55
				S28.93,33.45,28.93,33.15z"/>
			<path class="st3" d="M28.38,34.34c-0.66,0-1.19-0.53-1.19-1.19s0.53-1.19,1.19-1.19s1.19,0.53,1.19,1.19
				C29.57,33.8,29.03,34.34,28.38,34.34z M28.38,33.06c-0.05,0-0.09,0.04-0.09,0.08c0,0.09,0.17,0.09,0.17,0
				C28.46,33.1,28.42,33.06,28.38,33.06z"/>
		</g>
	</g>
</g>
<g>
	<g>
		<g>
			<path class="st3" d="M23.36,33.15c0-0.31-0.25-0.55-0.55-0.55s-0.55,0.25-0.55,0.55c0,0.31,0.25,0.55,0.55,0.55
				S23.36,33.45,23.36,33.15z"/>
			<path class="st3" d="M22.81,34.34c-0.66,0-1.19-0.53-1.19-1.19s0.53-1.19,1.19-1.19S24,32.49,24,33.15
				C24,33.8,23.46,34.34,22.81,34.34z M22.81,33.06c-0.05,0-0.09,0.04-0.09,0.08c0,0.09,0.17,0.09,0.17,0
				C22.89,33.1,22.85,33.06,22.81,33.06z"/>
		</g>
	</g>
</g>
<g>
	<g>
		<g>
			<path class="st3" d="M59.59,28.99c0-0.31-0.25-0.55-0.55-0.55s-0.55,0.25-0.55,0.55c0,0.31,0.25,0.55,0.55,0.55
				C59.35,29.55,59.59,29.3,59.59,28.99z"/>
			<path class="st3" d="M59.04,30.18c-0.66,0-1.19-0.53-1.19-1.19s0.53-1.19,1.19-1.19s1.19,0.53,1.19,1.19S59.7,30.18,59.04,30.18z
				 M59.04,28.91c-0.05,0-0.09,0.04-0.09,0.08c0,0.09,0.17,0.09,0.17,0C59.13,28.95,59.09,28.91,59.04,28.91z"/>
		</g>
	</g>
</g>
<g>
	<g>
		<g>
			<path class="st3" d="M54.02,28.99c0-0.31-0.25-0.55-0.55-0.55s-0.55,0.25-0.55,0.55c0,0.31,0.25,0.55,0.55,0.55
				C53.77,29.55,54.02,29.3,54.02,28.99z"/>
			<path class="st3" d="M53.47,30.18c-0.66,0-1.19-0.53-1.19-1.19s0.53-1.19,1.19-1.19s1.19,0.53,1.19,1.19S54.12,30.18,53.47,30.18
				z M53.47,28.91c-0.05,0-0.09,0.04-0.09,0.08c0,0.09,0.17,0.1,0.17,0C53.55,28.95,53.52,28.91,53.47,28.91z"/>
		</g>
	</g>
</g>
<g>
	<g>
		<g>
			<path class="st3" d="M48.45,28.99c0-0.31-0.25-0.55-0.55-0.55s-0.55,0.25-0.55,0.55c0,0.31,0.25,0.55,0.55,0.55
				C48.2,29.55,48.45,29.3,48.45,28.99z"/>
			<path class="st3" d="M47.9,30.18c-0.66,0-1.19-0.53-1.19-1.19s0.53-1.19,1.19-1.19s1.19,0.53,1.19,1.19S48.55,30.18,47.9,30.18z
				 M47.9,28.91c-0.05,0-0.09,0.04-0.09,0.08c0,0.09,0.17,0.1,0.17,0C47.98,28.95,47.94,28.91,47.9,28.91z"/>
		</g>
	</g>
</g>
<g>
	<g>
		<g>
			<path class="st3" d="M42.88,28.99c0-0.31-0.25-0.55-0.55-0.55s-0.55,0.25-0.55,0.55c0,0.31,0.25,0.55,0.55,0.55
				C42.63,29.55,42.88,29.3,42.88,28.99z"/>
			<path class="st3" d="M42.32,30.18c-0.66,0-1.19-0.53-1.19-1.19s0.53-1.19,1.19-1.19s1.19,0.53,1.19,1.19S42.98,30.18,42.32,30.18
				z M42.32,28.91c-0.05,0-0.09,0.04-0.09,0.08c0,0.09,0.17,0.09,0.17,0C42.41,28.95,42.37,28.91,42.32,28.91z"/>
		</g>
	</g>
</g>
<g>
	<g>
		<g>
			<path class="st3" d="M37.3,28.99c0-0.31-0.25-0.55-0.55-0.55s-0.55,0.25-0.55,0.55c0,0.31,0.25,0.55,0.55,0.55
				C37.06,29.55,37.3,29.3,37.3,28.99z"/>
			<path class="st3" d="M36.75,30.18c-0.66,0-1.19-0.53-1.19-1.19s0.53-1.19,1.19-1.19s1.19,0.53,1.19,1.19S37.41,30.18,36.75,30.18
				z M36.75,28.91c-0.05,0-0.09,0.04-0.09,0.08c0,0.09,0.17,0.1,0.17,0C36.84,28.95,36.8,28.91,36.75,28.91z"/>
		</g>
	</g>
</g>
<g>
	<g>
		<g>
			<path class="st3" d="M31.73,28.99c0-0.31-0.25-0.55-0.55-0.55s-0.55,0.25-0.55,0.55c0,0.31,0.25,0.55,0.55,0.55
				C31.49,29.55,31.73,29.3,31.73,28.99z"/>
			<path class="st3" d="M31.18,30.18c-0.66,0-1.19-0.53-1.19-1.19s0.53-1.19,1.19-1.19s1.19,0.53,1.19,1.19S31.84,30.18,31.18,30.18
				z M31.18,28.91c-0.05,0-0.09,0.04-0.09,0.08c0,0.09,0.17,0.1,0.17,0C31.27,28.95,31.23,28.91,31.18,28.91z"/>
		</g>
	</g>
</g>
<g>
	<g>
		<g>
			<path class="st3" d="M26.16,28.99c0-0.31-0.25-0.55-0.55-0.55s-0.55,0.25-0.55,0.55c0,0.31,0.25,0.55,0.55,0.55
				C25.91,29.55,26.16,29.3,26.16,28.99z"/>
			<path class="st3" d="M25.61,30.18c-0.66,0-1.19-0.53-1.19-1.19s0.53-1.19,1.19-1.19s1.19,0.53,1.19,1.19
				C26.8,29.65,26.26,30.18,25.61,30.18z M25.61,28.91c-0.05,0-0.09,0.04-0.09,0.08c0,0.09,0.17,0.09,0.17,0
				C25.69,28.95,25.66,28.91,25.61,28.91z"/>
		</g>
	</g>
</g>
<g>
	<g>
		<g>
			<path class="st3" d="M56.82,24.84c0-0.31-0.25-0.55-0.55-0.55s-0.55,0.25-0.55,0.55c0,0.31,0.25,0.55,0.55,0.55
				C56.58,25.39,56.82,25.14,56.82,24.84z"/>
			<path class="st3" d="M56.27,26.03c-0.66,0-1.19-0.53-1.19-1.19s0.53-1.19,1.19-1.19s1.19,0.53,1.19,1.19S56.93,26.03,56.27,26.03
				z M56.27,24.75c-0.05,0-0.09,0.04-0.09,0.08c0,0.09,0.17,0.09,0.17,0C56.36,24.79,56.32,24.75,56.27,24.75z"/>
		</g>
	</g>
</g>
<g>
	<g>
		<g>
			<path class="st3" d="M51.25,24.84c0-0.31-0.25-0.55-0.55-0.55s-0.55,0.25-0.55,0.55c0,0.31,0.25,0.55,0.55,0.55
				C51.01,25.39,51.25,25.14,51.25,24.84z"/>
			<path class="st3" d="M50.7,26.03c-0.66,0-1.19-0.53-1.19-1.19s0.53-1.19,1.19-1.19s1.19,0.53,1.19,1.19S51.35,26.03,50.7,26.03z
				 M50.7,24.75c-0.05,0-0.09,0.04-0.09,0.08c0,0.09,0.17,0.09,0.17,0C50.78,24.79,50.75,24.75,50.7,24.75z"/>
		</g>
	</g>
</g>
<g>
	<g>
		<g>
			<path class="st3" d="M45.68,24.84c0-0.31-0.25-0.55-0.55-0.55s-0.55,0.25-0.55,0.55c0,0.31,0.25,0.55,0.55,0.55
				S45.68,25.14,45.68,24.84z"/>
			<path class="st3" d="M45.13,26.03c-0.66,0-1.19-0.53-1.19-1.19s0.53-1.19,1.19-1.19s1.19,0.53,1.19,1.19S45.78,26.03,45.13,26.03
				z M45.13,24.75c-0.05,0-0.09,0.04-0.09,0.08c0,0.09,0.17,0.09,0.17,0C45.21,24.79,45.17,24.75,45.13,24.75z"/>
		</g>
	</g>
</g>
<g>
	<g>
		<g>
			<path class="st3" d="M40.11,24.84c0-0.31-0.25-0.55-0.55-0.55s-0.55,0.25-0.55,0.55c0,0.31,0.25,0.55,0.55,0.55
				S40.11,25.14,40.11,24.84z"/>
			<path class="st3" d="M39.56,26.03c-0.66,0-1.19-0.53-1.19-1.19s0.53-1.19,1.19-1.19s1.19,0.53,1.19,1.19S40.21,26.03,39.56,26.03
				z M39.56,24.75c-0.05,0-0.09,0.04-0.09,0.08c0,0.09,0.17,0.09,0.17,0C39.64,24.79,39.6,24.75,39.56,24.75z"/>
		</g>
	</g>
</g>
<g>
	<g>
		<g>
			<path class="st3" d="M34.53,24.84c0-0.31-0.25-0.55-0.55-0.55s-0.55,0.25-0.55,0.55c0,0.31,0.25,0.55,0.55,0.55
				C34.29,25.39,34.53,25.14,34.53,24.84z"/>
			<path class="st3" d="M33.98,26.03c-0.66,0-1.19-0.53-1.19-1.19s0.53-1.19,1.19-1.19s1.19,0.53,1.19,1.19S34.64,26.03,33.98,26.03
				z M33.98,24.75c-0.05,0-0.09,0.04-0.09,0.08c0,0.09,0.17,0.09,0.17,0C34.07,24.79,34.03,24.75,33.98,24.75z"/>
		</g>
	</g>
</g>
<g>
	<g>
		<g>
			<path class="st3" d="M28.96,24.84c0-0.31-0.25-0.55-0.55-0.55s-0.55,0.25-0.55,0.55c0,0.31,0.25,0.55,0.55,0.55
				C28.72,25.39,28.96,25.14,28.96,24.84z"/>
			<path class="st3" d="M28.41,26.03c-0.66,0-1.19-0.53-1.19-1.19s0.53-1.19,1.19-1.19s1.19,0.53,1.19,1.19S29.07,26.03,28.41,26.03
				z M28.41,24.75c-0.05,0-0.09,0.04-0.09,0.08c0,0.09,0.17,0.09,0.17,0C28.5,24.79,28.46,24.75,28.41,24.75z"/>
		</g>
	</g>
</g>
<g>
	<g>
		<g>
			<path class="st3" d="M54.05,20.68c0-0.31-0.25-0.55-0.55-0.55s-0.55,0.25-0.55,0.55c0,0.31,0.25,0.55,0.55,0.55
				C53.81,21.23,54.05,20.99,54.05,20.68z"/>
			<path class="st3" d="M53.5,21.87c-0.66,0-1.19-0.53-1.19-1.19s0.53-1.19,1.19-1.19s1.19,0.53,1.19,1.19S54.16,21.87,53.5,21.87z
				 M53.5,20.6c-0.05,0-0.09,0.04-0.09,0.08c0,0.09,0.17,0.09,0.17,0C53.59,20.64,53.55,20.6,53.5,20.6z"/>
		</g>
	</g>
</g>
<g>
	<g>
		<g>
			<path class="st3" d="M48.48,20.68c0-0.31-0.25-0.55-0.55-0.55s-0.55,0.25-0.55,0.55c0,0.31,0.25,0.55,0.55,0.55
				C48.24,21.23,48.48,20.99,48.48,20.68z"/>
			<path class="st3" d="M47.93,21.87c-0.66,0-1.19-0.53-1.19-1.19s0.53-1.19,1.19-1.19s1.19,0.53,1.19,1.19S48.59,21.87,47.93,21.87
				z M47.93,20.6c-0.05,0-0.09,0.04-0.09,0.08c0,0.09,0.17,0.09,0.17,0C48.02,20.64,47.98,20.6,47.93,20.6z"/>
		</g>
	</g>
</g>
<g>
	<g>
		<g>
			<path class="st3" d="M42.91,20.68c0-0.31-0.25-0.55-0.55-0.55s-0.55,0.25-0.55,0.55c0,0.31,0.25,0.55,0.55,0.55
				S42.91,20.99,42.91,20.68z"/>
			<path class="st3" d="M42.36,21.87c-0.66,0-1.19-0.53-1.19-1.19s0.53-1.19,1.19-1.19s1.19,0.53,1.19,1.19S43.01,21.87,42.36,21.87
				z M42.36,20.6c-0.05,0-0.09,0.04-0.09,0.08c0,0.09,0.17,0.09,0.17,0C42.44,20.64,42.4,20.6,42.36,20.6z"/>
		</g>
	</g>
</g>
<g>
	<g>
		<g>
			<path class="st3" d="M37.34,20.68c0-0.31-0.25-0.55-0.55-0.55s-0.55,0.25-0.55,0.55c0,0.31,0.25,0.55,0.55,0.55
				S37.34,20.99,37.34,20.68z"/>
			<path class="st3" d="M36.79,21.87c-0.66,0-1.19-0.53-1.19-1.19s0.53-1.19,1.19-1.19s1.19,0.53,1.19,1.19S37.44,21.87,36.79,21.87
				z M36.79,20.6c-0.05,0-0.09,0.04-0.09,0.08c0,0.09,0.17,0.09,0.17,0C36.87,20.64,36.83,20.6,36.79,20.6z"/>
		</g>
	</g>
</g>
<g>
	<g>
		<g>
			<path class="st3" d="M31.76,20.68c0-0.31-0.25-0.55-0.55-0.55s-0.55,0.25-0.55,0.55c0,0.31,0.25,0.55,0.55,0.55
				C31.52,21.23,31.76,20.99,31.76,20.68z"/>
			<path class="st3" d="M31.21,21.87c-0.66,0-1.19-0.53-1.19-1.19s0.53-1.19,1.19-1.19s1.19,0.53,1.19,1.19S31.87,21.87,31.21,21.87
				z M31.21,20.6c-0.05,0-0.09,0.04-0.09,0.08c0,0.09,0.17,0.09,0.17,0C31.3,20.64,31.26,20.6,31.21,20.6z"/>
		</g>
	</g>
</g>
<g>
	<g>
		<g>
			<path class="st3" d="M45.71,16.53c0-0.31-0.25-0.55-0.55-0.55s-0.55,0.25-0.55,0.55c0,0.31,0.25,0.55,0.55,0.55
				C45.47,17.08,45.71,16.83,45.71,16.53z"/>
			<path class="st3" d="M45.16,17.72c-0.66,0-1.19-0.53-1.19-1.19c0-0.66,0.53-1.19,1.19-1.19s1.19,0.53,1.19,1.19
				S45.82,17.72,45.16,17.72z M45.16,16.44c-0.05,0-0.09,0.04-0.09,0.08c0,0.09,0.17,0.09,0.17,0
				C45.25,16.48,45.21,16.44,45.16,16.44z"/>
		</g>
	</g>
</g>
<g>
	<g>
		<g>
			<path class="st3" d="M40.14,16.53c0-0.31-0.25-0.55-0.55-0.55s-0.55,0.25-0.55,0.55c0,0.31,0.25,0.55,0.55,0.55
				S40.14,16.83,40.14,16.53z"/>
			<path class="st3" d="M39.59,17.72c-0.66,0-1.19-0.53-1.19-1.19c0-0.66,0.53-1.19,1.19-1.19s1.19,0.53,1.19,1.19
				S40.24,17.72,39.59,17.72z M39.59,16.44c-0.05,0-0.09,0.04-0.09,0.08c0,0.09,0.17,0.09,0.17,0
				C39.67,16.48,39.64,16.44,39.59,16.44z"/>
		</g>
	</g>
</g>
<g>
	<g>
		<g>
			<path class="st3" d="M45.71,57.9c0-0.31-0.25-0.55-0.55-0.55s-0.55,0.25-0.55,0.55c0,0.31,0.25,0.55,0.55,0.55
				C45.47,58.45,45.71,58.21,45.71,57.9z"/>
			<path class="st3" d="M45.16,59.09c-0.66,0-1.19-0.53-1.19-1.19s0.53-1.19,1.19-1.19s1.19,0.53,1.19,1.19S45.82,59.09,45.16,59.09
				z M45.16,57.82c-0.05,0-0.09,0.04-0.09,0.08c0,0.09,0.17,0.09,0.17,0C45.25,57.85,45.21,57.82,45.16,57.82z"/>
		</g>
	</g>
</g>
<g>
	<g>
		<g>
			<path class="st3" d="M40.14,57.9c0-0.31-0.25-0.55-0.55-0.55s-0.55,0.25-0.55,0.55c0,0.31,0.25,0.55,0.55,0.55
				S40.14,58.21,40.14,57.9z"/>
			<path class="st3" d="M39.59,59.09c-0.66,0-1.19-0.53-1.19-1.19s0.53-1.19,1.19-1.19s1.19,0.53,1.19,1.19S40.24,59.09,39.59,59.09
				z M39.59,57.82c-0.05,0-0.09,0.04-0.09,0.08c0,0.09,0.17,0.09,0.17,0C39.67,57.85,39.64,57.82,39.59,57.82z"/>
		</g>
	</g>
</g>
</svg>
