<?xml version="1.0" encoding="utf-8"?>
<!-- Generator: Adobe Illustrator 23.0.3, SVG Export Plug-In . SVG Version: 6.00 Build 0)  -->
<svg version="1.1" id="Ebene_1" xmlns="http://www.w3.org/2000/svg" xmlns:xlink="http://www.w3.org/1999/xlink" x="0px" y="0px"
	 viewBox="0 0 113.39 113.39" style="enable-background:new 0 0 113.39 113.39;" xml:space="preserve">
<style type="text/css">
	.st0{fill:url(#SVGID_1_);}
	.st1{fill:#009FE3;}
	.st2{fill:#FFFFFF;}
	.st3{fill:#1D1D1B;}
	.st4{fill:url(#SVGID_2_);}
	.st5{fill:url(#SVGID_3_);}
	.st6{fill:url(#SVGID_4_);}
	.st7{fill:url(#SVGID_5_);}
	.st8{fill:url(#SVGID_6_);}
	.st9{fill:url(#SVGID_7_);}
	.st10{fill:url(#SVGID_8_);}
	.st11{fill:url(#SVGID_9_);}
	.st12{fill:none;stroke:#FFFFFF;stroke-width:1.7008;stroke-linecap:round;stroke-miterlimit:10;}
</style>
<linearGradient id="SVGID_1_" gradientUnits="userSpaceOnUse" x1="9.87" y1="57.0498" x2="103.15" y2="57.0498" gradientTransform="matrix(1 0 0 -1 0 113.8898)">
	<stop  offset="0" style="stop-color:#009FE3;stop-opacity:0.6"/>
	<stop  offset="0.8607" style="stop-color:#009FE3;stop-opacity:0"/>
</linearGradient>
<circle class="st0" cx="56.51" cy="56.84" r="46.64"/>
<polygon class="st1" points="37.96,35.2 42.31,36.57 42.31,101.2 37.96,99.63 "/>
<polygon class="st1" points="37.96,35.2 42.31,36.57 95.76,14.79 91.31,13.61 "/>
<path class="st2" d="M95.76,91.81V14.79L42.31,36.57v64.63c0,0,3.36,2.48,14.47,2.48C81.62,103.68,95.76,91.81,95.76,91.81z"/>
<path class="st3" d="M37.96,35.63c-0.17,0-0.33-0.1-0.39-0.27c-0.09-0.22,0.02-0.47,0.23-0.55l53.36-21.6
	c0.09-0.03,0.18-0.04,0.27-0.02l4.44,1.18c0.23,0.06,0.36,0.29,0.3,0.52c-0.06,0.23-0.29,0.36-0.52,0.3l-4.31-1.15L38.12,35.6
	C38.07,35.62,38.01,35.63,37.96,35.63z"/>
<path class="st3" d="M42.31,101.62c-0.23,0-0.43-0.19-0.43-0.42V36.57c0-0.17,0.1-0.33,0.26-0.39L95.6,14.4
	c0.13-0.05,0.28-0.04,0.4,0.04s0.19,0.21,0.19,0.35v44.59c0,0.23-0.19,0.42-0.42,0.42s-0.42-0.19-0.42-0.42V15.42L42.74,36.86v64.34
	C42.74,101.43,42.55,101.62,42.31,101.62z"/>
<radialGradient id="SVGID_2_" cx="24.54" cy="63.0698" r="8.63" gradientTransform="matrix(1 0 0 -1 0 113.8898)" gradientUnits="userSpaceOnUse">
	<stop  offset="0.2973" style="stop-color:#FFFFFF"/>
	<stop  offset="0.7141" style="stop-color:#FFFFFF;stop-opacity:0"/>
</radialGradient>
<circle class="st4" cx="24.54" cy="50.82" r="8.63"/>
<radialGradient id="SVGID_3_" cx="24.54" cy="48.6498" r="8.63" gradientTransform="matrix(1 0 0 -1 0 113.8898)" gradientUnits="userSpaceOnUse">
	<stop  offset="0.2973" style="stop-color:#FFFFFF"/>
	<stop  offset="0.7141" style="stop-color:#FFFFFF;stop-opacity:0"/>
</radialGradient>
<circle class="st5" cx="24.54" cy="65.24" r="8.63"/>
<radialGradient id="SVGID_4_" cx="24.54" cy="34.2198" r="8.63" gradientTransform="matrix(1 0 0 -1 0 113.8898)" gradientUnits="userSpaceOnUse">
	<stop  offset="0.2973" style="stop-color:#FFFFFF"/>
	<stop  offset="0.7141" style="stop-color:#FFFFFF;stop-opacity:0"/>
</radialGradient>
<circle class="st6" cx="24.54" cy="79.67" r="8.63"/>
<linearGradient id="SVGID_5_" gradientUnits="userSpaceOnUse" x1="37.9614" y1="47.4531" x2="41.6386" y2="61.1764" gradientTransform="matrix(1 0 0 -1 0 113.8898)">
	<stop  offset="0.0248" style="stop-color:#FFFFFF;stop-opacity:0"/>
	<stop  offset="0.3786" style="stop-color:#FFFFFF"/>
	<stop  offset="0.6295" style="stop-color:#FFFFFF"/>
	<stop  offset="0.9642" style="stop-color:#FFFFFF;stop-opacity:0"/>
</linearGradient>
<rect x="37.75" y="52.77" class="st7" width="4.1" height="13.61"/>
<linearGradient id="SVGID_6_" gradientUnits="userSpaceOnUse" x1="37.9614" y1="33.0831" x2="41.6386" y2="46.8064" gradientTransform="matrix(1 0 0 -1 0 113.8898)">
	<stop  offset="0.0248" style="stop-color:#FFFFFF;stop-opacity:0"/>
	<stop  offset="0.3786" style="stop-color:#FFFFFF"/>
	<stop  offset="0.6295" style="stop-color:#FFFFFF"/>
	<stop  offset="0.9642" style="stop-color:#FFFFFF;stop-opacity:0"/>
</linearGradient>
<rect x="37.75" y="67.14" class="st8" width="4.1" height="13.61"/>
<linearGradient id="SVGID_7_" gradientUnits="userSpaceOnUse" x1="37.9615" y1="18.7131" x2="41.6385" y2="32.4364" gradientTransform="matrix(1 0 0 -1 0 113.8898)">
	<stop  offset="0.0248" style="stop-color:#FFFFFF;stop-opacity:0"/>
	<stop  offset="0.3786" style="stop-color:#FFFFFF"/>
	<stop  offset="0.6295" style="stop-color:#FFFFFF"/>
	<stop  offset="0.9642" style="stop-color:#FFFFFF;stop-opacity:0"/>
</linearGradient>
<rect x="37.75" y="81.51" class="st9" width="4.1" height="13.61"/>
<linearGradient id="SVGID_8_" gradientUnits="userSpaceOnUse" x1="37.9614" y1="61.8131" x2="41.6386" y2="75.5364" gradientTransform="matrix(1 0 0 -1 0 113.8898)">
	<stop  offset="0.0248" style="stop-color:#FFFFFF;stop-opacity:0"/>
	<stop  offset="0.3786" style="stop-color:#FFFFFF"/>
	<stop  offset="0.6295" style="stop-color:#FFFFFF"/>
	<stop  offset="0.9642" style="stop-color:#FFFFFF;stop-opacity:0"/>
</linearGradient>
<rect x="37.75" y="38.41" class="st10" width="4.1" height="13.61"/>
<path class="st3" d="M37.96,100.06c-0.23,0-0.43-0.19-0.43-0.42V35.2c0-0.14,0.06-0.26,0.17-0.34c0.11-0.08,0.25-0.1,0.38-0.06
	l4.35,1.37c0.22,0.07,0.35,0.31,0.28,0.53c-0.07,0.22-0.31,0.35-0.53,0.28l-3.8-1.19v63.85C38.38,99.87,38.19,100.06,37.96,100.06z"
	/>
<path class="st2" d="M32.12,41.56l-0.56,1.61l5.33,1.84l-12.61,5.07c-0.44,0.18-0.65,0.67-0.47,1.11c0.13,0.33,0.45,0.53,0.79,0.53
	c0.11,0,0.21-0.02,0.32-0.06l12.65-5.09l-2.38,4.81l1.52,0.75l3.8-7.68L32.12,41.56z"/>
<path class="st2" d="M32.12,55.92l-0.56,1.61l5.33,1.84l-12.61,5.07c-0.44,0.18-0.65,0.67-0.47,1.11c0.13,0.33,0.45,0.53,0.79,0.53
	c0.11,0,0.21-0.02,0.32-0.06l12.65-5.09l-2.38,4.81l1.52,0.75l3.8-7.68L32.12,55.92z"/>
<path class="st2" d="M32.12,70.27l-0.56,1.61l5.33,1.84l-12.61,5.07c-0.44,0.18-0.65,0.67-0.47,1.11c0.13,0.33,0.45,0.53,0.79,0.53
	c0.11,0,0.21-0.02,0.32-0.06l12.65-5.09l-2.38,4.81l1.52,0.75l3.8-7.68L32.12,70.27z"/>
<radialGradient id="SVGID_9_" cx="24.54" cy="19.9098" r="8.63" gradientTransform="matrix(1 0 0 -1 0 113.8898)" gradientUnits="userSpaceOnUse">
	<stop  offset="0.2973" style="stop-color:#FFFFFF"/>
	<stop  offset="0.7141" style="stop-color:#FFFFFF;stop-opacity:0"/>
</radialGradient>
<circle class="st11" cx="24.54" cy="93.98" r="8.63"/>
<path class="st2" d="M32.12,84.58l-0.56,1.61l5.33,1.84l-12.6,5.07c-0.44,0.18-0.65,0.67-0.47,1.11c0.13,0.33,0.45,0.53,0.79,0.53
	c0.11,0,0.21-0.02,0.32-0.06l12.65-5.09L35.2,94.4l1.52,0.75l3.8-7.68L32.12,84.58z"/>
<path class="st1" d="M98.9,71.44l-1.58,0.63l2.63,6.63L67.66,63.33c-0.43-0.21-0.93-0.02-1.13,0.4c-0.2,0.42-0.02,0.93,0.4,1.13
	l32.3,15.37l-6.81,2.14l0.5,1.63l9.74-3.07L98.9,71.44z"/>
<path class="st1" d="M87.29,55.98l-1.08,1.32l5.53,4.51l-24.46,1.58c-0.47,0.03-0.82,0.43-0.79,0.9c0.03,0.45,0.4,0.8,0.85,0.8
	c0.02,0,0.04,0,0.06,0l24.46-1.58l-4.9,5.19l1.24,1.17l7.02-7.42L87.29,55.98z"/>
<path class="st1" d="M82.86,75.88l-0.89,7.08L68.05,63.59c-0.27-0.38-0.8-0.47-1.19-0.19c-0.38,0.27-0.47,0.81-0.19,1.19
	l13.92,19.37l-7-1.41l-0.33,1.67l10.01,2.01l1.28-10.13L82.86,75.88z"/>
<g>
	<path class="st3" d="M67.23,62.8c-0.06,0-0.12-0.01-0.18-0.03c-0.06-0.03-0.11-0.06-0.16-0.11c-0.09-0.09-0.14-0.21-0.14-0.34
		c0-0.12,0.05-0.25,0.14-0.34c0.05-0.04,0.1-0.08,0.16-0.1c0.11-0.05,0.25-0.05,0.37,0c0.06,0.02,0.11,0.06,0.15,0.1
		c0.05,0.05,0.08,0.1,0.11,0.16c0.02,0.06,0.03,0.12,0.03,0.18c0,0.13-0.05,0.25-0.14,0.34C67.48,62.75,67.36,62.8,67.23,62.8z"/>
	<path class="st3" d="M89.35,88.98L89.35,88.98L89.35,88.98c-0.27-0.01-0.48-0.22-0.47-0.49l0,0c0-0.26,0.22-0.48,0.48-0.47l0,0
		c0.27,0,0.48,0.22,0.48,0.48l0,0C89.84,88.77,89.62,88.98,89.35,88.98L89.35,88.98L89.35,88.98z M91.1,88.44
		c-0.04-0.27,0.15-0.51,0.42-0.54l0,0c0.26-0.03,0.5,0.16,0.53,0.42l0,0c0.03,0.27-0.15,0.51-0.42,0.54l0,0c-0.02,0-0.03,0-0.05,0
		l0,0C91.33,88.86,91.12,88.68,91.1,88.44z M87.08,88.81L87.08,88.81L87.08,88.81c-0.27-0.03-0.45-0.28-0.41-0.54l0,0
		c0.03-0.27,0.27-0.45,0.54-0.41l0,0c0.26,0.03,0.45,0.28,0.41,0.54l0,0c-0.03,0.24-0.24,0.42-0.48,0.42l0,0
		C87.12,88.82,87.1,88.81,87.08,88.81z M93.29,88.09c-0.07-0.26,0.09-0.52,0.35-0.59h-0.01c0.26-0.07,0.52,0.09,0.59,0.34l0,0
		c0.07,0.26-0.08,0.52-0.34,0.59l0,0c-0.04,0.01-0.08,0.02-0.12,0.02l0,0C93.54,88.45,93.35,88.31,93.29,88.09z M84.84,88.37
		c-0.25-0.07-0.41-0.33-0.34-0.58l0,0c0.06-0.26,0.32-0.42,0.58-0.35l0,0c0.26,0.06,0.41,0.33,0.35,0.59l0,0
		c-0.06,0.21-0.25,0.36-0.47,0.36l0,0C84.92,88.39,84.88,88.38,84.84,88.37z M95.42,87.44c-0.11-0.25,0.01-0.53,0.25-0.63l0,0
		c0.24-0.11,0.53,0.01,0.63,0.25l0,0c0.11,0.24-0.01,0.53-0.25,0.63l0,0l0,0l0,0c-0.07,0.03-0.13,0.04-0.19,0.04l0,0
		C95.67,87.73,95.49,87.62,95.42,87.44z M82.67,87.68L82.67,87.68L82.67,87.68c-0.24-0.09-0.37-0.37-0.27-0.62l0,0
		c0.09-0.25,0.37-0.37,0.62-0.28l0,0c0.25,0.1,0.37,0.37,0.28,0.62l0,0c-0.08,0.2-0.26,0.32-0.45,0.32l0,0
		C82.79,87.72,82.73,87.71,82.67,87.68z M80.59,86.77L80.59,86.77L80.59,86.77c-0.23-0.12-0.33-0.4-0.21-0.64l0,0
		c0.12-0.24,0.41-0.34,0.64-0.22h0.01c0.23,0.12,0.33,0.41,0.21,0.65l0,0c-0.08,0.17-0.25,0.26-0.43,0.26l0,0
		C80.74,86.82,80.66,86.81,80.59,86.77z M97.42,86.48c-0.14-0.22-0.07-0.52,0.16-0.66l0,0c0.22-0.14,0.52-0.07,0.66,0.15l0,0
		c0.14,0.23,0.07,0.53-0.16,0.67l0,0l0,0l0,0c-0.07,0.05-0.16,0.07-0.25,0.07l0,0C97.67,86.71,97.51,86.63,97.42,86.48z
		 M78.62,85.66L78.62,85.66L78.62,85.66c-0.23-0.14-0.3-0.43-0.16-0.66l0,0c0.14-0.23,0.44-0.3,0.67-0.15l0,0
		c0.22,0.14,0.29,0.44,0.15,0.66l0,0c-0.09,0.15-0.25,0.23-0.41,0.23l0,0C78.78,85.74,78.7,85.71,78.62,85.66z M99.25,85.23
		c-0.17-0.2-0.15-0.51,0.05-0.68l0,0c0.2-0.18,0.51-0.16,0.68,0.04l0,0c0.17,0.2,0.15,0.51-0.05,0.68l0,0
		c-0.09,0.08-0.2,0.12-0.31,0.12l0,0C99.48,85.39,99.35,85.33,99.25,85.23z M76.75,84.38L76.75,84.38L76.75,84.38
		c-0.21-0.16-0.25-0.46-0.09-0.67l0,0c0.15-0.21,0.46-0.26,0.67-0.1l0,0c0.21,0.16,0.26,0.46,0.1,0.68l0,0
		c-0.1,0.12-0.24,0.19-0.39,0.19l0,0C76.94,84.48,76.84,84.45,76.75,84.38z M100.85,83.69c-0.21-0.17-0.24-0.48-0.07-0.68l0,0
		c0.17-0.21,0.47-0.24,0.68-0.07l0,0c0.21,0.16,0.24,0.46,0.07,0.67l0,0c-0.09,0.12-0.23,0.18-0.38,0.18l0,0
		C101.05,83.79,100.94,83.76,100.85,83.69z M75,82.95c-0.2-0.17-0.22-0.48-0.04-0.68l0,0c0.17-0.2,0.48-0.22,0.68-0.04l0,0
		c0.2,0.18,0.22,0.48,0.04,0.68l0,0c-0.1,0.11-0.23,0.16-0.36,0.16l0,0C75.21,83.07,75.09,83.03,75,82.95z M102.16,81.89
		c-0.24-0.13-0.32-0.42-0.19-0.65l0,0c0.13-0.24,0.42-0.32,0.65-0.19l0,0c0.23,0.12,0.32,0.41,0.19,0.65l0,0
		c-0.08,0.16-0.25,0.25-0.42,0.25l0,0C102.31,81.95,102.23,81.93,102.16,81.89z M73.36,81.37L73.36,81.37L73.36,81.37
		c-0.18-0.2-0.16-0.5,0.04-0.68l0,0c0.2-0.18,0.5-0.16,0.68,0.04l0,0c0.18,0.2,0.16,0.5-0.04,0.68l0,0
		c-0.09,0.08-0.21,0.12-0.32,0.12l0,0C73.59,81.53,73.46,81.48,73.36,81.37z M103.12,79.89c-0.25-0.09-0.38-0.36-0.29-0.62l0,0
		c0.08-0.25,0.36-0.38,0.61-0.29l0,0c0.25,0.08,0.38,0.36,0.3,0.61l0,0c-0.07,0.2-0.26,0.33-0.46,0.33l0,0
		C103.23,79.92,103.18,79.91,103.12,79.89z M71.97,79.55L71.97,79.55L71.97,79.55c-0.15-0.22-0.09-0.52,0.13-0.67l0,0
		c0.22-0.15,0.52-0.09,0.67,0.13l0,0c0.15,0.22,0.09,0.52-0.13,0.67l0,0c-0.08,0.06-0.17,0.08-0.27,0.08l0,0
		C72.22,79.76,72.07,79.69,71.97,79.55z M70.79,77.63c-0.14-0.23-0.06-0.53,0.18-0.66l0,0c0.22-0.13,0.52-0.05,0.65,0.18l0,0
		c0.14,0.23,0.05,0.53-0.18,0.66l0,0c-0.07,0.04-0.15,0.06-0.23,0.06l0,0C71.04,77.87,70.88,77.78,70.79,77.63z M103.77,77.76
		c-0.26-0.05-0.44-0.3-0.38-0.56h-0.01c0.06-0.27,0.31-0.44,0.57-0.39l0,0c0.26,0.05,0.43,0.31,0.38,0.57l0,0l0,0l0,0
		c-0.04,0.23-0.24,0.39-0.47,0.39l0,0C103.83,77.77,103.8,77.77,103.77,77.76z M69.72,75.65c-0.12-0.24-0.03-0.53,0.21-0.65l0,0
		c0.24-0.12,0.52-0.03,0.65,0.21l0,0c0.12,0.24,0.02,0.53-0.21,0.65l0,0c-0.07,0.04-0.15,0.05-0.22,0.05l0,0
		C69.97,75.91,69.8,75.82,69.72,75.65z M104.11,75.57c-0.27-0.02-0.47-0.25-0.45-0.51l0,0c0.01-0.27,0.24-0.47,0.51-0.46l0,0
		c0.26,0.02,0.47,0.25,0.45,0.51l0,0c-0.02,0.26-0.23,0.46-0.48,0.46l0,0C104.13,75.57,104.12,75.57,104.11,75.57z M68.73,73.64
		L68.73,73.64L68.73,73.64c-0.11-0.24-0.01-0.53,0.24-0.64l0,0c0.24-0.12,0.52-0.01,0.64,0.23l0,0c0.11,0.24,0.01,0.52-0.23,0.64
		l0,0c-0.07,0.03-0.14,0.04-0.21,0.04l0,0C68.99,73.91,68.82,73.81,68.73,73.64z M103.64,72.9c-0.02-0.27,0.18-0.5,0.44-0.52l0,0
		c0.27-0.02,0.5,0.18,0.52,0.45l0,0c0.02,0.26-0.18,0.49-0.44,0.51l0,0c-0.02,0-0.03,0.01-0.04,0.01l0,0
		C103.87,73.35,103.66,73.15,103.64,72.9z M67.81,71.6c-0.1-0.25,0.01-0.53,0.25-0.64l0,0c0.24-0.1,0.53,0.01,0.63,0.25l0,0
		c0.11,0.24,0,0.53-0.24,0.63l0,0c-0.07,0.03-0.13,0.05-0.2,0.05l0,0C68.07,71.89,67.89,71.78,67.81,71.6z M103.32,70.77
		c-0.06-0.26,0.1-0.51,0.36-0.57l0,0c0.26-0.06,0.52,0.1,0.58,0.36l0,0c0.06,0.26-0.11,0.52-0.36,0.58l0,0
		c-0.04,0.01-0.08,0.01-0.11,0.01l0,0C103.57,71.15,103.37,71,103.32,70.77z M66.94,69.54L66.94,69.54L66.94,69.54
		c-0.1-0.25,0.02-0.53,0.26-0.63l0,0c0.25-0.1,0.53,0.02,0.63,0.26l0,0c0.1,0.24-0.02,0.53-0.26,0.63l0,0
		c-0.06,0.02-0.12,0.03-0.18,0.03l0,0C67.2,69.83,67.02,69.72,66.94,69.54z M102.69,68.72c-0.1-0.25,0.02-0.53,0.27-0.62l0,0
		c0.25-0.1,0.53,0.02,0.62,0.27l0,0l0,0l0,0c0.1,0.24-0.02,0.52-0.27,0.62l0,0c-0.05,0.03-0.12,0.04-0.17,0.04l0,0
		C102.94,69.03,102.76,68.91,102.69,68.72z M66.11,67.46c-0.09-0.25,0.03-0.53,0.28-0.62l0,0c0.25-0.1,0.53,0.02,0.62,0.27l0,0
		c0.1,0.25-0.02,0.53-0.27,0.63l0,0c-0.06,0.02-0.12,0.03-0.18,0.03l0,0C66.37,67.77,66.19,67.65,66.11,67.46z M101.74,66.8
		c-0.14-0.23-0.06-0.52,0.17-0.66l0,0c0.22-0.14,0.52-0.06,0.66,0.17l0,0l0,0l0,0c0.13,0.22,0.06,0.52-0.17,0.66l0,0
		c-0.08,0.04-0.16,0.07-0.25,0.07l0,0C101.99,67.04,101.83,66.95,101.74,66.8z M100.49,65.07c-0.17-0.2-0.15-0.51,0.05-0.68l0,0
		c0.2-0.17,0.51-0.15,0.68,0.05l0,0l0,0l0,0c0.18,0.21,0.15,0.51-0.05,0.68l0,0c-0.09,0.08-0.2,0.12-0.31,0.12l0,0
		C100.72,65.24,100.59,65.18,100.49,65.07z M98.97,63.56c-0.2-0.17-0.23-0.47-0.06-0.68l0,0c0.17-0.2,0.48-0.23,0.68-0.05l0,0
		c0.2,0.17,0.23,0.47,0.06,0.68l0,0c-0.1,0.11-0.23,0.17-0.37,0.17l0,0C99.17,63.68,99.06,63.64,98.97,63.56z M97.23,62.31
		L97.23,62.31c-0.23-0.14-0.3-0.44-0.16-0.66l0,0c0.14-0.23,0.43-0.3,0.66-0.16l0,0l0,0l0,0c0.23,0.14,0.3,0.43,0.16,0.66l0,0
		c-0.09,0.15-0.25,0.23-0.41,0.23l0,0C97.39,62.38,97.31,62.36,97.23,62.31z M68.91,61.85c-0.07-0.25,0.08-0.52,0.34-0.59l0,0l0,0
		l0,0c0.26-0.06,0.52,0.09,0.59,0.34l0,0c0.07,0.26-0.09,0.52-0.34,0.59l0,0c-0.04,0.02-0.09,0.02-0.13,0.02l0,0
		C69.16,62.21,68.97,62.07,68.91,61.85z M71.06,61.29c-0.07-0.26,0.09-0.52,0.35-0.59l0,0c0.26-0.06,0.52,0.09,0.58,0.35l0,0
		c0.07,0.26-0.09,0.52-0.35,0.59l0,0c-0.04,0.01-0.07,0.01-0.11,0.01l0,0C71.31,61.65,71.11,61.51,71.06,61.29z M95.32,61.31
		c-0.25-0.11-0.36-0.39-0.25-0.63l0,0c0.11-0.25,0.39-0.36,0.64-0.25l0,0c0.24,0.11,0.35,0.39,0.24,0.64l0,0
		c-0.08,0.18-0.25,0.28-0.44,0.28l0,0C95.45,61.35,95.38,61.34,95.32,61.31z M73.22,60.76c-0.06-0.26,0.1-0.52,0.36-0.58l0,0
		c0.26-0.06,0.52,0.1,0.58,0.36l0,0c0.06,0.26-0.1,0.52-0.36,0.58l0,0c-0.04,0.01-0.07,0.01-0.11,0.01l0,0
		C73.47,61.13,73.27,60.98,73.22,60.76z M75.39,60.26c-0.06-0.26,0.11-0.51,0.37-0.57l0,0l0,0l0,0c0.26-0.05,0.52,0.11,0.57,0.37
		l0,0c0.06,0.26-0.11,0.52-0.37,0.58v-0.01c-0.03,0.01-0.07,0.01-0.1,0.01l0,0C75.64,60.64,75.44,60.49,75.39,60.26z M93.29,60.55
		c-0.26-0.08-0.4-0.35-0.32-0.6l0,0c0.08-0.26,0.35-0.4,0.61-0.32l0,0c0.25,0.08,0.39,0.35,0.31,0.61l0,0
		c-0.06,0.2-0.25,0.33-0.46,0.33l0,0C93.39,60.57,93.34,60.57,93.29,60.55z M77.57,59.82c-0.05-0.27,0.12-0.52,0.38-0.57l0,0
		c0.26-0.05,0.52,0.13,0.57,0.39l0,0c0.04,0.26-0.13,0.51-0.39,0.56l0,0c-0.03,0.01-0.06,0.01-0.09,0.01l0,0
		C77.81,60.21,77.61,60.05,77.57,59.82z M91.19,60.01c-0.27-0.06-0.43-0.31-0.38-0.57l0,0c0.05-0.26,0.31-0.43,0.57-0.37l0,0
		c0.26,0.05,0.43,0.3,0.38,0.57l0,0c-0.05,0.22-0.26,0.38-0.48,0.38l0,0C91.25,60.02,91.22,60.02,91.19,60.01z M79.76,59.43
		c-0.04-0.27,0.14-0.51,0.4-0.55l0,0c0.27-0.04,0.51,0.14,0.55,0.4l0,0c0.04,0.26-0.14,0.51-0.4,0.55l0,0
		c-0.03,0.01-0.05,0.01-0.08,0.01l0,0C80,59.84,79.79,59.66,79.76,59.43z M89.03,59.65L89.03,59.65c-0.26-0.03-0.45-0.27-0.42-0.53
		l0,0c0.04-0.27,0.28-0.45,0.54-0.42l0,0c0.26,0.03,0.45,0.27,0.42,0.54l0,0c-0.03,0.24-0.24,0.42-0.48,0.42l0,0
		C89.07,59.66,89.05,59.66,89.03,59.65z M81.96,59.12c-0.03-0.27,0.17-0.5,0.43-0.53l0,0c0.27-0.03,0.5,0.17,0.53,0.43l0,0
		c0.03,0.27-0.17,0.5-0.43,0.53l0,0c-0.02,0-0.03,0-0.05,0l0,0C82.19,59.55,81.99,59.37,81.96,59.12z M86.85,59.46L86.85,59.46
		c-0.26-0.01-0.47-0.24-0.45-0.5l0,0c0.01-0.27,0.24-0.47,0.51-0.46l0,0c0,0,0,0-0.01,0l0,0c0.27,0.02,0.47,0.24,0.46,0.51l0,0
		c-0.01,0.26-0.23,0.45-0.48,0.45l0,0C86.87,59.46,86.86,59.46,86.85,59.46z M84.18,58.94c0-0.27,0.21-0.49,0.47-0.49l0,0
		c0.27,0,0.49,0.21,0.49,0.48l0,0c0.01,0.26-0.21,0.48-0.47,0.48l0,0c0,0,0,0-0.01,0l0,0C84.4,59.41,84.18,59.2,84.18,58.94z"/>
	<path class="st3" d="M65.77,65.65c-0.06,0-0.12-0.01-0.18-0.04c-0.06-0.02-0.11-0.06-0.15-0.1c-0.05-0.05-0.09-0.1-0.11-0.16
		c-0.02-0.06-0.04-0.12-0.04-0.18c0-0.13,0.05-0.25,0.15-0.34c0.17-0.18,0.5-0.18,0.67,0c0.05,0.04,0.09,0.09,0.11,0.15
		c0.02,0.06,0.04,0.12,0.04,0.19c0,0.06-0.02,0.12-0.04,0.18c-0.02,0.06-0.06,0.11-0.11,0.16C66.02,65.6,65.9,65.65,65.77,65.65z"/>
</g>
<path class="st3" d="M95.76,92.4c-0.23,0-0.42-0.19-0.42-0.42v-6.96c0-0.23,0.19-0.42,0.42-0.42s0.42,0.19,0.42,0.42v6.96
	C96.18,92.21,95.99,92.4,95.76,92.4z"/>
<path class="st3" d="M95.76,73.59c-0.23,0-0.42-0.19-0.42-0.42v-6.96c0-0.23,0.19-0.42,0.42-0.42s0.42,0.19,0.42,0.42v6.96
	C96.18,73.4,95.99,73.59,95.76,73.59z"/>
</svg>
