<?xml version="1.0" encoding="utf-8"?>
<!-- Generator: Adobe Illustrator 23.0.3, SVG Export Plug-In . SVG Version: 6.00 Build 0)  -->
<svg version="1.1" id="Ebene_1" xmlns="http://www.w3.org/2000/svg" xmlns:xlink="http://www.w3.org/1999/xlink" x="0px" y="0px"
	 viewBox="0 0 113.39 113.39" style="enable-background:new 0 0 113.39 113.39;" xml:space="preserve">
<style type="text/css">
	.st0{fill:#FFFFFF;}
	.st1{fill:#1D1D1B;}
	.st2{fill:#009FE3;}
	.st3{fill:url(#SVGID_1_);}
	.st4{fill:url(#SVGID_2_);}
	.st5{opacity:0.35;fill:#FFFFFF;}
</style>
<g>
	<g>
		<path class="st0" d="M83.27,76.92c1.92,1.64,3.13,4.08,3.13,6.8c0,4.94-4,8.94-8.94,8.94s-8.94-4-8.94-8.94
			c0-2.63,1.14-5,2.94-6.63"/>
		<path class="st0" d="M77.46,95.49c-6.49,0-11.77-5.28-11.77-11.77c0-3.32,1.41-6.5,3.88-8.73l3.8,4.2
			c-1.28,1.16-2.01,2.81-2.01,4.53c0,3.37,2.74,6.1,6.1,6.1c3.37,0,6.1-2.74,6.1-6.1c0-1.79-0.78-3.48-2.14-4.64l3.69-4.31
			c2.62,2.24,4.12,5.5,4.12,8.95C89.23,90.2,83.95,95.49,77.46,95.49z"/>
	</g>
	<g>
		<path class="st0" d="M77.46,80.01c2.05,0,3.7,1.66,3.7,3.7c0,2.04-1.66,3.7-3.7,3.7c-2.04,0-3.7-1.66-3.7-3.7"/>
		<path class="st0" d="M77.46,90.25c-3.6,0-6.54-2.93-6.54-6.54h5.67c0,0.48,0.39,0.87,0.87,0.87s0.87-0.39,0.87-0.87
			s-0.39-0.87-0.87-0.87v-5.67c3.6,0,6.54,2.93,6.54,6.54S81.06,90.25,77.46,90.25z"/>
	</g>
	<g>
		<path class="st0" d="M96.49,86.16c0,0-8.52,10.77-19.03,10.77c-10.51,0-19.03-10.5-19.03-10.5s8.52-10.5,19.03-10.5
			C87.97,75.93,96.49,86.16,96.49,86.16z"/>
		<path class="st0" d="M77.46,99.76c-11.72,0-20.85-11.07-21.23-11.55l-1.45-1.79l1.45-1.79c0.38-0.47,9.51-11.55,21.23-11.55
			c11.7,0,20.83,10.79,21.21,11.25l1.47,1.77l-1.43,1.8C98.33,88.4,89.21,99.76,77.46,99.76z M62.29,86.43
			c2.76,2.74,8.63,7.66,15.16,7.66c6.53,0,12.41-5.07,15.16-7.88c-2.77-2.67-8.63-7.44-15.16-7.44
			C70.93,78.77,65.06,83.69,62.29,86.43z"/>
	</g>
</g>
<path class="st0" d="M82.67,34.93c0-10.46,3.43-18.95,7.67-18.95H30.24c-0.75,9.52-2.97,21.41-8.69,33.95
	c-6.99,15.31-8.49,31.99-8.68,46.75h31.69c1.22-4.07,6.8-16.27,23.06-24.68c9.55-4.94,13.2-11.26,14.52-18.13h3.14h5.05
	C86.1,53.88,82.67,45.39,82.67,34.93z"/>
<g>
	<ellipse class="st0" cx="90.34" cy="34.93" rx="7.67" ry="18.95"/>
	<path class="st1" d="M90.34,54.3c-4.54,0-8.09-8.51-8.09-19.37c0-10.86,3.56-19.37,8.09-19.37s8.09,8.51,8.09,19.37
		C98.43,45.79,94.88,54.3,90.34,54.3z M90.34,16.41c-3.93,0-7.25,8.48-7.25,18.52c0,10.04,3.32,18.52,7.25,18.52
		s7.24-8.48,7.24-18.52C97.58,24.89,94.26,16.41,90.34,16.41z"/>
</g>
<g>
	<path class="st1" d="M77.46,93.08c-5.16,0-9.36-4.2-9.36-9.36c0-2.64,1.12-5.17,3.08-6.95l0.57,0.63c-1.78,1.61-2.8,3.91-2.8,6.32
		c0,4.69,3.82,8.51,8.51,8.51c4.69,0,8.51-3.82,8.51-8.51c0-2.49-1.09-4.85-2.98-6.47l0.55-0.65c2.08,1.78,3.28,4.38,3.28,7.12
		C86.82,88.88,82.62,93.08,77.46,93.08z"/>
	<path class="st1" d="M77.46,87.84c-2.28,0-4.13-1.85-4.13-4.13c0-0.23,0.19-0.42,0.42-0.42s0.42,0.19,0.42,0.42
		c0,1.81,1.47,3.28,3.28,3.28s3.28-1.47,3.28-3.28c0-1.81-1.47-3.28-3.28-3.28c-0.23,0-0.42-0.19-0.42-0.42s0.19-0.42,0.42-0.42
		c2.28,0,4.13,1.85,4.13,4.13C81.59,85.99,79.73,87.84,77.46,87.84z"/>
	<path class="st1" d="M77.46,97.35c-10.59,0-19.01-10.22-19.36-10.65c-0.13-0.16-0.13-0.38,0-0.54c0.35-0.44,8.77-10.65,19.36-10.65
		c10.59,0,19,9.96,19.36,10.38c0.13,0.16,0.13,0.38,0.01,0.54C96.47,86.87,88.05,97.35,77.46,97.35z M58.99,86.43
		c1.42,1.62,9.22,10.07,18.47,10.07c9.25,0,17.06-8.68,18.47-10.33c-1.43-1.59-9.23-9.81-18.47-9.81
		C68.21,76.36,60.4,84.8,58.99,86.43z"/>
</g>
<path class="st1" d="M97.04,45.57h-6.71c-2.56,0-4.56-4.67-4.56-10.64s2-10.64,4.56-10.64h6.71v0.85h-6.71
	c-1.79,0-3.71,3.93-3.71,9.79s1.92,9.79,3.71,9.79h6.71V45.57z"/>
<g>
	<ellipse class="st0" cx="97.05" cy="34.93" rx="4.13" ry="10.21"/>
	<path class="st1" d="M97.04,45.57c-2.56,0-4.56-4.67-4.56-10.64s2-10.64,4.56-10.64s4.56,4.67,4.56,10.64S99.6,45.57,97.04,45.57z
		 M97.04,25.14c-1.79,0-3.71,3.93-3.71,9.79s1.92,9.79,3.71,9.79s3.71-3.93,3.71-9.79S98.84,25.14,97.04,25.14z"/>
</g>
<path class="st2" d="M90.34,54.3h-5.05c-0.23,0-0.42-0.19-0.42-0.43s0.19-0.43,0.42-0.43h2.63c-3.32-2.41-5.67-9.69-5.67-18.52
	s2.35-16.11,5.67-18.52H30.24c-0.23,0-0.43-0.19-0.43-0.43s0.19-0.43,0.43-0.43h60.1v0.85c-3.93,0-7.25,8.48-7.25,18.52
	c0,10.04,3.32,18.52,7.25,18.52V54.3z"/>
<linearGradient id="SVGID_1_" gradientUnits="userSpaceOnUse" x1="55.1139" y1="53.8783" x2="55.1139" y2="15.9826">
	<stop  offset="0.1028" style="stop-color:#A1DAF8;stop-opacity:0"/>
	<stop  offset="0.2977" style="stop-color:#FFFFFF;stop-opacity:0"/>
	<stop  offset="0.3202" style="stop-color:#E2F3FE;stop-opacity:0.1984"/>
	<stop  offset="0.3436" style="stop-color:#C8E8FB;stop-opacity:0.4036"/>
	<stop  offset="0.3667" style="stop-color:#B3E0F9;stop-opacity:0.6076"/>
	<stop  offset="0.3895" style="stop-color:#A6DBF8;stop-opacity:0.8078"/>
	<stop  offset="0.4113" style="stop-color:#A1DAF8"/>
	<stop  offset="0.445" style="stop-color:#A6DBF8;stop-opacity:0.8192"/>
	<stop  offset="0.4833" style="stop-color:#B5E1FA;stop-opacity:0.6134"/>
	<stop  offset="0.5239" style="stop-color:#CBEAFC;stop-opacity:0.3954"/>
	<stop  offset="0.5659" style="stop-color:#E7F5FE;stop-opacity:0.1703"/>
	<stop  offset="0.5976" style="stop-color:#FFFFFF;stop-opacity:0"/>
	<stop  offset="0.93" style="stop-color:#A1DAF8"/>
</linearGradient>
<path class="st3" d="M82.67,34.93c0-10.46,3.43-18.95,7.67-18.95H30.24c-0.75,9.52-2.97,21.41-8.69,33.95
	c-0.6,1.3-1.14,2.62-1.66,3.94h65.39h5.05C86.1,53.88,82.67,45.39,82.67,34.93z"/>
<path class="st2" d="M44.56,97.54H12.63c-0.47,0-0.85-0.38-0.85-0.85s0.38-0.85,0.85-0.85h31.32c1.11-3.19,6.42-15.86,23.29-24.58
	C82.53,63.34,82.23,52.01,81.91,40c-0.04-1.66-0.09-3.38-0.09-5.07c0-8.17,2.03-15.04,5-18.1H30.24c-0.47,0-0.85-0.38-0.85-0.85
	s0.38-0.85,0.85-0.85h60.1c0.47,0,0.85,0.38,0.85,0.85s-0.38,0.85-0.85,0.85c-3.29,0-6.82,7.27-6.82,18.1
	c0,1.67,0.05,3.38,0.09,5.03c0.32,12,0.65,24.41-15.59,32.81c-17.7,9.16-22.18,22.66-22.64,24.17
	C45.27,97.29,44.94,97.54,44.56,97.54z"/>
<linearGradient id="SVGID_2_" gradientUnits="userSpaceOnUse" x1="51.6034" y1="15.9826" x2="51.6034" y2="96.6871">
	<stop  offset="0" style="stop-color:#A1DAF8;stop-opacity:0"/>
	<stop  offset="0.0206" style="stop-color:#A6DBF8;stop-opacity:0"/>
	<stop  offset="0.0438" style="stop-color:#B5E1FA;stop-opacity:0"/>
	<stop  offset="0.0683" style="stop-color:#CBE9FC;stop-opacity:0"/>
	<stop  offset="0.0935" style="stop-color:#E7F5FE;stop-opacity:0"/>
	<stop  offset="0.1132" style="stop-color:#FFFFFF;stop-opacity:0"/>
	<stop  offset="0.1404" style="stop-color:#E8F5FE;stop-opacity:0.1671"/>
	<stop  offset="0.1774" style="stop-color:#CCEAFC;stop-opacity:0.3943"/>
	<stop  offset="0.2132" style="stop-color:#B5E1FA;stop-opacity:0.6137"/>
	<stop  offset="0.2469" style="stop-color:#A6DBF8;stop-opacity:0.8201"/>
	<stop  offset="0.2762" style="stop-color:#A1DAF8"/>
	<stop  offset="0.5669" style="stop-color:#A1DAF8"/>
	<stop  offset="0.713" style="stop-color:#FFFFFF;stop-opacity:0"/>
	<stop  offset="0.8782" style="stop-color:#A1DAF8"/>
</linearGradient>
<path class="st4" d="M90.34,15.98H30.24c-0.75,9.52-2.97,21.41-8.69,33.95c-6.99,15.31-8.49,31.99-8.68,46.75h31.69
	c1.22-4.07,6.8-16.27,23.06-24.68C85.62,62.7,82.67,48.5,82.67,34.93C82.67,24.47,86.1,15.98,90.34,15.98z"/>
<path class="st5" d="M79.16,54.47H22.42c-0.23,0-0.43-0.19-0.43-0.43s0.19-0.43,0.43-0.43h56.74c0.23,0,0.42,0.19,0.42,0.43
	S79.39,54.47,79.16,54.47z"/>
</svg>
