<?xml version="1.0" encoding="utf-8"?>
<!-- Generator: Adobe Illustrator 23.0.3, SVG Export Plug-In . SVG Version: 6.00 Build 0)  -->
<svg version="1.1" id="Ebene_1" xmlns="http://www.w3.org/2000/svg" xmlns:xlink="http://www.w3.org/1999/xlink" x="0px" y="0px"
	 viewBox="0 0 113.39 113.39" style="enable-background:new 0 0 113.39 113.39;" xml:space="preserve">
<style type="text/css">
	.st0{fill:url(#SVGID_1_);}
	.st1{fill:#FFFFFF;}
	.st2{fill:url(#SVGID_2_);}
	.st3{fill:#009FE3;}
	.st4{opacity:0.7;fill:#83D0F5;}
	.st5{fill:#1D1D1B;}
</style>
<linearGradient id="SVGID_1_" gradientUnits="userSpaceOnUse" x1="9.7356" y1="56.8422" x2="103.02" y2="56.8422">
	<stop  offset="0" style="stop-color:#009FE3;stop-opacity:0.6"/>
	<stop  offset="0.8607" style="stop-color:#009FE3;stop-opacity:0"/>
</linearGradient>
<circle class="st0" cx="56.38" cy="56.84" r="46.64"/>
<path class="st1" d="M60.64,104.62c24.83,0,35.64-11.47,35.64-11.47V16.13L46.3,36.58v66.04C46.3,102.62,49.76,104.62,60.64,104.62"
	/>
<radialGradient id="SVGID_2_" cx="30.9853" cy="48.257" r="20.1773" gradientUnits="userSpaceOnUse">
	<stop  offset="0.3237" style="stop-color:#FFFFFF"/>
	<stop  offset="0.8736" style="stop-color:#FFFFFF;stop-opacity:0"/>
</radialGradient>
<circle class="st2" cx="30.99" cy="48.26" r="20.18"/>
<path class="st3" d="M42.92,54.8c-0.12,0-0.25-0.03-0.36-0.08L30.6,49.02c-0.42-0.2-0.6-0.71-0.4-1.13c0.2-0.42,0.71-0.6,1.13-0.4
	l11.96,5.69c0.42,0.2,0.6,0.71,0.4,1.13C43.55,54.62,43.24,54.8,42.92,54.8z"/>
<path class="st3" d="M99.25,73.06l-1.58,0.63l2.63,6.63l-32.3-15.37c-0.43-0.21-0.93-0.02-1.13,0.4c-0.2,0.42-0.02,0.93,0.4,1.13
	l32.3,15.37L92.76,84l0.51,1.62l9.74-3.07L99.25,73.06z"/>
<rect x="55.95" y="48.92" transform="matrix(0.4297 -0.903 0.903 0.4297 -22.2826 85.8268)" class="st4" width="1.7" height="23.26"/>
<polygon class="st3" points="41.95,35.21 46.3,36.58 46.3,102.62 41.95,101.2 "/>
<polygon class="st3" points="41.95,35.21 46.3,36.58 96.28,16.13 91.84,14.94 "/>
<path class="st5" d="M41.95,101.63c-0.23,0-0.43-0.19-0.43-0.42V35.21c0-0.14,0.06-0.26,0.17-0.34c0.11-0.08,0.25-0.1,0.38-0.06
	l4.35,1.37c0.22,0.07,0.35,0.31,0.28,0.53s-0.31,0.35-0.53,0.28l-3.8-1.19v65.41C42.37,101.44,42.18,101.63,41.95,101.63z"/>
<path class="st5" d="M41.95,35.64c-0.17,0-0.33-0.1-0.39-0.27c-0.09-0.22,0.02-0.47,0.23-0.55l49.89-20.27
	c0.08-0.03,0.18-0.04,0.27-0.02l4.44,1.18c0.23,0.06,0.36,0.29,0.3,0.52c-0.06,0.23-0.29,0.36-0.52,0.3l-4.31-1.15L42.11,35.6
	C42.06,35.63,42,35.64,41.95,35.64z"/>
<path class="st5" d="M46.3,103.04c-0.23,0-0.43-0.19-0.43-0.42V36.58c0-0.17,0.1-0.33,0.26-0.39l49.98-20.45
	c0.13-0.05,0.28-0.04,0.4,0.04c0.12,0.08,0.19,0.21,0.19,0.35v44.43c0,0.23-0.19,0.42-0.42,0.42s-0.42-0.19-0.42-0.42V16.76
	l-49.13,20.1v65.75C46.73,102.85,46.54,103.04,46.3,103.04z"/>
<path class="st3" d="M87.64,57.6l-1.08,1.32l5.53,4.51l-24.46,1.58c-0.47,0.03-0.82,0.43-0.79,0.9c0.03,0.45,0.4,0.8,0.85,0.8
	c0.02,0,0.04,0,0.06,0l24.46-1.58l-4.9,5.19l1.24,1.17l7.02-7.42L87.64,57.6z"/>
<path class="st3" d="M83.22,77.5l-0.89,7.08L68.4,65.22c-0.27-0.38-0.8-0.47-1.19-0.19c-0.38,0.27-0.47,0.81-0.19,1.19l13.92,19.37
	l-7-1.41l-0.33,1.67l10.01,2.01l1.28-10.13L83.22,77.5z"/>
<g>
	<path class="st5" d="M67.59,64.43c-0.07,0-0.13-0.02-0.19-0.04c-0.06-0.02-0.11-0.06-0.15-0.1c-0.05-0.05-0.09-0.1-0.11-0.16
		c-0.02-0.06-0.04-0.12-0.04-0.19c0-0.12,0.05-0.25,0.15-0.34c0.17-0.17,0.5-0.17,0.68,0c0.09,0.09,0.14,0.22,0.14,0.34
		c0,0.07-0.01,0.13-0.04,0.19c-0.02,0.06-0.06,0.11-0.1,0.16C67.83,64.38,67.71,64.43,67.59,64.43z"/>
	<path class="st5" d="M89.7,90.6c-0.26,0-0.47-0.22-0.47-0.49l0,0c0-0.26,0.22-0.48,0.49-0.47l0,0c0.26,0,0.47,0.22,0.47,0.49l0,0
		C90.19,90.39,89.97,90.6,89.7,90.6L89.7,90.6C89.71,90.6,89.71,90.6,89.7,90.6z M91.45,90.06c-0.03-0.26,0.15-0.51,0.42-0.54l0,0
		c0.26-0.03,0.5,0.16,0.54,0.42l0,0c0.03,0.27-0.16,0.51-0.42,0.54l0,0c-0.02,0-0.04,0-0.06,0l0,0
		C91.69,90.48,91.48,90.3,91.45,90.06z M87.43,90.43c-0.26-0.03-0.45-0.27-0.41-0.54l0,0c0.03-0.26,0.28-0.45,0.54-0.41l0,0
		c0.27,0.03,0.45,0.28,0.41,0.54l0,0c-0.03,0.24-0.24,0.42-0.47,0.42l0,0C87.48,90.44,87.45,90.44,87.43,90.43z M93.64,89.71
		c-0.06-0.26,0.09-0.52,0.35-0.59l0,0c0.25-0.06,0.52,0.09,0.58,0.35l0,0c0.07,0.25-0.08,0.52-0.34,0.58l0,0l0,0l0,0
		c-0.04,0.01-0.08,0.02-0.12,0.02l0,0C93.9,90.07,93.7,89.93,93.64,89.71z M85.19,89.99c-0.25-0.06-0.41-0.33-0.34-0.58l0,0
		c0.06-0.26,0.33-0.42,0.59-0.35l0,0c0.25,0.07,0.41,0.33,0.34,0.59l0,0c-0.05,0.21-0.25,0.36-0.47,0.36l0,0
		C85.27,90.01,85.23,90,85.19,89.99z M95.77,89.06c-0.11-0.24,0.01-0.53,0.25-0.63l0,0c0.25-0.11,0.53,0.01,0.63,0.25l0,0
		c0.11,0.25-0.01,0.53-0.25,0.64l0,0c-0.06,0.02-0.13,0.03-0.19,0.03l0,0C96.02,89.35,95.85,89.24,95.77,89.06z M83.03,89.31
		c-0.25-0.1-0.38-0.37-0.28-0.62l0,0c0.09-0.25,0.37-0.38,0.62-0.29l0,0c0.25,0.1,0.37,0.38,0.28,0.63l0,0
		c-0.07,0.19-0.26,0.31-0.45,0.31l0,0C83.14,89.34,83.08,89.33,83.03,89.31z M80.95,88.4C80.95,88.4,80.95,88.4,80.95,88.4
		L80.95,88.4c-0.24-0.12-0.34-0.41-0.22-0.65l0,0c0.12-0.24,0.41-0.34,0.65-0.22l0,0c0.24,0.12,0.33,0.41,0.22,0.65l0,0
		c-0.09,0.17-0.26,0.27-0.44,0.27l0,0C81.09,88.45,81.02,88.43,80.95,88.4z M97.77,88.1c-0.14-0.22-0.07-0.52,0.16-0.66l0,0
		c0.22-0.14,0.52-0.07,0.66,0.16l0,0c0.14,0.22,0.07,0.52-0.15,0.66l0,0c-0.08,0.05-0.17,0.07-0.26,0.07l0,0
		C98.02,88.33,97.86,88.25,97.77,88.1z M78.97,87.29L78.97,87.29L78.97,87.29c-0.23-0.14-0.3-0.44-0.15-0.67l0,0
		c0.14-0.22,0.43-0.29,0.66-0.15l0,0c0.22,0.14,0.29,0.44,0.15,0.66l0,0c-0.09,0.15-0.25,0.23-0.41,0.23l0,0
		C79.14,87.36,79.05,87.34,78.97,87.29z M99.61,86.85c-0.18-0.2-0.16-0.51,0.04-0.68l0,0c0.2-0.18,0.51-0.16,0.68,0.04l0,0
		c0.18,0.21,0.16,0.51-0.04,0.68l0,0c-0.1,0.08-0.21,0.12-0.32,0.12l0,0C99.83,87.01,99.7,86.96,99.61,86.85z M77.1,86.01
		c-0.21-0.17-0.25-0.47-0.09-0.68l0,0c0.16-0.21,0.46-0.26,0.67-0.1l0,0c0.22,0.16,0.26,0.47,0.1,0.68l0,0
		c-0.09,0.13-0.24,0.19-0.39,0.19l0,0C77.29,86.1,77.19,86.07,77.1,86.01z M101.21,85.31c-0.21-0.17-0.24-0.47-0.08-0.68l0,0
		c0.17-0.21,0.47-0.24,0.68-0.07l0,0c0.21,0.16,0.24,0.47,0.07,0.67l0,0c-0.09,0.12-0.23,0.18-0.37,0.18l0,0
		C101.4,85.41,101.29,85.38,101.21,85.31z M75.35,84.58c-0.2-0.18-0.22-0.48-0.04-0.69l0,0c0.18-0.19,0.48-0.21,0.68-0.04l0,0
		c0.2,0.18,0.22,0.48,0.04,0.68l0,0c-0.09,0.11-0.23,0.17-0.36,0.17l0,0C75.56,84.7,75.44,84.66,75.35,84.58z M102.51,83.51
		c-0.23-0.13-0.32-0.42-0.19-0.65l0,0c0.13-0.24,0.42-0.32,0.65-0.19l0,0c0.24,0.12,0.32,0.42,0.2,0.65l0,0l0,0l0,0
		c-0.09,0.16-0.26,0.25-0.43,0.25l0,0C102.67,83.57,102.59,83.55,102.51,83.51z M73.71,82.99c-0.17-0.2-0.16-0.5,0.04-0.68l0,0
		c0.2-0.17,0.5-0.16,0.68,0.04l0,0c0.18,0.2,0.16,0.5-0.04,0.68l0,0c-0.09,0.08-0.2,0.12-0.32,0.12l0,0
		C73.94,83.15,73.81,83.1,73.71,82.99z M103.48,81.51c-0.25-0.09-0.39-0.36-0.3-0.61l0,0c0.09-0.25,0.36-0.39,0.61-0.3l0,0
		c0.25,0.09,0.39,0.36,0.3,0.61l0,0c-0.07,0.2-0.26,0.33-0.46,0.33l0,0C103.58,81.54,103.53,81.53,103.48,81.51z M72.33,81.17
		c-0.15-0.22-0.1-0.52,0.13-0.66l0,0c0.22-0.15,0.52-0.1,0.66,0.13l0,0c0.15,0.21,0.09,0.51-0.13,0.66l0,0
		c-0.08,0.06-0.17,0.09-0.26,0.09l0,0C72.57,81.39,72.42,81.31,72.33,81.17z M71.14,79.25L71.14,79.25L71.14,79.25
		c-0.13-0.23-0.05-0.52,0.18-0.66l0,0c0.23-0.13,0.52-0.05,0.65,0.18h0.01c0.13,0.23,0.05,0.53-0.18,0.66l0,0
		c-0.08,0.04-0.16,0.06-0.24,0.06l0,0C71.39,79.49,71.23,79.41,71.14,79.25z M104.12,79.38c-0.26-0.05-0.43-0.3-0.38-0.56l0,0
		c0.05-0.26,0.3-0.44,0.56-0.38l0,0c0.27,0.05,0.43,0.3,0.39,0.56l0,0c0,0,0,0-0.01,0l0,0c-0.04,0.23-0.24,0.39-0.47,0.39l0,0
		C104.18,79.39,104.15,79.39,104.12,79.38z M70.07,77.27L70.07,77.27L70.07,77.27c-0.12-0.24-0.03-0.53,0.21-0.65l0,0
		c0.24-0.12,0.53-0.02,0.65,0.21l0,0c0.12,0.24,0.03,0.53-0.21,0.65l0,0c-0.07,0.04-0.15,0.05-0.22,0.05l0,0
		C70.32,77.53,70.16,77.44,70.07,77.27z M104.46,77.19c-0.26-0.02-0.47-0.25-0.45-0.51l0,0c0.02-0.27,0.24-0.47,0.51-0.45l0,0
		c0.26,0.01,0.47,0.24,0.45,0.51l0,0c-0.01,0.25-0.23,0.45-0.48,0.45l0,0C104.48,77.19,104.47,77.19,104.46,77.19z M69.09,75.26
		L69.09,75.26L69.09,75.26c-0.12-0.24-0.01-0.53,0.23-0.64l0,0c0.24-0.11,0.53-0.01,0.64,0.23l0,0c0.11,0.24,0.01,0.53-0.23,0.64
		l0,0c-0.07,0.03-0.14,0.04-0.21,0.04l0,0C69.34,75.53,69.17,75.43,69.09,75.26z M103.99,74.52c-0.02-0.26,0.18-0.5,0.45-0.52l0,0
		c0.26-0.02,0.49,0.18,0.51,0.45l0,0c0.02,0.26-0.18,0.5-0.44,0.52l0,0c-0.01,0-0.02,0-0.03,0l0,0
		C104.22,74.97,104.01,74.77,103.99,74.52z M68.17,73.22L68.17,73.22L68.17,73.22c-0.11-0.25,0-0.53,0.24-0.64l0,0
		c0.25-0.1,0.53,0.01,0.64,0.25l0,0c0.1,0.25-0.01,0.53-0.25,0.64l0,0c-0.06,0.02-0.13,0.04-0.19,0.04l0,0
		C68.42,73.51,68.24,73.4,68.17,73.22z M103.67,72.4c-0.06-0.26,0.11-0.52,0.37-0.58l0,0c0.25-0.06,0.51,0.1,0.57,0.36l0,0
		c0.06,0.26-0.1,0.52-0.36,0.58l0,0c-0.04,0.01-0.08,0.01-0.11,0.01l0,0C103.92,72.77,103.72,72.62,103.67,72.4z M67.29,71.16
		L67.29,71.16L67.29,71.16c-0.1-0.25,0.02-0.53,0.27-0.63l0,0c0.24-0.1,0.52,0.02,0.63,0.26h-0.01c0.11,0.25-0.01,0.53-0.26,0.63
		l0,0c-0.06,0.02-0.12,0.04-0.18,0.04l0,0C67.55,71.46,67.37,71.34,67.29,71.16z M103.04,70.35c-0.1-0.25,0.02-0.53,0.27-0.63l0,0
		c0.25-0.1,0.53,0.02,0.63,0.27l0,0l0,0l0,0c0.09,0.25-0.03,0.53-0.27,0.63l0,0c-0.06,0.02-0.12,0.03-0.18,0.03l0,0
		C103.3,70.65,103.12,70.53,103.04,70.35z M66.47,69.08L66.47,69.08L66.47,69.08c-0.1-0.25,0.02-0.53,0.27-0.62l0,0
		c0.25-0.1,0.53,0.03,0.62,0.27v0.01c0.1,0.24-0.02,0.52-0.27,0.62l0,0c-0.06,0.02-0.12,0.03-0.18,0.03l0,0
		C66.72,69.39,66.54,69.27,66.47,69.08z M102.09,68.43L102.09,68.43c-0.13-0.23-0.06-0.53,0.17-0.67l0,0
		c0.22-0.13,0.52-0.06,0.66,0.17l0,0l0,0l0,0c0.14,0.22,0.06,0.52-0.17,0.66l0,0c-0.07,0.05-0.16,0.07-0.24,0.07l0,0
		C102.34,68.66,102.18,68.58,102.09,68.43z M100.84,66.69c-0.17-0.2-0.15-0.51,0.06-0.68l0,0c0.2-0.17,0.5-0.15,0.67,0.05l0,0
		c0,0,0,0,0.01,0l0,0c0.17,0.21,0.14,0.51-0.06,0.68l0,0c-0.09,0.08-0.2,0.12-0.31,0.12l0,0C101.07,66.86,100.94,66.8,100.84,66.69z
		 M99.32,65.19L99.32,65.19c-0.2-0.18-0.23-0.48-0.06-0.68l0,0c0.18-0.21,0.48-0.23,0.68-0.06l0,0c0.21,0.17,0.23,0.47,0.06,0.68
		l0,0c-0.09,0.11-0.23,0.17-0.37,0.17l0,0C99.52,65.3,99.41,65.26,99.32,65.19z M97.58,63.93L97.58,63.93
		c-0.23-0.14-0.3-0.43-0.16-0.66l0,0c0.14-0.23,0.43-0.3,0.66-0.16l0,0l0,0l0,0c0.23,0.14,0.3,0.44,0.16,0.66l0,0
		C98.15,63.92,97.99,64,97.83,64l0,0C97.74,64,97.66,63.98,97.58,63.93z M69.26,63.48c-0.07-0.26,0.08-0.53,0.34-0.59l0,0l0,0l0,0
		c0.26-0.07,0.52,0.08,0.59,0.34l0,0c0.07,0.25-0.09,0.52-0.34,0.59l0,0c-0.04,0.01-0.08,0.01-0.12,0.01l0,0
		C69.51,63.83,69.32,63.69,69.26,63.48z M71.41,62.91c-0.06-0.26,0.09-0.52,0.35-0.58l0,0c0.26-0.07,0.52,0.09,0.59,0.35l0,0
		c0.06,0.25-0.1,0.51-0.35,0.58l0,0c-0.04,0.01-0.08,0.01-0.12,0.01l0,0C71.66,63.27,71.47,63.13,71.41,62.91z M95.67,62.93
		c-0.25-0.11-0.36-0.39-0.25-0.63l0,0c0.11-0.25,0.39-0.36,0.64-0.25l0,0c0.24,0.11,0.35,0.39,0.25,0.64l0,0
		c-0.09,0.18-0.26,0.29-0.45,0.29l0,0C95.8,62.98,95.73,62.96,95.67,62.93z M73.57,62.38c-0.06-0.26,0.1-0.52,0.36-0.58l0,0l0,0l0,0
		c0.26-0.06,0.52,0.1,0.58,0.36l0,0c0.06,0.26-0.1,0.52-0.36,0.58l0,0c-0.04,0.01-0.07,0.01-0.11,0.01l0,0
		C73.82,62.75,73.62,62.6,73.57,62.38z M75.74,61.89c-0.05-0.26,0.11-0.52,0.37-0.58l0,0l0,0l0,0c0.26-0.05,0.52,0.11,0.57,0.38l0,0
		c0.06,0.26-0.11,0.51-0.37,0.57l0,0c-0.03,0-0.06,0.01-0.1,0.01l0,0C75.99,62.27,75.79,62.11,75.74,61.89z M93.64,62.18
		c-0.25-0.09-0.4-0.35-0.31-0.61l0,0c0.07-0.25,0.34-0.4,0.6-0.31l0,0c0.25,0.07,0.39,0.34,0.32,0.6l0,0
		c-0.07,0.21-0.26,0.34-0.47,0.34l0,0C93.74,62.2,93.69,62.19,93.64,62.18z M77.92,61.44c-0.05-0.26,0.13-0.52,0.39-0.56l0,0l0,0
		l0,0c0.26-0.05,0.51,0.12,0.56,0.38l0,0c0.05,0.26-0.13,0.51-0.39,0.56l0,0c-0.03,0.01-0.06,0.01-0.08,0.01l0,0
		C78.17,61.83,77.97,61.67,77.92,61.44z M91.54,61.63c-0.26-0.05-0.43-0.31-0.38-0.57l0,0c0.06-0.26,0.31-0.43,0.57-0.37l0,0
		c0.26,0.05,0.43,0.31,0.38,0.57l0,0c-0.05,0.22-0.25,0.38-0.48,0.38l0,0C91.6,61.64,91.57,61.64,91.54,61.63z M80.11,61.05
		c-0.04-0.26,0.14-0.51,0.4-0.55l0,0c0.27-0.04,0.51,0.14,0.55,0.4l0,0c0.04,0.27-0.14,0.51-0.4,0.55l0,0
		c-0.03,0.01-0.05,0.01-0.07,0.01l0,0C80.35,61.46,80.15,61.29,80.11,61.05z M89.39,61.28L89.39,61.28
		c-0.27-0.04-0.46-0.27-0.42-0.54l0,0c0.03-0.26,0.27-0.45,0.53-0.42l0,0c0.27,0.03,0.45,0.27,0.42,0.54l0,0
		c-0.03,0.24-0.23,0.42-0.47,0.42l0,0C89.43,61.28,89.41,61.28,89.39,61.28z M82.31,60.74c-0.02-0.26,0.17-0.5,0.43-0.53l0,0
		c0.27-0.02,0.51,0.17,0.53,0.43l0,0c0.03,0.27-0.16,0.51-0.43,0.53l0,0c-0.01,0-0.03,0.01-0.05,0.01l0,0
		C82.55,61.18,82.34,60.99,82.31,60.74z M87.21,61.09c-0.27-0.02-0.47-0.25-0.46-0.51l0,0c0.01-0.27,0.24-0.47,0.51-0.46l0,0
		c0.26,0.02,0.47,0.24,0.45,0.51l0,0c-0.01,0.26-0.23,0.46-0.48,0.46l0,0C87.22,61.09,87.21,61.09,87.21,61.09z M84.53,60.56
		c0-0.27,0.21-0.49,0.47-0.49l0,0l0,0l0,0c0.27,0,0.49,0.21,0.49,0.48l0,0c0.01,0.26-0.2,0.48-0.47,0.49l0,0l0,0l0,0
		C84.75,61.04,84.53,60.83,84.53,60.56z"/>
	<path class="st5" d="M66.13,67.27c-0.07,0-0.13-0.01-0.19-0.04c-0.06-0.02-0.11-0.06-0.15-0.1c-0.09-0.09-0.14-0.21-0.14-0.34
		s0.05-0.25,0.14-0.34c0.18-0.18,0.5-0.18,0.68,0c0.04,0.04,0.08,0.09,0.1,0.15c0.03,0.06,0.04,0.12,0.04,0.19
		c0,0.13-0.05,0.25-0.14,0.34c-0.05,0.04-0.1,0.08-0.16,0.1C66.25,67.26,66.19,67.27,66.13,67.27z"/>
</g>
<path class="st5" d="M96.28,94.2c-0.23,0-0.42-0.19-0.42-0.42v-6.96c0-0.23,0.19-0.42,0.42-0.42s0.42,0.19,0.42,0.42v6.96
	C96.71,94.01,96.52,94.2,96.28,94.2z"/>
<path class="st5" d="M96.28,75.6c-0.23,0-0.42-0.19-0.42-0.42v-6.96c0-0.23,0.19-0.42,0.42-0.42s0.42,0.19,0.42,0.42v6.96
	C96.71,75.41,96.52,75.6,96.28,75.6z"/>
</svg>
