<svg id="Gruppe_1016" data-name="Gruppe 1016" xmlns="http://www.w3.org/2000/svg" xmlns:xlink="http://www.w3.org/1999/xlink" width="265" height="97.314" viewBox="0 0 265 97.314">
  <defs>
    <clipPath id="clip-path">
      <path id="Pfad_850" data-name="Pfad 850" d="M2.913-19.294H262.761v-81.654H2.913Z" transform="translate(-2.913 100.948)" fill="none"/>
    </clipPath>
    <clipPath id="clip-path-4">
      <path id="Pfad_860" data-name="Pfad 860" d="M0-14.4H265v-97.314H0Z" transform="translate(0 111.711)" fill="none"/>
    </clipPath>
  </defs>
  <g id="Gruppe_1005" data-name="Gruppe 1005" transform="translate(2.538 9.376)" clip-path="url(#clip-path)">
    <g id="Gruppe_1001" data-name="Gruppe 1001" transform="translate(200.723 5.351)">
      <path id="Pfad_846" data-name="Pfad 846" d="M-3.786-4.917A5.383,5.383,0,0,0-6.833-9.783a5.42,5.42,0,0,0,3.047-4.886v-15.71q0-7.773-7.776-7.776H-29.378V13.678h6.694V-6.893H-20.5V-6.9h1.984v.013h4.981a3.851,3.851,0,0,1,2.511.541,3.848,3.848,0,0,1,.541,2.51V13.474h6.694ZM-10.48-15.751a3.843,3.843,0,0,1-.541,2.51,3.833,3.833,0,0,1-2.51.542h-9.154V-32.346h9.154a3.85,3.85,0,0,1,2.51.541,3.85,3.85,0,0,1,.541,2.51Z" transform="translate(29.378 38.154)" fill="#2b4d54"/>
    </g>
    <g id="Gruppe_1002" data-name="Gruppe 1002" transform="translate(0.127 4.898)">
      <path id="Pfad_847" data-name="Pfad 847" d="M-2.441-6.813a3.953,3.953,0,0,1-2.4.495H-9.154A3.934,3.934,0,0,1-11.6-6.813a3.345,3.345,0,0,1-.527-2.295v-7.224h-6.618v8.64q0,7.112,7.577,7.11h8.344q7.575,0,7.576-7.11V-22.827q0-7.107-7.576-7.109H-9.345a3.667,3.667,0,0,1-2.446-.54,3.36,3.36,0,0,1-.527-2.25V-43.865a3.347,3.347,0,0,1,.527-2.3,3.936,3.936,0,0,1,2.446-.495h4.41a3.941,3.941,0,0,1,2.446.495,3.35,3.35,0,0,1,.528,2.3v6.748H4.656v-8.641q0-7.107-7.576-7.108h-8.44q-7.577,0-7.577,7.108v14.022c0,4.741,2.525,7.554,7.577,7.554h6.523a3.961,3.961,0,0,1,2.4.494,3.139,3.139,0,0,1,.575,2.3V-9.108c0,1.2-.025,1.806-.409,2.135" transform="translate(18.937 52.866)" fill="#2b4d54"/>
    </g>
    <g id="Gruppe_1003" data-name="Gruppe 1003" transform="translate(235.929 4.898)">
      <path id="Pfad_848" data-name="Pfad 848" d="M-2.441-6.813a3.954,3.954,0,0,1-2.4.495H-9.154A3.934,3.934,0,0,1-11.6-6.813a3.341,3.341,0,0,1-.527-2.295v-7.224h-6.618v8.64q0,7.112,7.577,7.11h8.344q7.575,0,7.576-7.11V-22.827q0-7.107-7.576-7.109H-9.345a3.667,3.667,0,0,1-2.446-.54,3.359,3.359,0,0,1-.528-2.25V-43.865a3.346,3.346,0,0,1,.528-2.3,3.936,3.936,0,0,1,2.446-.495h4.41a3.941,3.941,0,0,1,2.446.495,3.351,3.351,0,0,1,.527,2.3v6.748H4.656v-8.641q0-7.107-7.576-7.108h-8.44q-7.577,0-7.577,7.108v14.022c0,4.741,2.525,7.554,7.577,7.554h6.522a3.962,3.962,0,0,1,2.4.494,3.139,3.139,0,0,1,.575,2.3V-9.108c0,1.2-.025,1.806-.409,2.135" transform="translate(18.937 52.866)" fill="#2b4d54"/>
    </g>
    <g id="Gruppe_1004" data-name="Gruppe 1004" transform="translate(33.171 5.351)">
      <path id="Pfad_849" data-name="Pfad 849" d="M-3.713-1.15q0-7.773-7.776-7.776h-9.548q-7.777,0-7.776,7.776V35.228q0,7.775,7.776,7.776h9.548q7.775,0,7.776-7.776V25.6h-6.792v8.544a3.615,3.615,0,0,1-.59,2.462,3.618,3.618,0,0,1-2.462.591h-5.412a3.6,3.6,0,0,1-2.511-.591,3.865,3.865,0,0,1-.541-2.462V-.068a3.842,3.842,0,0,1,.541-2.509,3.851,3.851,0,0,1,2.511-.541h5.412a3.874,3.874,0,0,1,2.462.541,3.594,3.594,0,0,1,.59,2.509V8.216h6.792Z" transform="translate(28.813 8.926)" fill="#2b4d54"/>
    </g>
  </g>
  <g id="Gruppe_1006" data-name="Gruppe 1006" transform="translate(70.157 14.727)">
    <path id="Pfad_851" data-name="Pfad 851" d="M-2.956-3.46h-13.19V-26.847h-6.791V24.984h6.791V2.348h13.19V24.984H3.835V-26.847H-2.956Z" transform="translate(22.938 26.847)" fill="#2b4d54"/>
  </g>
  <g id="Gruppe_1007" data-name="Gruppe 1007" transform="translate(107.756 14.727)">
    <path id="Pfad_852" data-name="Pfad 852" d="M-1-4.309h13.19v-5.808H-1V-27.622H15.137V-33.43H-7.8V18.4H15.827V12.594H-1Z" transform="translate(7.797 33.43)" fill="#2b4d54"/>
  </g>
  <g id="Gruppe_1009" data-name="Gruppe 1009" transform="translate(2.538 9.376)" clip-path="url(#clip-path)">
    <g id="Gruppe_1008" data-name="Gruppe 1008" transform="translate(136.223 5.352)">
      <path id="Pfad_853" data-name="Pfad 853" d="M-3.786-3.62V-20.313q0-7.775-7.776-7.776H-29.378v51.83h6.694V4.155h11.122q7.775,0,7.776-7.776M-10.48-4.7a3.842,3.842,0,0,1-.541,2.509,3.841,3.841,0,0,1-2.51.541h-9.154V-22.283h9.154a3.849,3.849,0,0,1,2.51.543,3.847,3.847,0,0,1,.541,2.509Z" transform="translate(29.378 28.089)" fill="#2b4d54"/>
    </g>
  </g>
  <g id="Gruppe_1010" data-name="Gruppe 1010" transform="translate(172.717 14.727)">
    <path id="Pfad_855" data-name="Pfad 855" d="M-1-4.309h13.19v-5.808H-1V-27.622H15.137V-33.43H-7.8V18.4H15.827V12.594H-1Z" transform="translate(7.797 33.43)" fill="#2b4d54"/>
  </g>
  <g id="Gruppe_1012" data-name="Gruppe 1012" transform="translate(2.538 9.376)" clip-path="url(#clip-path)">
    <g id="Gruppe_1011" data-name="Gruppe 1011" transform="translate(1.166 67.58)">
      <path id="Pfad_856" data-name="Pfad 856" d="M0,0H257.379" fill="none" stroke="#2b4d54" stroke-linecap="round" stroke-width="2"/>
    </g>
  </g>
  <g id="Gruppe_1015" data-name="Gruppe 1015" clip-path="url(#clip-path-4)">
    <g id="Gruppe_1013" data-name="Gruppe 1013" transform="translate(2.8 85.342)">
      <path id="Pfad_858" data-name="Pfad 858" d="M-.141-1.609V-12.235H-1.1V-.765H6.551v-.844ZM13.8-.765l1.176-2.444h6.911L23.059-.765h1.034l-5.5-11.47h-.329l-5.5,11.47Zm4.624-9.684L21.446-4.07H15.4Zm12.57,8.588a7.138,7.138,0,0,0,4.4,1.347c2.415,0,4.075-1.064,4.075-3.212,0-2.414-2.24-2.931-3.572-3.181-1.567-.3-4.107-.533-4.107-2.3,0-1.693,1.881-2.383,2.995-2.383a6.081,6.081,0,0,1,3.307,1l.471-.752a6.525,6.525,0,0,0-3.669-1.1c-1.787,0-4.043.813-4.043,3.274s2.9,2.775,4.184,3.025c1.818.361,3.5.738,3.5,2.4,0,1.442-1.129,2.383-3.183,2.383a6.729,6.729,0,0,1-3.871-1.27Zm24.54-9.53v-.844H47.683V-.765h7.849v-.844h-6.9V-5.967h6.082v-.846H48.636v-4.578ZM68.165-4.839l2.9,4.074H72.24L69.278-4.872a3.465,3.465,0,0,0,3.133-3.651,3.523,3.523,0,0,0-3.634-3.713H63.762V-.765h.954V-4.839Zm-3.449-6.552h3.92a2.7,2.7,0,0,1,2.821,2.869,2.674,2.674,0,0,1-2.821,2.808h-3.92Zm34.416-.844H90.955v.844h3.588V-.765H95.5V-11.391h3.634Zm16.019.844v-.844H107.3V-.765h7.851v-.844h-6.9V-5.967h6.08v-.846h-6.08v-4.578Zm17.631,1.238a5.277,5.277,0,0,0-4.592-2.3,5.882,5.882,0,0,0-5.8,5.972,5.881,5.881,0,0,0,5.8,5.97,5.114,5.114,0,0,0,4.623-2.3l-.876-.391A4.33,4.33,0,0,1,128.19-1.39a5.016,5.016,0,0,1-4.843-5.094,5.043,5.043,0,0,1,4.843-5.126,4.729,4.729,0,0,1,3.747,1.9Zm16.929-2.082V-6.7h-7.7v-5.532h-.955V-.765h.955V-5.859h7.7V-.765h.955v-11.47Zm19.6,0h-.953v9.277l-8.479-9.277h-.3V-.765h.955v-9.307L169-.765h.313ZM183.39-.514A5.808,5.808,0,0,0,189.236-6.5a5.817,5.817,0,0,0-5.846-5.985,5.8,5.8,0,0,0-5.8,5.985,5.788,5.788,0,0,0,5.8,5.986m0-11.127a5.066,5.066,0,0,1,4.891,5.14,5.057,5.057,0,0,1-4.891,5.143A5.049,5.049,0,0,1,178.547-6.5a5.057,5.057,0,0,1,4.843-5.14M198.42-1.609V-12.235h-.954V-.765h7.647v-.844ZM217.307-.514A5.808,5.808,0,0,0,223.152-6.5a5.816,5.816,0,0,0-5.845-5.985,5.8,5.8,0,0,0-5.8,5.985,5.788,5.788,0,0,0,5.8,5.986m0-11.127A5.066,5.066,0,0,1,222.2-6.5a5.057,5.057,0,0,1-4.89,5.143A5.049,5.049,0,0,1,212.463-6.5a5.058,5.058,0,0,1,4.843-5.14m23.525,1.191a5.677,5.677,0,0,0-4.357-2.02,5.9,5.9,0,0,0-5.8,5.986,5.783,5.783,0,0,0,5.8,5.97,5.335,5.335,0,0,0,5.641-5.953h-5.782v.844h4.813a4.362,4.362,0,0,1-4.671,4.249,4.941,4.941,0,0,1-4.86-5.11,5.056,5.056,0,0,1,4.86-5.126,4.706,4.706,0,0,1,3.59,1.693Zm7.743-1.785,4.184,7.129V-.765h.955V-5.106l4.278-7.129h-1.113l-3.635,6.08-3.572-6.08Z" transform="translate(1.096 12.486)" fill="#626262"/>
    </g>
    <g id="Gruppe_1014" data-name="Gruppe 1014" transform="translate(3.704 4.356)">
      <path id="Pfad_859" data-name="Pfad 859" d="M0,0H257.379" fill="none" stroke="#2b4d54" stroke-linecap="round" stroke-width="2"/>
    </g>
  </g>
</svg>
