<?xml version="1.0" encoding="utf-8"?>
<!-- Generator: Adobe Illustrator 23.0.3, SVG Export Plug-In . SVG Version: 6.00 Build 0)  -->
<svg version="1.1" id="Ebene_1" xmlns="http://www.w3.org/2000/svg" xmlns:xlink="http://www.w3.org/1999/xlink" x="0px" y="0px"
	 viewBox="0 0 113.39 113.39" style="enable-background:new 0 0 113.39 113.39;" xml:space="preserve">
<style type="text/css">
	.st0{fill:url(#SVGID_1_);}
	.st1{fill:url(#SVGID_2_);}
	.st2{fill:url(#SVGID_3_);}
	.st3{fill:url(#SVGID_4_);}
	.st4{fill:url(#SVGID_5_);}
	.st5{fill:url(#SVGID_6_);}
	.st6{fill:url(#SVGID_7_);}
	.st7{fill:url(#SVGID_8_);}
	.st8{fill:url(#SVGID_9_);}
	.st9{fill:url(#SVGID_10_);}
	.st10{fill:url(#SVGID_11_);}
	.st11{fill:url(#SVGID_12_);}
	.st12{fill:url(#SVGID_13_);}
	.st13{fill:url(#SVGID_14_);}
	.st14{fill:url(#SVGID_15_);}
	.st15{fill:url(#SVGID_16_);}
	.st16{fill:url(#SVGID_17_);}
	.st17{fill:url(#SVGID_18_);}
	.st18{fill:url(#SVGID_19_);}
	.st19{fill:url(#SVGID_20_);}
	.st20{fill:url(#SVGID_21_);}
	.st21{fill:url(#SVGID_22_);}
	.st22{fill:url(#SVGID_23_);}
	.st23{fill:url(#SVGID_24_);}
	.st24{fill:url(#SVGID_25_);}
	.st25{fill:url(#SVGID_26_);}
	.st26{fill:url(#SVGID_27_);}
	.st27{fill:url(#SVGID_28_);}
	.st28{fill:url(#SVGID_29_);}
	.st29{fill:url(#SVGID_30_);}
	.st30{fill:url(#SVGID_31_);}
	.st31{fill:url(#SVGID_32_);}
	.st32{fill:url(#SVGID_33_);}
	.st33{fill:#FFFFFF;}
	.st34{fill:url(#SVGID_34_);}
	.st35{fill:#009FE3;}
</style>
<linearGradient id="SVGID_1_" gradientUnits="userSpaceOnUse" x1="-306.7758" y1="1071.1702" x2="-269.2551" y2="1071.1702" gradientTransform="matrix(0.6046 -0.6046 -0.7071 -0.7071 968.576 612.6727)">
	<stop  offset="0.0323" style="stop-color:#A1DAF8;stop-opacity:0"/>
	<stop  offset="0.3461" style="stop-color:#A1DAF8"/>
	<stop  offset="0.6535" style="stop-color:#A1DAF8"/>
	<stop  offset="0.9634" style="stop-color:#A1DAF8;stop-opacity:0"/>
</linearGradient>
<polygon class="st0" points="50.12,19.8 27.43,42.48 23.92,38.96 46.6,16.28 "/>
<linearGradient id="SVGID_2_" gradientUnits="userSpaceOnUse" x1="-321.6534" y1="1063.4979" x2="-254.3775" y2="1063.4979" gradientTransform="matrix(0.6046 -0.6046 -0.7071 -0.7071 968.576 612.6727)">
	<stop  offset="0.0323" style="stop-color:#A1DAF8;stop-opacity:0"/>
	<stop  offset="0.3461" style="stop-color:#A1DAF8"/>
	<stop  offset="0.6535" style="stop-color:#A1DAF8"/>
	<stop  offset="0.9634" style="stop-color:#A1DAF8;stop-opacity:0"/>
</linearGradient>
<polygon class="st1" points="64.54,16.23 23.86,56.9 20.35,53.39 61.02,12.71 "/>
<linearGradient id="SVGID_3_" gradientUnits="userSpaceOnUse" x1="-329.8903" y1="1055.8258" x2="-246.1324" y2="1055.8258" gradientTransform="matrix(0.6046 -0.6046 -0.7071 -0.7071 968.576 612.6727)">
	<stop  offset="0.0323" style="stop-color:#A1DAF8;stop-opacity:0"/>
	<stop  offset="0.3461" style="stop-color:#A1DAF8"/>
	<stop  offset="0.6535" style="stop-color:#A1DAF8"/>
	<stop  offset="0.9634" style="stop-color:#A1DAF8;stop-opacity:0"/>
</linearGradient>
<polygon class="st2" points="74.95,16.67 24.31,67.31 20.79,63.79 71.43,13.15 "/>
<linearGradient id="SVGID_4_" gradientUnits="userSpaceOnUse" x1="-337.5896" y1="1048.1536" x2="-238.4331" y2="1048.1536" gradientTransform="matrix(0.6046 -0.6046 -0.7071 -0.7071 968.576 612.6727)">
	<stop  offset="0.0323" style="stop-color:#A1DAF8;stop-opacity:0"/>
	<stop  offset="0.3461" style="stop-color:#A1DAF8"/>
	<stop  offset="0.6535" style="stop-color:#A1DAF8"/>
	<stop  offset="0.9634" style="stop-color:#A1DAF8;stop-opacity:0"/>
</linearGradient>
<polygon class="st3" points="85.03,17.44 25.08,77.39 21.56,73.87 81.51,13.92 "/>
<linearGradient id="SVGID_5_" gradientUnits="userSpaceOnUse" x1="-337.5896" y1="1040.4744" x2="-238.4331" y2="1040.4744" gradientTransform="matrix(0.6046 -0.6046 -0.7071 -0.7071 968.576 612.6727)">
	<stop  offset="0.0323" style="stop-color:#A1DAF8;stop-opacity:0"/>
	<stop  offset="0.3461" style="stop-color:#A1DAF8"/>
	<stop  offset="0.6535" style="stop-color:#A1DAF8"/>
	<stop  offset="0.9634" style="stop-color:#A1DAF8;stop-opacity:0"/>
</linearGradient>
<polygon class="st4" points="90.46,22.87 30.51,82.82 26.99,79.3 86.94,19.35 "/>
<linearGradient id="SVGID_6_" gradientUnits="userSpaceOnUse" x1="-337.5978" y1="1032.8057" x2="-238.4331" y2="1032.8057" gradientTransform="matrix(0.6046 -0.6046 -0.7071 -0.7071 968.576 612.6727)">
	<stop  offset="0.0323" style="stop-color:#A1DAF8;stop-opacity:0"/>
	<stop  offset="0.3461" style="stop-color:#A1DAF8"/>
	<stop  offset="0.6535" style="stop-color:#A1DAF8"/>
	<stop  offset="0.9634" style="stop-color:#A1DAF8;stop-opacity:0"/>
</linearGradient>
<polygon class="st5" points="95.88,28.29 35.93,88.24 32.41,84.73 92.36,24.78 "/>
<linearGradient id="SVGID_7_" gradientUnits="userSpaceOnUse" x1="-337.5896" y1="1025.13" x2="-238.4331" y2="1025.13" gradientTransform="matrix(0.6046 -0.6046 -0.7071 -0.7071 968.576 612.6727)">
	<stop  offset="0.0323" style="stop-color:#A1DAF8;stop-opacity:0"/>
	<stop  offset="0.3461" style="stop-color:#A1DAF8"/>
	<stop  offset="0.6535" style="stop-color:#A1DAF8"/>
	<stop  offset="0.9634" style="stop-color:#A1DAF8;stop-opacity:0"/>
</linearGradient>
<polygon class="st6" points="101.31,33.72 41.36,93.67 37.84,90.15 97.79,30.2 "/>
<linearGradient id="SVGID_8_" gradientUnits="userSpaceOnUse" x1="-337.5978" y1="1017.4542" x2="-238.4331" y2="1017.4542" gradientTransform="matrix(0.6046 -0.6046 -0.7071 -0.7071 968.576 612.6727)">
	<stop  offset="0.0323" style="stop-color:#A1DAF8;stop-opacity:0"/>
	<stop  offset="0.3461" style="stop-color:#A1DAF8"/>
	<stop  offset="0.6535" style="stop-color:#A1DAF8"/>
	<stop  offset="0.9634" style="stop-color:#A1DAF8;stop-opacity:0"/>
</linearGradient>
<polygon class="st7" points="106.73,39.15 46.78,99.1 43.27,95.58 103.22,35.63 "/>
<linearGradient id="SVGID_9_" gradientUnits="userSpaceOnUse" x1="-329.8985" y1="1009.7785" x2="-246.1324" y2="1009.7785" gradientTransform="matrix(0.6046 -0.6046 -0.7071 -0.7071 968.576 612.6727)">
	<stop  offset="0.0323" style="stop-color:#A1DAF8;stop-opacity:0"/>
	<stop  offset="0.3461" style="stop-color:#A1DAF8"/>
	<stop  offset="0.6535" style="stop-color:#A1DAF8"/>
	<stop  offset="0.9634" style="stop-color:#A1DAF8;stop-opacity:0"/>
</linearGradient>
<polyline class="st8" points="56.86,99.87 53.35,96.35 103.99,45.71 107.51,49.23 56.86,99.87 "/>
<linearGradient id="SVGID_10_" gradientUnits="userSpaceOnUse" x1="-321.6534" y1="1002.1134" x2="-254.3693" y2="1002.1134" gradientTransform="matrix(0.6046 -0.6046 -0.7071 -0.7071 968.576 612.6727)">
	<stop  offset="0.0323" style="stop-color:#A1DAF8;stop-opacity:0"/>
	<stop  offset="0.3461" style="stop-color:#A1DAF8"/>
	<stop  offset="0.6535" style="stop-color:#A1DAF8"/>
	<stop  offset="0.9634" style="stop-color:#A1DAF8;stop-opacity:0"/>
</linearGradient>
<polyline class="st9" points="67.27,100.31 63.75,96.79 104.43,56.12 107.95,59.63 67.27,100.31 "/>
<linearGradient id="SVGID_11_" gradientUnits="userSpaceOnUse" x1="-306.7675" y1="994.4341" x2="-269.2551" y2="994.4341" gradientTransform="matrix(0.6046 -0.6046 -0.7071 -0.7071 968.576 612.6727)">
	<stop  offset="0.0323" style="stop-color:#A1DAF8;stop-opacity:0"/>
	<stop  offset="0.3461" style="stop-color:#A1DAF8"/>
	<stop  offset="0.6535" style="stop-color:#A1DAF8"/>
	<stop  offset="0.9634" style="stop-color:#A1DAF8;stop-opacity:0"/>
</linearGradient>
<polygon class="st10" points="104.38,74.06 81.7,96.74 78.18,93.22 100.86,70.54 "/>
<g>
	
		<linearGradient id="SVGID_12_" gradientUnits="userSpaceOnUse" x1="-306.7758" y1="1074.3345" x2="-269.2469" y2="1074.3345" gradientTransform="matrix(0.6046 -0.6046 -0.7071 -0.7071 968.576 612.6727)">
		<stop  offset="0.0323" style="stop-color:#56B7E0;stop-opacity:0"/>
		<stop  offset="0.3464" style="stop-color:#56B7E0"/>
		<stop  offset="0.6535" style="stop-color:#56B7E0"/>
		<stop  offset="0.9634" style="stop-color:#56B7E0;stop-opacity:0"/>
	</linearGradient>
	<polygon class="st11" points="46.6,16.28 23.92,38.96 22.96,38.01 45.65,15.32 	"/>
	
		<linearGradient id="SVGID_13_" gradientUnits="userSpaceOnUse" x1="-321.6534" y1="1066.6587" x2="-254.3693" y2="1066.6587" gradientTransform="matrix(0.6046 -0.6046 -0.7071 -0.7071 968.576 612.6727)">
		<stop  offset="0.0323" style="stop-color:#56B7E0;stop-opacity:0"/>
		<stop  offset="0.3464" style="stop-color:#56B7E0"/>
		<stop  offset="0.6535" style="stop-color:#56B7E0"/>
		<stop  offset="0.9634" style="stop-color:#56B7E0;stop-opacity:0"/>
	</linearGradient>
	<polygon class="st12" points="61.02,12.71 20.35,53.39 19.39,52.43 60.07,11.75 	"/>
	
		<linearGradient id="SVGID_14_" gradientUnits="userSpaceOnUse" x1="-329.8903" y1="1058.9866" x2="-246.1324" y2="1058.9866" gradientTransform="matrix(0.6046 -0.6046 -0.7071 -0.7071 968.576 612.6727)">
		<stop  offset="0.0323" style="stop-color:#56B7E0;stop-opacity:0"/>
		<stop  offset="0.3464" style="stop-color:#56B7E0"/>
		<stop  offset="0.6535" style="stop-color:#56B7E0"/>
		<stop  offset="0.9634" style="stop-color:#56B7E0;stop-opacity:0"/>
	</linearGradient>
	<polygon class="st13" points="71.43,13.15 20.79,63.79 19.84,62.84 70.48,12.2 	"/>
	
		<linearGradient id="SVGID_15_" gradientUnits="userSpaceOnUse" x1="-337.5896" y1="1051.3143" x2="-238.4331" y2="1051.3143" gradientTransform="matrix(0.6046 -0.6046 -0.7071 -0.7071 968.576 612.6727)">
		<stop  offset="0.0323" style="stop-color:#56B7E0;stop-opacity:0"/>
		<stop  offset="0.3464" style="stop-color:#56B7E0"/>
		<stop  offset="0.6535" style="stop-color:#56B7E0"/>
		<stop  offset="0.9634" style="stop-color:#56B7E0;stop-opacity:0"/>
	</linearGradient>
	<polygon class="st14" points="81.51,13.92 21.56,73.87 20.61,72.92 80.56,12.97 	"/>
	
		<linearGradient id="SVGID_16_" gradientUnits="userSpaceOnUse" x1="-337.5978" y1="1043.6387" x2="-238.4331" y2="1043.6387" gradientTransform="matrix(0.6046 -0.6046 -0.7071 -0.7071 968.576 612.6727)">
		<stop  offset="0.0323" style="stop-color:#56B7E0;stop-opacity:0"/>
		<stop  offset="0.3464" style="stop-color:#56B7E0"/>
		<stop  offset="0.6535" style="stop-color:#56B7E0"/>
		<stop  offset="0.9634" style="stop-color:#56B7E0;stop-opacity:0"/>
	</linearGradient>
	<polygon class="st15" points="86.94,19.35 26.99,79.3 26.03,78.35 85.98,18.4 	"/>
	
		<linearGradient id="SVGID_17_" gradientUnits="userSpaceOnUse" x1="-337.5978" y1="1035.9664" x2="-238.4331" y2="1035.9664" gradientTransform="matrix(0.6046 -0.6046 -0.7071 -0.7071 968.576 612.6727)">
		<stop  offset="0.0323" style="stop-color:#56B7E0;stop-opacity:0"/>
		<stop  offset="0.3464" style="stop-color:#56B7E0"/>
		<stop  offset="0.6535" style="stop-color:#56B7E0"/>
		<stop  offset="0.9634" style="stop-color:#56B7E0;stop-opacity:0"/>
	</linearGradient>
	<polygon class="st16" points="92.36,24.78 32.41,84.73 31.46,83.77 91.41,23.82 	"/>
	
		<linearGradient id="SVGID_18_" gradientUnits="userSpaceOnUse" x1="-337.5896" y1="1028.2908" x2="-238.4331" y2="1028.2908" gradientTransform="matrix(0.6046 -0.6046 -0.7071 -0.7071 968.576 612.6727)">
		<stop  offset="0.0323" style="stop-color:#56B7E0;stop-opacity:0"/>
		<stop  offset="0.3464" style="stop-color:#56B7E0"/>
		<stop  offset="0.6535" style="stop-color:#56B7E0"/>
		<stop  offset="0.9634" style="stop-color:#56B7E0;stop-opacity:0"/>
	</linearGradient>
	<polygon class="st17" points="97.79,30.2 37.84,90.15 36.89,89.2 96.84,29.25 	"/>
	
		<linearGradient id="SVGID_19_" gradientUnits="userSpaceOnUse" x1="-337.5896" y1="1020.6186" x2="-238.4331" y2="1020.6186" gradientTransform="matrix(0.6046 -0.6046 -0.7071 -0.7071 968.576 612.6727)">
		<stop  offset="0.0323" style="stop-color:#56B7E0;stop-opacity:0"/>
		<stop  offset="0.3464" style="stop-color:#56B7E0"/>
		<stop  offset="0.6535" style="stop-color:#56B7E0"/>
		<stop  offset="0.9634" style="stop-color:#56B7E0;stop-opacity:0"/>
	</linearGradient>
	<polygon class="st18" points="103.22,35.63 43.27,95.58 42.31,94.62 102.26,34.67 	"/>
	
		<linearGradient id="SVGID_20_" gradientUnits="userSpaceOnUse" x1="-329.8985" y1="1012.9464" x2="-246.1324" y2="1012.9464" gradientTransform="matrix(0.6046 -0.6046 -0.7071 -0.7071 968.576 612.6727)">
		<stop  offset="0.0323" style="stop-color:#56B7E0;stop-opacity:0"/>
		<stop  offset="0.3464" style="stop-color:#56B7E0"/>
		<stop  offset="0.6535" style="stop-color:#56B7E0"/>
		<stop  offset="0.9634" style="stop-color:#56B7E0;stop-opacity:0"/>
	</linearGradient>
	<polygon class="st19" points="103.99,45.71 53.35,96.35 52.39,95.4 103.03,44.75 	"/>
	
		<linearGradient id="SVGID_21_" gradientUnits="userSpaceOnUse" x1="-321.6534" y1="1005.2707" x2="-254.3692" y2="1005.2707" gradientTransform="matrix(0.6046 -0.6046 -0.7071 -0.7071 968.576 612.6727)">
		<stop  offset="0.0323" style="stop-color:#56B7E0;stop-opacity:0"/>
		<stop  offset="0.3464" style="stop-color:#56B7E0"/>
		<stop  offset="0.6535" style="stop-color:#56B7E0"/>
		<stop  offset="0.9634" style="stop-color:#56B7E0;stop-opacity:0"/>
	</linearGradient>
	<polygon class="st20" points="104.43,56.12 63.75,96.79 62.8,95.84 103.48,55.16 	"/>
	
		<linearGradient id="SVGID_22_" gradientUnits="userSpaceOnUse" x1="-306.7758" y1="997.5985" x2="-269.2551" y2="997.5985" gradientTransform="matrix(0.6046 -0.6046 -0.7071 -0.7071 968.576 612.6727)">
		<stop  offset="0.0323" style="stop-color:#56B7E0;stop-opacity:0"/>
		<stop  offset="0.3464" style="stop-color:#56B7E0"/>
		<stop  offset="0.6535" style="stop-color:#56B7E0"/>
		<stop  offset="0.9634" style="stop-color:#56B7E0;stop-opacity:0"/>
	</linearGradient>
	<polygon class="st21" points="100.86,70.54 78.18,93.22 77.22,92.27 99.91,69.59 	"/>
</g>
<g>
	
		<linearGradient id="SVGID_23_" gradientUnits="userSpaceOnUse" x1="-306.7758" y1="1075.6851" x2="-269.2469" y2="1075.6851" gradientTransform="matrix(0.6046 -0.6046 -0.7071 -0.7071 968.576 612.6727)">
		<stop  offset="0.0323" style="stop-color:#D4EDFC;stop-opacity:0"/>
		<stop  offset="0.3461" style="stop-color:#D4EDFC"/>
		<stop  offset="0.6535" style="stop-color:#D4EDFC"/>
		<stop  offset="0.9634" style="stop-color:#D4EDFC;stop-opacity:0"/>
	</linearGradient>
	<polygon class="st22" points="45.65,15.32 22.96,38.01 22.01,37.06 44.69,14.37 	"/>
	
		<linearGradient id="SVGID_24_" gradientUnits="userSpaceOnUse" x1="-321.6534" y1="1068.0093" x2="-254.3693" y2="1068.0093" gradientTransform="matrix(0.6046 -0.6046 -0.7071 -0.7071 968.576 612.6727)">
		<stop  offset="0.0323" style="stop-color:#D4EDFC;stop-opacity:0"/>
		<stop  offset="0.3461" style="stop-color:#D4EDFC"/>
		<stop  offset="0.6535" style="stop-color:#D4EDFC"/>
		<stop  offset="0.9634" style="stop-color:#D4EDFC;stop-opacity:0"/>
	</linearGradient>
	<polygon class="st23" points="60.07,11.75 19.39,52.43 18.44,51.48 59.12,10.8 	"/>
	
		<linearGradient id="SVGID_25_" gradientUnits="userSpaceOnUse" x1="-329.8985" y1="1060.3372" x2="-246.1324" y2="1060.3372" gradientTransform="matrix(0.6046 -0.6046 -0.7071 -0.7071 968.576 612.6727)">
		<stop  offset="0.0323" style="stop-color:#D4EDFC;stop-opacity:0"/>
		<stop  offset="0.3461" style="stop-color:#D4EDFC"/>
		<stop  offset="0.6535" style="stop-color:#D4EDFC"/>
		<stop  offset="0.9634" style="stop-color:#D4EDFC;stop-opacity:0"/>
	</linearGradient>
	<polygon class="st24" points="70.48,12.2 19.84,62.84 18.88,61.89 69.52,11.24 	"/>
	
		<linearGradient id="SVGID_26_" gradientUnits="userSpaceOnUse" x1="-337.5978" y1="1052.6614" x2="-238.4331" y2="1052.6614" gradientTransform="matrix(0.6046 -0.6046 -0.7071 -0.7071 968.576 612.6727)">
		<stop  offset="0.0323" style="stop-color:#D4EDFC;stop-opacity:0"/>
		<stop  offset="0.3461" style="stop-color:#D4EDFC"/>
		<stop  offset="0.6535" style="stop-color:#D4EDFC"/>
		<stop  offset="0.9634" style="stop-color:#D4EDFC;stop-opacity:0"/>
	</linearGradient>
	<polygon class="st25" points="80.56,12.97 20.61,72.92 19.65,71.97 79.6,12.02 	"/>
	
		<linearGradient id="SVGID_27_" gradientUnits="userSpaceOnUse" x1="-337.5978" y1="1044.9893" x2="-238.4331" y2="1044.9893" gradientTransform="matrix(0.6046 -0.6046 -0.7071 -0.7071 968.576 612.6727)">
		<stop  offset="0.0323" style="stop-color:#D4EDFC;stop-opacity:0"/>
		<stop  offset="0.3461" style="stop-color:#D4EDFC"/>
		<stop  offset="0.6535" style="stop-color:#D4EDFC"/>
		<stop  offset="0.9634" style="stop-color:#D4EDFC;stop-opacity:0"/>
	</linearGradient>
	<polygon class="st26" points="85.98,18.4 26.03,78.35 25.08,77.39 85.03,17.44 	"/>
	
		<linearGradient id="SVGID_28_" gradientUnits="userSpaceOnUse" x1="-337.5896" y1="1037.3135" x2="-238.4331" y2="1037.3135" gradientTransform="matrix(0.6046 -0.6046 -0.7071 -0.7071 968.576 612.6727)">
		<stop  offset="0.0323" style="stop-color:#D4EDFC;stop-opacity:0"/>
		<stop  offset="0.3461" style="stop-color:#D4EDFC"/>
		<stop  offset="0.6535" style="stop-color:#D4EDFC"/>
		<stop  offset="0.9634" style="stop-color:#D4EDFC;stop-opacity:0"/>
	</linearGradient>
	<polygon class="st27" points="91.41,23.82 31.46,83.77 30.51,82.82 90.46,22.87 	"/>
	
		<linearGradient id="SVGID_29_" gradientUnits="userSpaceOnUse" x1="-337.5896" y1="1029.6414" x2="-238.4331" y2="1029.6414" gradientTransform="matrix(0.6046 -0.6046 -0.7071 -0.7071 968.576 612.6727)">
		<stop  offset="0.0323" style="stop-color:#D4EDFC;stop-opacity:0"/>
		<stop  offset="0.3461" style="stop-color:#D4EDFC"/>
		<stop  offset="0.6535" style="stop-color:#D4EDFC"/>
		<stop  offset="0.9634" style="stop-color:#D4EDFC;stop-opacity:0"/>
	</linearGradient>
	<polygon class="st28" points="96.84,29.25 36.89,89.2 35.93,88.24 95.88,28.29 	"/>
	
		<linearGradient id="SVGID_30_" gradientUnits="userSpaceOnUse" x1="-337.5896" y1="1021.9692" x2="-238.4331" y2="1021.9692" gradientTransform="matrix(0.6046 -0.6046 -0.7071 -0.7071 968.576 612.6727)">
		<stop  offset="0.0323" style="stop-color:#D4EDFC;stop-opacity:0"/>
		<stop  offset="0.3461" style="stop-color:#D4EDFC"/>
		<stop  offset="0.6535" style="stop-color:#D4EDFC"/>
		<stop  offset="0.9634" style="stop-color:#D4EDFC;stop-opacity:0"/>
	</linearGradient>
	<polygon class="st29" points="102.26,34.67 42.31,94.62 41.36,93.67 101.31,33.72 	"/>
	
		<linearGradient id="SVGID_31_" gradientUnits="userSpaceOnUse" x1="-329.8985" y1="1014.2935" x2="-246.1324" y2="1014.2935" gradientTransform="matrix(0.6046 -0.6046 -0.7071 -0.7071 968.576 612.6727)">
		<stop  offset="0.0323" style="stop-color:#D4EDFC;stop-opacity:0"/>
		<stop  offset="0.3461" style="stop-color:#D4EDFC"/>
		<stop  offset="0.6535" style="stop-color:#D4EDFC"/>
		<stop  offset="0.9634" style="stop-color:#D4EDFC;stop-opacity:0"/>
	</linearGradient>
	<polygon class="st30" points="103.03,44.75 52.39,95.4 51.44,94.44 102.08,43.8 	"/>
	
		<linearGradient id="SVGID_32_" gradientUnits="userSpaceOnUse" x1="-321.6534" y1="1006.6213" x2="-254.3692" y2="1006.6213" gradientTransform="matrix(0.6046 -0.6046 -0.7071 -0.7071 968.576 612.6727)">
		<stop  offset="0.0323" style="stop-color:#D4EDFC;stop-opacity:0"/>
		<stop  offset="0.3461" style="stop-color:#D4EDFC"/>
		<stop  offset="0.6535" style="stop-color:#D4EDFC"/>
		<stop  offset="0.9634" style="stop-color:#D4EDFC;stop-opacity:0"/>
	</linearGradient>
	<polygon class="st31" points="103.48,55.16 62.8,95.84 61.85,94.89 102.52,54.21 	"/>
	
		<linearGradient id="SVGID_33_" gradientUnits="userSpaceOnUse" x1="-306.7758" y1="998.9456" x2="-269.2551" y2="998.9456" gradientTransform="matrix(0.6046 -0.6046 -0.7071 -0.7071 968.576 612.6727)">
		<stop  offset="0.0323" style="stop-color:#D4EDFC;stop-opacity:0"/>
		<stop  offset="0.3461" style="stop-color:#D4EDFC"/>
		<stop  offset="0.6535" style="stop-color:#D4EDFC"/>
		<stop  offset="0.9634" style="stop-color:#D4EDFC;stop-opacity:0"/>
	</linearGradient>
	<polygon class="st32" points="99.91,69.59 77.22,92.27 76.27,91.32 98.95,68.63 	"/>
</g>
<path class="st33" d="M50.33,29.69c0,0-3.75-4.97-8.45-7.62c-6.08-3.43-12.02-3.58-12.84-2.75c-0.82,0.82,4.32,3.87,4.65,9.73
	c0.31,5.4-0.39,7.88-1.25,10.5l-1.12,4.2c0,0,4.5-5.51,7.94-7.95C42.69,33.36,50.33,29.69,50.33,29.69z"/>
<path class="st33" d="M104.21,29.66c-3.65,0.54-21.04,4.43-27.05,6.36c-6,1.93-14.33,5.8-14.33,5.8s-5.75,0.82-9.99,2.15
	c-2.96,0.93-5.61,1.87-7.98,2.9l-0.09-0.21c0,0-10.24,0.75-17.05,2.36S8.07,55.89,8.07,55.89s11.08-0.32,14.97,0.32
	s5.71,2.04,5.71,2.04c0.64,8.7,8.59,14.06,13.9,16.33s16.37,4.6,17.57,5.12c1.19,0.52,2.57,6.03,4.1,8.71s5.66,10.31,5.66,10.31
	s-0.11-3.65-0.11-5.15s-0.11-7.73,0.11-9.66s-0.86-3.76-0.86-3.76s2.86-0.58,4.16-1.5s10.64-11.02,10.64-11.02s-6.11,1.71-9.11,2.39
	S60.48,75.1,60.48,75.1s-13.15-3.76-15.19-10.16c-2.04-6.4,5.48-9.49,14.37-13.14s15.7-4.94,20.87-6.98s7.37-3.62,7.37-4.38
	c0,0,1.88-0.88,4.48-1.88c2.6-1.01,8.79-4.81,10.09-6C103.75,31.37,104.21,29.66,104.21,29.66z"/>
<linearGradient id="SVGID_34_" gradientUnits="userSpaceOnUse" x1="29.64" y1="76.9814" x2="104.86" y2="76.9814" gradientTransform="matrix(1 0 0 -1 0 113.8898)">
	<stop  offset="0.0923" style="stop-color:#FFFFFF"/>
	<stop  offset="0.4571" style="stop-color:#A1DAF8"/>
	<stop  offset="1" style="stop-color:#008AB5"/>
</linearGradient>
<path class="st34" d="M30.36,46.61c0,0,5.46-12.38,19.97-16.92c16.39-5.12,27.62-5.02,41.33-3.76c9.01,0.83,12.99,2.15,13.2,3.44
	l-2.36,0.86c-3.65,0.54-19.34,3.86-25.34,5.8c-6,1.93-14.33,5.8-14.33,5.8s-5.75,0.82-9.99,2.15c-2.71,0.85-5.16,1.71-7.38,2.64
	c0,0-5.41,0.42-8.39,0.83c-2.98,0.4-7.43,1.16-7.43,1.16L30.36,46.61z"/>
<path d="M31.01,61.54c-0.2,0-0.38-0.14-0.42-0.35c-0.38-2.15,1.06-5.05,4.06-8.17c3.65-3.8,9.05-6.63,18.07-9.45
	c3.99-1.25,9.36-2.06,10-2.15c0.75-0.34,8.62-3.96,14.32-5.79c6.08-1.96,23.42-5.84,27.11-6.38c0.22-0.03,0.45,0.13,0.48,0.36
	c0.03,0.23-0.13,0.45-0.36,0.48c-3.67,0.54-20.92,4.4-26.98,6.35c-5.91,1.9-14.2,5.74-14.28,5.78c-0.04,0.02-0.08,0.03-0.12,0.04
	c-0.06,0.01-5.77,0.83-9.93,2.13c-8.87,2.78-14.17,5.54-17.71,9.23c-2.8,2.92-4.16,5.56-3.83,7.43c0.04,0.23-0.11,0.45-0.35,0.49
	C31.06,61.53,31.03,61.54,31.01,61.54z"/>
<path d="M69.98,99.15c-0.15,0-0.3-0.08-0.37-0.22c-0.04-0.08-4.14-7.65-5.65-10.3c-0.66-1.15-1.28-2.77-1.87-4.34
	c-0.67-1.76-1.5-3.96-2.03-4.19c-0.36-0.16-1.93-0.55-3.75-1.01c-4.07-1.02-10.21-2.57-13.81-4.11
	c-3.11-1.33-13.27-6.43-14.14-16.49c-0.5-0.33-2.26-1.34-5.37-1.86C19.17,56,8.19,56.31,8.08,56.31c-0.22,0.03-0.39-0.14-0.43-0.34
	s0.06-0.4,0.25-0.48c0.13-0.05,12.96-5.29,19.71-6.89c6.76-1.6,17.01-2.36,17.11-2.37c0.24-0.02,0.44,0.16,0.46,0.39
	s-0.16,0.44-0.39,0.46c-0.1,0.01-10.29,0.77-16.98,2.35c-5.02,1.19-13.46,4.42-17.42,5.98c3.48-0.06,9.89-0.09,12.71,0.38
	c3.95,0.65,5.82,2.06,5.9,2.12c0.1,0.07,0.16,0.19,0.17,0.31C29.9,67.94,39.8,72.9,42.82,74.2c3.54,1.51,9.65,3.05,13.69,4.07
	c2.27,0.57,3.48,0.88,3.88,1.06c0.81,0.36,1.47,2.01,2.48,4.67c0.58,1.54,1.19,3.13,1.81,4.22c1.09,1.91,3.52,6.37,4.82,8.75
	c-0.03-1.15-0.06-2.58-0.06-3.39c0-0.29,0-0.74-0.01-1.31c-0.02-2.38-0.06-6.81,0.12-8.4c0.2-1.77-0.79-3.48-0.8-3.5
	c-0.07-0.12-0.08-0.26-0.02-0.39c0.06-0.13,0.17-0.22,0.3-0.24c0.03,0,2.78-0.57,4-1.43c0.9-0.64,6.17-6.22,9.56-9.86
	c-2,0.55-5.61,1.53-7.68,2c-2.93,0.67-14.16,5.02-14.28,5.06c-0.09,0.03-0.18,0.04-0.27,0.01c-0.55-0.16-13.39-3.9-15.48-10.43
	c-2.16-6.77,5.61-9.97,14.61-13.66c5.23-2.15,9.68-3.46,13.61-4.62c2.76-0.81,5.14-1.52,7.26-2.36c2.77-1.09,6.51-2.69,7.04-3.97
	c0.08-0.18,0.08-0.35,0-0.51c-0.63-0.73-8.12-0.16-14.69,0.79c-0.22,0.04-0.45-0.13-0.48-0.36c-0.03-0.23,0.13-0.45,0.36-0.48
	c5.52-0.8,14.89-1.9,15.59-0.29c0.17,0.38,0.17,0.78,0,1.18c-0.52,1.25-2.7,2.53-7.52,4.43c-2.16,0.85-4.56,1.56-7.34,2.38
	c-3.91,1.16-8.34,2.46-13.53,4.6c-8.61,3.54-16.05,6.59-14.12,12.62c1.84,5.77,13.38,9.42,14.77,9.83
	c1.35-0.52,11.41-4.4,14.26-5.05c2.95-0.67,9.03-2.37,9.09-2.39c0.19-0.05,0.38,0.03,0.48,0.19c0.1,0.16,0.08,0.37-0.05,0.51
	c-0.37,0.4-9.38,10.12-10.7,11.07c-1.02,0.72-2.86,1.23-3.78,1.45c0.32,0.71,0.82,2.07,0.66,3.51c-0.17,1.54-0.13,5.94-0.11,8.3
	c0,0.57,0.01,1.03,0.01,1.31c0,1.48,0.11,5.1,0.11,5.14c0.01,0.2-0.12,0.37-0.31,0.42C70.05,99.15,70.02,99.15,69.98,99.15z"/>
<path d="M32.44,39.98c-0.04,0-0.09-0.01-0.13-0.02c-0.22-0.07-0.34-0.31-0.27-0.54c0.88-2.68,1.53-5.14,1.23-10.35
	c-0.2-3.57-2.24-6.03-3.59-7.65c-0.91-1.1-1.51-1.82-0.94-2.4c1.09-1.09,7.33-0.72,13.35,2.68c4.72,2.66,8.42,7.53,8.58,7.74
	c0.14,0.19,0.1,0.45-0.08,0.6c-0.19,0.14-0.45,0.1-0.6-0.08c-0.04-0.05-3.75-4.94-8.32-7.51c-6.16-3.47-11.77-3.39-12.33-2.82
	c0.05,0.12,0.57,0.75,0.99,1.25c1.33,1.61,3.56,4.3,3.78,8.15c0.31,5.36-0.36,7.9-1.27,10.66C32.79,39.87,32.62,39.98,32.44,39.98z"
	/>
<path d="M73.75,31.89c-0.15,0-0.29-0.08-0.37-0.21c-0.12-0.2-0.05-0.46,0.16-0.58l1.26-0.73c-0.4-0.08-0.92-0.14-1.52-0.14
	c-1.86,0-2.51,0.36-2.52,0.37c-0.2,0.12-0.46,0.05-0.58-0.15c-0.12-0.2-0.06-0.45,0.13-0.58c0.08-0.05,0.85-0.49,2.96-0.49
	c1.66,0,2.73,0.44,2.77,0.46c0.15,0.06,0.25,0.2,0.26,0.37c0.01,0.16-0.07,0.31-0.21,0.39l-2.14,1.24
	C73.89,31.87,73.82,31.89,73.75,31.89z"/>
<path class="st35" d="M30.36,47.46c-0.11,0-0.23-0.02-0.34-0.07c-0.43-0.19-0.63-0.69-0.44-1.12c0.21-0.49,5.39-12.11,20.47-17.38
	c16.06-5.61,27.41-5.12,41.69-3.8c13.48,1.24,13.83,3.35,13.97,4.14c0.27,1.63-2.32,4.16-7.69,7.52c-4.32,2.7-7.48,3.86-7.61,3.91
	c-0.44,0.16-0.93-0.07-1.09-0.51s0.07-0.93,0.51-1.09c0.03-0.01,3.14-1.16,7.29-3.76c5.64-3.52,6.91-5.42,6.91-5.81l0,0
	c-0.01,0-0.93-1.65-12.44-2.71C77.53,25.49,66.35,25,50.61,30.5c-14.35,5.02-19.43,16.34-19.48,16.46
	C31,47.27,30.69,47.46,30.36,47.46z"/>
</svg>
