<?xml version="1.0" encoding="utf-8"?>
<!-- Generator: Adobe Illustrator 23.0.3, SVG Export Plug-In . SVG Version: 6.00 Build 0)  -->
<svg version="1.1" id="Ebene_1" xmlns="http://www.w3.org/2000/svg" xmlns:xlink="http://www.w3.org/1999/xlink" x="0px" y="0px"
	 viewBox="0 0 113.39 113.39" style="enable-background:new 0 0 113.39 113.39;" xml:space="preserve">
<style type="text/css">
	.st0{fill:#A1DAF8;}
	.st1{fill:url(#SVGID_1_);}
	.st2{fill:#00B6ED;}
	.st3{fill:url(#SVGID_2_);}
	.st4{opacity:0.15;enable-background:new    ;}
	.st5{opacity:0.4;enable-background:new    ;}
	.st6{fill:#FFFFFF;}
	.st7{opacity:0.9;fill:url(#SVGID_3_);enable-background:new    ;}
	.st8{clip-path:url(#SVGID_5_);fill:url(#SVGID_6_);}
</style>
<path class="st0" d="M80.13,19.64C81.17,24.27,86.16,30,86.16,30s4.98-0.76,7.62-3.4C88.13,23.73,87.2,23.25,80.13,19.64z"/>
<linearGradient id="SVGID_1_" gradientUnits="userSpaceOnUse" x1="16.8407" y1="21.6753" x2="59.3793" y2="95.3542" gradientTransform="matrix(1 0 0 -1 0 113.8898)">
	<stop  offset="0.0299" style="stop-color:#C9E8FB"/>
	<stop  offset="0.1672" style="stop-color:#BFE5FB"/>
	<stop  offset="0.3998" style="stop-color:#A3DAF8"/>
	<stop  offset="0.6781" style="stop-color:#71CBF4"/>
	<stop  offset="0.8779" style="stop-color:#22BCEF"/>
	<stop  offset="0.9997" style="stop-color:#00B6ED"/>
</linearGradient>
<rect x="19.05" y="17.26" class="st1" width="38.12" height="76.23"/>
<path class="st2" d="M95.28,93.49H57.17V17.26c0,0-3.63,0,12.21,0C85,17.26,87,28.17,87,28.17s8.28-5.33,8.28,1.87
	S95.28,93.49,95.28,93.49z"/>
<radialGradient id="SVGID_2_" cx="36.78" cy="77.5398" r="20.25" gradientTransform="matrix(1 0 0 -1 0 113.8898)" gradientUnits="userSpaceOnUse">
	<stop  offset="0.1618" style="stop-color:#FFFFFF"/>
	<stop  offset="0.9169" style="stop-color:#FFFFFF;stop-opacity:0"/>
</radialGradient>
<circle class="st3" cx="36.78" cy="36.35" r="20.25"/>
<path class="st4" d="M57.2,70.97l-1.89-5.81h-5.89l-9.23,28.33h5.13l2.21-7.68h9.5l0.18,0.62V70.97H57.2z M48.66,81.87l1-3.46
	c0.9-3,1.73-6.2,2.51-9.34h0.17c0.83,3.11,1.66,6.34,2.56,9.34l0.99,3.46H48.66z"/>
<path class="st5" d="M82.09,81.68c3.4-1.18,5.67-3.82,5.67-8.12c0-6.32-4.54-8.4-10.43-8.4h-9.55v28.33h5.03V82.42h4.32l6.1,11.07
	h5.65L82.09,81.68z M76.81,78.4h-4v-9.22h4c3.88,0,5.99,1.13,5.99,4.38C82.8,76.79,80.69,78.4,76.81,78.4z M57.2,70.97l7.34,22.52
	h-5.32l-2.02-7.06V70.97z"/>
<path class="st6" d="M57.17,94.34c-0.47,0-0.85-0.38-0.85-0.85V17.26c0-0.47,0.38-0.85,0.85-0.85s0.85,0.38,0.85,0.85v76.23
	C58.02,93.96,57.64,94.34,57.17,94.34z"/>
<radialGradient id="SVGID_3_" cx="46.42" cy="36.6098" r="11.58" gradientTransform="matrix(1 0 0 -1 0 113.8898)" gradientUnits="userSpaceOnUse">
	<stop  offset="0.1618" style="stop-color:#FFFFFF"/>
	<stop  offset="0.9169" style="stop-color:#FFFFFF;stop-opacity:0"/>
</radialGradient>
<circle class="st7" cx="46.42" cy="77.28" r="11.58"/>
<g>
	<g>
		<defs>
			<rect id="SVGID_4_" x="19.05" y="17.26" width="38.12" height="76.23"/>
		</defs>
		<clipPath id="SVGID_5_">
			<use xlink:href="#SVGID_4_"  style="overflow:visible;"/>
		</clipPath>
		
			<radialGradient id="SVGID_6_" cx="19.05" cy="336.3062" r="43.3423" gradientTransform="matrix(1 0 0 -1.5649 0 544.9755)" gradientUnits="userSpaceOnUse">
			<stop  offset="0.1618" style="stop-color:#FFFFFF"/>
			<stop  offset="0.9169" style="stop-color:#FFFFFF;stop-opacity:0"/>
		</radialGradient>
		<ellipse class="st8" cx="19.05" cy="18.69" rx="43.34" ry="67.83"/>
	</g>
</g>
</svg>
