<?xml version="1.0" encoding="utf-8"?>
<!-- Generator: Adobe Illustrator 23.0.3, SVG Export Plug-In . SVG Version: 6.00 Build 0)  -->
<svg version="1.1" id="Ebene_1" xmlns="http://www.w3.org/2000/svg" xmlns:xlink="http://www.w3.org/1999/xlink" x="0px" y="0px"
	 viewBox="0 0 113.39 113.39" style="enable-background:new 0 0 113.39 113.39;" xml:space="preserve">
<style type="text/css">
	.st0{fill:url(#SVGID_1_);}
	.st1{fill:url(#SVGID_2_);}
	.st2{fill:#FFFFFF;}
	.st3{fill:url(#SVGID_3_);}
	.st4{fill:#009FE3;}
	.st5{fill:#9D9D9C;}
</style>
<g>
	<g>
		
			<linearGradient id="SVGID_1_" gradientUnits="userSpaceOnUse" x1="16.6" y1="49.0198" x2="79.82" y2="49.0198" gradientTransform="matrix(1 0 0 -1 0 113.8898)">
			<stop  offset="0" style="stop-color:#009FE3"/>
			<stop  offset="1" style="stop-color:#009FE3;stop-opacity:0.25"/>
		</linearGradient>
		<circle class="st0" cx="48.21" cy="64.87" r="31.61"/>
		
			<linearGradient id="SVGID_2_" gradientUnits="userSpaceOnUse" x1="15.75" y1="49.0298" x2="80.67" y2="49.0298" gradientTransform="matrix(1 0 0 -1 0 113.8898)">
			<stop  offset="0" style="stop-color:#009FE3"/>
			<stop  offset="1" style="stop-color:#009FE3;stop-opacity:0.35"/>
		</linearGradient>
		<path class="st1" d="M48.21,33.26c17.46,0,31.61,14.15,31.61,31.61S65.67,96.48,48.21,96.48S16.6,82.33,16.6,64.87
			S30.75,33.26,48.21,33.26 M48.21,32.4c-17.9,0-32.46,14.56-32.46,32.46s14.56,32.46,32.46,32.46s32.46-14.56,32.46-32.46
			S66.11,32.4,48.21,32.4L48.21,32.4z"/>
	</g>
	<g>
		<circle class="st2" cx="48.21" cy="64.87" r="3.81"/>
		
			<linearGradient id="SVGID_3_" gradientUnits="userSpaceOnUse" x1="43.97" y1="49.0198" x2="52.45" y2="49.0198" gradientTransform="matrix(1 0 0 -1 0 113.8898)">
			<stop  offset="0" style="stop-color:#009FE3"/>
			<stop  offset="1" style="stop-color:#009FE3;stop-opacity:0.35"/>
		</linearGradient>
		<path class="st3" d="M48.21,69.11c-2.34,0-4.24-1.9-4.24-4.24s1.9-4.24,4.24-4.24s4.24,1.9,4.24,4.24S50.55,69.11,48.21,69.11z
			 M48.21,61.48c-1.87,0-3.39,1.52-3.39,3.39s1.52,3.39,3.39,3.39s3.39-1.52,3.39-3.39S50.08,61.48,48.21,61.48z"/>
	</g>
	<path class="st2" d="M48.21,39.65c-0.23,0-0.43-0.19-0.43-0.43v-4.61c0-0.23,0.19-0.43,0.43-0.43s0.43,0.19,0.43,0.43v4.61
		C48.64,39.46,48.45,39.65,48.21,39.65z"/>
	<path class="st2" d="M46.42,39.72c-0.22,0-0.41-0.17-0.42-0.4l-0.32-4.6c-0.02-0.23,0.16-0.44,0.39-0.45
		c0.24-0.01,0.44,0.16,0.45,0.39l0.32,4.6c0.02,0.23-0.16,0.44-0.39,0.45C46.44,39.72,46.43,39.72,46.42,39.72z"/>
	<path class="st2" d="M44.64,39.9c-0.21,0-0.39-0.15-0.42-0.37l-0.64-4.57c-0.03-0.23,0.13-0.45,0.36-0.48s0.45,0.13,0.48,0.36
		l0.64,4.57c0.03,0.23-0.13,0.45-0.36,0.48C44.68,39.9,44.66,39.9,44.64,39.9z"/>
	<path class="st2" d="M42.88,40.21c-0.2,0-0.37-0.14-0.42-0.34l-0.96-4.51c-0.05-0.23,0.1-0.46,0.33-0.5
		c0.23-0.05,0.46,0.1,0.5,0.33l0.96,4.51c0.05,0.23-0.1,0.46-0.33,0.5C42.94,40.21,42.91,40.21,42.88,40.21z"/>
	<path class="st2" d="M41.15,40.65c-0.19,0-0.36-0.12-0.41-0.31l-1.27-4.43c-0.06-0.23,0.07-0.46,0.29-0.53
		c0.23-0.06,0.46,0.07,0.53,0.29l1.27,4.43c0.06,0.23-0.07,0.46-0.29,0.53C41.22,40.64,41.18,40.65,41.15,40.65z"/>
	<path class="st2" d="M39.44,41.2c-0.17,0-0.34-0.11-0.4-0.28l-1.58-4.33c-0.08-0.22,0.03-0.46,0.25-0.54s0.46,0.03,0.54,0.25
		l1.58,4.33c0.08,0.22-0.03,0.46-0.25,0.54C39.54,41.19,39.49,41.2,39.44,41.2z"/>
	<path class="st2" d="M37.78,41.87c-0.16,0-0.32-0.09-0.39-0.25l-1.88-4.21c-0.1-0.21,0-0.47,0.22-0.56c0.21-0.1,0.47,0,0.56,0.22
		l1.88,4.21c0.1,0.21,0,0.47-0.22,0.56C37.9,41.86,37.84,41.87,37.78,41.87z"/>
	<path class="st2" d="M36.18,42.65c-0.15,0-0.3-0.08-0.38-0.23l-2.16-4.07c-0.11-0.21-0.03-0.46,0.18-0.58
		c0.21-0.11,0.46-0.03,0.58,0.18l2.16,4.07c0.11,0.21,0.03,0.46-0.18,0.58C36.31,42.64,36.24,42.65,36.18,42.65z"/>
	<path class="st2" d="M34.63,43.55c-0.14,0-0.28-0.07-0.36-0.2l-2.44-3.91c-0.12-0.2-0.06-0.46,0.14-0.59
		c0.2-0.12,0.46-0.06,0.59,0.14L35,42.9c0.12,0.2,0.06,0.46-0.14,0.59C34.78,43.53,34.7,43.55,34.63,43.55z"/>
	<path class="st2" d="M33.14,44.55c-0.13,0-0.26-0.06-0.34-0.18l-2.71-3.73c-0.14-0.19-0.1-0.46,0.09-0.59
		c0.19-0.14,0.46-0.1,0.59,0.09l2.71,3.73c0.14,0.19,0.1,0.46-0.09,0.59C33.32,44.52,33.23,44.55,33.14,44.55z"/>
	<path class="st2" d="M31.73,45.65c-0.12,0-0.24-0.05-0.33-0.15l-2.96-3.53c-0.15-0.18-0.13-0.45,0.05-0.6
		c0.18-0.15,0.45-0.13,0.6,0.05l2.96,3.53c0.15,0.18,0.13,0.45-0.05,0.6C31.93,45.62,31.83,45.65,31.73,45.65z"/>
	<path class="st2" d="M30.4,46.85c-0.11,0-0.22-0.04-0.31-0.13l-3.2-3.32c-0.16-0.17-0.16-0.44,0.01-0.6s0.44-0.16,0.6,0.01
		l3.2,3.32c0.16,0.17,0.16,0.44-0.01,0.6C30.62,46.81,30.51,46.85,30.4,46.85z"/>
	<path class="st2" d="M29.16,48.14c-0.1,0-0.2-0.04-0.28-0.11l-3.43-3.09c-0.17-0.16-0.19-0.43-0.03-0.6s0.43-0.19,0.6-0.03
		l3.43,3.09c0.17,0.16,0.19,0.43,0.03,0.6C29.39,48.09,29.28,48.14,29.16,48.14z"/>
	<path class="st2" d="M28.01,49.51c-0.09,0-0.18-0.03-0.26-0.09l-3.63-2.84c-0.19-0.14-0.22-0.41-0.07-0.6
		c0.14-0.18,0.41-0.22,0.6-0.07l3.63,2.84c0.19,0.14,0.22,0.41,0.07,0.6C28.26,49.45,28.14,49.51,28.01,49.51z"/>
	<path class="st2" d="M73.29,82.21c-0.08,0-0.17-0.02-0.24-0.07l-3.82-2.58c-0.2-0.13-0.25-0.4-0.12-0.59
		c0.13-0.2,0.4-0.24,0.59-0.12l3.82,2.58c0.2,0.13,0.25,0.4,0.12,0.59C73.56,82.14,73.43,82.21,73.29,82.21z"/>
	<path class="st2" d="M26.96,50.96c-0.08,0-0.16-0.02-0.24-0.07L22.9,48.3c-0.19-0.13-0.25-0.4-0.11-0.59
		c0.13-0.19,0.4-0.25,0.59-0.11l3.82,2.58c0.19,0.13,0.25,0.4,0.11,0.59C27.23,50.89,27.09,50.96,26.96,50.96z"/>
	<path class="st2" d="M74.41,80.42c-0.07,0-0.15-0.02-0.21-0.06l-3.99-2.31c-0.2-0.12-0.27-0.38-0.16-0.58
		c0.12-0.2,0.38-0.27,0.58-0.16l3.99,2.31c0.2,0.12,0.27,0.38,0.16,0.58C74.7,80.34,74.56,80.42,74.41,80.42z"/>
	<path class="st2" d="M26.01,52.47c-0.07,0-0.15-0.02-0.21-0.06l-3.99-2.31c-0.2-0.12-0.27-0.38-0.16-0.58
		c0.12-0.2,0.38-0.27,0.58-0.16l3.99,2.31c0.2,0.12,0.27,0.38,0.16,0.58C26.3,52.4,26.16,52.47,26.01,52.47z"/>
	<path class="st2" d="M75.4,78.55c-0.06,0-0.13-0.01-0.19-0.04l-4.14-2.02c-0.21-0.1-0.3-0.36-0.2-0.57c0.1-0.21,0.36-0.3,0.57-0.2
		l4.14,2.02c0.21,0.1,0.3,0.36,0.2,0.57C75.71,78.47,75.56,78.55,75.4,78.55z"/>
	<path class="st2" d="M25.17,54.05c-0.06,0-0.13-0.01-0.19-0.04l-4.14-2.02c-0.21-0.1-0.3-0.36-0.2-0.57c0.1-0.21,0.36-0.3,0.57-0.2
		l4.14,2.02c0.21,0.1,0.3,0.36,0.2,0.57C25.48,53.97,25.33,54.05,25.17,54.05z"/>
	<path class="st2" d="M76.26,76.62c-0.05,0-0.11-0.01-0.16-0.03l-4.28-1.73c-0.22-0.09-0.32-0.34-0.24-0.55
		c0.09-0.22,0.34-0.32,0.55-0.24l4.28,1.73c0.22,0.09,0.32,0.34,0.24,0.55C76.59,76.52,76.43,76.62,76.26,76.62z"/>
	<path class="st2" d="M24.44,55.69c-0.05,0-0.11-0.01-0.16-0.03L20,53.93c-0.22-0.09-0.32-0.34-0.23-0.55s0.34-0.32,0.55-0.23
		l4.28,1.73c0.22,0.09,0.32,0.34,0.23,0.55C24.77,55.59,24.61,55.69,24.44,55.69z"/>
	<path class="st2" d="M76.98,74.64c-0.04,0-0.09-0.01-0.13-0.02l-4.39-1.43c-0.22-0.07-0.34-0.31-0.27-0.54
		c0.07-0.22,0.31-0.35,0.54-0.27l4.39,1.43c0.22,0.07,0.34,0.31,0.27,0.54C77.33,74.53,77.16,74.64,76.98,74.64z"/>
	<path class="st2" d="M23.83,57.37c-0.04,0-0.09-0.01-0.13-0.02l-4.39-1.43c-0.22-0.07-0.35-0.31-0.27-0.54s0.31-0.34,0.54-0.27
		l4.39,1.43c0.22,0.07,0.35,0.31,0.27,0.54C24.18,57.26,24.01,57.37,23.83,57.37z"/>
	<path class="st2" d="M77.57,72.61c-0.03,0-0.07,0-0.1-0.01L73,71.48c-0.23-0.06-0.37-0.29-0.31-0.51c0.06-0.23,0.29-0.37,0.51-0.31
		l4.47,1.12c0.23,0.06,0.37,0.29,0.31,0.51C77.93,72.48,77.76,72.61,77.57,72.61z"/>
	<path class="st2" d="M23.34,59.09c-0.03,0-0.07,0-0.1-0.01l-4.47-1.12c-0.23-0.06-0.37-0.29-0.31-0.52
		c0.06-0.23,0.29-0.37,0.52-0.31l4.47,1.12c0.23,0.06,0.37,0.29,0.31,0.51C23.7,58.96,23.53,59.09,23.34,59.09z"/>
	<path class="st2" d="M78,70.54c-0.03,0-0.05,0-0.08-0.01l-4.54-0.8c-0.23-0.04-0.39-0.26-0.34-0.49c0.04-0.23,0.27-0.38,0.49-0.34
		l4.54,0.8c0.23,0.04,0.39,0.26,0.34,0.49C78.39,70.4,78.21,70.54,78,70.54z"/>
	<path class="st2" d="M22.96,60.84c-0.02,0-0.05,0-0.07-0.01l-4.54-0.8c-0.23-0.04-0.39-0.26-0.35-0.49
		c0.04-0.23,0.26-0.38,0.49-0.34l4.54,0.8c0.23,0.04,0.39,0.26,0.35,0.49C23.35,60.7,23.17,60.84,22.96,60.84z"/>
	<path class="st2" d="M78.3,68.45c-0.02,0-0.03,0-0.04,0l-4.59-0.48c-0.23-0.02-0.4-0.23-0.38-0.47c0.02-0.24,0.25-0.41,0.47-0.38
		l4.59,0.48c0.23,0.02,0.4,0.23,0.38,0.47C78.7,68.29,78.51,68.45,78.3,68.45z"/>
	<path class="st2" d="M22.71,62.61c-0.01,0-0.03,0-0.04,0l-4.59-0.48c-0.23-0.02-0.4-0.23-0.38-0.47c0.02-0.23,0.23-0.41,0.47-0.38
		l4.59,0.48c0.23,0.02,0.4,0.23,0.38,0.47C23.11,62.45,22.93,62.61,22.71,62.61z"/>
	<path class="st2" d="M78.45,66.35h-0.01l-4.61-0.16c-0.23-0.01-0.42-0.21-0.41-0.44s0.2-0.42,0.44-0.41l4.61,0.16
		c0.23,0.01,0.42,0.21,0.41,0.44C78.86,66.17,78.67,66.35,78.45,66.35z"/>
	<path class="st2" d="M22.59,64.4c-0.01,0-0.01,0-0.02,0l-4.61-0.16c-0.23-0.01-0.42-0.21-0.41-0.44c0.01-0.24,0.23-0.42,0.44-0.41
		l4.61,0.16c0.23,0.01,0.42,0.21,0.41,0.44C23.01,64.22,22.82,64.4,22.59,64.4z"/>
	<path class="st2" d="M73.84,64.4c-0.23,0-0.42-0.18-0.42-0.41c-0.01-0.23,0.17-0.43,0.41-0.44l4.61-0.16
		c0.23,0.01,0.43,0.18,0.44,0.41c0.01,0.23-0.17,0.43-0.41,0.44l-4.61,0.16C73.85,64.4,73.84,64.4,73.84,64.4z"/>
	<path class="st2" d="M17.98,66.35c-0.23,0-0.42-0.18-0.42-0.41c-0.01-0.23,0.18-0.43,0.41-0.44l4.61-0.16
		c0.21,0.01,0.43,0.18,0.44,0.41s-0.18,0.43-0.41,0.44L18,66.35C17.99,66.35,17.99,66.35,17.98,66.35z"/>
	<path class="st2" d="M73.71,62.61c-0.21,0-0.4-0.16-0.42-0.38c-0.02-0.23,0.14-0.44,0.38-0.47l4.59-0.48
		c0.23-0.03,0.44,0.14,0.47,0.38c0.02,0.23-0.14,0.44-0.38,0.47l-4.59,0.48C73.74,62.61,73.73,62.61,73.71,62.61z"/>
	<path class="st2" d="M18.13,68.45c-0.21,0-0.4-0.16-0.42-0.38c-0.02-0.23,0.15-0.44,0.38-0.47l4.59-0.48
		c0.24-0.03,0.44,0.15,0.47,0.38c0.02,0.23-0.15,0.44-0.38,0.47l-4.59,0.48C18.16,68.45,18.14,68.45,18.13,68.45z"/>
	<path class="st2" d="M73.46,60.84c-0.2,0-0.38-0.14-0.42-0.35C73,60.26,73.16,60.04,73.39,60l4.54-0.8
		c0.23-0.03,0.45,0.11,0.49,0.34s-0.11,0.45-0.34,0.49l-4.54,0.8C73.51,60.84,73.49,60.84,73.46,60.84z"/>
	<path class="st2" d="M18.42,70.54c-0.2,0-0.38-0.14-0.42-0.35c-0.04-0.23,0.11-0.45,0.35-0.49l4.54-0.8
		c0.23-0.04,0.45,0.11,0.49,0.34c0.04,0.23-0.11,0.45-0.35,0.49l-4.54,0.8C18.47,70.54,18.45,70.54,18.42,70.54z"/>
	<path class="st2" d="M73.09,59.09c-0.19,0-0.36-0.13-0.41-0.32c-0.06-0.23,0.08-0.46,0.31-0.51l4.47-1.12
		c0.22-0.06,0.46,0.08,0.51,0.31c0.06,0.23-0.08,0.46-0.31,0.52l-4.47,1.12C73.16,59.09,73.12,59.09,73.09,59.09z"/>
	<path class="st2" d="M18.86,72.61c-0.19,0-0.36-0.13-0.41-0.32c-0.06-0.23,0.08-0.46,0.31-0.51l4.47-1.12
		c0.23-0.06,0.46,0.08,0.52,0.31s-0.08,0.46-0.31,0.51l-4.47,1.12C18.93,72.61,18.9,72.61,18.86,72.61z"/>
	<path class="st2" d="M72.6,57.37c-0.18,0-0.35-0.11-0.4-0.29c-0.07-0.22,0.05-0.46,0.27-0.54l4.39-1.43
		c0.23-0.07,0.46,0.05,0.54,0.27c0.07,0.22-0.05,0.46-0.27,0.54l-4.39,1.43C72.69,57.36,72.64,57.37,72.6,57.37z"/>
	<path class="st2" d="M19.44,74.64c-0.18,0-0.35-0.11-0.4-0.29c-0.07-0.22,0.05-0.46,0.27-0.54l4.39-1.43
		c0.22-0.08,0.46,0.05,0.54,0.27c0.07,0.22-0.05,0.46-0.27,0.54l-4.39,1.43C19.53,74.63,19.49,74.64,19.44,74.64z"/>
	<path class="st2" d="M71.99,55.69c-0.17,0-0.33-0.1-0.39-0.27c-0.09-0.22,0.02-0.47,0.24-0.55l4.28-1.73
		c0.22-0.09,0.46,0.02,0.55,0.23c0.09,0.22-0.02,0.47-0.24,0.55l-4.28,1.73C72.09,55.68,72.04,55.69,71.99,55.69z"/>
	<path class="st2" d="M20.17,76.62c-0.17,0-0.33-0.1-0.39-0.27c-0.09-0.22,0.02-0.47,0.23-0.55l4.28-1.73
		c0.22-0.08,0.46,0.02,0.55,0.24s-0.02,0.47-0.23,0.55l-4.28,1.73C20.27,76.61,20.22,76.62,20.17,76.62z"/>
	<path class="st2" d="M71.26,54.05c-0.16,0-0.31-0.09-0.38-0.24c-0.1-0.21-0.02-0.47,0.2-0.57l4.14-2.02
		c0.21-0.1,0.47-0.02,0.57,0.2c0.1,0.21,0.02,0.47-0.2,0.57l-4.14,2.02C71.38,54.04,71.32,54.05,71.26,54.05z"/>
	<path class="st2" d="M21.02,78.55c-0.16,0-0.31-0.09-0.38-0.24c-0.1-0.21-0.02-0.47,0.2-0.57l4.14-2.02
		c0.21-0.1,0.47-0.02,0.57,0.2c0.1,0.21,0.02,0.47-0.2,0.57l-4.14,2.02C21.15,78.54,21.09,78.55,21.02,78.55z"/>
	<path class="st2" d="M70.42,52.47c-0.15,0-0.29-0.08-0.37-0.21c-0.12-0.2-0.05-0.46,0.16-0.58l3.99-2.31
		c0.2-0.12,0.46-0.05,0.58,0.16c0.12,0.2,0.05,0.46-0.16,0.58l-3.99,2.31C70.56,52.45,70.49,52.47,70.42,52.47z"/>
	<path class="st2" d="M22.02,80.42c-0.15,0-0.29-0.08-0.37-0.21c-0.12-0.2-0.05-0.46,0.16-0.58l3.99-2.31
		c0.2-0.12,0.46-0.05,0.58,0.16c0.12,0.2,0.05,0.46-0.16,0.58l-3.99,2.31C22.16,80.4,22.09,80.42,22.02,80.42z"/>
	<path class="st2" d="M69.47,50.96c-0.14,0-0.27-0.07-0.35-0.19c-0.13-0.19-0.08-0.46,0.12-0.59l3.82-2.58
		c0.19-0.13,0.46-0.08,0.59,0.11c0.13,0.19,0.08,0.46-0.12,0.59l-3.82,2.58C69.63,50.93,69.55,50.96,69.47,50.96z"/>
	<path class="st2" d="M23.13,82.21c-0.14,0-0.27-0.07-0.35-0.19c-0.13-0.19-0.08-0.46,0.11-0.59l3.82-2.58
		c0.19-0.13,0.46-0.08,0.59,0.12c0.13,0.19,0.08,0.46-0.11,0.59l-3.82,2.58C23.3,82.18,23.22,82.21,23.13,82.21z"/>
	<path class="st2" d="M68.42,49.51c-0.13,0-0.25-0.06-0.33-0.16c-0.14-0.19-0.11-0.45,0.07-0.6l3.63-2.84
		c0.18-0.15,0.45-0.11,0.6,0.07c0.14,0.19,0.11,0.45-0.07,0.6l-3.63,2.84C68.6,49.48,68.51,49.51,68.42,49.51z"/>
	<path class="st2" d="M67.27,48.14c-0.12,0-0.23-0.05-0.32-0.14c-0.16-0.17-0.14-0.44,0.03-0.6l3.43-3.09
		c0.17-0.16,0.44-0.14,0.6,0.03c0.16,0.17,0.14,0.44-0.03,0.6l-3.43,3.09C67.47,48.1,67.37,48.14,67.27,48.14z"/>
	<path class="st2" d="M66.02,46.85c-0.11,0-0.21-0.04-0.29-0.12c-0.17-0.16-0.17-0.43-0.01-0.6l3.2-3.32
		c0.16-0.17,0.43-0.17,0.6-0.01s0.17,0.43,0.01,0.6l-3.2,3.32C66.25,46.81,66.13,46.85,66.02,46.85z"/>
	<path class="st2" d="M64.69,45.65c-0.1,0-0.19-0.03-0.27-0.1c-0.18-0.15-0.2-0.42-0.05-0.6l2.96-3.53c0.15-0.18,0.42-0.2,0.6-0.05
		s0.2,0.42,0.05,0.6l-2.96,3.53C64.94,45.6,64.82,45.65,64.69,45.65z"/>
	<path class="st2" d="M63.28,44.55c-0.09,0-0.17-0.03-0.25-0.08c-0.19-0.14-0.23-0.4-0.09-0.59l2.71-3.73
		c0.14-0.19,0.41-0.23,0.59-0.09c0.19,0.14,0.23,0.4,0.09,0.59l-2.71,3.73C63.54,44.49,63.41,44.55,63.28,44.55z"/>
	<path class="st2" d="M61.8,43.55c-0.08,0-0.16-0.02-0.23-0.06c-0.2-0.12-0.26-0.39-0.13-0.59l2.44-3.91
		c0.12-0.2,0.39-0.26,0.59-0.13c0.2,0.12,0.26,0.39,0.13,0.59l-2.44,3.91C62.08,43.48,61.94,43.55,61.8,43.55z"/>
	<path class="st2" d="M60.25,42.65c-0.07,0-0.14-0.02-0.2-0.05c-0.21-0.11-0.29-0.37-0.18-0.58l2.17-4.07
		c0.11-0.21,0.37-0.29,0.57-0.18c0.21,0.11,0.29,0.37,0.18,0.58l-2.17,4.07C60.55,42.57,60.4,42.65,60.25,42.65z"/>
	<path class="st2" d="M58.64,41.87c-0.06,0-0.12-0.01-0.17-0.04c-0.21-0.1-0.31-0.35-0.22-0.56l1.88-4.21
		c0.1-0.21,0.35-0.31,0.56-0.22c0.21,0.1,0.31,0.35,0.22,0.56l-1.88,4.21C58.96,41.78,58.8,41.87,58.64,41.87z"/>
	<path class="st2" d="M56.98,41.2c-0.05,0-0.1-0.01-0.15-0.03c-0.22-0.08-0.33-0.32-0.25-0.54l1.58-4.33
		c0.08-0.22,0.32-0.33,0.54-0.25s0.33,0.32,0.25,0.54l-1.58,4.33C57.32,41.09,57.16,41.2,56.98,41.2z"/>
	<path class="st2" d="M55.28,40.65c-0.04,0-0.08-0.01-0.12-0.02c-0.23-0.06-0.36-0.3-0.29-0.53l1.27-4.43
		c0.06-0.23,0.3-0.36,0.53-0.29c0.23,0.06,0.36,0.3,0.29,0.53l-1.27,4.43C55.64,40.53,55.47,40.65,55.28,40.65z"/>
	<path class="st2" d="M53.54,40.21c-0.03,0-0.06,0-0.09-0.01c-0.23-0.05-0.38-0.27-0.33-0.5l0.96-4.51c0.05-0.23,0.27-0.38,0.5-0.33
		s0.38,0.27,0.33,0.5l-0.96,4.51C53.92,40.08,53.74,40.21,53.54,40.21z"/>
	<path class="st2" d="M51.78,39.9c-0.02,0-0.04,0-0.06,0c-0.23-0.03-0.39-0.25-0.36-0.48L52,34.85c0.03-0.23,0.25-0.39,0.48-0.36
		s0.39,0.25,0.36,0.48l-0.64,4.57C52.17,39.75,51.99,39.9,51.78,39.9z"/>
	<path class="st2" d="M50,39.72c-0.01,0-0.02,0-0.03,0c-0.23-0.02-0.41-0.22-0.39-0.45l0.32-4.6c0.02-0.23,0.22-0.4,0.45-0.39
		c0.23,0.02,0.41,0.22,0.39,0.45l-0.32,4.6C50.41,39.54,50.22,39.72,50,39.72z"/>
	<path class="st2" d="M48.21,95.54c-0.23,0-0.43-0.19-0.43-0.42v-4.61c0-0.23,0.19-0.42,0.43-0.42s0.43,0.19,0.43,0.42v4.61
		C48.64,95.35,48.45,95.54,48.21,95.54z"/>
	<path class="st2" d="M50.32,95.47c-0.22,0-0.41-0.17-0.42-0.4l-0.32-4.6c-0.02-0.23,0.16-0.44,0.39-0.45
		c0.24-0.02,0.44,0.16,0.45,0.39l0.32,4.6c0.02,0.23-0.16,0.44-0.39,0.45C50.34,95.47,50.33,95.47,50.32,95.47z"/>
	<path class="st2" d="M52.42,95.25c-0.21,0-0.39-0.15-0.42-0.37l-0.64-4.57c-0.03-0.23,0.13-0.45,0.36-0.48
		c0.24-0.03,0.45,0.13,0.48,0.36l0.64,4.57c0.03,0.23-0.13,0.45-0.36,0.48C52.46,95.25,52.44,95.25,52.42,95.25z"/>
	<path class="st2" d="M54.5,94.88c-0.2,0-0.37-0.14-0.42-0.34l-0.96-4.51c-0.05-0.23,0.1-0.46,0.33-0.5c0.23-0.05,0.46,0.1,0.5,0.33
		l0.96,4.51c0.05,0.23-0.1,0.46-0.33,0.5C54.56,94.88,54.53,94.88,54.5,94.88z"/>
	<path class="st2" d="M56.55,94.37c-0.19,0-0.36-0.12-0.41-0.31l-1.27-4.43c-0.06-0.23,0.07-0.46,0.29-0.53
		c0.23-0.06,0.46,0.07,0.53,0.29l1.27,4.43c0.06,0.23-0.07,0.46-0.29,0.53C56.63,94.37,56.59,94.37,56.55,94.37z"/>
	<path class="st2" d="M58.56,93.72c-0.17,0-0.34-0.11-0.4-0.28l-1.58-4.33c-0.08-0.22,0.03-0.46,0.25-0.54s0.46,0.03,0.54,0.25
		l1.58,4.33c0.08,0.22-0.03,0.46-0.25,0.54C58.66,93.71,58.61,93.72,58.56,93.72z"/>
	<path class="st2" d="M60.52,92.93c-0.16,0-0.32-0.09-0.39-0.25l-1.88-4.21c-0.1-0.21,0-0.47,0.22-0.56c0.21-0.09,0.47,0,0.56,0.22
		l1.88,4.21c0.1,0.21,0,0.47-0.22,0.56C60.63,92.92,60.58,92.93,60.52,92.93z"/>
	<path class="st2" d="M62.42,92c-0.15,0-0.3-0.08-0.38-0.23l-2.17-4.07c-0.11-0.21-0.03-0.46,0.18-0.57s0.46-0.03,0.57,0.18
		l2.17,4.07c0.11,0.21,0.03,0.46-0.18,0.57C62.55,91.99,62.48,92,62.42,92z"/>
	<path class="st2" d="M64.24,90.95c-0.14,0-0.28-0.07-0.36-0.2l-2.44-3.91c-0.12-0.2-0.06-0.46,0.13-0.59
		c0.2-0.12,0.46-0.06,0.59,0.13l2.44,3.91c0.12,0.2,0.06,0.46-0.13,0.59C64.4,90.93,64.32,90.95,64.24,90.95z"/>
	<path class="st2" d="M65.99,89.77c-0.13,0-0.26-0.06-0.34-0.17l-2.71-3.73c-0.14-0.19-0.1-0.46,0.09-0.59
		c0.19-0.14,0.46-0.1,0.59,0.09l2.71,3.73c0.14,0.19,0.1,0.46-0.09,0.59C66.17,89.74,66.08,89.77,65.99,89.77z"/>
	<path class="st2" d="M67.66,88.47c-0.12,0-0.24-0.05-0.33-0.15l-2.96-3.53c-0.15-0.18-0.13-0.45,0.05-0.6s0.45-0.13,0.6,0.05
		l2.96,3.53c0.15,0.18,0.13,0.45-0.05,0.6C67.85,88.43,67.75,88.47,67.66,88.47z"/>
	<path class="st2" d="M69.23,87.05c-0.11,0-0.22-0.04-0.31-0.13l-3.2-3.32c-0.16-0.17-0.16-0.44,0.01-0.6s0.44-0.16,0.6,0.01
		l3.2,3.32c0.16,0.17,0.16,0.44-0.01,0.6C69.44,87.01,69.33,87.05,69.23,87.05z"/>
	<path class="st2" d="M70.69,85.53c-0.1,0-0.2-0.04-0.28-0.11l-3.43-3.09c-0.17-0.16-0.19-0.43-0.03-0.6
		c0.16-0.18,0.43-0.19,0.6-0.03l3.43,3.09c0.17,0.16,0.19,0.43,0.03,0.6C70.93,85.49,70.81,85.53,70.69,85.53z"/>
	<path class="st2" d="M72.05,83.92c-0.09,0-0.18-0.03-0.26-0.09l-3.63-2.84c-0.19-0.14-0.22-0.41-0.07-0.6
		c0.14-0.19,0.41-0.22,0.6-0.07l3.63,2.84c0.19,0.14,0.22,0.41,0.07,0.6C72.3,83.86,72.18,83.92,72.05,83.92z"/>
	<path class="st2" d="M24.38,83.92c-0.13,0-0.25-0.06-0.34-0.16c-0.14-0.18-0.11-0.45,0.07-0.6l3.63-2.84
		c0.19-0.14,0.45-0.11,0.6,0.07c0.14,0.18,0.11,0.45-0.07,0.6l-3.63,2.84C24.56,83.89,24.47,83.92,24.38,83.92z"/>
	<path class="st2" d="M25.73,85.53c-0.12,0-0.23-0.05-0.32-0.14c-0.16-0.17-0.14-0.44,0.03-0.6l3.43-3.09
		c0.17-0.16,0.44-0.14,0.6,0.03s0.14,0.44-0.03,0.6l-3.43,3.09C25.94,85.5,25.83,85.53,25.73,85.53z"/>
	<path class="st2" d="M27.2,87.05c-0.11,0-0.21-0.04-0.3-0.12c-0.17-0.16-0.17-0.43-0.01-0.6l3.2-3.32c0.16-0.17,0.43-0.17,0.6-0.01
		c0.17,0.16,0.17,0.43,0.01,0.6l-3.2,3.32C27.42,87.01,27.31,87.05,27.2,87.05z"/>
	<path class="st2" d="M28.77,88.47c-0.1,0-0.19-0.03-0.27-0.1c-0.18-0.15-0.2-0.42-0.05-0.6l2.96-3.53c0.15-0.18,0.42-0.2,0.6-0.05
		c0.18,0.15,0.2,0.42,0.05,0.6l-2.96,3.53C29.01,88.42,28.89,88.47,28.77,88.47z"/>
	<path class="st2" d="M30.43,89.77c-0.09,0-0.17-0.03-0.25-0.08c-0.19-0.14-0.23-0.4-0.09-0.59l2.71-3.73
		c0.14-0.19,0.4-0.23,0.59-0.09c0.19,0.14,0.23,0.4,0.09,0.59l-2.71,3.73C30.69,89.71,30.56,89.77,30.43,89.77z"/>
	<path class="st2" d="M32.18,90.95c-0.08,0-0.15-0.02-0.22-0.06c-0.2-0.12-0.26-0.39-0.14-0.59l2.44-3.91
		c0.12-0.2,0.39-0.26,0.59-0.13c0.2,0.12,0.26,0.39,0.14,0.59l-2.44,3.91C32.46,90.88,32.32,90.95,32.18,90.95z"/>
	<path class="st2" d="M34.01,92c-0.07,0-0.14-0.02-0.2-0.05c-0.21-0.11-0.29-0.37-0.18-0.57l2.16-4.07
		c0.11-0.21,0.37-0.29,0.58-0.18c0.21,0.11,0.29,0.37,0.18,0.57l-2.16,4.07C34.31,91.92,34.16,92,34.01,92z"/>
	<path class="st2" d="M35.91,92.93c-0.06,0-0.12-0.01-0.17-0.04c-0.21-0.1-0.31-0.35-0.22-0.56l1.88-4.21
		c0.1-0.21,0.35-0.31,0.56-0.22c0.21,0.1,0.31,0.35,0.22,0.56l-1.88,4.21C36.23,92.83,36.07,92.93,35.91,92.93z"/>
	<path class="st2" d="M37.87,93.72c-0.05,0-0.1-0.01-0.15-0.03c-0.22-0.08-0.33-0.32-0.25-0.54l1.58-4.33
		c0.08-0.22,0.32-0.34,0.54-0.25c0.22,0.08,0.33,0.32,0.25,0.54l-1.58,4.33C38.2,93.61,38.04,93.72,37.87,93.72z"/>
	<path class="st2" d="M39.88,94.37c-0.04,0-0.08-0.01-0.12-0.02c-0.23-0.07-0.36-0.3-0.29-0.53l1.27-4.43
		c0.06-0.23,0.3-0.36,0.53-0.29s0.36,0.3,0.29,0.53l-1.27,4.43C40.23,94.25,40.06,94.37,39.88,94.37z"/>
	<path class="st2" d="M41.92,94.88c-0.03,0-0.06,0-0.09-0.01c-0.23-0.05-0.38-0.27-0.33-0.5l0.96-4.51c0.05-0.23,0.27-0.38,0.5-0.33
		c0.23,0.05,0.38,0.27,0.33,0.5l-0.96,4.51C42.3,94.75,42.12,94.88,41.92,94.88z"/>
	<path class="st2" d="M44,95.25c-0.02,0-0.04,0-0.06,0c-0.23-0.03-0.39-0.25-0.36-0.48l0.64-4.57c0.03-0.23,0.25-0.39,0.48-0.36
		s0.39,0.25,0.36,0.48l-0.64,4.57C44.39,95.1,44.21,95.25,44,95.25z"/>
	<path class="st2" d="M46.1,95.47c-0.01,0-0.02,0-0.03,0c-0.23-0.02-0.41-0.22-0.39-0.45l0.32-4.6c0.02-0.24,0.21-0.42,0.45-0.39
		c0.23,0.02,0.41,0.22,0.39,0.45l-0.32,4.6C46.51,95.3,46.32,95.47,46.1,95.47z"/>
</g>
<g>
	<polygon class="st4" points="47.19,23.01 46.34,23.01 46.34,15.09 54.26,15.09 54.26,15.94 47.19,15.94 	"/>
	<polygon class="st4" points="97.89,23.01 97.04,23.01 97.04,15.94 89.97,15.94 89.97,15.09 97.89,15.09 	"/>
	<polygon class="st4" points="97.89,66.64 89.97,66.64 89.97,65.79 97.04,65.79 97.04,58.71 97.89,58.71 	"/>
</g>
<path class="st4" d="M72.12,66.64c-0.41,0-0.83-0.01-1.23-0.03l0.04-0.85c0.93,0.04,1.87,0.04,2.79-0.02l0.05,0.85
	C73.22,66.62,72.67,66.64,72.12,66.64z M69.15,66.47c-0.96-0.11-1.92-0.28-2.85-0.49l0.19-0.83c0.9,0.21,1.83,0.37,2.75,0.47
	L69.15,66.47z M75.49,66.42l-0.11-0.84c0.92-0.12,1.84-0.29,2.74-0.52l0.21,0.83C77.4,66.11,76.44,66.29,75.49,66.42z M64.63,65.53
	c-0.92-0.28-1.83-0.61-2.71-0.99l0.34-0.78c0.85,0.37,1.73,0.69,2.62,0.96L64.63,65.53z M80,65.41l-0.26-0.81
	c0.89-0.28,1.76-0.62,2.61-1l0.35,0.78C81.83,64.77,80.92,65.11,80,65.41z M60.35,63.8c-0.85-0.44-1.69-0.93-2.49-1.46l0.47-0.71
	c0.77,0.52,1.58,0.99,2.41,1.42L60.35,63.8z M84.25,63.6l-0.4-0.75c0.81-0.44,1.62-0.93,2.39-1.46l0.48,0.7
	C85.93,62.65,85.1,63.15,84.25,63.6z M56.45,61.33c-0.76-0.59-1.5-1.22-2.19-1.88l0.59-0.61c0.67,0.64,1.38,1.25,2.12,1.82
	L56.45,61.33z M88.12,61.07l-0.53-0.67c0.73-0.58,1.43-1.2,2.09-1.86l0.6,0.6C89.59,59.83,88.87,60.47,88.12,61.07z M53.05,58.21
	c-0.65-0.71-1.26-1.47-1.82-2.24l0.69-0.5c0.54,0.75,1.14,1.48,1.76,2.17L53.05,58.21z M91.47,57.89l-0.64-0.56
	c0.61-0.69,1.19-1.43,1.73-2.2l0.7,0.49C92.7,56.41,92.1,57.17,91.47,57.89z M50.26,54.53c-0.51-0.81-0.98-1.66-1.39-2.53l0.77-0.37
	c0.4,0.84,0.86,1.66,1.35,2.45L50.26,54.53z M94.2,54.17l-0.73-0.44c0.48-0.8,0.92-1.63,1.31-2.47l0.77,0.35
	C95.15,52.48,94.69,53.34,94.2,54.17z M48.17,50.41c-0.36-0.89-0.67-1.82-0.92-2.74l0.82-0.22c0.24,0.9,0.54,1.79,0.89,2.65
	L48.17,50.41z M96.22,50.02l-0.79-0.3c0.33-0.87,0.61-1.76,0.84-2.66l0.82,0.21C96.85,48.19,96.56,49.12,96.22,50.02z M46.85,45.98
	c-0.19-0.94-0.33-1.9-0.41-2.86l0.85-0.07c0.08,0.93,0.21,1.86,0.4,2.76L46.85,45.98z M97.46,45.57l-0.84-0.15
	c0.17-0.91,0.29-1.84,0.35-2.77l0.85,0.06C97.76,43.66,97.64,44.63,97.46,45.57z M46.35,41.39c0-0.17-0.01-0.35-0.01-0.52
	c0-0.79,0.04-1.58,0.11-2.36l0.85,0.08c-0.07,0.76-0.1,1.52-0.1,2.28c0,0.17,0,0.34,0.01,0.51L46.35,41.39z M97.89,40.97h-0.85
	v-0.11c0-0.93-0.05-1.87-0.16-2.79l0.85-0.09c0.11,0.95,0.16,1.92,0.16,2.88V40.97z M47.5,36.91l-0.84-0.13
	c0.15-0.95,0.36-1.9,0.61-2.82l0.82,0.23C47.85,35.08,47.65,36,47.5,36.91z M96.64,36.41c-0.16-0.91-0.38-1.82-0.65-2.72l0.81-0.24
	c0.28,0.92,0.5,1.87,0.67,2.81L96.64,36.41z M48.6,32.59l-0.8-0.28c0.32-0.91,0.69-1.8,1.11-2.67l0.77,0.37
	C49.27,30.84,48.91,31.71,48.6,32.59z M95.46,32.11c-0.33-0.87-0.71-1.73-1.13-2.56l0.76-0.39c0.44,0.86,0.83,1.75,1.17,2.64
	L95.46,32.11z M50.45,28.53l-0.74-0.42c0.48-0.83,1-1.65,1.57-2.42l0.69,0.5C51.43,26.93,50.91,27.72,50.45,28.53z M93.52,28.08
	c-0.48-0.8-1-1.58-1.57-2.31l0.68-0.52c0.58,0.76,1.13,1.57,1.62,2.39L93.52,28.08z M53.01,24.86l-0.65-0.55
	c0.62-0.74,1.28-1.44,1.98-2.11l0.59,0.62C54.24,23.46,53.6,24.15,53.01,24.86z M90.89,24.47c-0.61-0.7-1.27-1.37-1.95-2l0.57-0.63
	c0.71,0.65,1.39,1.34,2.02,2.07L90.89,24.47z M56.17,21.71l-0.54-0.65c0.74-0.61,1.52-1.19,2.32-1.72l0.47,0.71
	C57.63,20.55,56.88,21.11,56.17,21.71z M87.66,21.38c-0.73-0.58-1.5-1.13-2.28-1.62l0.45-0.72c0.81,0.51,1.6,1.07,2.35,1.67
	L87.66,21.38z M59.84,19.17l-0.42-0.74c0.84-0.47,1.71-0.9,2.59-1.28l0.33,0.78C61.49,18.29,60.65,18.71,59.84,19.17z M83.94,18.92
	c-0.82-0.44-1.67-0.84-2.53-1.19l0.32-0.79c0.89,0.36,1.77,0.77,2.61,1.23L83.94,18.92z M63.91,17.32l-0.28-0.8
	c0.9-0.32,1.84-0.58,2.78-0.8l0.19,0.83C65.69,16.76,64.79,17.01,63.91,17.32z M79.84,17.16c-0.88-0.29-1.79-0.53-2.7-0.71
	l0.17-0.83c0.94,0.19,1.88,0.44,2.79,0.74L79.84,17.16z M68.25,16.24l-0.13-0.84c0.95-0.15,1.91-0.24,2.87-0.28l0.04,0.85
	C70.1,16,69.16,16.09,68.25,16.24z M75.49,16.17c-0.92-0.12-1.85-0.2-2.78-0.22l0.02-0.85c0.96,0.02,1.93,0.1,2.88,0.23L75.49,16.17
	z"/>
<path d="M72.54,69.03h-0.85V52.09h0.85V69.03z M100.28,41.29H83.35v-0.85h16.94v0.85H100.28z M60.88,41.29H43.95v-0.85h16.94
	L60.88,41.29L60.88,41.29z M72.54,29.63h-0.85V12.7h0.85V29.63z"/>
<path d="M86.2,55.55L74.18,43.52l0.6-0.6L86.8,54.95L86.2,55.55z M58.1,55.48l-0.6-0.6l11.96-11.96l0.6,0.6L58.1,55.48z M69.45,38.8
	L57.44,26.79l0.6-0.6L70.06,38.2L69.45,38.8z M74.78,38.8l-0.6-0.6L86.2,26.17l0.6,0.6L74.78,38.8z"/>
<g>
	<path d="M60.48,50.72c-2.07-2.44-3.3-5.41-3.56-8.59l0.85-0.07c0.25,3.01,1.41,5.81,3.36,8.11L60.48,50.72z"/>
	<path d="M70.86,56.05c-3.19-0.26-6.16-1.49-8.6-3.56l0.55-0.65c2.3,1.95,5.11,3.11,8.12,3.36L70.86,56.05z"/>
	<path d="M81.42,29.88c-2.3-1.95-5.11-3.11-8.12-3.36l0.07-0.85c3.19,0.26,6.16,1.49,8.6,3.56L81.42,29.88z"/>
	<path d="M57.77,39.68l-0.85-0.07c0.26-3.19,1.49-6.16,3.56-8.6l0.65,0.55C59.18,33.86,58.02,36.67,57.77,39.68z"/>
	<path d="M73.38,56.05l-0.07-0.85c3.01-0.25,5.82-1.41,8.12-3.36l0.55,0.65C79.53,54.56,76.56,55.79,73.38,56.05z"/>
	<path d="M86.46,39.68c-0.25-3.01-1.41-5.82-3.36-8.12l0.65-0.55c2.07,2.44,3.3,5.41,3.56,8.6L86.46,39.68z"/>
	<path d="M62.81,29.88l-0.55-0.65c2.44-2.07,5.41-3.3,8.6-3.56l0.07,0.85C67.92,26.76,65.11,27.93,62.81,29.88z"/>
	<path d="M83.75,50.72l-0.65-0.55c1.95-2.3,3.11-5.1,3.36-8.11l0.85,0.07C87.04,45.31,85.81,48.28,83.75,50.72z"/>
</g>
<rect x="93.71" y="68.6" class="st5" width="3.75" height="0.85"/>
<rect x="93.71" y="71.42" class="st5" width="3.75" height="0.85"/>
<rect x="93.71" y="74.24" class="st5" width="3.75" height="0.85"/>
<rect x="93.71" y="77.05" class="st5" width="3.75" height="0.85"/>
<rect x="91.81" y="79.87" class="st5" width="5.65" height="0.85"/>
<rect x="93.71" y="82.68" class="st5" width="3.75" height="0.85"/>
<rect x="93.71" y="85.5" class="st5" width="3.75" height="0.85"/>
<rect x="93.71" y="88.32" class="st5" width="3.75" height="0.85"/>
<rect x="93.71" y="91.13" class="st5" width="3.75" height="0.85"/>
<rect x="89.97" y="93.95" class="st4" width="7.5" height="0.85"/>
</svg>
