<?xml version="1.0" encoding="utf-8"?>
<!-- Generator: Adobe Illustrator 23.0.3, SVG Export Plug-In . SVG Version: 6.00 Build 0)  -->
<svg version="1.1" id="Ebene_1" xmlns="http://www.w3.org/2000/svg" xmlns:xlink="http://www.w3.org/1999/xlink" x="0px" y="0px"
	 viewBox="0 0 113.39 113.39" style="enable-background:new 0 0 113.39 113.39;" xml:space="preserve">
<style type="text/css">
	.st0{opacity:0.8;}
	.st1{fill:url(#SVGID_1_);}
	.st2{fill:#FFFFFF;}
	.st3{fill:#009FE3;}
	.st4{fill:url(#SVGID_2_);}
	.st5{fill:url(#SVGID_3_);}
	.st6{opacity:0.2;}
	.st7{opacity:0.5;}
</style>
<g class="st0">
	
		<linearGradient id="SVGID_1_" gradientUnits="userSpaceOnUse" x1="50.8582" y1="61.5364" x2="102.9829" y2="61.5364" gradientTransform="matrix(1 0 0 -1 0 113.8898)">
		<stop  offset="0" style="stop-color:#B3B3B3"/>
		<stop  offset="0.8074" style="stop-color:#FFFFFF"/>
	</linearGradient>
	<path class="st1" d="M59.28,83.87c-0.44-1.36-2.56-6.75-3.37-12.98c-0.81-6.24-3.4-13.59-3.3-16.94c0.1-3.35,1.07-8.37,0.96-9.79
		c-0.1-1.42-2.99-4.62-2.69-6.49c0.3-1.88,4.8-15.44,4.8-15.44c0.66-2.48,7.65-2.72,11.84-1.55s35.81,12.29,35.46,24.54
		S89.91,67.4,84.88,73.9C78.39,82.31,60.17,86.64,59.28,83.87z"/>
</g>
<g>
	<path d="M86.52,46.09c-0.03,0-0.07,0-0.1,0c-0.77-0.03-1.48-0.35-2.01-0.92c-1.08-1.16-1.02-2.99,0.14-4.08
		c0.17-0.16,0.44-0.15,0.6,0.02c0.16,0.17,0.15,0.44-0.02,0.6c-0.82,0.76-0.87,2.05-0.1,2.88c0.37,0.4,0.87,0.63,1.42,0.65
		c0.55,0.02,1.06-0.17,1.46-0.54c0.82-0.76,0.87-2.05,0.1-2.88c-0.16-0.17-0.15-0.44,0.02-0.6s0.44-0.15,0.6,0.02
		c1.08,1.16,1.02,2.99-0.14,4.08C87.95,45.82,87.25,46.09,86.52,46.09z"/>
	<path d="M61.61,45.52c-0.69,0-1.35-0.26-1.86-0.73c-1.12-1.03-1.2-2.78-0.17-3.9c0.16-0.17,0.43-0.19,0.6-0.03s0.18,0.43,0.03,0.6
		c-0.71,0.78-0.66,1.99,0.12,2.7c0.38,0.34,0.87,0.52,1.38,0.5c0.51-0.02,0.98-0.24,1.33-0.62c0.71-0.78,0.66-1.99-0.12-2.7
		c-0.17-0.16-0.18-0.43-0.03-0.6c0.16-0.17,0.43-0.19,0.6-0.03c1.12,1.03,1.2,2.78,0.17,3.9c-0.5,0.54-1.18,0.86-1.92,0.89
		C61.7,45.52,61.66,45.52,61.61,45.52z"/>
	<path d="M56.89,43.68c-0.11,0-0.22-0.04-0.3-0.12c-0.17-0.17-0.17-0.44,0-0.6c0.93-0.93,2.67-2.67,5.33-2.67
		c2.59,0,4.78,2.33,4.88,2.43c0.16,0.17,0.15,0.44-0.02,0.6s-0.44,0.15-0.6-0.02c-0.02-0.02-2.04-2.16-4.25-2.16
		c-2.3,0-3.82,1.52-4.72,2.43C57.11,43.63,57,43.68,56.89,43.68z"/>
	<path d="M67.8,40.8c-0.23,0-0.46-0.09-0.62-0.27c-0.04-0.04-1.64-1.66-5.66-2.49c-4.58-0.94-7.12-0.73-9.71,0.81
		c-0.4,0.24-0.92,0.11-1.17-0.29c-0.24-0.4-0.11-0.93,0.29-1.17c3.39-2.02,6.69-1.89,10.93-1.02c4.65,0.96,6.49,2.91,6.57,3
		c0.32,0.35,0.29,0.88-0.05,1.2C68.21,40.73,68,40.8,67.8,40.8z"/>
	<path d="M101.22,41.64c-0.16,0-0.31-0.04-0.46-0.13c-3.36-2.13-7.51-3.34-12.32-3.6c-6.59-0.34-11.24,0.97-11.29,0.98
		c-0.45,0.13-0.92-0.13-1.05-0.58s0.13-0.92,0.58-1.05c0.2-0.06,4.99-1.41,11.84-1.05c5.11,0.27,9.53,1.56,13.14,3.86
		c0.4,0.25,0.51,0.78,0.26,1.17C101.78,41.5,101.5,41.64,101.22,41.64z"/>
	<path d="M64.91,63.71c-0.03,0-0.07,0-0.1-0.01c-2.07-0.51-3.04-1.74-3.49-2.68c-0.64-1.34-0.64-2.99-0.02-4.31
		c0.39-0.82,1.1-2.4,1.92-4.23c1.19-2.65,2.53-5.65,3.49-7.64c0.1-0.21,0.35-0.3,0.57-0.2c0.21,0.1,0.3,0.35,0.2,0.57
		c-0.95,1.99-2.29,4.98-3.48,7.62c-0.82,1.83-1.54,3.42-1.92,4.24c-0.51,1.08-0.5,2.48,0.02,3.58c0.53,1.11,1.54,1.88,2.92,2.22
		c0.23,0.06,0.37,0.29,0.31,0.51C65.27,63.58,65.1,63.71,64.91,63.71z"/>
	<path d="M67.9,62.29c-0.12,0-0.24-0.05-0.33-0.16c-0.15-0.18-0.12-0.45,0.06-0.6c0.06-0.05,1.57-1.26,3.45-1.11
		c1.77,0.16,2.44,0.51,2.51,0.55c0.2,0.12,0.27,0.38,0.16,0.58c-0.12,0.21-0.38,0.27-0.58,0.16c0,0-0.59-0.31-2.16-0.45
		c-1.55-0.14-2.82,0.91-2.84,0.92C68.09,62.26,68,62.29,67.9,62.29z"/>
	<path d="M73.48,63.74c-0.38,0-0.66-0.03-0.75-0.04c-0.23-0.02-0.4-0.23-0.38-0.47c0.02-0.23,0.24-0.41,0.47-0.38
		c0.73,0.08,2.71,0.07,3.18-0.84c0.72-1.4,1.38-2.93,0.73-4.95c-0.07-0.22,0.05-0.46,0.28-0.53c0.22-0.07,0.46,0.05,0.53,0.28
		c0.74,2.33-0.02,4.11-0.79,5.6C76.16,63.56,74.48,63.74,73.48,63.74z"/>
	<path d="M69.44,73.42c-1.06,0-2.13-0.12-2.86-0.39c-0.78-0.3-1.48-0.11-2.16,0.07c-0.21,0.05-0.41,0.11-0.6,0.14
		c-0.92,0.17-2.51-0.73-2.82-0.91c-0.2-0.12-0.27-0.38-0.15-0.58c0.12-0.2,0.38-0.27,0.58-0.15c0.66,0.39,1.78,0.9,2.24,0.81
		c0.17-0.03,0.35-0.08,0.54-0.13c0.73-0.19,1.65-0.43,2.68-0.04c1.09,0.42,3.16,0.41,4.55,0.19c1.55-0.24,4.19-0.25,5.32-0.02
		c1.06,0.22,4.35-0.51,4.82-0.96c0.17-0.16,0.44-0.16,0.6,0.01c0.16,0.17,0.16,0.44-0.01,0.6c-0.76,0.74-4.4,1.43-5.58,1.19
		c-1.04-0.21-3.58-0.2-5.02,0.02C70.93,73.36,70.19,73.42,69.44,73.42z"/>
	<path d="M78.46,71.52c-0.88,0-2.21-0.4-3.6-0.82c-1.19-0.36-2.41-0.73-3.24-0.8c-1.74-0.14-4.05,0.42-4.07,0.42l-0.1,0.02
		l-0.1-0.02c-0.02,0-1.65-0.37-2.86-0.42c-1.05-0.03-1.86,0.73-1.86,0.74c-0.17,0.17-0.44,0.17-0.6,0c-0.17-0.17-0.17-0.44,0-0.6
		c0.04-0.04,1.09-1.05,2.5-0.99c1.13,0.04,2.54,0.34,2.92,0.42c0.48-0.11,2.56-0.56,4.25-0.42c0.92,0.08,2.19,0.46,3.42,0.84
		c1.28,0.39,2.6,0.79,3.36,0.79c0.23,0,0.42,0.19,0.42,0.42S78.7,71.52,78.46,71.52z"/>
	<path d="M72.31,77.51c-0.49,0-0.97-0.04-1.38-0.07c-0.54-0.04-0.79-0.04-1.29-0.02c-0.7,0.02-1.65,0.06-2.59-0.02
		c-1.35-0.11-4.36-2.29-4.69-2.53c-0.19-0.14-0.23-0.41-0.09-0.59c0.14-0.19,0.41-0.23,0.59-0.09c1.2,0.88,3.42,2.3,4.26,2.37
		c0.89,0.07,1.82,0.04,2.5,0.02c0.54-0.02,0.81-0.02,1.38,0.03c0.71,0.06,1.67,0.14,2.38-0.03c0.84-0.2,3.4-1.74,4.36-2.32L78.18,74
		c0.2-0.12,0.46-0.05,0.58,0.16c0.12,0.2,0.05,0.46-0.16,0.58l-0.42,0.25c-1.8,1.08-3.75,2.21-4.6,2.42
		C73.18,77.48,72.74,77.51,72.31,77.51z"/>
	<path d="M59.18,84.3c-0.18,0-0.35-0.12-0.41-0.3c-0.07-0.22-0.17-0.55-0.32-0.97c-0.73-2.21-2.26-6.82-2.94-12.08
		c-0.38-2.89-1.15-6.09-1.84-8.91c-0.82-3.36-1.52-6.26-1.46-8.1c0.05-1.76,0.34-3.94,0.59-5.87c0.22-1.66,0.42-3.23,0.38-3.87
		c-0.04-0.5-0.58-1.42-1.1-2.31c-0.84-1.42-1.79-3.04-1.58-4.28c0.31-1.89,4.61-14.95,4.79-15.5c0.07-0.22,0.31-0.34,0.54-0.27
		c0.22,0.07,0.34,0.31,0.27,0.54c-0.04,0.14-4.46,13.55-4.76,15.37c-0.15,0.94,0.71,2.41,1.48,3.71c0.62,1.06,1.17,1.98,1.21,2.68
		c0.05,0.73-0.14,2.19-0.38,4.04c-0.25,1.91-0.53,4.07-0.58,5.79c-0.05,1.73,0.64,4.58,1.44,7.88c0.69,2.84,1.47,6.06,1.85,9
		c0.67,5.17,2.18,9.73,2.91,11.92c0.14,0.43,0.25,0.77,0.32,1s-0.06,0.46-0.29,0.53C59.26,84.29,59.22,84.3,59.18,84.3z"/>
</g>
<path class="st2" d="M48.76,51.8c-0.2,0-0.37-0.14-0.42-0.34c-0.05-0.23,0.1-0.46,0.33-0.5l37.76-7.83c0.23-0.04,0.46,0.1,0.5,0.33
	c0.05,0.23-0.1,0.46-0.33,0.5l-37.76,7.83C48.82,51.79,48.79,51.8,48.76,51.8z"/>
<path class="st2" d="M69.29,73.52c-0.11,0-0.23-0.04-0.31-0.13L48.45,51.66c-0.16-0.17-0.15-0.44,0.02-0.6
	c0.17-0.16,0.44-0.15,0.6,0.02L69.6,72.8c0.16,0.17,0.15,0.44-0.02,0.6C69.5,73.48,69.39,73.52,69.29,73.52z"/>
<path class="st2" d="M48.76,51.8c-0.11,0-0.21-0.04-0.29-0.12c-0.17-0.16-0.18-0.43-0.01-0.6l23.02-24.14
	c0.16-0.17,0.43-0.18,0.6-0.01c0.17,0.16,0.18,0.43,0.01,0.6L49.07,51.67C48.98,51.75,48.87,51.8,48.76,51.8z"/>
<path class="st2" d="M86.64,55.3c-0.01,0-0.03,0-0.04,0l-37.88-3.5c-0.23-0.02-0.41-0.23-0.38-0.46s0.23-0.41,0.46-0.38l37.88,3.5
	c0.23,0.02,0.41,0.23,0.38,0.46C87.04,55.13,86.86,55.3,86.64,55.3z"/>
<path class="st2" d="M48.76,51.8c-0.16,0-0.31-0.09-0.39-0.25c-0.1-0.21-0.01-0.47,0.21-0.56L71.6,40.24
	c0.21-0.1,0.47-0.01,0.57,0.21c0.1,0.21,0.01,0.47-0.21,0.56L48.94,51.76C48.88,51.78,48.82,51.8,48.76,51.8z"/>
<g>
	<path class="st2" d="M85.77,41.74c0.23-0.12,0.48-0.19,0.76-0.19c0.9,0,1.63,0.73,1.63,1.63s-0.73,1.63-1.63,1.63
		c-0.9,0-1.63-0.73-1.63-1.63c0-0.36,0.11-0.68,0.31-0.95"/>
	<path class="st3" d="M86.52,45.25c-1.14,0-2.06-0.92-2.06-2.06c0-0.44,0.13-0.85,0.39-1.2l0.69,0.5c-0.15,0.21-0.23,0.45-0.23,0.7
		c0,0.67,0.54,1.21,1.21,1.21s1.21-0.54,1.21-1.21s-0.54-1.21-1.21-1.21c-0.2,0-0.39,0.05-0.56,0.14l-0.39-0.75
		c0.29-0.15,0.62-0.23,0.96-0.23c1.13,0,2.06,0.92,2.06,2.06C88.58,44.32,87.66,45.25,86.52,45.25z"/>
</g>
<g>
	<circle class="st2" cx="61.62" cy="42.78" r="1.47"/>
	<path class="st3" d="M61.62,44.67c-1.04,0-1.89-0.85-1.89-1.9s0.85-1.9,1.89-1.9s1.89,0.85,1.89,1.9S62.66,44.67,61.62,44.67z
		 M61.62,41.73c-0.58,0-1.04,0.47-1.04,1.04s0.47,1.04,1.04,1.04s1.04-0.47,1.04-1.04S62.19,41.73,61.62,41.73z"/>
</g>
<g>
	<circle class="st2" cx="86.52" cy="54.77" r="1.63"/>
	<path class="st3" d="M86.52,56.83c-1.14,0-2.06-0.92-2.06-2.06c0-1.13,0.92-2.06,2.06-2.06c1.13,0,2.06,0.92,2.06,2.06
		C88.58,55.91,87.65,56.83,86.52,56.83z M86.52,53.56c-0.67,0-1.21,0.54-1.21,1.21s0.54,1.21,1.21,1.21s1.21-0.54,1.21-1.21
		S87.18,53.56,86.52,53.56z"/>
</g>
<g>
	<circle class="st2" cx="71.78" cy="40.62" r="1.63"/>
	<path class="st3" d="M71.78,42.68c-1.14,0-2.06-0.92-2.06-2.06c0-1.14,0.92-2.06,2.06-2.06c1.13,0,2.06,0.92,2.06,2.06
		C73.84,41.76,72.92,42.68,71.78,42.68z M71.78,39.41c-0.67,0-1.21,0.54-1.21,1.21s0.54,1.21,1.21,1.21s1.21-0.54,1.21-1.21
		S72.45,39.41,71.78,39.41z"/>
</g>
<g>
	<circle class="st2" cx="71.78" cy="27.16" r="1.63"/>
	<path class="st3" d="M71.78,29.21c-1.14,0-2.06-0.92-2.06-2.06s0.92-2.06,2.06-2.06c1.13,0,2.06,0.92,2.06,2.06
		S72.92,29.21,71.78,29.21z M71.78,25.95c-0.67,0-1.21,0.54-1.21,1.21s0.54,1.21,1.21,1.21s1.21-0.54,1.21-1.21
		S72.45,25.95,71.78,25.95z"/>
</g>
<g>
	<circle class="st2" cx="69.29" cy="73.09" r="1.63"/>
	<path class="st3" d="M69.29,75.15c-1.14,0-2.06-0.92-2.06-2.06s0.92-2.06,2.06-2.06c1.13,0,2.06,0.92,2.06,2.06
		S70.42,75.15,69.29,75.15z M69.29,71.89c-0.67,0-1.21,0.54-1.21,1.21s0.54,1.21,1.21,1.21s1.21-0.54,1.21-1.21
		S69.96,71.89,69.29,71.89z"/>
</g>
<g>
	
		<linearGradient id="SVGID_2_" gradientUnits="userSpaceOnUse" x1="15.45" y1="59.0163" x2="68.01" y2="59.0163" gradientTransform="matrix(1 0 0 -1 0 113.8898)">
		<stop  offset="0" style="stop-color:#009FE3"/>
		<stop  offset="1" style="stop-color:#009FE3;stop-opacity:0.25"/>
	</linearGradient>
	<path class="st4" d="M68.01,54.87c0,21.37-12.76,40.11-26.83,38.69c-14.42-1.45-25.73-17.32-25.73-38.69s11.3-37.38,25.73-38.69
		C56.12,14.83,68.01,33.5,68.01,54.87z"/>
	
		<linearGradient id="SVGID_3_" gradientUnits="userSpaceOnUse" x1="15.02" y1="59.0151" x2="68.43" y2="59.0151" gradientTransform="matrix(1 0 0 -1 0 113.8898)">
		<stop  offset="0" style="stop-color:#009FE3"/>
		<stop  offset="1" style="stop-color:#009FE3;stop-opacity:0.35"/>
	</linearGradient>
	<path class="st5" d="M42.68,94.06c-0.52,0-1.03-0.03-1.55-0.08C26,92.46,15.02,76.01,15.02,54.87c0-20.95,11.23-37.77,26.12-39.11
		c5.19-0.47,10.25,1.41,14.66,5.44c7.79,7.12,12.63,20.02,12.63,33.67c0,13.53-5.02,26.47-13.09,33.77
		C51.4,92.21,47.05,94.06,42.68,94.06z M42.69,16.54c-0.49,0-0.98,0.02-1.47,0.07c-14.45,1.31-25.35,17.76-25.35,38.27
		c0,20.7,10.66,36.79,25.35,38.27c4.64,0.46,9.32-1.31,13.55-5.13c7.78-7.04,12.81-20.05,12.81-33.14
		c0-13.42-4.74-26.08-12.36-33.05C51.42,18.35,47.11,16.54,42.69,16.54z"/>
</g>
<g class="st6">
	<path class="st2" d="M54.36,31.56c-0.47,0-0.85-0.38-0.85-0.85v-3.55c0-0.47,0.38-0.85,0.85-0.85s0.85,0.38,0.85,0.85v3.55
		C55.21,31.18,54.83,31.56,54.36,31.56z"/>
	<g>
		<path class="st2" d="M54.36,38.99c-0.47,0-0.85-0.38-0.85-0.85v-3.55c0-0.47,0.38-0.85,0.85-0.85s0.85,0.38,0.85,0.85v3.55
			C55.21,38.61,54.83,38.99,54.36,38.99z"/>
		<path class="st2" d="M54.36,46.42c-0.47,0-0.85-0.38-0.85-0.85v-3.55c0-0.47,0.38-0.85,0.85-0.85s0.85,0.38,0.85,0.85v3.55
			C55.21,46.04,54.83,46.42,54.36,46.42z"/>
		<path class="st2" d="M54.36,53.85c-0.47,0-0.85-0.38-0.85-0.85v-3.55c0-0.47,0.38-0.85,0.85-0.85s0.85,0.38,0.85,0.85V53
			C55.21,53.47,54.83,53.85,54.36,53.85z"/>
		<path class="st2" d="M54.36,61.29c-0.47,0-0.85-0.38-0.85-0.85v-3.55c0-0.47,0.38-0.85,0.85-0.85s0.85,0.38,0.85,0.85v3.55
			C55.21,60.9,54.83,61.29,54.36,61.29z"/>
		<path class="st2" d="M54.36,68.72c-0.47,0-0.85-0.38-0.85-0.85v-3.55c0-0.47,0.38-0.85,0.85-0.85s0.85,0.38,0.85,0.85v3.55
			C55.21,68.34,54.83,68.72,54.36,68.72z"/>
		<path class="st2" d="M54.36,76.15c-0.47,0-0.85-0.38-0.85-0.85v-3.55c0-0.47,0.38-0.85,0.85-0.85s0.85,0.38,0.85,0.85v3.55
			C55.21,75.77,54.83,76.15,54.36,76.15z"/>
	</g>
	<path class="st2" d="M54.36,83.58c-0.47,0-0.85-0.38-0.85-0.85v-3.55c0-0.47,0.38-0.85,0.85-0.85s0.85,0.38,0.85,0.85v3.55
		C55.21,83.2,54.83,83.58,54.36,83.58z"/>
</g>
<g class="st6">
	<g>
		<path class="st2" d="M59.97,46.07c-0.47,0-0.85-0.38-0.85-0.85v-3.68c0-0.47,0.38-0.85,0.85-0.85s0.85,0.38,0.85,0.85v3.68
			C60.82,45.69,60.44,46.07,59.97,46.07z"/>
		<path class="st2" d="M59.97,38.61c-0.47,0-0.85-0.38-0.85-0.85v-3.68c0-0.47,0.38-0.85,0.85-0.85s0.85,0.38,0.85,0.85v3.68
			C60.82,38.23,60.44,38.61,59.97,38.61z"/>
		<path class="st2" d="M59.97,53.78c-0.47,0-0.85-0.38-0.85-0.85v-3.68c0-0.47,0.38-0.85,0.85-0.85s0.85,0.38,0.85,0.85v3.68
			C60.82,53.4,60.44,53.78,59.97,53.78z"/>
		<path class="st2" d="M59.97,61.49c-0.47,0-0.85-0.38-0.85-0.85v-3.68c0-0.47,0.38-0.85,0.85-0.85s0.85,0.38,0.85,0.85v3.68
			C60.82,61.11,60.44,61.49,59.97,61.49z"/>
		<path class="st2" d="M59.97,69.2c-0.47,0-0.85-0.38-0.85-0.85v-3.68c0-0.47,0.38-0.85,0.85-0.85s0.85,0.38,0.85,0.85v3.68
			C60.82,68.82,60.44,69.2,59.97,69.2z"/>
		<path class="st2" d="M59.97,76.59c-0.47,0-0.85-0.38-0.85-0.85v-3.68c0-0.47,0.38-0.85,0.85-0.85s0.85,0.38,0.85,0.85v3.68
			C60.82,76.21,60.44,76.59,59.97,76.59z"/>
	</g>
</g>
<g class="st7">
	<g>
		<path class="st2" d="M43.15,33.22c-0.47,0-0.85-0.38-0.85-0.85v-3.31c0-0.47,0.38-0.85,0.85-0.85S44,28.6,44,29.07v3.31
			C44,32.84,43.62,33.22,43.15,33.22z"/>
		<path class="st2" d="M43.15,26.71c-0.47,0-0.85-0.38-0.85-0.85v-3.31c0-0.47,0.38-0.85,0.85-0.85S44,22.09,44,22.56v3.31
			C44,26.33,43.62,26.71,43.15,26.71z"/>
		<g>
			<path class="st2" d="M43.15,40.15c-0.47,0-0.85-0.38-0.85-0.85v-3.31c0-0.47,0.38-0.85,0.85-0.85S44,35.52,44,35.99v3.31
				C44,39.76,43.62,40.15,43.15,40.15z"/>
			<path class="st2" d="M43.15,47.07c-0.47,0-0.85-0.38-0.85-0.85v-3.31c0-0.47,0.38-0.85,0.85-0.85S44,42.44,44,42.91v3.31
				C44,46.69,43.62,47.07,43.15,47.07z"/>
			<path class="st2" d="M43.15,53.99c-0.47,0-0.85-0.38-0.85-0.85v-3.31c0-0.47,0.38-0.85,0.85-0.85S44,49.36,44,49.83v3.31
				C44,53.61,43.62,53.99,43.15,53.99z"/>
			<path class="st2" d="M43.15,60.91c-0.47,0-0.85-0.38-0.85-0.85v-3.31c0-0.47,0.38-0.85,0.85-0.85S44,56.28,44,56.75v3.31
				C44,60.53,43.62,60.91,43.15,60.91z"/>
			<path class="st2" d="M43.15,67.83c-0.47,0-0.85-0.38-0.85-0.85v-3.31c0-0.47,0.38-0.85,0.85-0.85S44,63.2,44,63.67v3.31
				C44,67.45,43.62,67.83,43.15,67.83z"/>
			<path class="st2" d="M43.15,74.75c-0.47,0-0.85-0.38-0.85-0.85v-3.31c0-0.47,0.38-0.85,0.85-0.85S44,70.12,44,70.59v3.31
				C44,74.37,43.62,74.75,43.15,74.75z"/>
		</g>
		<path class="st2" d="M43.15,81.67c-0.47,0-0.85-0.38-0.85-0.85v-3.31c0-0.47,0.38-0.85,0.85-0.85S44,77.04,44,77.51v3.31
			C44,81.29,43.62,81.67,43.15,81.67z"/>
		<path class="st2" d="M43.15,88.46c-0.47,0-0.85-0.38-0.85-0.85V84.3c0-0.47,0.38-0.85,0.85-0.85S44,83.84,44,84.31v3.31
			C44,88.08,43.62,88.46,43.15,88.46z"/>
	</g>
	<g>
		<path class="st2" d="M48.76,32.5c-0.47,0-0.85-0.38-0.85-0.85v-3.41c0-0.47,0.38-0.85,0.85-0.85s0.85,0.38,0.85,0.85v3.41
			C49.61,32.12,49.23,32.5,48.76,32.5z"/>
		<path class="st2" d="M48.76,25.64c-0.47,0-0.85-0.38-0.85-0.85v-3.41c0-0.47,0.38-0.85,0.85-0.85s0.85,0.38,0.85,0.85v3.41
			C49.61,25.26,49.23,25.64,48.76,25.64z"/>
		<g>
			<path class="st2" d="M48.76,39.64c-0.47,0-0.85-0.38-0.85-0.85v-3.41c0-0.47,0.38-0.85,0.85-0.85s0.85,0.38,0.85,0.85v3.41
				C49.61,39.26,49.23,39.64,48.76,39.64z"/>
			<path class="st2" d="M48.76,46.79c-0.47,0-0.85-0.38-0.85-0.85v-3.41c0-0.47,0.38-0.85,0.85-0.85s0.85,0.38,0.85,0.85v3.41
				C49.61,46.41,49.23,46.79,48.76,46.79z"/>
			<path class="st2" d="M48.76,53.93c-0.47,0-0.85-0.38-0.85-0.85v-3.41c0-0.47,0.38-0.85,0.85-0.85s0.85,0.38,0.85,0.85v3.41
				C49.61,53.55,49.23,53.93,48.76,53.93z"/>
			<path class="st2" d="M48.76,61.07c-0.47,0-0.85-0.38-0.85-0.85v-3.41c0-0.47,0.38-0.85,0.85-0.85s0.85,0.38,0.85,0.85v3.41
				C49.61,60.69,49.23,61.07,48.76,61.07z"/>
			<path class="st2" d="M48.76,68.21c-0.47,0-0.85-0.38-0.85-0.85v-3.41c0-0.47,0.38-0.85,0.85-0.85s0.85,0.38,0.85,0.85v3.41
				C49.61,67.83,49.23,68.21,48.76,68.21z"/>
			<path class="st2" d="M48.76,75.36c-0.47,0-0.85-0.38-0.85-0.85V71.1c0-0.47,0.38-0.85,0.85-0.85s0.85,0.38,0.85,0.85v3.41
				C49.61,74.98,49.23,75.36,48.76,75.36z"/>
		</g>
		<path class="st2" d="M48.76,82.5c-0.47,0-0.85-0.38-0.85-0.85v-3.41c0-0.47,0.38-0.85,0.85-0.85s0.85,0.38,0.85,0.85v3.41
			C49.61,82.12,49.23,82.5,48.76,82.5z"/>
		<path class="st2" d="M48.76,89.64c-0.47,0-0.85-0.38-0.85-0.85v-3.41c0-0.47,0.38-0.85,0.85-0.85s0.85,0.38,0.85,0.85v3.41
			C49.61,89.26,49.23,89.64,48.76,89.64z"/>
	</g>
	<g>
		<path class="st2" d="M37.55,27.3c-0.47,0-0.85-0.38-0.85-0.85v-2.98c0-0.47,0.38-0.85,0.85-0.85S38.4,23,38.4,23.46v2.98
			C38.4,26.92,38.02,27.3,37.55,27.3z"/>
		<path class="st2" d="M37.55,33.96c-0.47,0-0.85-0.38-0.85-0.85v-2.98c0-0.47,0.38-0.85,0.85-0.85s0.85,0.38,0.85,0.85v2.98
			C38.4,33.58,38.02,33.96,37.55,33.96z"/>
		<path class="st2" d="M37.55,40.62c-0.47,0-0.85-0.38-0.85-0.85v-2.98c0-0.47,0.38-0.85,0.85-0.85s0.85,0.38,0.85,0.85v2.98
			C38.4,40.24,38.02,40.62,37.55,40.62z"/>
		<path class="st2" d="M37.55,47.29c-0.47,0-0.85-0.38-0.85-0.85v-2.98c0-0.47,0.38-0.85,0.85-0.85s0.85,0.38,0.85,0.85v2.98
			C38.4,46.91,38.02,47.29,37.55,47.29z"/>
		<path class="st2" d="M37.55,53.95c-0.47,0-0.85-0.38-0.85-0.85v-2.98c0-0.47,0.38-0.85,0.85-0.85s0.85,0.38,0.85,0.85v2.98
			C38.4,53.57,38.02,53.95,37.55,53.95z"/>
		<path class="st2" d="M37.55,60.62c-0.47,0-0.85-0.38-0.85-0.85v-2.98c0-0.47,0.38-0.85,0.85-0.85s0.85,0.38,0.85,0.85v2.98
			C38.4,60.24,38.02,60.62,37.55,60.62z"/>
		<path class="st2" d="M37.55,67.28c-0.47,0-0.85-0.38-0.85-0.85v-2.98c0-0.47,0.38-0.85,0.85-0.85s0.85,0.38,0.85,0.85v2.98
			C38.4,66.9,38.02,67.28,37.55,67.28z"/>
		<path class="st2" d="M37.55,73.94c-0.47,0-0.85-0.38-0.85-0.85v-2.98c0-0.47,0.38-0.85,0.85-0.85s0.85,0.38,0.85,0.85v2.98
			C38.4,73.56,38.02,73.94,37.55,73.94z"/>
		<path class="st2" d="M37.55,80.61c-0.47,0-0.85-0.38-0.85-0.85v-2.98c0-0.47,0.38-0.85,0.85-0.85s0.85,0.38,0.85,0.85v2.98
			C38.4,80.23,38.02,80.61,37.55,80.61z"/>
		<path class="st2" d="M37.55,87.27c-0.47,0-0.85-0.38-0.85-0.85v-2.98c0-0.47,0.38-0.85,0.85-0.85s0.85,0.38,0.85,0.85v2.98
			C38.4,86.89,38.02,87.27,37.55,87.27z"/>
	</g>
	<g>
		<path class="st2" d="M31.94,28.29c-0.47,0-0.85-0.38-0.85-0.85v-2.66c0-0.47,0.38-0.85,0.85-0.85c0.47,0,0.85,0.38,0.85,0.85v2.66
			C32.79,27.91,32.41,28.29,31.94,28.29z"/>
		<path class="st2" d="M31.94,34.7c-0.47,0-0.85-0.38-0.85-0.85v-2.66c0-0.47,0.38-0.85,0.85-0.85c0.47,0,0.85,0.38,0.85,0.85v2.66
			C32.79,34.32,32.41,34.7,31.94,34.7z"/>
		<path class="st2" d="M31.94,41.1c-0.47,0-0.85-0.38-0.85-0.85V37.6c0-0.47,0.38-0.85,0.85-0.85c0.47,0,0.85,0.38,0.85,0.85v2.66
			C32.79,40.72,32.41,41.1,31.94,41.1z"/>
		<path class="st2" d="M31.94,47.51c-0.47,0-0.85-0.38-0.85-0.85V44c0-0.47,0.38-0.85,0.85-0.85c0.47,0,0.85,0.38,0.85,0.85v2.66
			C32.79,47.13,32.41,47.51,31.94,47.51z"/>
		<path class="st2" d="M31.94,53.92c-0.47,0-0.85-0.38-0.85-0.85v-2.66c0-0.47,0.38-0.85,0.85-0.85c0.47,0,0.85,0.38,0.85,0.85v2.66
			C32.79,53.54,32.41,53.92,31.94,53.92z"/>
		<path class="st2" d="M31.94,60.33c-0.47,0-0.85-0.38-0.85-0.85v-2.66c0-0.47,0.38-0.85,0.85-0.85c0.47,0,0.85,0.38,0.85,0.85v2.66
			C32.79,59.94,32.41,60.33,31.94,60.33z"/>
		<path class="st2" d="M31.94,66.73c-0.47,0-0.85-0.38-0.85-0.85v-2.66c0-0.47,0.38-0.85,0.85-0.85c0.47,0,0.85,0.38,0.85,0.85v2.66
			C32.79,66.35,32.41,66.73,31.94,66.73z"/>
		<path class="st2" d="M31.94,73.14c-0.47,0-0.85-0.38-0.85-0.85v-2.66c0-0.47,0.38-0.85,0.85-0.85c0.47,0,0.85,0.38,0.85,0.85v2.66
			C32.79,72.76,32.41,73.14,31.94,73.14z"/>
		<path class="st2" d="M31.94,79.55c-0.47,0-0.85-0.38-0.85-0.85v-2.66c0-0.47,0.38-0.85,0.85-0.85c0.47,0,0.85,0.38,0.85,0.85v2.66
			C32.79,79.17,32.41,79.55,31.94,79.55z"/>
		<path class="st2" d="M31.94,85.95c-0.47,0-0.85-0.38-0.85-0.85v-2.66c0-0.47,0.38-0.85,0.85-0.85c0.47,0,0.85,0.38,0.85,0.85v2.66
			C32.79,85.57,32.41,85.95,31.94,85.95z"/>
	</g>
	<g>
		<path class="st2" d="M26.34,35.43c-0.47,0-0.85-0.38-0.85-0.85v-2.33c0-0.47,0.38-0.85,0.85-0.85s0.85,0.38,0.85,0.85v2.33
			C27.19,35.05,26.81,35.43,26.34,35.43z"/>
		<path class="st2" d="M26.34,41.58c-0.47,0-0.85-0.38-0.85-0.85V38.4c0-0.47,0.38-0.85,0.85-0.85s0.85,0.38,0.85,0.85v2.33
			C27.19,41.2,26.81,41.58,26.34,41.58z"/>
		<path class="st2" d="M26.34,47.73c-0.47,0-0.85-0.38-0.85-0.85v-2.33c0-0.47,0.38-0.85,0.85-0.85s0.85,0.38,0.85,0.85v2.33
			C27.19,47.35,26.81,47.73,26.34,47.73z"/>
		<path class="st2" d="M26.34,53.88c-0.47,0-0.85-0.38-0.85-0.85V50.7c0-0.47,0.38-0.85,0.85-0.85s0.85,0.38,0.85,0.85v2.33
			C27.19,53.5,26.81,53.88,26.34,53.88z"/>
		<path class="st2" d="M26.34,60.03c-0.47,0-0.85-0.38-0.85-0.85v-2.33c0-0.47,0.38-0.85,0.85-0.85s0.85,0.38,0.85,0.85v2.33
			C27.19,59.65,26.81,60.03,26.34,60.03z"/>
		<path class="st2" d="M26.34,66.18c-0.47,0-0.85-0.38-0.85-0.85V63c0-0.47,0.38-0.85,0.85-0.85s0.85,0.38,0.85,0.85v2.33
			C27.19,65.8,26.81,66.18,26.34,66.18z"/>
		<path class="st2" d="M26.34,72.33c-0.47,0-0.85-0.38-0.85-0.85v-2.33c0-0.47,0.38-0.85,0.85-0.85s0.85,0.38,0.85,0.85v2.33
			C27.19,71.95,26.81,72.33,26.34,72.33z"/>
		<path class="st2" d="M26.34,78.48c-0.47,0-0.85-0.38-0.85-0.85V75.3c0-0.47,0.38-0.85,0.85-0.85s0.85,0.38,0.85,0.85v2.33
			C27.19,78.1,26.81,78.48,26.34,78.48z"/>
	</g>
	<g>
		<path class="st2" d="M20.73,48.3c-0.47,0-0.85-0.38-0.85-0.85v-2.17c0-0.47,0.38-0.85,0.85-0.85s0.85,0.38,0.85,0.85v2.17
			C21.58,47.92,21.2,48.3,20.73,48.3z"/>
		<path class="st2" d="M20.73,42.19c-0.47,0-0.85-0.38-0.85-0.85v-2.17c0-0.47,0.38-0.85,0.85-0.85s0.85,0.38,0.85,0.85v2.17
			C21.58,41.81,21.2,42.19,20.73,42.19z"/>
		<path class="st2" d="M20.73,54.02c-0.47,0-0.85-0.38-0.85-0.85V51c0-0.47,0.38-0.85,0.85-0.85s0.85,0.38,0.85,0.85v2.17
			C21.58,53.64,21.2,54.02,20.73,54.02z"/>
		<path class="st2" d="M20.73,59.74c-0.47,0-0.85-0.38-0.85-0.85v-2.17c0-0.47,0.38-0.85,0.85-0.85s0.85,0.38,0.85,0.85v2.17
			C21.58,59.36,21.2,59.74,20.73,59.74z"/>
		<path class="st2" d="M20.73,65.45c-0.47,0-0.85-0.38-0.85-0.85v-2.17c0-0.47,0.38-0.85,0.85-0.85s0.85,0.38,0.85,0.85v2.17
			C21.58,65.07,21.2,65.45,20.73,65.45z"/>
		<path class="st2" d="M20.73,71.09c-0.47,0-0.85-0.38-0.85-0.85v-2.17c0-0.47,0.38-0.85,0.85-0.85s0.85,0.38,0.85,0.85v2.17
			C21.58,70.71,21.2,71.09,20.73,71.09z"/>
	</g>
</g>
<polygon class="st2" points="49.6,52.3 15.76,34.34 16.16,33.58 49.61,51.34 "/>
<path d="M93.26,44.94c-0.12,0-0.24-0.05-0.32-0.15l-0.19-0.22c-0.64-0.76-1.6-1.92-4.94-2.95c-3.12-0.96-7.47,2.57-7.52,2.61
	c-0.18,0.15-0.45,0.12-0.6-0.06s-0.12-0.45,0.06-0.6c0.19-0.16,4.74-3.86,8.31-2.77c3.59,1.1,4.69,2.42,5.34,3.22l0.18,0.21
	c0.15,0.18,0.13,0.45-0.04,0.6C93.46,44.91,93.36,44.94,93.26,44.94z"/>
</svg>
