<?xml version="1.0" encoding="utf-8"?>
<!-- Generator: Adobe Illustrator 23.0.3, SVG Export Plug-In . SVG Version: 6.00 Build 0)  -->
<svg version="1.1" id="Ebene_1" xmlns="http://www.w3.org/2000/svg" xmlns:xlink="http://www.w3.org/1999/xlink" x="0px" y="0px"
	 viewBox="0 0 113.39 113.39" style="enable-background:new 0 0 113.39 113.39;" xml:space="preserve">
<style type="text/css">
	.st0{fill:#E0E0E0;}
	.st1{fill:#FFFFFF;}
	.st2{opacity:0.4;fill:#009FE3;enable-background:new    ;}
	.st3{opacity:0.4;fill:#FFFFFF;enable-background:new    ;}
	.st4{fill:#009FE3;}
	.st5{fill:url(#SVGID_1_);}
	.st6{fill:url(#SVGID_2_);}
	.st7{fill:url(#SVGID_3_);}
</style>
<polygon class="st0" points="95.76,98.74 54.13,88.06 54.13,23.78 95.76,13.1 "/>
<path class="st1" d="M74.94,56.01c-0.01,0-0.02,0-0.03,0L40.3,53.7c-0.23-0.02-0.41-0.22-0.4-0.45c0.02-0.23,0.23-0.4,0.45-0.4
	l34.62,2.31c0.23,0.02,0.41,0.22,0.4,0.45C75.35,55.84,75.16,56.01,74.94,56.01z"/>
<path class="st1" d="M60.15,99.17c-0.23,0-0.42-0.19-0.42-0.42V13.1c0-0.23,0.19-0.43,0.42-0.43s0.42,0.19,0.42,0.43v85.65
	C60.57,98.98,60.38,99.17,60.15,99.17z"/>
<path class="st1" d="M74.94,82.1c-0.09,0-0.19-0.03-0.27-0.09L40.06,54c-0.18-0.15-0.21-0.42-0.06-0.6c0.15-0.18,0.42-0.21,0.6-0.06
	l34.62,28.01c0.18,0.15,0.21,0.42,0.06,0.6C75.19,82.05,75.07,82.1,74.94,82.1z"/>
<path class="st1" d="M40.32,53.25c-0.14,0-0.29-0.07-0.37-0.21c-0.12-0.2-0.06-0.46,0.15-0.58L74.72,31.7
	c0.2-0.12,0.46-0.06,0.58,0.15c0.12,0.2,0.06,0.46-0.15,0.58L40.54,53.18C40.47,53.23,40.4,53.25,40.32,53.25z"/>
<polygon class="st2" points="59.71,98.74 20.72,86.36 20.72,25.48 59.71,13.1 "/>
<path class="st3" d="M60.15,70.13c-0.09,0-0.19-0.03-0.27-0.09L40.06,54c-0.16-0.13-0.2-0.35-0.11-0.53
	c-0.04-0.07-0.05-0.15-0.05-0.23c0-0.07,0.03-0.14,0.06-0.2v-0.01c-0.12-0.2-0.06-0.46,0.15-0.58l19.82-11.88
	c0.2-0.12,0.46-0.06,0.58,0.15c0.12,0.2,0.06,0.46-0.15,0.58L41.03,52.89l19.15,1.28c0.23,0.02,0.41,0.22,0.4,0.45
	s-0.18,0.41-0.45,0.4L41.1,53.75l19.31,15.63c0.18,0.15,0.21,0.42,0.06,0.6C60.39,70.08,60.27,70.13,60.15,70.13z"/>
<g>
	
		<rect x="39.79" y="72.09" transform="matrix(0.3027 -0.9531 0.9531 0.3027 -60.1711 102.866)" class="st4" width="0.85" height="40.92"/>
	<path class="st4" d="M59.71,96.41c-0.04,0-0.08-0.01-0.12-0.02l-39-11.58c-0.23-0.07-0.35-0.3-0.29-0.53
		c0.07-0.23,0.3-0.36,0.53-0.29l39,11.58c0.22,0.07,0.35,0.3,0.29,0.53C60.07,96.29,59.9,96.41,59.71,96.41z"/>
	<path class="st4" d="M59.71,93.64c-0.04,0-0.08-0.01-0.11-0.02l-39-10.79c-0.23-0.06-0.36-0.3-0.3-0.52
		c0.06-0.23,0.29-0.36,0.52-0.3l39,10.79c0.23,0.06,0.36,0.3,0.3,0.52C60.07,93.52,59.9,93.64,59.71,93.64z"/>
	<path class="st4" d="M59.71,90.88c-0.03,0-0.07,0-0.11-0.01l-39-9.99c-0.23-0.06-0.36-0.29-0.31-0.52
		c0.06-0.23,0.29-0.36,0.52-0.31l39,9.99c0.23,0.06,0.36,0.29,0.31,0.52C60.08,90.75,59.9,90.88,59.71,90.88z"/>
	<path class="st4" d="M59.71,88.12c-0.03,0-0.06,0-0.1-0.01l-39-9.19c-0.23-0.05-0.37-0.28-0.32-0.51c0.05-0.23,0.28-0.37,0.51-0.32
		l39,9.19c0.23,0.05,0.37,0.28,0.32,0.51C60.08,87.99,59.91,88.12,59.71,88.12z"/>
	<path class="st4" d="M59.71,85.35c-0.03,0-0.06,0-0.09-0.01l-39-8.39c-0.23-0.05-0.38-0.28-0.33-0.51s0.27-0.37,0.5-0.33l39,8.39
		c0.23,0.05,0.38,0.28,0.33,0.51C60.09,85.22,59.91,85.35,59.71,85.35z"/>
	<path class="st4" d="M59.71,82.59c-0.03,0-0.05,0-0.08-0.01l-39-7.59c-0.23-0.04-0.38-0.27-0.34-0.5c0.05-0.23,0.27-0.39,0.5-0.34
		l39,7.59c0.23,0.04,0.38,0.27,0.34,0.5C60.09,82.45,59.91,82.59,59.71,82.59z"/>
	<path class="st4" d="M59.71,79.83c-0.02,0-0.05,0-0.07-0.01l-39-6.79c-0.23-0.04-0.39-0.26-0.35-0.49
		c0.04-0.23,0.26-0.38,0.49-0.35l39,6.79c0.23,0.04,0.39,0.26,0.35,0.49C60.1,79.68,59.92,79.83,59.71,79.83z"/>
	<path class="st4" d="M59.71,77.07c-0.02,0-0.04,0-0.07,0l-39-5.99c-0.23-0.04-0.39-0.25-0.36-0.48c0.04-0.23,0.25-0.39,0.48-0.36
		l39,5.99c0.23,0.04,0.39,0.25,0.36,0.48C60.1,76.92,59.92,77.07,59.71,77.07z"/>
	<path class="st4" d="M59.71,74.3c-0.02,0-0.04,0-0.06,0l-39-5.19c-0.23-0.03-0.4-0.25-0.37-0.48s0.24-0.39,0.48-0.37l39,5.19
		c0.23,0.03,0.4,0.25,0.37,0.48C60.11,74.15,59.92,74.3,59.71,74.3z"/>
	<path class="st4" d="M59.71,71.54c-0.02,0-0.03,0-0.05,0l-39-4.39c-0.23-0.03-0.4-0.24-0.37-0.47s0.24-0.41,0.47-0.38l39,4.39
		c0.23,0.03,0.4,0.24,0.38,0.47C60.11,71.38,59.93,71.54,59.71,71.54z"/>
	<path class="st4" d="M59.71,68.78c-0.01,0-0.03,0-0.04,0l-39-3.59c-0.23-0.02-0.41-0.23-0.38-0.46c0.02-0.23,0.23-0.41,0.46-0.38
		l39,3.59c0.23,0.02,0.41,0.23,0.38,0.46C60.12,68.61,59.93,68.78,59.71,68.78z"/>
	<path class="st4" d="M59.71,66.01c-0.01,0-0.02,0-0.03,0l-39-2.8c-0.23-0.02-0.41-0.22-0.39-0.45s0.23-0.42,0.45-0.39l39,2.8
		c0.23,0.02,0.41,0.22,0.39,0.45C60.12,65.84,59.93,66.01,59.71,66.01z"/>
	<path class="st4" d="M59.71,63.25c-0.01,0-0.01,0-0.02,0l-39-2c-0.23-0.01-0.41-0.21-0.4-0.45c0.01-0.23,0.2-0.39,0.45-0.4l39,2
		c0.23,0.01,0.42,0.21,0.4,0.45C60.13,63.08,59.94,63.25,59.71,63.25z"/>
	<path class="st4" d="M59.71,60.49L59.71,60.49l-39.01-1.2c-0.23-0.01-0.42-0.2-0.41-0.44c0.01-0.24,0.21-0.41,0.44-0.41l39,1.2
		c0.24,0.01,0.42,0.2,0.41,0.44C60.13,60.31,59.94,60.49,59.71,60.49z"/>
	<path class="st4" d="M59.71,57.73L59.71,57.73l-39-0.4c-0.23,0-0.42-0.19-0.42-0.43c0-0.23,0.19-0.42,0.43-0.42l0,0l39,0.4
		c0.24,0,0.42,0.19,0.42,0.43C60.14,57.54,59.95,57.73,59.71,57.73z"/>
	<path class="st4" d="M20.72,55.36c-0.23,0-0.42-0.19-0.43-0.42c0-0.23,0.19-0.43,0.42-0.43l39-0.4l0,0c0.23,0,0.42,0.19,0.42,0.42
		s-0.19,0.43-0.42,0.43L20.72,55.36L20.72,55.36z"/>
	<path class="st4" d="M20.72,53.4c-0.23,0-0.42-0.18-0.42-0.41c-0.01-0.23,0.18-0.43,0.41-0.44l39-1.2
		c0.22-0.04,0.43,0.18,0.44,0.41s-0.18,0.43-0.41,0.44l-39,1.2C20.72,53.4,20.72,53.4,20.72,53.4z"/>
	<path class="st4" d="M20.71,51.44c-0.22,0-0.41-0.18-0.42-0.4c-0.01-0.23,0.17-0.43,0.4-0.45l39-2c0.24,0.01,0.43,0.17,0.45,0.4
		c0.01,0.23-0.17,0.43-0.4,0.45l-39,2C20.73,51.44,20.72,51.44,20.71,51.44z"/>
	<path class="st4" d="M20.71,49.47c-0.22,0-0.41-0.17-0.42-0.4c-0.02-0.23,0.16-0.44,0.39-0.45l39-2.8
		c0.22-0.02,0.44,0.16,0.45,0.39c0.02,0.23-0.16,0.44-0.39,0.45l-39,2.8C20.74,49.47,20.73,49.47,20.71,49.47z"/>
	<path class="st4" d="M20.71,47.51c-0.22,0-0.4-0.17-0.42-0.39c-0.02-0.23,0.15-0.44,0.38-0.46l39-3.59
		c0.25-0.02,0.44,0.15,0.46,0.38s-0.15,0.44-0.38,0.46l-39,3.59C20.74,47.51,20.73,47.51,20.71,47.51z"/>
	<path class="st4" d="M20.71,45.54c-0.21,0-0.4-0.16-0.42-0.38c-0.03-0.23,0.14-0.44,0.38-0.47l39-4.39
		c0.23-0.03,0.44,0.14,0.47,0.38c0.03,0.23-0.14,0.44-0.38,0.47l-39,4.39C20.75,45.54,20.73,45.54,20.71,45.54z"/>
	<path class="st4" d="M20.71,43.58c-0.21,0-0.39-0.16-0.42-0.37c-0.03-0.23,0.13-0.45,0.37-0.48l39-5.19
		c0.22-0.03,0.45,0.13,0.48,0.37c0.03,0.23-0.13,0.45-0.37,0.48l-39,5.19C20.75,43.58,20.73,43.58,20.71,43.58z"/>
	<path class="st4" d="M20.71,41.62c-0.21,0-0.39-0.15-0.42-0.36c-0.04-0.23,0.12-0.45,0.36-0.48l39-5.99
		c0.23-0.03,0.45,0.12,0.48,0.36c0.04,0.23-0.12,0.45-0.36,0.48l-39,5.99C20.76,41.61,20.74,41.62,20.71,41.62z"/>
	<path class="st4" d="M20.71,39.65c-0.2,0-0.38-0.15-0.42-0.35c-0.04-0.23,0.11-0.45,0.35-0.49l39-6.79
		c0.24-0.04,0.45,0.11,0.49,0.35c0.04,0.23-0.11,0.45-0.35,0.49l-39,6.79C20.76,39.65,20.74,39.65,20.71,39.65z"/>
	<path class="st4" d="M20.71,37.69c-0.2,0-0.38-0.14-0.42-0.34c-0.04-0.23,0.11-0.45,0.34-0.5l39-7.59c0.24-0.05,0.45,0.11,0.5,0.34
		c0.04,0.23-0.11,0.45-0.34,0.5l-39,7.59C20.77,37.69,20.74,37.69,20.71,37.69z"/>
	<path class="st4" d="M20.71,35.72c-0.2,0-0.37-0.14-0.42-0.34c-0.05-0.23,0.1-0.46,0.33-0.5l39-8.39c0.23-0.05,0.46,0.1,0.51,0.33
		s-0.1,0.46-0.33,0.5l-39,8.39C20.77,35.72,20.74,35.72,20.71,35.72z"/>
	<path class="st4" d="M20.71,33.76c-0.19,0-0.37-0.13-0.41-0.33c-0.05-0.23,0.09-0.46,0.32-0.51l39-9.19
		c0.23-0.05,0.46,0.09,0.51,0.32s-0.09,0.46-0.32,0.51l-39,9.19C20.78,33.76,20.75,33.76,20.71,33.76z"/>
	<path class="st4" d="M20.71,31.8c-0.19,0-0.36-0.13-0.41-0.32c-0.06-0.23,0.08-0.46,0.31-0.52l39-9.99
		c0.23-0.06,0.46,0.08,0.52,0.31s-0.08,0.46-0.31,0.52l-39,9.99C20.79,31.79,20.75,31.8,20.71,31.8z"/>
	<path class="st4" d="M20.72,29.83c-0.19,0-0.36-0.12-0.41-0.31c-0.06-0.23,0.07-0.46,0.3-0.52l39-10.79
		c0.23-0.07,0.46,0.07,0.52,0.3s-0.07,0.46-0.3,0.52l-39,10.79C20.79,29.83,20.75,29.83,20.72,29.83z"/>
	<path class="st4" d="M20.72,27.87c-0.18,0-0.35-0.12-0.41-0.3c-0.07-0.23,0.06-0.46,0.29-0.53l39-11.58
		c0.22-0.06,0.46,0.06,0.53,0.29s-0.06,0.46-0.29,0.53l-39,11.58C20.8,27.86,20.76,27.87,20.72,27.87z"/>
	<path class="st4" d="M20.72,25.91c-0.18,0-0.35-0.12-0.41-0.3c-0.07-0.22,0.05-0.46,0.28-0.53l39-12.38
		c0.22-0.07,0.46,0.05,0.53,0.28c0.07,0.22-0.05,0.46-0.28,0.53l-39,12.38C20.8,25.9,20.76,25.91,20.72,25.91z"/>
</g>
<polygon class="st1" points="40.32,54.2 17.87,42.33 18.66,40.83 40.32,52.28 "/>
<radialGradient id="SVGID_1_" cx="-376.2631" cy="81.8198" r="6.1063" gradientTransform="matrix(0.6882 0 0 -1 333.9112 113.8898)" gradientUnits="userSpaceOnUse">
	<stop  offset="0" style="stop-color:#FFFFFF"/>
	<stop  offset="0.2124" style="stop-color:#FFFFFF;stop-opacity:0.9"/>
	<stop  offset="0.9758" style="stop-color:#FFFFFF;stop-opacity:0"/>
</radialGradient>
<ellipse class="st5" cx="74.94" cy="32.07" rx="4.2" ry="6.11"/>
<radialGradient id="SVGID_2_" cx="-376.2631" cy="58.4098" r="10.5685" gradientTransform="matrix(0.6882 0 0 -1 333.9112 113.8898)" gradientUnits="userSpaceOnUse">
	<stop  offset="0" style="stop-color:#FFFFFF"/>
	<stop  offset="0.2124" style="stop-color:#FFFFFF;stop-opacity:0.9"/>
	<stop  offset="0.9758" style="stop-color:#FFFFFF;stop-opacity:0"/>
</radialGradient>
<ellipse class="st6" cx="74.94" cy="55.48" rx="7.27" ry="10.57"/>
<radialGradient id="SVGID_3_" cx="-376.2631" cy="32.4098" r="6.1074" gradientTransform="matrix(0.6882 0 0 -1 333.9112 113.8898)" gradientUnits="userSpaceOnUse">
	<stop  offset="0" style="stop-color:#FFFFFF"/>
	<stop  offset="0.2124" style="stop-color:#FFFFFF;stop-opacity:0.9"/>
	<stop  offset="0.9758" style="stop-color:#FFFFFF;stop-opacity:0"/>
</radialGradient>
<ellipse class="st7" cx="74.94" cy="81.48" rx="4.2" ry="6.11"/>
</svg>
