<?xml version="1.0" encoding="utf-8"?>
<!-- Generator: Adobe Illustrator 23.0.3, SVG Export Plug-In . SVG Version: 6.00 Build 0)  -->
<svg version="1.1" id="Ebene_1" xmlns="http://www.w3.org/2000/svg" xmlns:xlink="http://www.w3.org/1999/xlink" x="0px" y="0px"
	 viewBox="0 0 113.39 113.39" style="enable-background:new 0 0 113.39 113.39;" xml:space="preserve">
<style type="text/css">
	.st0{fill:none;stroke:#FFFFFF;stroke-width:0.8504;stroke-linecap:round;stroke-miterlimit:10;}
	.st1{fill:url(#SVGID_1_);}
	.st2{fill:url(#SVGID_2_);}
	.st3{fill:url(#SVGID_3_);}
	.st4{fill:#FFFFFF;}
	.st5{fill:#A1DAF8;}
	.st6{fill:#009FE3;}
	.st7{clip-path:url(#SVGID_5_);fill:url(#SVGID_6_);}
	.st8{fill:none;}
</style>
<line class="st0" x1="10.22" y1="59.92" x2="59.44" y2="68.76"/>
<linearGradient id="SVGID_1_" gradientUnits="userSpaceOnUse" x1="18.4349" y1="59.738" x2="94.2927" y2="15.9415" gradientTransform="matrix(1 0 0 -1 0 113.8898)">
	<stop  offset="0.0831" style="stop-color:#D4EDFC"/>
	<stop  offset="0.4528" style="stop-color:#B3E0F9"/>
	<stop  offset="0.6781" style="stop-color:#A1DAF8"/>
	<stop  offset="0.702" style="stop-color:#9BD7F7"/>
	<stop  offset="0.899" style="stop-color:#62C7F2"/>
	<stop  offset="1" style="stop-color:#41C0F0"/>
</linearGradient>
<polygon class="st1" points="9.92,91.33 59.68,100.25 101.37,85.69 101.37,59.94 59.85,52.42 9.92,68.9 "/>
<radialGradient id="SVGID_2_" cx="56.34" cy="-1938.4772" r="48.9572" gradientTransform="matrix(1 0 0 -0.2512 0 -402.6646)" gradientUnits="userSpaceOnUse">
	<stop  offset="0.3698" style="stop-color:#FFFFFF"/>
	<stop  offset="1" style="stop-color:#FFFFFF;stop-opacity:0"/>
</radialGradient>
<ellipse class="st2" cx="56.34" cy="84.33" rx="48.96" ry="12.3"/>
<linearGradient id="SVGID_3_" gradientUnits="userSpaceOnUse" x1="58.1458" y1="25.6955" x2="52.1946" y2="93.7183" gradientTransform="matrix(1 0 0 -1 0 113.8898)">
	<stop  offset="0.1312" style="stop-color:#FFFFFF;stop-opacity:0.7"/>
	<stop  offset="0.3605" style="stop-color:#FFFFFF;stop-opacity:0"/>
	<stop  offset="0.7364" style="stop-color:#FFFFFF;stop-opacity:0"/>
	<stop  offset="0.7417" style="stop-color:#FFFFFF;stop-opacity:0"/>
</linearGradient>
<polygon class="st3" points="9.92,79.14 59.68,88.06 101.37,73.51 101.37,40.08 9.92,23.87 "/>
<g>
	<g>
		<g>
			<path d="M47.8,24.01c-0.05,0-0.11-0.01-0.16-0.03l-2.94-1.22c-0.22-0.09-0.32-0.34-0.23-0.56s0.34-0.32,0.56-0.23l2.94,1.22
				c0.22,0.09,0.32,0.34,0.23,0.56C48.13,23.91,47.97,24.01,47.8,24.01z"/>
			<path d="M52.82,19.06c-0.17,0-0.32-0.1-0.39-0.26l-1.25-2.99c-0.09-0.22,0.01-0.47,0.23-0.56s0.47,0.01,0.56,0.23l1.25,2.99
				c0.09,0.22-0.01,0.47-0.23,0.56C52.93,19.05,52.87,19.06,52.82,19.06z"/>
			<path d="M49.87,21.1c-0.11,0-0.22-0.04-0.3-0.12l-4.99-4.97c-0.17-0.17-0.17-0.43,0-0.6s0.43-0.17,0.6,0l4.99,4.97
				c0.17,0.17,0.17,0.43,0,0.6C50.09,21.05,49.98,21.1,49.87,21.1z"/>
		</g>
		<g>
			<path d="M64.87,24.01c-0.17,0-0.33-0.1-0.39-0.26c-0.09-0.22,0.01-0.47,0.23-0.56l2.94-1.22c0.22-0.09,0.47,0.01,0.56,0.23
				s-0.01,0.47-0.23,0.56l-2.94,1.22C64.98,24,64.92,24.01,64.87,24.01z"/>
			<path d="M59.85,19.06c-0.05,0-0.11-0.01-0.16-0.03c-0.22-0.09-0.32-0.34-0.23-0.56l1.25-2.99c0.09-0.22,0.34-0.32,0.56-0.23
				s0.32,0.34,0.23,0.56l-1.25,2.99C60.18,18.96,60.02,19.06,59.85,19.06z"/>
			<path d="M62.8,21.1c-0.11,0-0.22-0.04-0.3-0.13c-0.17-0.17-0.17-0.44,0-0.6l4.99-4.97c0.17-0.17,0.43-0.16,0.6,0
				c0.17,0.17,0.17,0.44,0,0.6l-4.99,4.97C63.02,21.05,62.91,21.1,62.8,21.1z"/>
		</g>
	</g>
	<g>
		<g>
			<path d="M44.86,32.27c-0.17,0-0.33-0.1-0.39-0.26c-0.09-0.22,0.01-0.47,0.23-0.56l2.94-1.22c0.22-0.09,0.47,0.01,0.56,0.23
				s-0.01,0.47-0.23,0.56l-2.94,1.22C44.97,32.26,44.91,32.27,44.86,32.27z"/>
			<path d="M51.57,39c-0.05,0-0.11-0.01-0.16-0.03c-0.22-0.09-0.32-0.34-0.23-0.56l1.25-2.99c0.09-0.22,0.34-0.32,0.56-0.23
				s0.32,0.34,0.23,0.56l-1.25,2.99C51.9,38.9,51.74,39,51.57,39z"/>
			<path d="M44.88,38.93c-0.11,0-0.22-0.04-0.3-0.13c-0.17-0.17-0.17-0.44,0-0.6l4.99-4.97c0.17-0.17,0.44-0.17,0.6,0
				c0.17,0.17,0.17,0.44,0,0.6l-4.99,4.97C45.1,38.89,44.99,38.93,44.88,38.93z"/>
		</g>
		<g>
			<path d="M67.81,32.27c-0.05,0-0.11-0.01-0.16-0.03l-2.94-1.22c-0.22-0.09-0.32-0.34-0.23-0.56s0.34-0.32,0.56-0.23l2.94,1.22
				c0.22,0.09,0.32,0.34,0.23,0.56C68.14,32.18,67.98,32.27,67.81,32.27z"/>
			<path d="M61.1,39c-0.17,0-0.32-0.1-0.39-0.26l-1.25-2.99c-0.09-0.22,0.01-0.47,0.23-0.56c0.21-0.09,0.46,0.01,0.56,0.23
				l1.25,2.99c0.09,0.22-0.01,0.47-0.23,0.56C61.21,38.99,61.15,39,61.1,39z"/>
			<path d="M67.79,38.93c-0.11,0-0.22-0.04-0.3-0.12l-4.99-4.97c-0.17-0.17-0.17-0.44,0-0.6c0.17-0.17,0.44-0.17,0.6,0l4.99,4.97
				c0.17,0.17,0.17,0.44,0,0.6C68.01,38.89,67.9,38.93,67.79,38.93z"/>
		</g>
	</g>
	<g>
		<path class="st4" d="M53.81,21.02c-3.37,1.39-4.97,5.27-3.58,8.63c1.39,3.37,5.27,4.97,8.63,3.57c3.37-1.39,4.97-5.27,3.58-8.63
			C61.04,21.23,57.17,19.63,53.81,21.02z"/>
		<path d="M56.34,34.16c-0.91,0-1.83-0.18-2.69-0.54c-1.74-0.72-3.09-2.07-3.81-3.8c-1.48-3.58,0.22-7.7,3.81-9.19l0,0
			c3.58-1.48,7.7,0.22,9.19,3.81c0.72,1.73,0.72,3.64,0,5.38s-2.07,3.09-3.8,3.81C58.16,33.98,57.25,34.16,56.34,34.16z
			 M53.97,21.42c-3.15,1.3-4.65,4.93-3.34,8.08c0.63,1.52,1.82,2.71,3.35,3.34s3.21,0.63,4.73,0s2.71-1.82,3.34-3.35
			s0.63-3.21,0-4.73C60.74,21.61,57.12,20.11,53.97,21.42L53.97,21.42z M53.81,21.02L53.81,21.02L53.81,21.02z"/>
	</g>
	<path d="M56.33,18.39c-0.23,0-0.43-0.19-0.43-0.43v-7.02c0-0.23,0.19-0.43,0.43-0.43s0.43,0.19,0.43,0.43v7.02
		C56.76,18.19,56.57,18.39,56.33,18.39z"/>
	<path d="M72.52,27.55H65.5c-0.23,0-0.42-0.19-0.42-0.43s0.19-0.43,0.42-0.43h7.02c0.23,0,0.42,0.19,0.42,0.43
		S72.76,27.55,72.52,27.55z"/>
	<path d="M40.15,27.55c-0.23,0-0.43-0.19-0.43-0.43s0.19-0.43,0.43-0.43h7.02c0.23,0,0.43,0.19,0.43,0.43s-0.19,0.43-0.43,0.43
		H40.15z"/>
</g>
<polygon class="st5" points="59.65,91.43 9.92,82.52 9.92,77.1 59.19,85.92 101.39,71.16 101.36,76.84 "/>
<path class="st4" d="M59.14,86.32c-0.18,0-0.34-0.11-0.4-0.29c-0.08-0.22,0.04-0.46,0.26-0.54l42.23-14.73
	c0.22-0.08,0.46,0.04,0.54,0.26s-0.04,0.46-0.26,0.54L59.28,86.3C59.23,86.32,59.18,86.32,59.14,86.32z"/>
<path class="st4" d="M59.14,86.32c-0.03,0-0.05,0-0.08-0.01L9.84,77.47c-0.23-0.04-0.38-0.26-0.34-0.49s0.26-0.38,0.49-0.34
	l49.22,8.84c0.23,0.04,0.38,0.26,0.34,0.49C59.52,86.18,59.34,86.32,59.14,86.32z"/>
<path class="st6" d="M59.75,92.68l-0.22-0.04L9.77,83.72C9.31,83.64,9,83.2,9.08,82.73c0.08-0.46,0.53-0.77,0.99-0.69l49.54,8.88
	l41.48-14.48c0.44-0.16,0.93,0.08,1.08,0.52c0.16,0.44-0.08,0.93-0.52,1.08L59.75,92.68z"/>
<path d="M59.71,100.69l-0.11-0.02L9.84,91.75c-0.23-0.04-0.38-0.26-0.34-0.49c0.04-0.23,0.26-0.38,0.49-0.34l49.65,8.9l41.59-14.52
	c0.22-0.08,0.46,0.04,0.54,0.26s-0.04,0.46-0.26,0.54L59.71,100.69z"/>
<g>
	<g>
		<defs>
			<polygon id="SVGID_4_" points="9.92,79.95 59.26,88.75 101.39,74.01 101.37,38.5 9.92,68.9 			"/>
		</defs>
		<clipPath id="SVGID_5_">
			<use xlink:href="#SVGID_4_"  style="overflow:visible;"/>
		</clipPath>
		
			<radialGradient id="SVGID_6_" cx="56.34" cy="-1875.3641" r="48.9572" gradientTransform="matrix(1 0 0 -0.2512 0 -402.6646)" gradientUnits="userSpaceOnUse">
			<stop  offset="0.3698" style="stop-color:#FFFFFF"/>
			<stop  offset="1" style="stop-color:#FFFFFF;stop-opacity:0"/>
		</radialGradient>
		<ellipse class="st7" cx="56.34" cy="68.47" rx="48.96" ry="12.3"/>
	</g>
</g>
<polygon class="st8" points="9.92,79.14 59.68,88.06 101.37,73.51 101.37,40.08 9.92,39.14 "/>
<g>
	<path class="st6" d="M56.33,67.78c-0.47,0-0.85-0.38-0.85-0.85V36.56c0-0.47,0.38-0.85,0.85-0.85s0.85,0.38,0.85,0.85v30.38
		C57.19,67.4,56.8,67.78,56.33,67.78z"/>
	<g>
		<polygon class="st6" points="49.38,61.3 50.62,60.14 56.33,66.28 62.04,60.14 63.29,61.3 56.33,68.78 		"/>
	</g>
</g>
</svg>
