<?xml version="1.0" encoding="utf-8"?>
<!-- Generator: Adobe Illustrator 23.0.3, SVG Export Plug-In . SVG Version: 6.00 Build 0)  -->
<svg version="1.1" id="Ebene_1" xmlns="http://www.w3.org/2000/svg" xmlns:xlink="http://www.w3.org/1999/xlink" x="0px" y="0px"
	 viewBox="0 0 113.39 113.39" style="enable-background:new 0 0 113.39 113.39;" xml:space="preserve">
<style type="text/css">
	.st0{fill:none;stroke:#FFFFFF;stroke-width:0.8504;stroke-linecap:round;stroke-miterlimit:10;}
	.st1{fill:url(#SVGID_1_);}
	.st2{fill:#FFFFFF;}
	.st3{fill:url(#SVGID_2_);}
	.st4{fill:url(#SVGID_3_);}
	.st5{fill:url(#SVGID_4_);}
	.st6{fill:url(#SVGID_5_);}
	.st7{fill:url(#SVGID_6_);}
	.st8{fill:#009FE3;}
	.st9{fill:#A1DAF8;}
</style>
<line class="st0" x1="10.22" y1="59.92" x2="59.44" y2="68.76"/>
<linearGradient id="SVGID_1_" gradientUnits="userSpaceOnUse" x1="17.6856" y1="64.5339" x2="96.872" y2="18.8156" gradientTransform="matrix(1 0 0 -1 0 113.8898)">
	<stop  offset="0.0831" style="stop-color:#D4EDFC"/>
	<stop  offset="0.4528" style="stop-color:#B3E0F9"/>
	<stop  offset="0.6781" style="stop-color:#A1DAF8"/>
	<stop  offset="0.702" style="stop-color:#9BD7F7"/>
	<stop  offset="0.899" style="stop-color:#62C7F2"/>
	<stop  offset="1" style="stop-color:#41C0F0"/>
</linearGradient>
<polygon class="st1" points="10.83,91.33 60.59,100.25 102.29,85.69 102.29,52.27 60.77,44.76 10.83,61.23 "/>
<g>
	<path class="st2" d="M61.8,97.57c-0.03,0-0.05,0-0.08-0.01l-50.38-9.03c-0.23-0.04-0.38-0.26-0.34-0.49
		c0.04-0.23,0.26-0.38,0.49-0.34l50.38,9.03c0.23,0.04,0.38,0.26,0.34,0.49C62.18,97.43,62,97.57,61.8,97.57z"/>
	<path class="st2" d="M67.67,95.52c-0.03,0-0.05,0-0.08-0.01L11.34,85.43c-0.23-0.04-0.38-0.26-0.34-0.49
		c0.04-0.23,0.26-0.38,0.49-0.34l56.25,10.08c0.23,0.04,0.38,0.26,0.34,0.49C68.05,95.37,67.87,95.52,67.67,95.52z"/>
	<path class="st2" d="M73.54,93.46c-0.02,0-0.05,0-0.08-0.01L11.34,82.32c-0.23-0.04-0.38-0.26-0.34-0.49
		c0.04-0.23,0.26-0.38,0.49-0.34l62.12,11.14c0.23,0.04,0.38,0.26,0.34,0.49C73.92,93.32,73.74,93.46,73.54,93.46z"/>
	<path class="st2" d="M79.41,91.4c-0.03,0-0.05,0-0.08-0.01L11.34,79.21c-0.23-0.04-0.38-0.26-0.34-0.49
		c0.04-0.23,0.26-0.38,0.49-0.34l67.99,12.19c0.23,0.04,0.38,0.26,0.34,0.49C79.79,91.26,79.62,91.4,79.41,91.4z"/>
	<path class="st2" d="M85.29,89.35c-0.03,0-0.05,0-0.08-0.01L11.34,76.1c-0.23-0.04-0.38-0.26-0.34-0.49
		c0.04-0.23,0.26-0.38,0.49-0.34L85.36,88.5c0.23,0.04,0.38,0.26,0.34,0.49C85.67,89.2,85.49,89.35,85.29,89.35z"/>
	<path class="st2" d="M91.16,87.29c-0.02,0-0.05,0-0.08-0.01L11.34,72.99c-0.23-0.04-0.38-0.26-0.34-0.49
		c0.04-0.23,0.26-0.38,0.49-0.34l79.74,14.29c0.23,0.04,0.38,0.26,0.34,0.49C91.54,87.15,91.36,87.29,91.16,87.29z"/>
	<path class="st2" d="M97.03,85.24c-0.03,0-0.05,0-0.08-0.01L11.34,69.88c-0.23-0.04-0.38-0.26-0.34-0.49
		c0.04-0.23,0.26-0.38,0.49-0.34L97.1,84.4c0.23,0.04,0.38,0.26,0.34,0.49C97.41,85.09,97.23,85.24,97.03,85.24z"/>
	<path class="st2" d="M102.29,83.07c-0.02,0-0.05,0-0.08-0.01L11.34,66.77c-0.23-0.04-0.38-0.26-0.34-0.49
		c0.04-0.23,0.26-0.38,0.49-0.34l90.87,16.29c0.23,0.04,0.38,0.26,0.34,0.49C102.67,82.92,102.49,83.07,102.29,83.07z"/>
	<path class="st2" d="M102.31,79.96c-0.03,0-0.05,0-0.08-0.01L11.34,63.66c-0.23-0.04-0.38-0.26-0.34-0.49
		c0.04-0.23,0.26-0.38,0.49-0.34l90.89,16.29c0.23,0.04,0.38,0.26,0.34,0.49C102.69,79.82,102.51,79.96,102.31,79.96z"/>
	<path class="st2" d="M102.29,76.85c-0.03,0-0.05,0-0.08-0.01L16.89,61.55c-0.23-0.04-0.38-0.26-0.34-0.49
		c0.04-0.23,0.26-0.38,0.49-0.34l85.32,15.29c0.23,0.04,0.38,0.26,0.34,0.49C102.67,76.71,102.49,76.85,102.29,76.85z"/>
	<path class="st2" d="M102.29,73.74c-0.02,0-0.05,0-0.08-0.01l-79.22-14.2c-0.23-0.04-0.38-0.26-0.34-0.49s0.27-0.38,0.49-0.34
		l79.22,14.2c0.23,0.04,0.38,0.26,0.34,0.49C102.67,73.6,102.49,73.74,102.29,73.74z"/>
	<path class="st2" d="M102.29,70.63c-0.03,0-0.05,0-0.08-0.01L29.1,57.52c-0.23-0.04-0.38-0.26-0.34-0.49
		c0.04-0.23,0.26-0.38,0.49-0.34l73.11,13.11c0.23,0.04,0.38,0.26,0.34,0.49C102.67,70.49,102.49,70.63,102.29,70.63z"/>
	<path class="st2" d="M102.31,67.53c-0.02,0-0.05,0-0.08-0.01L35.21,55.5c-0.23-0.04-0.38-0.26-0.34-0.49
		c0.04-0.23,0.27-0.38,0.49-0.34l67.03,12.02c0.23,0.04,0.38,0.26,0.34,0.49C102.69,67.38,102.51,67.53,102.31,67.53z"/>
	<path class="st2" d="M102.31,64.42c-0.03,0-0.05,0-0.08-0.01L41.31,53.49c-0.23-0.04-0.38-0.26-0.34-0.49
		c0.04-0.23,0.26-0.38,0.49-0.34l60.92,10.92c0.23,0.04,0.38,0.26,0.34,0.49C102.69,64.27,102.51,64.42,102.31,64.42z"/>
	<path class="st2" d="M102.29,61.3c-0.03,0-0.05,0-0.08-0.01l-54.79-9.82c-0.23-0.04-0.38-0.26-0.34-0.49
		c0.04-0.23,0.27-0.38,0.49-0.34l54.79,9.82c0.23,0.04,0.38,0.26,0.34,0.49C102.67,61.16,102.49,61.3,102.29,61.3z"/>
	<path class="st2" d="M102.29,58.2c-0.02,0-0.05,0-0.08-0.01l-48.55-8.7c-0.23-0.04-0.38-0.26-0.34-0.49
		c0.04-0.23,0.26-0.38,0.49-0.34l48.55,8.7c0.23,0.04,0.38,0.26,0.34,0.49C102.67,58.05,102.49,58.2,102.29,58.2z"/>
	<path class="st2" d="M102.31,55.09c-0.03,0-0.05,0-0.08-0.01l-42.6-7.64c-0.23-0.04-0.38-0.26-0.34-0.49
		c0.04-0.23,0.26-0.38,0.49-0.34l42.6,7.64c0.23,0.04,0.38,0.26,0.34,0.49C102.69,54.95,102.51,55.09,102.31,55.09z"/>
</g>
<polygon class="st2" points="46.86,94.52 41.3,93.53 102.29,72.24 102.31,75.17 "/>
<polygon class="st2" points="10.83,75.27 10.83,72.4 75.44,49.85 81,50.84 "/>
<linearGradient id="SVGID_2_" gradientUnits="userSpaceOnUse" x1="56.57" y1="35.5798" x2="56.57" y2="96.6098" gradientTransform="matrix(1 0 0 -1 0 113.8898)">
	<stop  offset="0.0654" style="stop-color:#AFDFF9"/>
	<stop  offset="0.1353" style="stop-color:#B6E2FA;stop-opacity:0.9106"/>
	<stop  offset="0.2374" style="stop-color:#CAE9FB;stop-opacity:0.7798"/>
	<stop  offset="0.3586" style="stop-color:#E6F5FE;stop-opacity:0.6246"/>
	<stop  offset="0.456" style="stop-color:#FFFFFF;stop-opacity:0.5"/>
	<stop  offset="0.6457" style="stop-color:#FFFFFF;stop-opacity:0"/>
	<stop  offset="0.9989" style="stop-color:#FFFFFF;stop-opacity:0"/>
</linearGradient>
<polygon class="st3" points="10.83,69.51 60.18,78.31 102.31,63.58 102.29,17.28 10.83,17.28 "/>
<radialGradient id="SVGID_3_" cx="57.25" cy="-1894.7411" r="26.1103" gradientTransform="matrix(1 0 0 -0.2512 0 -402.6646)" gradientUnits="userSpaceOnUse">
	<stop  offset="0.3698" style="stop-color:#FFFFFF"/>
	<stop  offset="1" style="stop-color:#FFFFFF;stop-opacity:0"/>
</radialGradient>
<ellipse class="st4" cx="57.25" cy="73.34" rx="26.11" ry="6.56"/>
<radialGradient id="SVGID_4_" cx="57.25" cy="-1318.7894" r="24.4161" gradientTransform="matrix(1 0 0 -0.3318 0 -347.3544)" gradientUnits="userSpaceOnUse">
	<stop  offset="0.3698" style="stop-color:#FFFFFF"/>
	<stop  offset="1" style="stop-color:#FFFFFF;stop-opacity:0"/>
</radialGradient>
<ellipse class="st5" cx="57.25" cy="90.22" rx="24.42" ry="8.1"/>
<radialGradient id="SVGID_5_" cx="36.61" cy="-1314.8112" r="19.3244" gradientTransform="matrix(1 0 0 -0.3318 0 -347.3544)" gradientUnits="userSpaceOnUse">
	<stop  offset="0.3698" style="stop-color:#FFFFFF"/>
	<stop  offset="1" style="stop-color:#FFFFFF;stop-opacity:0"/>
</radialGradient>
<ellipse class="st6" cx="36.61" cy="88.9" rx="19.33" ry="6.41"/>
<radialGradient id="SVGID_6_" cx="80.65" cy="-1301.7913" r="19.3446" gradientTransform="matrix(1 0 0 -0.3318 0 -347.3544)" gradientUnits="userSpaceOnUse">
	<stop  offset="0.3698" style="stop-color:#FFFFFF"/>
	<stop  offset="1" style="stop-color:#FFFFFF;stop-opacity:0"/>
</radialGradient>
<ellipse class="st7" cx="80.65" cy="84.58" rx="19.33" ry="6.41"/>
<g>
	<path class="st8" d="M57.25,71.55c-0.47,0-0.85-0.38-0.85-0.85V36.56c0-0.47,0.38-0.85,0.85-0.85s0.85,0.38,0.85,0.85V70.7
		C58.1,71.17,57.72,71.55,57.25,71.55z"/>
	<g>
		<polygon class="st8" points="50.29,65.06 51.54,63.9 57.25,70.04 62.96,63.9 64.21,65.06 57.25,72.54 		"/>
	</g>
</g>
<g>
	<g>
		<g>
			<path d="M48.72,24.01c-0.05,0-0.11-0.01-0.16-0.03l-2.94-1.22c-0.22-0.09-0.32-0.34-0.23-0.56s0.34-0.32,0.56-0.23l2.94,1.22
				c0.22,0.09,0.32,0.34,0.23,0.56C49.04,23.91,48.88,24.01,48.72,24.01z"/>
			<path d="M53.73,19.06c-0.17,0-0.32-0.1-0.39-0.26l-1.24-3c-0.09-0.22,0.01-0.47,0.23-0.56s0.47,0.01,0.56,0.23l1.25,2.99
				c0.09,0.22-0.01,0.47-0.23,0.56C53.84,19.05,53.79,19.06,53.73,19.06z"/>
			<path d="M50.78,21.1c-0.11,0-0.22-0.04-0.3-0.12l-4.99-4.97c-0.17-0.17-0.17-0.43,0-0.6s0.43-0.17,0.6,0l4.99,4.97
				c0.17,0.17,0.17,0.43,0,0.6C51,21.05,50.89,21.1,50.78,21.1z"/>
		</g>
		<g>
			<path d="M65.78,24.01c-0.17,0-0.33-0.1-0.39-0.26c-0.09-0.22,0.01-0.47,0.23-0.56l2.95-1.22c0.22-0.09,0.47,0.01,0.56,0.23
				s-0.01,0.47-0.23,0.56l-2.95,1.22C65.89,24,65.84,24.01,65.78,24.01z"/>
			<path d="M60.77,19.06c-0.05,0-0.11-0.01-0.16-0.03c-0.22-0.09-0.32-0.34-0.23-0.56l1.25-2.99c0.09-0.22,0.34-0.32,0.56-0.23
				s0.32,0.34,0.23,0.56l-1.25,2.99C61.09,18.96,60.93,19.06,60.77,19.06z"/>
			<path d="M63.72,21.1c-0.11,0-0.22-0.04-0.3-0.13c-0.17-0.17-0.17-0.44,0-0.6l4.99-4.97c0.17-0.17,0.43-0.16,0.6,0
				c0.17,0.17,0.17,0.44,0,0.6l-4.99,4.97C63.93,21.05,63.83,21.1,63.72,21.1z"/>
		</g>
	</g>
	<g>
		<g>
			<path d="M45.77,32.27c-0.17,0-0.33-0.1-0.39-0.26c-0.09-0.22,0.01-0.47,0.23-0.56l2.94-1.22c0.22-0.09,0.47,0.01,0.56,0.23
				s-0.01,0.47-0.23,0.56l-2.94,1.22C45.88,32.26,45.83,32.27,45.77,32.27z"/>
			<path d="M52.49,39c-0.05,0-0.11-0.01-0.16-0.03c-0.22-0.09-0.32-0.34-0.23-0.56l1.25-2.99c0.09-0.22,0.34-0.32,0.56-0.23
				s0.32,0.34,0.23,0.56l-1.25,2.99C52.81,38.9,52.65,39,52.49,39z"/>
			<path d="M45.8,38.93c-0.11,0-0.22-0.04-0.3-0.13c-0.17-0.17-0.17-0.44,0-0.6l4.99-4.97c0.17-0.17,0.44-0.17,0.6,0
				c0.17,0.17,0.17,0.44,0,0.6L46.1,38.8C46.01,38.89,45.9,38.93,45.8,38.93z"/>
		</g>
		<g>
			<path d="M68.73,32.27c-0.05,0-0.11-0.01-0.16-0.03l-2.95-1.22c-0.22-0.09-0.32-0.34-0.23-0.56s0.34-0.32,0.56-0.23l2.95,1.22
				c0.22,0.09,0.32,0.34,0.23,0.56C69.05,32.18,68.9,32.27,68.73,32.27z"/>
			<path d="M62.01,39c-0.17,0-0.32-0.1-0.39-0.26l-1.25-2.99c-0.09-0.22,0.01-0.47,0.23-0.56c0.21-0.09,0.46,0.01,0.56,0.23
				l1.25,2.99c0.09,0.22-0.01,0.47-0.23,0.56C62.12,38.99,62.07,39,62.01,39z"/>
			<path d="M68.71,38.93c-0.11,0-0.22-0.04-0.3-0.12l-4.99-4.97c-0.17-0.17-0.17-0.44,0-0.6c0.17-0.17,0.43-0.17,0.6,0L69,38.21
				c0.17,0.17,0.17,0.44,0,0.6C68.92,38.89,68.81,38.93,68.71,38.93z"/>
		</g>
	</g>
	<g>
		<path class="st2" d="M54.72,21.02c-3.37,1.39-4.97,5.27-3.58,8.63c1.39,3.37,5.27,4.97,8.63,3.57c3.37-1.39,4.97-5.27,3.58-8.63
			S58.09,19.63,54.72,21.02z"/>
		<path d="M57.26,34.16c-0.91,0-1.83-0.18-2.69-0.54c-1.74-0.72-3.09-2.07-3.81-3.8c-1.48-3.58,0.22-7.7,3.81-9.19l0,0
			c3.58-1.48,7.7,0.22,9.19,3.81c0.72,1.73,0.72,3.64,0,5.38c-0.72,1.74-2.07,3.09-3.8,3.81C59.08,33.98,58.17,34.16,57.26,34.16z
			 M57.24,20.94c-0.79,0-1.59,0.15-2.36,0.47l0,0c-3.15,1.3-4.65,4.93-3.34,8.08c0.63,1.52,1.82,2.71,3.35,3.34
			c1.53,0.63,3.21,0.63,4.73,0s2.71-1.82,3.34-3.35s0.63-3.21,0-4.73C61.98,22.38,59.67,20.94,57.24,20.94z M54.72,21.02
			L54.72,21.02L54.72,21.02z"/>
	</g>
	<path d="M57.25,18.39c-0.23,0-0.43-0.19-0.43-0.43v-7.02c0-0.23,0.19-0.43,0.43-0.43s0.43,0.19,0.43,0.43v7.02
		C57.68,18.19,57.49,18.39,57.25,18.39z"/>
	<path d="M73.44,27.55h-7.02c-0.23,0-0.42-0.19-0.42-0.43s0.19-0.43,0.42-0.43h7.02c0.23,0,0.42,0.19,0.42,0.43
		S73.67,27.55,73.44,27.55z"/>
	<path d="M41.06,27.55c-0.23,0-0.43-0.19-0.43-0.43s0.19-0.43,0.43-0.43h7.02c0.23,0,0.43,0.19,0.43,0.43s-0.19,0.43-0.43,0.43
		H41.06z"/>
</g>
<g>
	<path d="M48.72,90.01c-0.12,0-0.24-0.05-0.32-0.15l-6.54-7.64l-8.19,7.52c-0.17,0.16-0.44,0.15-0.6-0.03
		c-0.16-0.17-0.15-0.44,0.03-0.6l8.52-7.82c0.08-0.08,0.2-0.11,0.31-0.11c0.11,0.01,0.22,0.06,0.3,0.15l6.55,7.65l6.45-5.51
		c0.18-0.15,0.45-0.13,0.6,0.05c0.15,0.18,0.13,0.45-0.05,0.6l-6.77,5.79C48.91,89.98,48.82,90.01,48.72,90.01z"/>
	<g>
		<polygon points="33.1,84.96 33.95,85.03 33.61,89.21 37.81,89.23 37.8,90.08 32.69,90.05 		"/>
	</g>
</g>
<g>
	<path d="M68.71,89.35c-0.11,0-0.22-0.04-0.3-0.13l-4.99-5.09c-0.16-0.17-0.16-0.44,0.01-0.6s0.44-0.16,0.6,0.01l4.63,4.73l6.6-9.17
		c0.12-0.17,0.36-0.23,0.54-0.13l9.02,4.81c0.21,0.11,0.29,0.37,0.17,0.58c-0.11,0.21-0.37,0.29-0.58,0.17l-8.69-4.63l-6.67,9.28
		c-0.07,0.1-0.19,0.17-0.31,0.18C68.73,89.35,68.72,89.35,68.71,89.35z"/>
	<g>
		<polygon points="80.49,85.89 80.27,85.07 84.33,84 82.96,80.03 83.76,79.76 85.43,84.58 		"/>
	</g>
</g>
<polygon class="st9" points="60.57,84.18 10.83,75.27 10.83,69.51 60.1,78.33 102.31,63.58 102.27,69.59 "/>
<path class="st2" d="M60.05,78.3c-0.18,0-0.34-0.11-0.4-0.29c-0.08-0.22,0.04-0.46,0.26-0.54l42.23-14.73
	c0.22-0.08,0.46,0.04,0.54,0.26c0.08,0.22-0.04,0.46-0.26,0.54L60.19,78.28C60.15,78.29,60.1,78.3,60.05,78.3z"/>
<path class="st2" d="M60.05,78.3c-0.03,0-0.05,0-0.08-0.01l-49.22-8.84c-0.23-0.04-0.38-0.26-0.34-0.49
	c0.04-0.23,0.26-0.38,0.49-0.34l49.22,8.84c0.23,0.04,0.38,0.26,0.34,0.49C60.43,78.16,60.25,78.3,60.05,78.3z"/>
<path class="st8" d="M60.66,85.46l-0.22-0.04L10.68,76.5c-0.46-0.08-0.77-0.52-0.69-0.99c0.08-0.46,0.53-0.77,0.99-0.69l49.54,8.88
	L102,69.22c0.44-0.15,0.93,0.08,1.08,0.52c0.16,0.44-0.08,0.93-0.52,1.08L60.66,85.46z"/>
<path d="M60.63,100.69l-0.11-0.02l-49.76-8.92c-0.23-0.04-0.38-0.26-0.34-0.49s0.26-0.38,0.49-0.34l49.65,8.9l41.59-14.52
	c0.22-0.08,0.46,0.04,0.54,0.26s-0.04,0.46-0.26,0.54L60.63,100.69z"/>
</svg>
