<svg xmlns="http://www.w3.org/2000/svg" xmlns:xlink="http://www.w3.org/1999/xlink" viewBox="0 0 113.39 113.39"><defs><style>.cls-1{isolation:isolate;}.cls-2{fill:url(#Unbenannter_Verlauf_6);}.cls-3{opacity:0.5;}.cls-10,.cls-11,.cls-12,.cls-13,.cls-14,.cls-15,.cls-16,.cls-17,.cls-18,.cls-19,.cls-20,.cls-21,.cls-22,.cls-23,.cls-24,.cls-25,.cls-26,.cls-27,.cls-28,.cls-29,.cls-3,.cls-30,.cls-4,.cls-5,.cls-6,.cls-7,.cls-8,.cls-9{mix-blend-mode:multiply;}.cls-10,.cls-11,.cls-12,.cls-13,.cls-14,.cls-15,.cls-16,.cls-17,.cls-18,.cls-19,.cls-20,.cls-21,.cls-22,.cls-23,.cls-24,.cls-25,.cls-26,.cls-27,.cls-28,.cls-29,.cls-30,.cls-4,.cls-5,.cls-6,.cls-7,.cls-8,.cls-9{opacity:0.4;}.cls-4{fill:url(#Unbenannter_Verlauf_156);}.cls-5{fill:url(#Unbenannter_Verlauf_156-2);}.cls-6{fill:url(#Unbenannter_Verlauf_156-3);}.cls-7{fill:url(#Unbenannter_Verlauf_156-4);}.cls-8{fill:url(#Unbenannter_Verlauf_156-5);}.cls-9{fill:url(#Unbenannter_Verlauf_156-6);}.cls-10{fill:url(#Unbenannter_Verlauf_156-7);}.cls-11{fill:url(#Unbenannter_Verlauf_156-8);}.cls-12{fill:url(#Unbenannter_Verlauf_156-9);}.cls-13{fill:url(#Unbenannter_Verlauf_156-10);}.cls-14{fill:url(#Unbenannter_Verlauf_156-11);}.cls-15{fill:url(#Unbenannter_Verlauf_156-12);}.cls-16{fill:url(#Unbenannter_Verlauf_156-13);}.cls-17{fill:url(#Unbenannter_Verlauf_156-14);}.cls-18{fill:url(#Unbenannter_Verlauf_156-15);}.cls-19{fill:url(#Unbenannter_Verlauf_156-16);}.cls-20{fill:url(#Unbenannter_Verlauf_156-17);}.cls-21{fill:url(#Unbenannter_Verlauf_156-18);}.cls-22{fill:url(#Unbenannter_Verlauf_156-19);}.cls-23{fill:url(#Unbenannter_Verlauf_156-20);}.cls-24{fill:url(#Unbenannter_Verlauf_156-21);}.cls-25{fill:url(#Unbenannter_Verlauf_156-22);}.cls-26{fill:url(#Unbenannter_Verlauf_156-23);}.cls-27{fill:url(#Unbenannter_Verlauf_156-24);}.cls-28{fill:url(#Unbenannter_Verlauf_60);}.cls-29{fill:url(#Unbenannter_Verlauf_62);}.cls-30{fill:url(#Unbenannter_Verlauf_65);}.cls-31{fill:url(#Unbenannter_Verlauf_161);}</style><linearGradient id="Unbenannter_Verlauf_6" x1="3650.66" y1="415.91" x2="3574.42" y2="415.91" gradientTransform="translate(467.59 -3549.58) rotate(90)" gradientUnits="userSpaceOnUse"><stop offset="0" stop-color="#7ebeed"/><stop offset="0.04" stop-color="#73bbec" stop-opacity="0.98"/><stop offset="0.1" stop-color="#54b3e9" stop-opacity="0.92"/><stop offset="0.18" stop-color="#24a7e5" stop-opacity="0.84"/><stop offset="0.21" stop-color="#0fa2e3" stop-opacity="0.8"/><stop offset="0.32" stop-color="#0fa2e3" stop-opacity="0.72"/><stop offset="0.54" stop-color="#0fa2e3" stop-opacity="0.52"/><stop offset="0.85" stop-color="#0fa2e3" stop-opacity="0.21"/><stop offset="0.94" stop-color="#0fa2e3" stop-opacity="0.1"/></linearGradient><linearGradient id="Unbenannter_Verlauf_156" x1="3582.74" y1="379.6" x2="3582.74" y2="397.33" gradientTransform="translate(467.59 -3549.58) rotate(90)" gradientUnits="userSpaceOnUse"><stop offset="0" stop-color="#a7b7c7"/><stop offset="0.07" stop-color="#a7b7c7" stop-opacity="0.94"/><stop offset="0.19" stop-color="#a7b7c7" stop-opacity="0.8"/><stop offset="0.31" stop-color="#a7b7c7" stop-opacity="0.71"/><stop offset="0.55" stop-color="#a7b7c7" stop-opacity="0.49"/><stop offset="0.88" stop-color="#a7b7c7" stop-opacity="0.12"/><stop offset="0.94" stop-color="#a7b7c7" stop-opacity="0.05"/></linearGradient><linearGradient id="Unbenannter_Verlauf_156-2" x1="3594.55" y1="382.78" x2="3594.55" y2="399.54" xlink:href="#Unbenannter_Verlauf_156"/><linearGradient id="Unbenannter_Verlauf_156-3" x1="3606.52" y1="384.61" x2="3606.52" y2="400.39" xlink:href="#Unbenannter_Verlauf_156"/><linearGradient id="Unbenannter_Verlauf_156-4" x1="3618.56" y1="384.61" x2="3618.56" y2="400.39" xlink:href="#Unbenannter_Verlauf_156"/><linearGradient id="Unbenannter_Verlauf_156-5" x1="3630.53" y1="382.78" x2="3630.53" y2="399.54" xlink:href="#Unbenannter_Verlauf_156"/><linearGradient id="Unbenannter_Verlauf_156-6" x1="3642.34" y1="379.6" x2="3642.34" y2="397.33" xlink:href="#Unbenannter_Verlauf_156"/><linearGradient id="Unbenannter_Verlauf_156-7" x1="3582.74" y1="397.36" x2="3582.74" y2="415.09" xlink:href="#Unbenannter_Verlauf_156"/><linearGradient id="Unbenannter_Verlauf_156-8" x1="3594.55" y1="400.53" x2="3594.55" y2="417.29" xlink:href="#Unbenannter_Verlauf_156"/><linearGradient id="Unbenannter_Verlauf_156-9" x1="3606.52" y1="402.37" x2="3606.52" y2="418.15" xlink:href="#Unbenannter_Verlauf_156"/><linearGradient id="Unbenannter_Verlauf_156-10" x1="3618.56" y1="402.37" x2="3618.56" y2="418.15" xlink:href="#Unbenannter_Verlauf_156"/><linearGradient id="Unbenannter_Verlauf_156-11" x1="3630.53" y1="400.53" x2="3630.53" y2="417.29" xlink:href="#Unbenannter_Verlauf_156"/><linearGradient id="Unbenannter_Verlauf_156-12" x1="3642.34" y1="397.36" x2="3642.34" y2="415.09" xlink:href="#Unbenannter_Verlauf_156"/><linearGradient id="Unbenannter_Verlauf_156-13" x1="3582.74" y1="415.11" x2="3582.74" y2="432.84" xlink:href="#Unbenannter_Verlauf_156"/><linearGradient id="Unbenannter_Verlauf_156-14" x1="3594.55" y1="418.29" x2="3594.55" y2="435.04" xlink:href="#Unbenannter_Verlauf_156"/><linearGradient id="Unbenannter_Verlauf_156-15" x1="3606.52" y1="420.12" x2="3606.52" y2="435.9" xlink:href="#Unbenannter_Verlauf_156"/><linearGradient id="Unbenannter_Verlauf_156-16" x1="3618.56" y1="420.12" x2="3618.56" y2="435.9" xlink:href="#Unbenannter_Verlauf_156"/><linearGradient id="Unbenannter_Verlauf_156-17" x1="3630.53" y1="418.29" x2="3630.53" y2="435.04" xlink:href="#Unbenannter_Verlauf_156"/><linearGradient id="Unbenannter_Verlauf_156-18" x1="3642.34" y1="415.11" x2="3642.34" y2="432.84" xlink:href="#Unbenannter_Verlauf_156"/><linearGradient id="Unbenannter_Verlauf_156-19" x1="3582.74" y1="432.86" x2="3582.74" y2="450.6" xlink:href="#Unbenannter_Verlauf_156"/><linearGradient id="Unbenannter_Verlauf_156-20" x1="3594.55" y1="436.04" x2="3594.55" y2="452.8" xlink:href="#Unbenannter_Verlauf_156"/><linearGradient id="Unbenannter_Verlauf_156-21" x1="3606.52" y1="437.88" x2="3606.52" y2="453.65" xlink:href="#Unbenannter_Verlauf_156"/><linearGradient id="Unbenannter_Verlauf_156-22" x1="3618.56" y1="437.88" x2="3618.56" y2="453.65" xlink:href="#Unbenannter_Verlauf_156"/><linearGradient id="Unbenannter_Verlauf_156-23" x1="3630.53" y1="436.04" x2="3630.53" y2="452.8" xlink:href="#Unbenannter_Verlauf_156"/><linearGradient id="Unbenannter_Verlauf_156-24" x1="3642.34" y1="432.86" x2="3642.34" y2="450.6" xlink:href="#Unbenannter_Verlauf_156"/><linearGradient id="Unbenannter_Verlauf_60" x1="3635.62" y1="363.52" x2="3635.62" y2="404.74" gradientTransform="translate(467.59 -3549.58) rotate(90)" gradientUnits="userSpaceOnUse"><stop offset="0" stop-color="#7ebeed"/><stop offset="0.19" stop-color="#7ebeed"/><stop offset="0.32" stop-color="#8fc7ef"/><stop offset="0.59" stop-color="#bddef6"/><stop offset="0.94" stop-color="#fff"/></linearGradient><linearGradient id="Unbenannter_Verlauf_62" x1="3599.5" y1="371.83" x2="3599.5" y2="411.25" xlink:href="#Unbenannter_Verlauf_60"/><linearGradient id="Unbenannter_Verlauf_65" x1="3623.74" y1="422.34" x2="3623.74" y2="461.43" gradientTransform="translate(467.59 -3549.58) rotate(90)" gradientUnits="userSpaceOnUse"><stop offset="0" stop-color="#7ebeed"/><stop offset="0.19" stop-color="#7ebeed"/><stop offset="0.27" stop-color="#7ebeed" stop-opacity="0.93"/><stop offset="0.43" stop-color="#7ebeed" stop-opacity="0.74"/><stop offset="0.66" stop-color="#7ebeed" stop-opacity="0.43"/><stop offset="0.94" stop-color="#7ebeed" stop-opacity="0.01"/><stop offset="0.94" stop-color="#7ebeed" stop-opacity="0"/></linearGradient><radialGradient id="Unbenannter_Verlauf_161" cx="70.62" cy="44.96" r="31.66" gradientUnits="userSpaceOnUse"><stop offset="0" stop-color="#fff"/><stop offset="0.13" stop-color="#fff" stop-opacity="0.9"/><stop offset="0.63" stop-color="#fff" stop-opacity="0.28"/><stop offset="0.87" stop-color="#fff" stop-opacity="0"/></radialGradient></defs><g class="cls-1"><g id="Verlauf_1"><path class="cls-2" d="M17,101.07a107.84,107.84,0,0,1,0-76.23H93.28a107.74,107.74,0,0,0,0,76.23Z"/></g><g id="Ebene_4" data-name="Ebene 4"><g class="cls-3"><path class="cls-4" d="M70.26,37.4q1-4.27,2.44-8.48H88q-1.41,4.2-2.44,8.48Z"/><path class="cls-5" d="M68.05,49.29c.37-2.9.86-5.79,1.47-8.65H84.81c-.61,2.86-1.1,5.75-1.47,8.65Z"/><path class="cls-6" d="M67.2,61.3q.06-4.36.48-8.73H83q-.42,4.36-.48,8.73Z"/><path class="cls-7" d="M67.68,73.34q-.42-4.36-.48-8.73H82.49q.06,4.36.48,8.73Z"/><path class="cls-8" d="M69.52,85.27c-.61-2.86-1.1-5.75-1.47-8.65H83.34c.37,2.9.86,5.79,1.47,8.65Z"/><path class="cls-9" d="M72.7,97q-1.41-4.2-2.44-8.48H85.55q1,4.27,2.44,8.48Z"/><path class="cls-10" d="M52.5,37.4q1.05-4.27,2.44-8.48H70.23q-1.4,4.2-2.44,8.48Z"/><path class="cls-11" d="M50.3,49.29c.37-2.9.86-5.79,1.46-8.65H67.05c-.6,2.86-1.09,5.75-1.46,8.65Z"/><path class="cls-12" d="M49.44,61.3q.08-4.36.49-8.73H65.22q-.42,4.36-.49,8.73Z"/><path class="cls-13" d="M49.93,73.34q-.42-4.36-.49-8.73H64.73q.08,4.36.49,8.73Z"/><path class="cls-14" d="M51.76,85.27c-.6-2.86-1.09-5.75-1.46-8.65H65.59c.37,2.9.86,5.79,1.46,8.65Z"/><path class="cls-15" d="M54.94,97q-1.39-4.2-2.44-8.48H67.79q1,4.27,2.44,8.48Z"/><path class="cls-16" d="M34.75,37.4c.69-2.85,1.51-5.68,2.44-8.48H52.48c-.93,2.8-1.75,5.63-2.44,8.48Z"/><path class="cls-17" d="M32.54,49.29c.37-2.9.86-5.79,1.47-8.65H49.3c-.61,2.86-1.1,5.75-1.47,8.65Z"/><path class="cls-18" d="M31.69,61.3q.06-4.36.49-8.73H47.47c-.28,2.91-.45,5.82-.49,8.73Z"/><path class="cls-19" d="M32.18,73.34q-.43-4.36-.49-8.73H47c0,2.91.21,5.82.49,8.73Z"/><path class="cls-20" d="M34,85.27c-.61-2.86-1.1-5.75-1.47-8.65H47.83c.37,2.9.86,5.79,1.47,8.65Z"/><path class="cls-21" d="M37.19,97c-.93-2.8-1.75-5.63-2.44-8.48H50c.69,2.85,1.51,5.68,2.44,8.48Z"/><path class="cls-22" d="M17,37.4q1.05-4.27,2.44-8.48H34.72q-1.39,4.2-2.44,8.48Z"/><path class="cls-23" d="M14.79,49.29c.37-2.9.86-5.79,1.47-8.65H31.55c-.61,2.86-1.1,5.75-1.47,8.65Z"/><path class="cls-24" d="M13.93,61.3q.08-4.36.49-8.73H29.71q-.42,4.36-.49,8.73Z"/><path class="cls-25" d="M14.42,73.34Q14,69,13.93,64.61H29.22q.08,4.36.49,8.73Z"/><path class="cls-26" d="M16.26,85.27c-.61-2.86-1.1-5.75-1.47-8.65H30.08c.37,2.9.86,5.79,1.47,8.65Z"/><path class="cls-27" d="M19.43,97Q18,92.79,17,88.51H32.28q1,4.27,2.44,8.48Z"/></g></g><g id="Ebene_2" data-name="Ebene 2"><path class="cls-28" d="M67,95.45a108.51,108.51,0,0,1-4.15-18.83H99.93a107.56,107.56,0,0,0,4.14,18.83Z"/><path class="cls-29" d="M56.34,59.44a108.61,108.61,0,0,1,2.33-19.06H95.76a107.68,107.68,0,0,0-2.33,19.06Z"/><path class="cls-30" d="M8.16,83.7a108.68,108.68,0,0,1-2-19.09H43.25a106.81,106.81,0,0,0,2,19.09Z"/></g><g id="Verlauf_2"><circle class="cls-31" cx="70.62" cy="44.96" r="31.66"/></g></g></svg>