<?xml version="1.0" encoding="utf-8"?>
<!-- Generator: Adobe Illustrator 24.3.0, SVG Export Plug-In . SVG Version: 6.00 Build 0)  -->
<svg version="1.1" id="Ebene_2" xmlns="http://www.w3.org/2000/svg" xmlns:xlink="http://www.w3.org/1999/xlink" x="0px" y="0px"
	 viewBox="0 0 113.39 113.39" style="enable-background:new 0 0 113.39 113.39;" xml:space="preserve">
<style type="text/css">
	.st0{fill:url(#SVGID_1_);}
	.st1{fill:url(#SVGID_2_);}
	.st2{fill:url(#SVGID_3_);}
	.st3{fill:url(#SVGID_4_);}
	.st4{fill:url(#SVGID_5_);}
	.st5{fill:url(#SVGID_6_);}
	.st6{opacity:0.2;fill:none;stroke:#FFFFFF;stroke-width:0.8504;stroke-miterlimit:10;}
	.st7{fill:none;stroke:#0FA1E2;stroke-width:1.7008;stroke-linecap:round;stroke-miterlimit:10;}
	.st8{fill:none;stroke:#0FA1E2;stroke-width:1.7008;stroke-linecap:round;stroke-miterlimit:10;stroke-dasharray:0,4.2074;}
	.st9{fill:none;stroke:#FFFFFF;stroke-width:1.7008;stroke-linecap:round;stroke-miterlimit:10;}
	.st10{fill:none;stroke:#FFFFFF;stroke-width:1.7008;stroke-linecap:round;stroke-miterlimit:10;stroke-dasharray:0,3.8846;}
	.st11{opacity:0.4;fill:none;stroke:#FFFFFF;stroke-width:0.8504;stroke-miterlimit:10;}
	.st12{fill:none;stroke:#1B1B19;stroke-width:0.8504;stroke-miterlimit:10;}
</style>
<linearGradient id="SVGID_1_" gradientUnits="userSpaceOnUse" x1="18.5769" y1="56.693" x2="60.6577" y2="56.693">
	<stop  offset="8.288478e-07" style="stop-color:#0FA1E2"/>
	<stop  offset="0.0862" style="stop-color:#1BA6E3"/>
	<stop  offset="0.241" style="stop-color:#3AB2E7"/>
	<stop  offset="0.4466" style="stop-color:#6DC6ED"/>
	<stop  offset="0.6941" style="stop-color:#B2E1F6"/>
	<stop  offset="0.9416" style="stop-color:#FFFFFF"/>
</linearGradient>
<rect x="18.58" y="18.58" class="st0" width="42.08" height="76.23"/>
<linearGradient id="SVGID_2_" gradientUnits="userSpaceOnUse" x1="43.1067" y1="56.693" x2="94.809" y2="56.693">
	<stop  offset="0.1675" style="stop-color:#FFFFFF"/>
	<stop  offset="1" style="stop-color:#BEDBF6"/>
</linearGradient>
<path class="st1" d="M55.8,94.81c0,0-0.11-6.22-3.73-13.53c-3.34-6.74-8.96-15.13-8.96-24.59s5.62-17.85,8.96-24.59
	c3.62-7.31,3.73-13.53,3.73-13.53h39c0,0,0,22.51,0,38.12s0,38.12,0,38.12H55.8z"/>
<radialGradient id="SVGID_3_" cx="56.527" cy="56.6929" r="24.8433" gradientUnits="userSpaceOnUse">
	<stop  offset="0.3237" style="stop-color:#FFFFFF"/>
	<stop  offset="0.8736" style="stop-color:#FFFFFF;stop-opacity:0"/>
</radialGradient>
<circle class="st2" cx="56.53" cy="56.69" r="24.84"/>
<linearGradient id="SVGID_4_" gradientUnits="userSpaceOnUse" x1="5050.7534" y1="56.6929" x2="5071.9995" y2="56.6929" gradientTransform="matrix(-1 0 0 1 5132.6343 0)">
	<stop  offset="0.056" style="stop-color:#FFFFFF;stop-opacity:0.7"/>
	<stop  offset="1" style="stop-color:#95C7F0"/>
</linearGradient>
<path class="st3" d="M73.22,94.81c0,0,0.09-6.22,2.91-13.53c2.6-6.74,5.76-15.13,5.76-24.59s-3.15-17.85-5.76-24.59
	c-2.82-7.31-2.91-13.53-2.91-13.53H60.63c0,0,0.02,11.09,0.02,38.12s-0.02,38.12-0.02,38.12H73.22z"/>
<linearGradient id="SVGID_5_" gradientUnits="userSpaceOnUse" x1="58.6753" y1="18.5763" x2="58.6753" y2="94.8097">
	<stop  offset="0.0923" style="stop-color:#FFFFFF"/>
	<stop  offset="0.766" style="stop-color:#BEDBF6"/>
	<stop  offset="1" style="stop-color:#A0C4E3"/>
</linearGradient>
<rect x="56.69" y="18.58" class="st4" width="3.96" height="76.23"/>
<linearGradient id="SVGID_6_" gradientUnits="userSpaceOnUse" x1="43.9956" y1="56.693" x2="56.6929" y2="56.693">
	<stop  offset="0.1672" style="stop-color:#FFFFFF"/>
	<stop  offset="1" style="stop-color:#BEDBF6"/>
</linearGradient>
<path class="st5" d="M56.69,94.81c0,0-0.11-6.22-3.73-13.53C49.62,74.55,44,66.16,44,56.69s5.62-17.85,8.96-24.59
	c3.62-7.31,3.73-13.53,3.73-13.53l0,0c0,0,0,22.51,0,38.12S56.69,94.81,56.69,94.81L56.69,94.81z"/>
<path class="st6" d="M56.69,81.7c-13.81,0-25.01-11.2-25.01-25.01s11.2-25.01,25.01-25.01"/>
<g>
	<g>
		<line class="st7" x1="45.66" y1="56.69" x2="45.66" y2="56.69"/>
		<line class="st8" x1="49.87" y1="56.69" x2="89.84" y2="56.69"/>
		<line class="st7" x1="91.94" y1="56.69" x2="91.94" y2="56.69"/>
	</g>
</g>
<g>
	<g>
		<line class="st9" x1="21.25" y1="56.69" x2="21.25" y2="56.69"/>
		<line class="st10" x1="25.13" y1="56.69" x2="38.73" y2="56.69"/>
		<line class="st9" x1="40.67" y1="56.69" x2="40.67" y2="56.69"/>
	</g>
</g>
<circle class="st11" cx="56.69" cy="56.69" r="29.3"/>
<path class="st12" d="M68.72,11.63c-3.84-1.02-7.87-1.57-12.03-1.57c-4.28,0-8.42,0.59-12.36,1.67"/>
<path class="st12" d="M101.89,68.23c0.94-3.69,1.44-7.56,1.44-11.54c0-4.46-0.64-8.77-1.81-12.85"/>
<path class="st12" d="M44.33,101.67c3.94,1.08,8.08,1.67,12.36,1.67c4.16,0,8.19-0.55,12.03-1.57"/>
<path class="st12" d="M11.86,43.84c-1.17,4.08-1.81,8.39-1.81,12.85c0,3.98,0.5,7.85,1.44,11.54"/>
</svg>
