<svg id="Ebene_2" data-name="Ebene 2" xmlns="http://www.w3.org/2000/svg" xmlns:xlink="http://www.w3.org/1999/xlink" viewBox="0 0 113.39 113.39"><defs><style>.cls-1{fill:url(#Unbenannter_Verlauf_9);}.cls-2{fill:url(#Unbenannter_Verlauf_134);}.cls-3{fill:#0fa2e3;opacity:0.6;}.cls-20,.cls-4,.cls-5{fill:none;stroke:#1b1b19;stroke-linecap:round;stroke-miterlimit:10;}.cls-4{stroke-width:1.7px;}.cls-5{stroke-width:0.85px;}.cls-6{fill:#cbcbcb;}.cls-7{fill:#a4a4a3;}.cls-8{fill:url(#Neues_Verlaufsfeld_2);}.cls-9{fill:url(#Neues_Verlaufsfeld_2-2);}.cls-10{fill:url(#Neues_Verlaufsfeld_2-3);}.cls-11{fill:url(#Neues_Verlaufsfeld_2-4);}.cls-12{fill:url(#Neues_Verlaufsfeld_2-5);}.cls-13{fill:url(#Neues_Verlaufsfeld_2-6);}.cls-14{fill:url(#Unbenannter_Verlauf_41);}.cls-15{fill:#ddd;}.cls-16{fill:url(#Neues_Verlaufsfeld_2-7);}.cls-17{fill:url(#Unbenannter_Verlauf_62);}.cls-18{fill:url(#Unbenannter_Verlauf_58);}.cls-19{fill:url(#Unbenannter_Verlauf_41-2);}.cls-20{stroke-width:0.82px;}.cls-21{fill:url(#Neues_Verlaufsfeld_2-8);}.cls-22{fill:url(#Neues_Verlaufsfeld_2-9);}.cls-23{fill:url(#Neues_Verlaufsfeld_2-10);}.cls-24{fill:url(#Neues_Verlaufsfeld_2-11);}</style><linearGradient id="Unbenannter_Verlauf_9" x1="57.66" y1="84.64" x2="57.66" y2="19.34" gradientUnits="userSpaceOnUse"><stop offset="0.39" stop-color="#fff"/><stop offset="0.8" stop-color="#0fa2e3" stop-opacity="0.6"/><stop offset="1" stop-color="#0fa2e3"/></linearGradient><linearGradient id="Unbenannter_Verlauf_134" x1="10.96" y1="81.64" x2="102.41" y2="81.64" gradientUnits="userSpaceOnUse"><stop offset="0.08" stop-color="#f1f7fd"/><stop offset="0.24" stop-color="#e6edf4"/><stop offset="0.53" stop-color="#d6dee6"/><stop offset="0.54" stop-color="#d2dae2"/><stop offset="0.62" stop-color="#b5bdc4"/><stop offset="0.7" stop-color="#9ea5ad"/><stop offset="0.78" stop-color="#8e959c"/><stop offset="0.88" stop-color="#848b92"/><stop offset="1" stop-color="#81888f"/></linearGradient><linearGradient id="Neues_Verlaufsfeld_2" x1="-56" y1="-21.54" x2="-51.59" y2="-21.54" gradientTransform="translate(74.27 92.94)" gradientUnits="userSpaceOnUse"><stop offset="0" stop-color="gray"/><stop offset="1" stop-color="#fff"/></linearGradient><linearGradient id="Neues_Verlaufsfeld_2-2" x1="54.49" y1="61.6" x2="58.9" y2="61.6" gradientTransform="matrix(1, 0, 0, 1, 0, 0)" xlink:href="#Neues_Verlaufsfeld_2"/><linearGradient id="Neues_Verlaufsfeld_2-3" x1="90.96" y1="67.09" x2="95.37" y2="67.09" gradientTransform="matrix(1, 0, 0, 1, 0, 0)" xlink:href="#Neues_Verlaufsfeld_2"/><linearGradient id="Neues_Verlaufsfeld_2-4" x1="56.98" y1="77.31" x2="61.38" y2="77.31" gradientTransform="matrix(1, 0, 0, 1, 0, 0)" xlink:href="#Neues_Verlaufsfeld_2"/><linearGradient id="Neues_Verlaufsfeld_2-5" x1="38.45" y1="69.94" x2="76.3" y2="69.94" gradientTransform="matrix(1, 0, 0, 1, 0, 0)" xlink:href="#Neues_Verlaufsfeld_2"/><linearGradient id="Neues_Verlaufsfeld_2-6" x1="40.45" y1="69.94" x2="74.3" y2="69.94" gradientTransform="matrix(1, 0, 0, 1, 0, 0)" xlink:href="#Neues_Verlaufsfeld_2"/><linearGradient id="Unbenannter_Verlauf_41" x1="39.89" y1="75.83" x2="39.14" y2="73.77" gradientUnits="userSpaceOnUse"><stop offset="0.08" stop-color="#fff"/><stop offset="0.39" stop-color="#e4e4e4"/><stop offset="0.63" stop-color="#d4d4d4"/><stop offset="0.98" stop-color="#aeaeae"/></linearGradient><linearGradient id="Neues_Verlaufsfeld_2-7" x1="56.68" y1="50.43" x2="56.68" y2="32.2" gradientTransform="matrix(1, 0, 0, 1, 0, 0)" xlink:href="#Neues_Verlaufsfeld_2"/><linearGradient id="Unbenannter_Verlauf_62" x1="10.96" y1="48.13" x2="102.41" y2="48.13" gradientUnits="userSpaceOnUse"><stop offset="0.08" stop-color="#e8e8e7"/><stop offset="0.71" stop-color="#e8e8e7"/><stop offset="0.71" stop-color="#e4e4e3"/><stop offset="0.76" stop-color="#c6c6c5"/><stop offset="0.81" stop-color="#afafae"/><stop offset="0.86" stop-color="#9e9e9d"/><stop offset="0.92" stop-color="#949493"/><stop offset="1" stop-color="#919190"/></linearGradient><linearGradient id="Unbenannter_Verlauf_58" x1="60.72" y1="48.13" x2="102.41" y2="48.13" gradientUnits="userSpaceOnUse"><stop offset="0.04" stop-color="#c2c2c2"/><stop offset="0.09" stop-color="#c4c4c4"/><stop offset="0.92" stop-color="#e8e8e7"/></linearGradient><linearGradient id="Unbenannter_Verlauf_41-2" x1="35.41" y1="52.41" x2="35.67" y2="53.36" xlink:href="#Unbenannter_Verlauf_41"/><linearGradient id="Neues_Verlaufsfeld_2-8" x1="-54.42" y1="-50.39" x2="-50.02" y2="-50.39" gradientTransform="translate(73.13 92.45) rotate(-0.49)" xlink:href="#Neues_Verlaufsfeld_2"/><linearGradient id="Neues_Verlaufsfeld_2-9" x1="54.49" y1="34.08" x2="58.9" y2="34.08" gradientTransform="matrix(1, 0, 0, 1, 0, 0)" xlink:href="#Neues_Verlaufsfeld_2"/><linearGradient id="Neues_Verlaufsfeld_2-10" x1="90.96" y1="38.72" x2="95.37" y2="38.72" gradientTransform="matrix(1, 0, 0, 1, 0, 0)" xlink:href="#Neues_Verlaufsfeld_2"/><linearGradient id="Neues_Verlaufsfeld_2-11" x1="56.98" y1="47.96" x2="61.38" y2="47.96" gradientTransform="matrix(1, 0, 0, 1, 0, 0)" xlink:href="#Neues_Verlaufsfeld_2"/></defs><rect class="cls-1" x="19.54" y="19.34" width="76.23" height="65.3"/><polygon class="cls-2" points="10.96 94.21 60.72 103.13 102.41 88.57 102.41 66.73 56.35 60.15 10.96 71.91 10.96 94.21"/><polygon class="cls-3" points="60.69 86.49 10.96 78.15 10.96 71.91 60.22 79.41 102.43 66.73 102.4 72.75 60.69 86.49"/><polyline class="cls-4" points="10.96 78.54 60.72 86.89 102.41 73.19"/><polyline class="cls-5" points="10.96 94.21 60.72 103.13 102.41 88.57"/><polygon class="cls-6" points="25.23 70.9 56.4 62.77 88.05 67.48 59.71 75.77 25.23 70.9"/><polygon class="cls-7" points="56.4 63.61 86.14 68.04 88.05 67.48 56.4 62.77 25.23 70.9 27.32 71.19 56.4 63.61"/><ellipse class="cls-8" cx="20.48" cy="71.4" rx="2.2" ry="0.7" transform="translate(-3.86 1.22) rotate(-3.13)"/><ellipse class="cls-9" cx="56.69" cy="61.6" rx="2.2" ry="0.7"/><ellipse class="cls-10" cx="93.17" cy="67.09" rx="2.2" ry="0.7"/><ellipse class="cls-11" cx="59.18" cy="77.31" rx="2.2" ry="0.7"/><path class="cls-12" d="M57.54,73.87c-10.44.43-19-1-19.09-3.16S46.78,66.43,57.22,66s19,1,19.08,3.16S68,73.44,57.54,73.87Zm-.32-7.74c-10.1.41-18.24,2.46-18.16,4.56s8.37,3.47,18.47,3,18.25-2.46,18.16-4.55S67.32,65.72,57.22,66.13Z"/><path class="cls-13" d="M57.23,66.42c-9.35.38-16.86,2.27-16.78,4.21s7.72,3.21,17.07,2.82,16.86-2.26,16.78-4.21S66.58,66,57.23,66.42Zm14.08,2.14c.56,0,1,0,1,.16s-.45.22-1,.24-1,0-1-.16S70.75,68.59,71.31,68.56Zm-5,.41c0-.11.45-.22,1-.24s1,0,1,.15-.45.22-1,.24S66.3,69.08,66.3,69Zm0,.58c0,.1-.45.21-1,.24s-1-.05-1-.16.45-.22,1-.24S66.35,69.44,66.35,69.55Zm-1-.93c-.57,0-1,0-1-.15s.45-.22,1-.24,1,0,1,.15S65.88,68.6,65.32,68.62Zm-1,.43c0,.11-.45.21-1,.24s-1-.05-1-.16.45-.22,1-.24S64.33,68.94,64.34,69.05Zm-10,1c0,.11-.45.21-1,.24s-1,0-1-.16.45-.22,1-.24S54.35,69.93,54.35,70Zm-.05-.58c0-.11.45-.22,1-.24s1,0,1,.15-.45.22-1,.24S54.31,69.57,54.3,69.46Zm1,.92c.56,0,1,.05,1,.16s-.45.21-1,.24-1,0-1-.16S54.77,70.4,55.34,70.38Zm1-.42c0-.11.45-.22,1-.24s1,0,1,.15-.45.22-1,.24S56.32,70.07,56.31,70Zm2-.67c0-.11.45-.21,1-.24s1,0,1,.16-.45.22-1,.24S58.3,69.4,58.3,69.29Zm1,.92c.56,0,1,.05,1,.16s-.45.22-1,.24-1,0-1-.15S58.77,70.24,59.34,70.21Zm1-.42c0-.11.45-.21,1-.24s1,0,1,.16-.45.22-1,.24S60.32,69.9,60.31,69.79Zm1-1c-.57,0-1-.05-1-.16s.45-.22,1-.24,1,0,1,.16S61.88,68.76,61.32,68.79Zm-2-.5c-.56,0-1-.05-1-.16s.44-.21,1-.24,1,0,1,.16S59.87,68.27,59.3,68.29Zm-1,.42c0,.11-.45.22-1,.24s-1,0-1-.16.45-.21,1-.24S58.32,68.6,58.33,68.71Zm-3-.26c-.56,0-1,0-1-.15s.45-.22,1-.24,1,0,1,.15S55.87,68.43,55.3,68.45Zm-1,.43c0,.1-.45.21-1,.24s-1-.05-1-.16.45-.22,1-.24S54.32,68.77,54.33,68.88Zm-2,.66c0,.11-.45.21-1,.24s-1,0-1-.16.45-.22,1-.24S52.33,69.43,52.34,69.54Zm-2,.66c0,.11-.45.22-1,.24s-1,0-1-.16.45-.21,1-.24S50.35,70.09,50.35,70.2Zm-1-.92c-.57,0-1,0-1-.16s.45-.21,1-.24,1,.05,1,.16S49.88,69.26,49.32,69.28Zm-1,.42c0,.11-.45.22-1,.24s-1,0-1-.15.45-.22,1-.25S48.34,69.59,48.34,69.7Zm-2,.66c0,.11-.45.22-1,.24s-1,0-1-.15.45-.22,1-.24S46.35,70.25,46.35,70.36Zm1,.35c.56,0,1,0,1,.15s-.44.22-1,.24-1,0-1-.15S46.77,70.73,47.34,70.71Zm2,.5c.56,0,1,0,1,.15s-.45.22-1,.24-1,0-1-.15S48.79,71.23,49.35,71.21Zm1-.43c0-.11.45-.21,1-.24s1,0,1,.16-.45.22-1,.24S50.33,70.89,50.32,70.78Zm3,.26c.56,0,1,0,1,.16s-.45.22-1,.24-1,0-1-.16S52.79,71.06,53.35,71Zm2,.5c.56,0,1,0,1,.16s-.45.21-1,.24-1,0-1-.16S54.8,71.56,55.36,71.54Zm1-.42c0-.11.44-.22,1-.24s1,0,1,.15-.45.22-1,.24S56.34,71.23,56.34,71.12Zm3,.26c.56,0,1,0,1,.15s-.45.22-1,.24-1,0-1-.15S58.8,71.4,59.36,71.38Zm1-.43c0-.11.44-.21,1-.24s1,.05,1,.16-.44.22-1,.24S60.34,71.06,60.34,71Zm2-.66c0-.11.45-.22,1-.24s1,0,1,.16-.45.22-1,.24S62.33,70.4,62.32,70.29Zm3,.26c.56,0,1,0,1,.16s-.44.21-1,.24-1,0-1-.16S64.78,70.57,65.35,70.55Zm1-.42c0-.11.45-.22,1-.24s1,0,1,.15-.45.22-1,.24S66.33,70.24,66.32,70.13Zm2-.67c0-.1.45-.21,1-.24s1,0,1,.16-.45.22-1,.24S68.32,69.57,68.31,69.46Zm1-1.4c.56,0,1,0,1,.16s-.45.22-1,.24-1,0-1-.16S68.74,68.09,69.3,68.06Zm-2-.5c.56,0,1,0,1,.16s-.44.22-1,.24-1,0-1-.16S66.72,67.59,67.29,67.56Zm-2-.49c.56,0,1,0,1,.15s-.45.22-1,.24-1,0-1-.15S64.71,67.09,65.28,67.07Zm-2,.66c.56,0,1,0,1,.15s-.44.22-1,.25-1,0-1-.16S62.72,67.75,63.29,67.73Zm-2-.5c.56,0,1,0,1,.16s-.45.21-1,.24-1,0-1-.16S60.71,67.25,61.28,67.23Zm-2-.5c.57,0,1,0,1,.16s-.45.21-1,.24-1,0-1-.16S58.7,66.75,59.26,66.73Zm-2,.66c.56,0,1,0,1,.16s-.45.22-1,.24-1-.05-1-.16S56.71,67.42,57.28,67.39Zm-2-.5c.57,0,1,0,1,.16s-.45.22-1,.24-1-.05-1-.16S54.7,66.92,55.26,66.89Zm-2,.67c.56,0,1,0,1,.15s-.45.22-1,.24-1,0-1-.15S52.71,67.58,53.28,67.56Zm-2,.66c.56,0,1,0,1,.16s-.45.21-1,.24-1-.05-1-.16S50.73,68.24,51.29,68.22Zm-2-.5c.56,0,1,0,1,.16s-.44.21-1,.24-1-.05-1-.16S48.71,67.74,49.28,67.72Zm-2,.66c.56,0,1,.05,1,.16s-.45.22-1,.24-1,0-1-.16S46.73,68.41,47.29,68.38Zm-2,.67c.56,0,1,0,1,.15s-.45.22-1,.24-1,0-1-.15S44.74,69.07,45.3,69.05Zm-2,.66c.57,0,1,.05,1,.16s-.45.21-1,.24-1,0-1-.16S42.75,69.73,43.31,69.71Zm0,1.56c-.56,0-1,0-1-.16s.44-.22,1-.24,1,0,1,.16S43.92,71.24,43.35,71.27Zm2,.5c-.56,0-1,0-1-.16s.45-.22,1-.24,1,0,1,.16S45.93,71.74,45.36,71.77Zm2,.49c-.57,0-1,0-1-.15s.45-.22,1-.24,1,0,1,.15S47.94,72.24,47.38,72.26Zm2,.5c-.56,0-1,0-1-.15s.45-.22,1-.24,1,0,1,.15S50,72.74,49.39,72.76Zm2-.66c-.57,0-1,0-1-.16s.45-.21,1-.24,1,0,1,.16S51.94,72.08,51.38,72.1Zm2,.5c-.56,0-1,0-1-.16s.45-.21,1-.24,1,0,1,.16S54,72.58,53.39,72.6Zm2.13.5c-.56,0-1,0-1-.16s.45-.22,1-.24,1,0,1,.15S56.08,73.07,55.52,73.1Zm1.87-.66c-.57,0-1,0-1-.16s.45-.22,1-.24,1,0,1,.16S58,72.41,57.39,72.44Zm2.13.49c-.56,0-1-.05-1-.16s.45-.21,1-.24,1,0,1,.16S60.08,72.91,59.52,72.93Zm1.87-.66c-.57,0-1,0-1-.15s.45-.22,1-.24,1,0,1,.15S62,72.25,61.39,72.27Zm2-.66c-.56,0-1,0-1-.16s.45-.21,1-.24,1,.05,1,.16S63.94,71.59,63.37,71.61Zm2,.5c-.57,0-1,0-1-.16s.45-.22,1-.24,1,.05,1,.16S66,72.09,65.39,72.11Zm2-.66c-.56,0-1,0-1-.16s.45-.22,1-.24,1,0,1,.16S67.94,71.42,67.37,71.45Zm2-.67c-.56,0-1,0-1-.15s.44-.22,1-.24,1,0,1,.15S69.92,70.76,69.36,70.78Zm2-.66c-.56,0-1-.05-1-.16s.45-.21,1-.24,1,0,1,.16S71.91,70.1,71.35,70.12Z"/><path class="cls-14" d="M42.35,73.31l-7.93,2.17c0,.07,0,.13,0,.2a1.48,1.48,0,0,0,1.33,1.59,1.45,1.45,0,0,0,1.32-1.39l7.57-2.24Z"/><path class="cls-6" d="M42.35,73.31h0a1,1,0,0,0,0,.17,1.55,1.55,0,0,0,.24.76l2.05-.6Z"/><path class="cls-15" d="M37.12,60.81m-2.79-.35"/><polygon class="cls-16" points="102.41 38.27 60.72 50.43 10.96 43.04 56.35 32.2 102.41 38.27"/><path class="cls-17" d="M60.72,50.43,11,43v6.73l23.37,3.86.08,0a1.36,1.36,0,1,1,2.72.15,1.09,1.09,0,0,1,0,.18v.11L60.72,58l41.69-13.41V38.27Z"/><polygon class="cls-18" points="102.41 44.58 102.41 38.27 60.72 50.43 60.72 57.99 102.41 44.58"/><path class="cls-19" d="M36.91,53a1.35,1.35,0,0,0-1.16-.66,1.41,1.41,0,0,0-1.34,1.29h0Z"/><polyline class="cls-20" points="10.96 43.04 60.72 50.43 102.41 38.27"/><ellipse class="cls-21" cx="20.48" cy="42.51" rx="2.2" ry="0.6" transform="translate(-1.93 0.98) rotate(-2.63)"/><ellipse class="cls-22" cx="56.69" cy="34.08" rx="2.2" ry="0.6"/><ellipse class="cls-23" cx="93.17" cy="38.72" rx="2.2" ry="0.6"/><ellipse class="cls-24" cx="59.18" cy="47.96" rx="2.2" ry="0.6"/></svg>